G04 #@! TF.GenerationSoftware,KiCad,Pcbnew,(5.1.2-1)-1*
G04 #@! TF.CreationDate,2019-08-23T13:21:54-04:00*
G04 #@! TF.ProjectId,PCB_V1.2,5043425f-5631-42e3-922e-6b696361645f,rev?*
G04 #@! TF.SameCoordinates,Original*
G04 #@! TF.FileFunction,Legend,Top*
G04 #@! TF.FilePolarity,Positive*
%FSLAX46Y46*%
G04 Gerber Fmt 4.6, Leading zero omitted, Abs format (unit mm)*
G04 Created by KiCad (PCBNEW (5.1.2-1)-1) date 2019-08-23 13:21:54*
%MOMM*%
%LPD*%
G04 APERTURE LIST*
%ADD10C,0.120000*%
%ADD11C,0.300000*%
%ADD12C,0.060000*%
%ADD13C,0.150000*%
%ADD14C,0.142240*%
%ADD15C,0.203200*%
%ADD16C,0.127000*%
%ADD17C,0.152400*%
%ADD18C,0.100000*%
%ADD19C,0.080000*%
%ADD20C,0.080234*%
%ADD21C,0.050000*%
%ADD22C,0.081280*%
%ADD23C,0.032512*%
%ADD24C,0.101600*%
%ADD25C,0.075000*%
G04 APERTURE END LIST*
D10*
X169550000Y-109150000D02*
X171050000Y-109150000D01*
X171050000Y-108650000D02*
X171050000Y-109150000D01*
X171050000Y-105950000D02*
X171050000Y-106950000D01*
X169450000Y-105950000D02*
X171050000Y-105950000D01*
X167900000Y-108900000D02*
X167900000Y-106550000D01*
X169450000Y-108900000D02*
X167900000Y-108900000D01*
X169450000Y-105600000D02*
X169450000Y-109100000D01*
X169450000Y-105600000D02*
X167950000Y-105600000D01*
X195150000Y-108450000D02*
X195150000Y-108250000D01*
X193350000Y-108450000D02*
X195150000Y-108450000D01*
X193350000Y-105150000D02*
X193350000Y-108450000D01*
X195100000Y-105150000D02*
X193350000Y-105150000D01*
X195100000Y-105550000D02*
X195100000Y-105150000D01*
X186150000Y-103400000D02*
X186150000Y-102150000D01*
X188800000Y-103400000D02*
X186150000Y-103400000D01*
X189400000Y-102150000D02*
X189400000Y-101600000D01*
X186000000Y-102150000D02*
X189400000Y-102150000D01*
X186000000Y-100600000D02*
X186000000Y-102150000D01*
X189400000Y-100600000D02*
X186000000Y-100600000D01*
X158550000Y-121300000D02*
X159350000Y-121300000D01*
X158550000Y-121250000D02*
X158550000Y-121300000D01*
X158550000Y-119850000D02*
X158550000Y-121250000D01*
X161100000Y-119850000D02*
X158550000Y-119850000D01*
X161100000Y-121300000D02*
X161100000Y-119850000D01*
X160450000Y-121300000D02*
X161100000Y-121300000D01*
X174250000Y-106750000D02*
X172800000Y-106750000D01*
X174250000Y-109200000D02*
X174250000Y-106750000D01*
X172800000Y-109200000D02*
X174250000Y-109200000D01*
X172800000Y-106750000D02*
X172800000Y-109200000D01*
X172350000Y-110850000D02*
X172950000Y-110850000D01*
X172350000Y-109350000D02*
X172350000Y-110850000D01*
X174800000Y-109350000D02*
X172350000Y-109350000D01*
X174800000Y-110850000D02*
X174000000Y-110850000D01*
X174800000Y-109350000D02*
X174800000Y-110850000D01*
X177900000Y-106550000D02*
X176800000Y-106550000D01*
X177900000Y-108050000D02*
X177900000Y-106600000D01*
X174550000Y-108050000D02*
X177900000Y-108050000D01*
X174550000Y-106550000D02*
X174550000Y-108050000D01*
X175300000Y-106550000D02*
X174550000Y-106550000D01*
X176450000Y-109600000D02*
X176450000Y-111950000D01*
X177800000Y-109600000D02*
X177800000Y-110300000D01*
X177800000Y-112000000D02*
X177800000Y-111400000D01*
X175200000Y-112000000D02*
X177800000Y-112000000D01*
X175100000Y-109600000D02*
X175100000Y-111300000D01*
X177800000Y-109600000D02*
X175100000Y-109600000D01*
X158200000Y-105900000D02*
X161500000Y-105900000D01*
X158200000Y-107500000D02*
X158200000Y-105900000D01*
X161700000Y-107500000D02*
X158200000Y-107500000D01*
X161700000Y-106700000D02*
X161700000Y-107500000D01*
X162500000Y-109800000D02*
X162500000Y-107400000D01*
X163800000Y-109800000D02*
X162500000Y-109800000D01*
X163800000Y-107500000D02*
X163800000Y-109800000D01*
X194100000Y-112800000D02*
X192900000Y-112800000D01*
X194100000Y-113500000D02*
X194100000Y-112800000D01*
X194100000Y-115400000D02*
X194100000Y-115000000D01*
X192900000Y-115400000D02*
X194100000Y-115400000D01*
X192900000Y-112800000D02*
X192900000Y-115400000D01*
X192800000Y-115400000D02*
X191700000Y-115400000D01*
X192800000Y-112800000D02*
X192800000Y-115400000D01*
X191600000Y-112800000D02*
X192800000Y-112800000D01*
X191600000Y-114100000D02*
X191600000Y-112800000D01*
X157900000Y-118100000D02*
X157900000Y-115500000D01*
X159700000Y-118100000D02*
X158000000Y-118100000D01*
X163100000Y-118100000D02*
X161000000Y-118100000D01*
X163100000Y-115500000D02*
X163100000Y-118100000D01*
X158000000Y-115500000D02*
X163100000Y-115500000D01*
X165200000Y-118300000D02*
X165200000Y-119900000D01*
X163600000Y-118300000D02*
X165200000Y-118300000D01*
X163600000Y-121600000D02*
X165000000Y-121600000D01*
X163600000Y-118300000D02*
X163600000Y-121600000D01*
X163300000Y-118700000D02*
X162200000Y-118700000D01*
X163300000Y-121300000D02*
X163300000Y-118700000D01*
X162000000Y-121300000D02*
X163300000Y-121300000D01*
X162000000Y-120200000D02*
X162000000Y-121200000D01*
X161100000Y-118300000D02*
X160800000Y-118300000D01*
X161100000Y-118500000D02*
X161100000Y-118300000D01*
X158600000Y-118300000D02*
X159700000Y-118300000D01*
X158600000Y-119700000D02*
X158600000Y-118300000D01*
X161100000Y-119700000D02*
X158600000Y-119700000D01*
X161100000Y-118500000D02*
X161100000Y-119700000D01*
X165700000Y-110600000D02*
X164300000Y-110600000D01*
X165700000Y-112100000D02*
X165700000Y-110600000D01*
X162400000Y-112100000D02*
X165700000Y-112100000D01*
X162400000Y-110600000D02*
X162400000Y-112100000D01*
D11*
X188875000Y-113154761D02*
X188875000Y-113630952D01*
X188398809Y-113440476D02*
X188875000Y-113630952D01*
X189351190Y-113440476D01*
X188589285Y-114011904D02*
X188875000Y-113630952D01*
X189160714Y-114011904D01*
D12*
X162233333Y-103905952D02*
X162366666Y-104305952D01*
X162500000Y-103905952D01*
X162842857Y-104305952D02*
X162614285Y-104305952D01*
X162728571Y-104305952D02*
X162728571Y-103905952D01*
X162690476Y-103963095D01*
X162652380Y-104001190D01*
X162614285Y-104020238D01*
X163014285Y-104267857D02*
X163033333Y-104286904D01*
X163014285Y-104305952D01*
X162995238Y-104286904D01*
X163014285Y-104267857D01*
X163014285Y-104305952D01*
X163185714Y-103944047D02*
X163204761Y-103925000D01*
X163242857Y-103905952D01*
X163338095Y-103905952D01*
X163376190Y-103925000D01*
X163395238Y-103944047D01*
X163414285Y-103982142D01*
X163414285Y-104020238D01*
X163395238Y-104077380D01*
X163166666Y-104305952D01*
X163414285Y-104305952D01*
X163585714Y-104267857D02*
X163604761Y-104286904D01*
X163585714Y-104305952D01*
X163566666Y-104286904D01*
X163585714Y-104267857D01*
X163585714Y-104305952D01*
X163585714Y-104058333D02*
X163604761Y-104077380D01*
X163585714Y-104096428D01*
X163566666Y-104077380D01*
X163585714Y-104058333D01*
X163585714Y-104096428D01*
X164347619Y-104344047D02*
X164309523Y-104325000D01*
X164271428Y-104286904D01*
X164214285Y-104229761D01*
X164176190Y-104210714D01*
X164138095Y-104210714D01*
X164157142Y-104305952D02*
X164119047Y-104286904D01*
X164080952Y-104248809D01*
X164061904Y-104172619D01*
X164061904Y-104039285D01*
X164080952Y-103963095D01*
X164119047Y-103925000D01*
X164157142Y-103905952D01*
X164233333Y-103905952D01*
X164271428Y-103925000D01*
X164309523Y-103963095D01*
X164328571Y-104039285D01*
X164328571Y-104172619D01*
X164309523Y-104248809D01*
X164271428Y-104286904D01*
X164233333Y-104305952D01*
X164157142Y-104305952D01*
X164614285Y-103905952D02*
X164614285Y-104191666D01*
X164595238Y-104248809D01*
X164557142Y-104286904D01*
X164500000Y-104305952D01*
X164461904Y-104305952D01*
X165090476Y-103886904D02*
X164747619Y-104401190D01*
X165300000Y-103905952D02*
X165376190Y-103905952D01*
X165414285Y-103925000D01*
X165452380Y-103963095D01*
X165471428Y-104039285D01*
X165471428Y-104172619D01*
X165452380Y-104248809D01*
X165414285Y-104286904D01*
X165376190Y-104305952D01*
X165300000Y-104305952D01*
X165261904Y-104286904D01*
X165223809Y-104248809D01*
X165204761Y-104172619D01*
X165204761Y-104039285D01*
X165223809Y-103963095D01*
X165261904Y-103925000D01*
X165300000Y-103905952D01*
X165604761Y-103905952D02*
X165700000Y-104305952D01*
X165776190Y-104020238D01*
X165852380Y-104305952D01*
X165947619Y-103905952D01*
D10*
X162878800Y-112753720D02*
X162878800Y-113403960D01*
X162700000Y-113100000D02*
X162136120Y-113511480D01*
X162700000Y-113073760D02*
X162181840Y-112626720D01*
X161077600Y-113100000D02*
X162500000Y-113100000D01*
D12*
X195442857Y-107800000D02*
X195471428Y-107857142D01*
X195471428Y-107971428D01*
X195442857Y-108028571D01*
X195414285Y-108057142D01*
X195357142Y-108085714D01*
X195185714Y-108085714D01*
X195128571Y-108057142D01*
X195100000Y-108028571D01*
X195071428Y-107971428D01*
X195071428Y-107857142D01*
X195100000Y-107800000D01*
X195471428Y-107542857D02*
X194871428Y-107542857D01*
X195471428Y-107285714D02*
X195157142Y-107285714D01*
X195100000Y-107314285D01*
X195071428Y-107371428D01*
X195071428Y-107457142D01*
X195100000Y-107514285D01*
X195128571Y-107542857D01*
X195471428Y-106914285D02*
X195442857Y-106971428D01*
X195414285Y-107000000D01*
X195357142Y-107028571D01*
X195185714Y-107028571D01*
X195128571Y-107000000D01*
X195100000Y-106971428D01*
X195071428Y-106914285D01*
X195071428Y-106828571D01*
X195100000Y-106771428D01*
X195128571Y-106742857D01*
X195185714Y-106714285D01*
X195357142Y-106714285D01*
X195414285Y-106742857D01*
X195442857Y-106771428D01*
X195471428Y-106828571D01*
X195471428Y-106914285D01*
X195471428Y-106457142D02*
X194871428Y-106457142D01*
X195242857Y-106400000D02*
X195471428Y-106228571D01*
X195071428Y-106228571D02*
X195300000Y-106457142D01*
X195442857Y-105742857D02*
X195471428Y-105800000D01*
X195471428Y-105914285D01*
X195442857Y-105971428D01*
X195385714Y-106000000D01*
X195157142Y-106000000D01*
X195100000Y-105971428D01*
X195071428Y-105914285D01*
X195071428Y-105800000D01*
X195100000Y-105742857D01*
X195157142Y-105714285D01*
X195214285Y-105714285D01*
X195271428Y-106000000D01*
D13*
X181223820Y-110476241D02*
X181366678Y-110523860D01*
X181604773Y-110523860D01*
X181700011Y-110476241D01*
X181747630Y-110428622D01*
X181795249Y-110333384D01*
X181795249Y-110238146D01*
X181747630Y-110142908D01*
X181700011Y-110095289D01*
X181604773Y-110047670D01*
X181414297Y-110000051D01*
X181319059Y-109952432D01*
X181271440Y-109904813D01*
X181223820Y-109809575D01*
X181223820Y-109714337D01*
X181271440Y-109619099D01*
X181319059Y-109571480D01*
X181414297Y-109523860D01*
X181652392Y-109523860D01*
X181795249Y-109571480D01*
X182080963Y-109523860D02*
X182652392Y-109523860D01*
X182366678Y-110523860D02*
X182366678Y-109523860D01*
X182985725Y-110523860D02*
X182985725Y-109523860D01*
X183319059Y-110238146D01*
X183652392Y-109523860D01*
X183652392Y-110523860D01*
X184033344Y-109523860D02*
X184652392Y-109523860D01*
X184319059Y-109904813D01*
X184461916Y-109904813D01*
X184557154Y-109952432D01*
X184604773Y-110000051D01*
X184652392Y-110095289D01*
X184652392Y-110333384D01*
X184604773Y-110428622D01*
X184557154Y-110476241D01*
X184461916Y-110523860D01*
X184176201Y-110523860D01*
X184080963Y-110476241D01*
X184033344Y-110428622D01*
X185033344Y-109619099D02*
X185080963Y-109571480D01*
X185176201Y-109523860D01*
X185414297Y-109523860D01*
X185509535Y-109571480D01*
X185557154Y-109619099D01*
X185604773Y-109714337D01*
X185604773Y-109809575D01*
X185557154Y-109952432D01*
X184985725Y-110523860D01*
X185604773Y-110523860D01*
X186366678Y-110000051D02*
X186033344Y-110000051D01*
X186033344Y-110523860D02*
X186033344Y-109523860D01*
X186509535Y-109523860D01*
X187319059Y-109857194D02*
X187319059Y-110523860D01*
X187080963Y-109476241D02*
X186842868Y-110190527D01*
X187461916Y-110190527D01*
X188271440Y-109857194D02*
X188271440Y-110523860D01*
X188033344Y-109476241D02*
X187795249Y-110190527D01*
X188414297Y-110190527D01*
X189223820Y-109523860D02*
X189033344Y-109523860D01*
X188938106Y-109571480D01*
X188890487Y-109619099D01*
X188795249Y-109761956D01*
X188747630Y-109952432D01*
X188747630Y-110333384D01*
X188795249Y-110428622D01*
X188842868Y-110476241D01*
X188938106Y-110523860D01*
X189128582Y-110523860D01*
X189223820Y-110476241D01*
X189271440Y-110428622D01*
X189319059Y-110333384D01*
X189319059Y-110095289D01*
X189271440Y-110000051D01*
X189223820Y-109952432D01*
X189128582Y-109904813D01*
X188938106Y-109904813D01*
X188842868Y-109952432D01*
X188795249Y-110000051D01*
X188747630Y-110095289D01*
D12*
X162008047Y-101626428D02*
X162008047Y-101026428D01*
X162293761Y-101626428D01*
X162293761Y-101026428D01*
X162603285Y-101626428D02*
X162555666Y-101597857D01*
X162531857Y-101569285D01*
X162508047Y-101512142D01*
X162508047Y-101340714D01*
X162531857Y-101283571D01*
X162555666Y-101255000D01*
X162603285Y-101226428D01*
X162674714Y-101226428D01*
X162722333Y-101255000D01*
X162746142Y-101283571D01*
X162769952Y-101340714D01*
X162769952Y-101512142D01*
X162746142Y-101569285D01*
X162722333Y-101597857D01*
X162674714Y-101626428D01*
X162603285Y-101626428D01*
X162984238Y-101626428D02*
X162984238Y-101226428D01*
X162984238Y-101283571D02*
X163008047Y-101255000D01*
X163055666Y-101226428D01*
X163127095Y-101226428D01*
X163174714Y-101255000D01*
X163198523Y-101312142D01*
X163198523Y-101626428D01*
X163198523Y-101312142D02*
X163222333Y-101255000D01*
X163269952Y-101226428D01*
X163341380Y-101226428D01*
X163389000Y-101255000D01*
X163412809Y-101312142D01*
X163412809Y-101626428D01*
X163865190Y-101626428D02*
X163865190Y-101312142D01*
X163841380Y-101255000D01*
X163793761Y-101226428D01*
X163698523Y-101226428D01*
X163650904Y-101255000D01*
X163865190Y-101597857D02*
X163817571Y-101626428D01*
X163698523Y-101626428D01*
X163650904Y-101597857D01*
X163627095Y-101540714D01*
X163627095Y-101483571D01*
X163650904Y-101426428D01*
X163698523Y-101397857D01*
X163817571Y-101397857D01*
X163865190Y-101369285D01*
X164317571Y-101626428D02*
X164317571Y-101026428D01*
X164317571Y-101597857D02*
X164269952Y-101626428D01*
X164174714Y-101626428D01*
X164127095Y-101597857D01*
X164103285Y-101569285D01*
X164079476Y-101512142D01*
X164079476Y-101340714D01*
X164103285Y-101283571D01*
X164127095Y-101255000D01*
X164174714Y-101226428D01*
X164269952Y-101226428D01*
X164317571Y-101255000D01*
X165103285Y-101312142D02*
X165174714Y-101340714D01*
X165198523Y-101369285D01*
X165222333Y-101426428D01*
X165222333Y-101512142D01*
X165198523Y-101569285D01*
X165174714Y-101597857D01*
X165127095Y-101626428D01*
X164936619Y-101626428D01*
X164936619Y-101026428D01*
X165103285Y-101026428D01*
X165150904Y-101055000D01*
X165174714Y-101083571D01*
X165198523Y-101140714D01*
X165198523Y-101197857D01*
X165174714Y-101255000D01*
X165150904Y-101283571D01*
X165103285Y-101312142D01*
X164936619Y-101312142D01*
X165674714Y-101626428D02*
X165436619Y-101626428D01*
X165436619Y-101026428D01*
X165841380Y-101626428D02*
X165841380Y-101026428D01*
X165960428Y-101026428D01*
X166031857Y-101055000D01*
X166079476Y-101112142D01*
X166103285Y-101169285D01*
X166127095Y-101283571D01*
X166127095Y-101369285D01*
X166103285Y-101483571D01*
X166079476Y-101540714D01*
X166031857Y-101597857D01*
X165960428Y-101626428D01*
X165841380Y-101626428D01*
X166627095Y-101569285D02*
X166603285Y-101597857D01*
X166531857Y-101626428D01*
X166484238Y-101626428D01*
X166412809Y-101597857D01*
X166365190Y-101540714D01*
X166341380Y-101483571D01*
X166317571Y-101369285D01*
X166317571Y-101283571D01*
X166341380Y-101169285D01*
X166365190Y-101112142D01*
X166412809Y-101055000D01*
X166484238Y-101026428D01*
X166531857Y-101026428D01*
X166603285Y-101055000D01*
X166627095Y-101083571D01*
X162174714Y-102272142D02*
X162246142Y-102300714D01*
X162269952Y-102329285D01*
X162293761Y-102386428D01*
X162293761Y-102472142D01*
X162269952Y-102529285D01*
X162246142Y-102557857D01*
X162198523Y-102586428D01*
X162008047Y-102586428D01*
X162008047Y-101986428D01*
X162174714Y-101986428D01*
X162222333Y-102015000D01*
X162246142Y-102043571D01*
X162269952Y-102100714D01*
X162269952Y-102157857D01*
X162246142Y-102215000D01*
X162222333Y-102243571D01*
X162174714Y-102272142D01*
X162008047Y-102272142D01*
X162698523Y-102557857D02*
X162650904Y-102586428D01*
X162555666Y-102586428D01*
X162508047Y-102557857D01*
X162484238Y-102500714D01*
X162484238Y-102272142D01*
X162508047Y-102215000D01*
X162555666Y-102186428D01*
X162650904Y-102186428D01*
X162698523Y-102215000D01*
X162722333Y-102272142D01*
X162722333Y-102329285D01*
X162484238Y-102386428D01*
X162936619Y-102186428D02*
X162936619Y-102586428D01*
X162936619Y-102243571D02*
X162960428Y-102215000D01*
X163008047Y-102186428D01*
X163079476Y-102186428D01*
X163127095Y-102215000D01*
X163150904Y-102272142D01*
X163150904Y-102586428D01*
X163769952Y-102586428D02*
X163769952Y-101986428D01*
X164055666Y-102586428D02*
X163841380Y-102243571D01*
X164055666Y-101986428D02*
X163769952Y-102329285D01*
X164484238Y-102586428D02*
X164484238Y-102272142D01*
X164460428Y-102215000D01*
X164412809Y-102186428D01*
X164317571Y-102186428D01*
X164269952Y-102215000D01*
X164484238Y-102557857D02*
X164436619Y-102586428D01*
X164317571Y-102586428D01*
X164269952Y-102557857D01*
X164246142Y-102500714D01*
X164246142Y-102443571D01*
X164269952Y-102386428D01*
X164317571Y-102357857D01*
X164436619Y-102357857D01*
X164484238Y-102329285D01*
X164650904Y-102186428D02*
X164841380Y-102186428D01*
X164722333Y-101986428D02*
X164722333Y-102500714D01*
X164746142Y-102557857D01*
X164793761Y-102586428D01*
X164841380Y-102586428D01*
X164960428Y-102186428D02*
X165222333Y-102186428D01*
X164960428Y-102586428D01*
X165222333Y-102586428D01*
X162103285Y-102946428D02*
X162198523Y-102946428D01*
X162246142Y-102975000D01*
X162293761Y-103032142D01*
X162317571Y-103146428D01*
X162317571Y-103346428D01*
X162293761Y-103460714D01*
X162246142Y-103517857D01*
X162198523Y-103546428D01*
X162103285Y-103546428D01*
X162055666Y-103517857D01*
X162008047Y-103460714D01*
X161984238Y-103346428D01*
X161984238Y-103146428D01*
X162008047Y-103032142D01*
X162055666Y-102975000D01*
X162103285Y-102946428D01*
X162531857Y-103546428D02*
X162531857Y-103146428D01*
X162531857Y-103260714D02*
X162555666Y-103203571D01*
X162579476Y-103175000D01*
X162627095Y-103146428D01*
X162674714Y-103146428D01*
X162841380Y-103546428D02*
X162841380Y-103146428D01*
X162841380Y-102946428D02*
X162817571Y-102975000D01*
X162841380Y-103003571D01*
X162865190Y-102975000D01*
X162841380Y-102946428D01*
X162841380Y-103003571D01*
X163293761Y-103146428D02*
X163293761Y-103632142D01*
X163269952Y-103689285D01*
X163246142Y-103717857D01*
X163198523Y-103746428D01*
X163127095Y-103746428D01*
X163079476Y-103717857D01*
X163293761Y-103517857D02*
X163246142Y-103546428D01*
X163150904Y-103546428D01*
X163103285Y-103517857D01*
X163079476Y-103489285D01*
X163055666Y-103432142D01*
X163055666Y-103260714D01*
X163079476Y-103203571D01*
X163103285Y-103175000D01*
X163150904Y-103146428D01*
X163246142Y-103146428D01*
X163293761Y-103175000D01*
X163531857Y-103546428D02*
X163531857Y-103146428D01*
X163531857Y-102946428D02*
X163508047Y-102975000D01*
X163531857Y-103003571D01*
X163555666Y-102975000D01*
X163531857Y-102946428D01*
X163531857Y-103003571D01*
X163769952Y-103146428D02*
X163769952Y-103546428D01*
X163769952Y-103203571D02*
X163793761Y-103175000D01*
X163841380Y-103146428D01*
X163912809Y-103146428D01*
X163960428Y-103175000D01*
X163984238Y-103232142D01*
X163984238Y-103546428D01*
X164436619Y-103546428D02*
X164436619Y-103232142D01*
X164412809Y-103175000D01*
X164365190Y-103146428D01*
X164269952Y-103146428D01*
X164222333Y-103175000D01*
X164436619Y-103517857D02*
X164389000Y-103546428D01*
X164269952Y-103546428D01*
X164222333Y-103517857D01*
X164198523Y-103460714D01*
X164198523Y-103403571D01*
X164222333Y-103346428D01*
X164269952Y-103317857D01*
X164389000Y-103317857D01*
X164436619Y-103289285D01*
X164746142Y-103546428D02*
X164698523Y-103517857D01*
X164674714Y-103460714D01*
X164674714Y-102946428D01*
X165317571Y-103546428D02*
X165317571Y-102946428D01*
X165436619Y-102946428D01*
X165508047Y-102975000D01*
X165555666Y-103032142D01*
X165579476Y-103089285D01*
X165603285Y-103203571D01*
X165603285Y-103289285D01*
X165579476Y-103403571D01*
X165555666Y-103460714D01*
X165508047Y-103517857D01*
X165436619Y-103546428D01*
X165317571Y-103546428D01*
X166008047Y-103517857D02*
X165960428Y-103546428D01*
X165865190Y-103546428D01*
X165817571Y-103517857D01*
X165793761Y-103460714D01*
X165793761Y-103232142D01*
X165817571Y-103175000D01*
X165865190Y-103146428D01*
X165960428Y-103146428D01*
X166008047Y-103175000D01*
X166031857Y-103232142D01*
X166031857Y-103289285D01*
X165793761Y-103346428D01*
X166222333Y-103517857D02*
X166269952Y-103546428D01*
X166365190Y-103546428D01*
X166412809Y-103517857D01*
X166436619Y-103460714D01*
X166436619Y-103432142D01*
X166412809Y-103375000D01*
X166365190Y-103346428D01*
X166293761Y-103346428D01*
X166246142Y-103317857D01*
X166222333Y-103260714D01*
X166222333Y-103232142D01*
X166246142Y-103175000D01*
X166293761Y-103146428D01*
X166365190Y-103146428D01*
X166412809Y-103175000D01*
X166650904Y-103546428D02*
X166650904Y-103146428D01*
X166650904Y-102946428D02*
X166627095Y-102975000D01*
X166650904Y-103003571D01*
X166674714Y-102975000D01*
X166650904Y-102946428D01*
X166650904Y-103003571D01*
X167103285Y-103146428D02*
X167103285Y-103632142D01*
X167079476Y-103689285D01*
X167055666Y-103717857D01*
X167008047Y-103746428D01*
X166936619Y-103746428D01*
X166889000Y-103717857D01*
X167103285Y-103517857D02*
X167055666Y-103546428D01*
X166960428Y-103546428D01*
X166912809Y-103517857D01*
X166889000Y-103489285D01*
X166865190Y-103432142D01*
X166865190Y-103260714D01*
X166889000Y-103203571D01*
X166912809Y-103175000D01*
X166960428Y-103146428D01*
X167055666Y-103146428D01*
X167103285Y-103175000D01*
X167341380Y-103146428D02*
X167341380Y-103546428D01*
X167341380Y-103203571D02*
X167365190Y-103175000D01*
X167412809Y-103146428D01*
X167484238Y-103146428D01*
X167531857Y-103175000D01*
X167555666Y-103232142D01*
X167555666Y-103546428D01*
D14*
X191957142Y-125267067D02*
X191957142Y-124657544D01*
X191807142Y-128217067D02*
X191807142Y-127607544D01*
X192111904Y-127912305D02*
X191502380Y-127912305D01*
X168094622Y-134730466D02*
X168094622Y-136097833D01*
X168175056Y-136258700D01*
X168255489Y-136339133D01*
X168416356Y-136419566D01*
X168738089Y-136419566D01*
X168898956Y-136339133D01*
X168979389Y-136258700D01*
X169059822Y-136097833D01*
X169059822Y-134730466D01*
X175978322Y-134830466D02*
X176541356Y-136519566D01*
X177104389Y-134830466D01*
X185558756Y-134555466D02*
X185960922Y-136244566D01*
X186282656Y-135038066D01*
X186604389Y-136244566D01*
X187006556Y-134555466D01*
D10*
X169005224Y-111009165D02*
X169341100Y-110673289D01*
X169341100Y-110673289D02*
X169676976Y-111009165D01*
X169676976Y-120548035D02*
X169341100Y-120883911D01*
X169341100Y-120883911D02*
X169005224Y-120548035D01*
X174110535Y-116114476D02*
X174446411Y-115778600D01*
X174446411Y-115778600D02*
X174110535Y-115442724D01*
X164571665Y-115442724D02*
X164235789Y-115778600D01*
X186750000Y-128500000D02*
X186750000Y-129900000D01*
X191650000Y-127200000D02*
X191650000Y-125600000D01*
X190650000Y-127200000D02*
X191650000Y-127200000D01*
X190650000Y-125600000D02*
X190650000Y-127200000D01*
X191650000Y-125600000D02*
X190650000Y-125600000D01*
X191650000Y-125600000D02*
X191650000Y-127200000D01*
X190650000Y-125600000D02*
X190650000Y-127200000D01*
X186101100Y-130968600D02*
X186101100Y-129568600D01*
X181101100Y-130868600D02*
X181101100Y-129468600D01*
X181201100Y-132268600D02*
X181201100Y-133868600D01*
X182201100Y-132268600D02*
X181201100Y-132268600D01*
X182201100Y-133868600D02*
X182201100Y-132268600D01*
X181201100Y-133868600D02*
X182201100Y-133868600D01*
X181201100Y-133868600D02*
X181201100Y-132268600D01*
X182201100Y-133868600D02*
X182201100Y-132268600D01*
X180551100Y-130468600D02*
X180551100Y-129068600D01*
X175551100Y-130368600D02*
X175551100Y-128968600D01*
X175651100Y-131768600D02*
X175651100Y-133368600D01*
X176651100Y-131768600D02*
X175651100Y-131768600D01*
X176651100Y-133368600D02*
X176651100Y-131768600D01*
X175651100Y-133368600D02*
X176651100Y-133368600D01*
X175651100Y-133368600D02*
X175651100Y-131768600D01*
X176651100Y-133368600D02*
X176651100Y-131768600D01*
X170001100Y-130118600D02*
X170001100Y-131518600D01*
X175001100Y-130218600D02*
X175001100Y-131618600D01*
X174901100Y-128818600D02*
X174901100Y-127218600D01*
X173901100Y-128818600D02*
X174901100Y-128818600D01*
X173901100Y-127218600D02*
X173901100Y-128818600D01*
X174901100Y-127218600D02*
X173901100Y-127218600D01*
X174901100Y-127218600D02*
X174901100Y-128818600D01*
X173901100Y-127218600D02*
X173901100Y-128818600D01*
X164301100Y-130118600D02*
X164301100Y-131518600D01*
X169301100Y-130218600D02*
X169301100Y-131618600D01*
X169201100Y-128818600D02*
X169201100Y-127218600D01*
X168201100Y-128818600D02*
X169201100Y-128818600D01*
X168201100Y-127218600D02*
X168201100Y-128818600D01*
X169201100Y-127218600D02*
X168201100Y-127218600D01*
X169201100Y-127218600D02*
X169201100Y-128818600D01*
X168201100Y-127218600D02*
X168201100Y-128818600D01*
X163901100Y-130068600D02*
X163901100Y-128668600D01*
X158901100Y-129968600D02*
X158901100Y-128568600D01*
X159001100Y-131368600D02*
X159001100Y-132968600D01*
X160001100Y-131368600D02*
X159001100Y-131368600D01*
X160001100Y-132968600D02*
X160001100Y-131368600D01*
X159001100Y-132968600D02*
X160001100Y-132968600D01*
X159001100Y-132968600D02*
X159001100Y-131368600D01*
X160001100Y-132968600D02*
X160001100Y-131368600D01*
X195950000Y-126275000D02*
X192550000Y-126275000D01*
X195950000Y-122275000D02*
X195950000Y-126275000D01*
X192650000Y-122275000D02*
X195950000Y-122275000D01*
X192550000Y-126275000D02*
X192550000Y-122275000D01*
X195925000Y-130800000D02*
X192525000Y-130800000D01*
X195925000Y-126800000D02*
X195925000Y-130800000D01*
X192625000Y-126800000D02*
X195925000Y-126800000D01*
X192525000Y-130800000D02*
X192525000Y-126800000D01*
X189440000Y-120040000D02*
X189440000Y-117560000D01*
X191660000Y-116390000D02*
X191660000Y-117490000D01*
X191210000Y-116390000D02*
X191660000Y-116390000D01*
X191660000Y-120110000D02*
X192050000Y-120110000D01*
X191660000Y-121210000D02*
X191660000Y-120110000D01*
X191210000Y-121210000D02*
X191660000Y-121210000D01*
X193165000Y-120040000D02*
X193165000Y-117560000D01*
X195385000Y-116390000D02*
X195385000Y-117490000D01*
X194935000Y-116390000D02*
X195385000Y-116390000D01*
X195385000Y-120110000D02*
X195775000Y-120110000D01*
X195385000Y-121210000D02*
X195385000Y-120110000D01*
X194935000Y-121210000D02*
X195385000Y-121210000D01*
D15*
X158521100Y-111978600D02*
X158521100Y-107778600D01*
X162221100Y-111978600D02*
X158521100Y-111978600D01*
X162221100Y-107778600D02*
X162221100Y-111978600D01*
X158521100Y-107778600D02*
X162221100Y-107778600D01*
X189831100Y-105138600D02*
X188831100Y-105138600D01*
X189831100Y-106138600D02*
X189831100Y-105138600D01*
X188831100Y-115338600D02*
X189831100Y-114338600D01*
X179631100Y-105138600D02*
X180631100Y-105138600D01*
X179631100Y-106138600D02*
X179631100Y-105138600D01*
X179631100Y-115338600D02*
X179631100Y-114338600D01*
X180631100Y-115338600D02*
X179631100Y-115338600D01*
D16*
X194329596Y-106803600D02*
G75*
G03X194329596Y-106803600I-218496J0D01*
G01*
X194136500Y-106803600D02*
G75*
G03X194136500Y-106803600I-25400J0D01*
G01*
X194238100Y-106803600D02*
G75*
G03X194238100Y-106803600I-127000J0D01*
G01*
D15*
X176036500Y-107394000D02*
X176331100Y-107587000D01*
X176021100Y-107368600D02*
X176331100Y-107134800D01*
X176021100Y-107828600D02*
X176021100Y-107368600D01*
X176021100Y-106908600D02*
X176021100Y-107368600D01*
X187785700Y-101373200D02*
X187491100Y-101180200D01*
X187801100Y-101398600D02*
X187491100Y-101632400D01*
X187801100Y-100938600D02*
X187801100Y-101398600D01*
X187801100Y-101858600D02*
X187801100Y-101398600D01*
D16*
X192561100Y-108828600D02*
X192561100Y-112028600D01*
X194161100Y-108828600D02*
X192561100Y-108828600D01*
X194161100Y-112028600D02*
X194161100Y-108828600D01*
X192561100Y-112028600D02*
X194161100Y-112028600D01*
D17*
X164301100Y-107078600D02*
X167301100Y-107078600D01*
X167301100Y-109938600D02*
X167301100Y-110078600D01*
X164301100Y-107078600D02*
X164301100Y-107218600D01*
X167301100Y-107078600D02*
X167301100Y-107218600D01*
X164301100Y-109938600D02*
X164301100Y-110078600D01*
X164301100Y-110078600D02*
X167301100Y-110078600D01*
D18*
G36*
X167301100Y-109938600D02*
G01*
X166901100Y-109938600D01*
X166901100Y-110078600D01*
X167301100Y-110078600D01*
X167301100Y-109938600D01*
G37*
D10*
X181350000Y-137025000D02*
X181350000Y-133625000D01*
X184750000Y-137025000D02*
X181350000Y-137025000D01*
X184750000Y-133625000D02*
X184750000Y-137025000D01*
X181350000Y-133625000D02*
X184750000Y-133625000D01*
X182800000Y-120195000D02*
X185700000Y-120195000D01*
X182440000Y-117955000D02*
X185700000Y-117955000D01*
X171775000Y-137025000D02*
X171775000Y-133625000D01*
X175175000Y-137025000D02*
X171775000Y-137025000D01*
X175175000Y-133625000D02*
X175175000Y-137025000D01*
X171775000Y-133625000D02*
X175175000Y-133625000D01*
X177790000Y-100315000D02*
X169910000Y-100315000D01*
X168740000Y-104785000D02*
X169790000Y-104785000D01*
X168740000Y-102285000D02*
X168740000Y-104785000D01*
X177910000Y-104785000D02*
X177910000Y-105775000D01*
X178960000Y-104785000D02*
X177910000Y-104785000D01*
X178960000Y-102285000D02*
X178960000Y-104785000D01*
X163825000Y-137025000D02*
X163825000Y-133625000D01*
X167225000Y-137025000D02*
X163825000Y-137025000D01*
X167225000Y-133625000D02*
X167225000Y-137025000D01*
X163825000Y-133625000D02*
X167225000Y-133625000D01*
D13*
X165074215Y-113868737D02*
X164367108Y-113161631D01*
X164535467Y-112993272D01*
X164670154Y-112925928D01*
X164804841Y-112925928D01*
X164905856Y-112959600D01*
X165074215Y-113060615D01*
X165175230Y-113161631D01*
X165276245Y-113329989D01*
X165309917Y-113431005D01*
X165309917Y-113565692D01*
X165242574Y-113700379D01*
X165074215Y-113868737D01*
X166185383Y-112757570D02*
X165612963Y-112656554D01*
X165781322Y-113161631D02*
X165074215Y-112454524D01*
X165343589Y-112185150D01*
X165444604Y-112151478D01*
X165511948Y-112151478D01*
X165612963Y-112185150D01*
X165713978Y-112286165D01*
X165747650Y-112387180D01*
X165747650Y-112454524D01*
X165713978Y-112555539D01*
X165444604Y-112824913D01*
X165680306Y-111848432D02*
X166623115Y-112319837D01*
X166151711Y-111377028D01*
X167464909Y-111478043D02*
X167060848Y-111882104D01*
X167262879Y-111680074D02*
X166555772Y-110972967D01*
X166589444Y-111141326D01*
X166589444Y-111276013D01*
X166555772Y-111377028D01*
D12*
X171564285Y-108175285D02*
X171592857Y-108203857D01*
X171621428Y-108289571D01*
X171621428Y-108346714D01*
X171592857Y-108432428D01*
X171535714Y-108489571D01*
X171478571Y-108518142D01*
X171364285Y-108546714D01*
X171278571Y-108546714D01*
X171164285Y-108518142D01*
X171107142Y-108489571D01*
X171050000Y-108432428D01*
X171021428Y-108346714D01*
X171021428Y-108289571D01*
X171050000Y-108203857D01*
X171078571Y-108175285D01*
X171078571Y-107946714D02*
X171050000Y-107918142D01*
X171021428Y-107861000D01*
X171021428Y-107718142D01*
X171050000Y-107661000D01*
X171078571Y-107632428D01*
X171135714Y-107603857D01*
X171192857Y-107603857D01*
X171278571Y-107632428D01*
X171621428Y-107975285D01*
X171621428Y-107603857D01*
X171021428Y-107061000D02*
X171021428Y-107346714D01*
X171307142Y-107375285D01*
X171278571Y-107346714D01*
X171250000Y-107289571D01*
X171250000Y-107146714D01*
X171278571Y-107089571D01*
X171307142Y-107061000D01*
X171364285Y-107032428D01*
X171507142Y-107032428D01*
X171564285Y-107061000D01*
X171592857Y-107089571D01*
X171621428Y-107146714D01*
X171621428Y-107289571D01*
X171592857Y-107346714D01*
X171564285Y-107375285D01*
D19*
X187690857Y-125228571D02*
X187633714Y-125200000D01*
X187576571Y-125142857D01*
X187490857Y-125057142D01*
X187433714Y-125028571D01*
X187376571Y-125028571D01*
X187405142Y-125171428D02*
X187348000Y-125142857D01*
X187290857Y-125085714D01*
X187262285Y-124971428D01*
X187262285Y-124771428D01*
X187290857Y-124657142D01*
X187348000Y-124600000D01*
X187405142Y-124571428D01*
X187519428Y-124571428D01*
X187576571Y-124600000D01*
X187633714Y-124657142D01*
X187662285Y-124771428D01*
X187662285Y-124971428D01*
X187633714Y-125085714D01*
X187576571Y-125142857D01*
X187519428Y-125171428D01*
X187405142Y-125171428D01*
X188176571Y-124571428D02*
X188062285Y-124571428D01*
X188005142Y-124600000D01*
X187976571Y-124628571D01*
X187919428Y-124714285D01*
X187890857Y-124828571D01*
X187890857Y-125057142D01*
X187919428Y-125114285D01*
X187948000Y-125142857D01*
X188005142Y-125171428D01*
X188119428Y-125171428D01*
X188176571Y-125142857D01*
X188205142Y-125114285D01*
X188233714Y-125057142D01*
X188233714Y-124914285D01*
X188205142Y-124857142D01*
X188176571Y-124828571D01*
X188119428Y-124800000D01*
X188005142Y-124800000D01*
X187948000Y-124828571D01*
X187919428Y-124857142D01*
X187890857Y-124914285D01*
D20*
X186475961Y-134338095D02*
X186399771Y-134300000D01*
X186323580Y-134223809D01*
X186209294Y-134109523D01*
X186133104Y-134071428D01*
X186056914Y-134071428D01*
X186095009Y-134261904D02*
X186018818Y-134223809D01*
X185942628Y-134147619D01*
X185904533Y-133995238D01*
X185904533Y-133728571D01*
X185942628Y-133576190D01*
X186018818Y-133500000D01*
X186095009Y-133461904D01*
X186247390Y-133461904D01*
X186323580Y-133500000D01*
X186399771Y-133576190D01*
X186437866Y-133728571D01*
X186437866Y-133995238D01*
X186399771Y-134147619D01*
X186323580Y-134223809D01*
X186247390Y-134261904D01*
X186095009Y-134261904D01*
X187161675Y-133461904D02*
X186780723Y-133461904D01*
X186742628Y-133842857D01*
X186780723Y-133804761D01*
X186856914Y-133766666D01*
X187047390Y-133766666D01*
X187123580Y-133804761D01*
X187161675Y-133842857D01*
X187199771Y-133919047D01*
X187199771Y-134109523D01*
X187161675Y-134185714D01*
X187123580Y-134223809D01*
X187047390Y-134261904D01*
X186856914Y-134261904D01*
X186780723Y-134223809D01*
X186742628Y-134185714D01*
X179075961Y-134338095D02*
X178999771Y-134300000D01*
X178923580Y-134223809D01*
X178809294Y-134109523D01*
X178733104Y-134071428D01*
X178656914Y-134071428D01*
X178695009Y-134261904D02*
X178618818Y-134223809D01*
X178542628Y-134147619D01*
X178504533Y-133995238D01*
X178504533Y-133728571D01*
X178542628Y-133576190D01*
X178618818Y-133500000D01*
X178695009Y-133461904D01*
X178847390Y-133461904D01*
X178923580Y-133500000D01*
X178999771Y-133576190D01*
X179037866Y-133728571D01*
X179037866Y-133995238D01*
X178999771Y-134147619D01*
X178923580Y-134223809D01*
X178847390Y-134261904D01*
X178695009Y-134261904D01*
X179723580Y-133728571D02*
X179723580Y-134261904D01*
X179533104Y-133423809D02*
X179342628Y-133995238D01*
X179837866Y-133995238D01*
X170946657Y-127013095D02*
X170870466Y-126975000D01*
X170794276Y-126898809D01*
X170679990Y-126784523D01*
X170603800Y-126746428D01*
X170527609Y-126746428D01*
X170565705Y-126936904D02*
X170489514Y-126898809D01*
X170413324Y-126822619D01*
X170375228Y-126670238D01*
X170375228Y-126403571D01*
X170413324Y-126251190D01*
X170489514Y-126175000D01*
X170565705Y-126136904D01*
X170718085Y-126136904D01*
X170794276Y-126175000D01*
X170870466Y-126251190D01*
X170908562Y-126403571D01*
X170908562Y-126670238D01*
X170870466Y-126822619D01*
X170794276Y-126898809D01*
X170718085Y-126936904D01*
X170565705Y-126936904D01*
X171175228Y-126136904D02*
X171670466Y-126136904D01*
X171403800Y-126441666D01*
X171518085Y-126441666D01*
X171594276Y-126479761D01*
X171632371Y-126517857D01*
X171670466Y-126594047D01*
X171670466Y-126784523D01*
X171632371Y-126860714D01*
X171594276Y-126898809D01*
X171518085Y-126936904D01*
X171289514Y-126936904D01*
X171213324Y-126898809D01*
X171175228Y-126860714D01*
X165671657Y-127338095D02*
X165595466Y-127300000D01*
X165519276Y-127223809D01*
X165404990Y-127109523D01*
X165328800Y-127071428D01*
X165252609Y-127071428D01*
X165290705Y-127261904D02*
X165214514Y-127223809D01*
X165138324Y-127147619D01*
X165100228Y-126995238D01*
X165100228Y-126728571D01*
X165138324Y-126576190D01*
X165214514Y-126500000D01*
X165290705Y-126461904D01*
X165443085Y-126461904D01*
X165519276Y-126500000D01*
X165595466Y-126576190D01*
X165633562Y-126728571D01*
X165633562Y-126995238D01*
X165595466Y-127147619D01*
X165519276Y-127223809D01*
X165443085Y-127261904D01*
X165290705Y-127261904D01*
X165938324Y-126538095D02*
X165976419Y-126500000D01*
X166052609Y-126461904D01*
X166243085Y-126461904D01*
X166319276Y-126500000D01*
X166357371Y-126538095D01*
X166395466Y-126614285D01*
X166395466Y-126690476D01*
X166357371Y-126804761D01*
X165900228Y-127261904D01*
X166395466Y-127261904D01*
X160650961Y-133888095D02*
X160574771Y-133850000D01*
X160498580Y-133773809D01*
X160384294Y-133659523D01*
X160308104Y-133621428D01*
X160231914Y-133621428D01*
X160270009Y-133811904D02*
X160193818Y-133773809D01*
X160117628Y-133697619D01*
X160079533Y-133545238D01*
X160079533Y-133278571D01*
X160117628Y-133126190D01*
X160193818Y-133050000D01*
X160270009Y-133011904D01*
X160422390Y-133011904D01*
X160498580Y-133050000D01*
X160574771Y-133126190D01*
X160612866Y-133278571D01*
X160612866Y-133545238D01*
X160574771Y-133697619D01*
X160498580Y-133773809D01*
X160422390Y-133811904D01*
X160270009Y-133811904D01*
X161374771Y-133811904D02*
X160917628Y-133811904D01*
X161146199Y-133811904D02*
X161146199Y-133011904D01*
X161070009Y-133126190D01*
X160993818Y-133202380D01*
X160917628Y-133240476D01*
D21*
X160326814Y-110072752D02*
X160136338Y-110072752D01*
X160136338Y-109672752D01*
X160669671Y-110072752D02*
X160441100Y-110072752D01*
X160555385Y-110072752D02*
X160555385Y-109672752D01*
X160517290Y-109729895D01*
X160479195Y-109767990D01*
X160441100Y-109787038D01*
D12*
X157919977Y-115091725D02*
X157891405Y-115120297D01*
X157805691Y-115148868D01*
X157748548Y-115148868D01*
X157662834Y-115120297D01*
X157605691Y-115063154D01*
X157577120Y-115006011D01*
X157548548Y-114891725D01*
X157548548Y-114806011D01*
X157577120Y-114691725D01*
X157605691Y-114634582D01*
X157662834Y-114577440D01*
X157748548Y-114548868D01*
X157805691Y-114548868D01*
X157891405Y-114577440D01*
X157919977Y-114606011D01*
X158491405Y-115148868D02*
X158148548Y-115148868D01*
X158319977Y-115148868D02*
X158319977Y-114548868D01*
X158262834Y-114634582D01*
X158205691Y-114691725D01*
X158148548Y-114720297D01*
X158862834Y-114548868D02*
X158919977Y-114548868D01*
X158977120Y-114577440D01*
X159005691Y-114606011D01*
X159034262Y-114663154D01*
X159062834Y-114777440D01*
X159062834Y-114920297D01*
X159034262Y-115034582D01*
X159005691Y-115091725D01*
X158977120Y-115120297D01*
X158919977Y-115148868D01*
X158862834Y-115148868D01*
X158805691Y-115120297D01*
X158777120Y-115091725D01*
X158748548Y-115034582D01*
X158719977Y-114920297D01*
X158719977Y-114777440D01*
X158748548Y-114663154D01*
X158777120Y-114606011D01*
X158805691Y-114577440D01*
X158862834Y-114548868D01*
D21*
X161894880Y-106453571D02*
X161871071Y-106477380D01*
X161799642Y-106501190D01*
X161752023Y-106501190D01*
X161680595Y-106477380D01*
X161632976Y-106429761D01*
X161609166Y-106382142D01*
X161585357Y-106286904D01*
X161585357Y-106215476D01*
X161609166Y-106120238D01*
X161632976Y-106072619D01*
X161680595Y-106025000D01*
X161752023Y-106001190D01*
X161799642Y-106001190D01*
X161871071Y-106025000D01*
X161894880Y-106048809D01*
X162371071Y-106501190D02*
X162085357Y-106501190D01*
X162228214Y-106501190D02*
X162228214Y-106001190D01*
X162180595Y-106072619D01*
X162132976Y-106120238D01*
X162085357Y-106144047D01*
X162561547Y-106048809D02*
X162585357Y-106025000D01*
X162632976Y-106001190D01*
X162752023Y-106001190D01*
X162799642Y-106025000D01*
X162823452Y-106048809D01*
X162847261Y-106096428D01*
X162847261Y-106144047D01*
X162823452Y-106215476D01*
X162537738Y-106501190D01*
X162847261Y-106501190D01*
D12*
X160189571Y-118376190D02*
X160022904Y-118138095D01*
X159903857Y-118376190D02*
X159903857Y-117876190D01*
X160094333Y-117876190D01*
X160141952Y-117900000D01*
X160165761Y-117923809D01*
X160189571Y-117971428D01*
X160189571Y-118042857D01*
X160165761Y-118090476D01*
X160141952Y-118114285D01*
X160094333Y-118138095D01*
X159903857Y-118138095D01*
X160618142Y-118042857D02*
X160618142Y-118376190D01*
X160499095Y-117852380D02*
X160380047Y-118209523D01*
X160689571Y-118209523D01*
X159815621Y-121637390D02*
X159648955Y-121399295D01*
X159529907Y-121637390D02*
X159529907Y-121137390D01*
X159720383Y-121137390D01*
X159768002Y-121161200D01*
X159791812Y-121185009D01*
X159815621Y-121232628D01*
X159815621Y-121304057D01*
X159791812Y-121351676D01*
X159768002Y-121375485D01*
X159720383Y-121399295D01*
X159529907Y-121399295D01*
X160244193Y-121137390D02*
X160148955Y-121137390D01*
X160101336Y-121161200D01*
X160077526Y-121185009D01*
X160029907Y-121256438D01*
X160006098Y-121351676D01*
X160006098Y-121542152D01*
X160029907Y-121589771D01*
X160053717Y-121613580D01*
X160101336Y-121637390D01*
X160196574Y-121637390D01*
X160244193Y-121613580D01*
X160268002Y-121589771D01*
X160291812Y-121542152D01*
X160291812Y-121423104D01*
X160268002Y-121375485D01*
X160244193Y-121351676D01*
X160196574Y-121327866D01*
X160101336Y-121327866D01*
X160053717Y-121351676D01*
X160029907Y-121375485D01*
X160006098Y-121423104D01*
X163047914Y-110539485D02*
X163019342Y-110568057D01*
X162933628Y-110596628D01*
X162876485Y-110596628D01*
X162790771Y-110568057D01*
X162733628Y-110510914D01*
X162705057Y-110453771D01*
X162676485Y-110339485D01*
X162676485Y-110253771D01*
X162705057Y-110139485D01*
X162733628Y-110082342D01*
X162790771Y-110025200D01*
X162876485Y-109996628D01*
X162933628Y-109996628D01*
X163019342Y-110025200D01*
X163047914Y-110053771D01*
X163619342Y-110596628D02*
X163276485Y-110596628D01*
X163447914Y-110596628D02*
X163447914Y-109996628D01*
X163390771Y-110082342D01*
X163333628Y-110139485D01*
X163276485Y-110168057D01*
X163819342Y-109996628D02*
X164190771Y-109996628D01*
X163990771Y-110225200D01*
X164076485Y-110225200D01*
X164133628Y-110253771D01*
X164162200Y-110282342D01*
X164190771Y-110339485D01*
X164190771Y-110482342D01*
X164162200Y-110539485D01*
X164133628Y-110568057D01*
X164076485Y-110596628D01*
X163905057Y-110596628D01*
X163847914Y-110568057D01*
X163819342Y-110539485D01*
X161970125Y-119767725D02*
X161998697Y-119796297D01*
X162027268Y-119882011D01*
X162027268Y-119939154D01*
X161998697Y-120024868D01*
X161941554Y-120082011D01*
X161884411Y-120110582D01*
X161770125Y-120139154D01*
X161684411Y-120139154D01*
X161570125Y-120110582D01*
X161512982Y-120082011D01*
X161455840Y-120024868D01*
X161427268Y-119939154D01*
X161427268Y-119882011D01*
X161455840Y-119796297D01*
X161484411Y-119767725D01*
X162027268Y-119196297D02*
X162027268Y-119539154D01*
X162027268Y-119367725D02*
X161427268Y-119367725D01*
X161512982Y-119424868D01*
X161570125Y-119482011D01*
X161598697Y-119539154D01*
X161627268Y-118682011D02*
X162027268Y-118682011D01*
X161398697Y-118824868D02*
X161827268Y-118967725D01*
X161827268Y-118596297D01*
X165739285Y-121250285D02*
X165767857Y-121278857D01*
X165796428Y-121364571D01*
X165796428Y-121421714D01*
X165767857Y-121507428D01*
X165710714Y-121564571D01*
X165653571Y-121593142D01*
X165539285Y-121621714D01*
X165453571Y-121621714D01*
X165339285Y-121593142D01*
X165282142Y-121564571D01*
X165225000Y-121507428D01*
X165196428Y-121421714D01*
X165196428Y-121364571D01*
X165225000Y-121278857D01*
X165253571Y-121250285D01*
X165796428Y-120678857D02*
X165796428Y-121021714D01*
X165796428Y-120850285D02*
X165196428Y-120850285D01*
X165282142Y-120907428D01*
X165339285Y-120964571D01*
X165367857Y-121021714D01*
X165196428Y-120164571D02*
X165196428Y-120278857D01*
X165225000Y-120336000D01*
X165253571Y-120364571D01*
X165339285Y-120421714D01*
X165453571Y-120450285D01*
X165682142Y-120450285D01*
X165739285Y-120421714D01*
X165767857Y-120393142D01*
X165796428Y-120336000D01*
X165796428Y-120221714D01*
X165767857Y-120164571D01*
X165739285Y-120136000D01*
X165682142Y-120107428D01*
X165539285Y-120107428D01*
X165482142Y-120136000D01*
X165453571Y-120164571D01*
X165425000Y-120221714D01*
X165425000Y-120336000D01*
X165453571Y-120393142D01*
X165482142Y-120421714D01*
X165539285Y-120450285D01*
X170510434Y-109787645D02*
X170481862Y-109816217D01*
X170396148Y-109844788D01*
X170339005Y-109844788D01*
X170253291Y-109816217D01*
X170196148Y-109759074D01*
X170167577Y-109701931D01*
X170139005Y-109587645D01*
X170139005Y-109501931D01*
X170167577Y-109387645D01*
X170196148Y-109330502D01*
X170253291Y-109273360D01*
X170339005Y-109244788D01*
X170396148Y-109244788D01*
X170481862Y-109273360D01*
X170510434Y-109301931D01*
X171081862Y-109844788D02*
X170739005Y-109844788D01*
X170910434Y-109844788D02*
X170910434Y-109244788D01*
X170853291Y-109330502D01*
X170796148Y-109387645D01*
X170739005Y-109416217D01*
X171624720Y-109244788D02*
X171339005Y-109244788D01*
X171310434Y-109530502D01*
X171339005Y-109501931D01*
X171396148Y-109473360D01*
X171539005Y-109473360D01*
X171596148Y-109501931D01*
X171624720Y-109530502D01*
X171653291Y-109587645D01*
X171653291Y-109730502D01*
X171624720Y-109787645D01*
X171596148Y-109816217D01*
X171539005Y-109844788D01*
X171396148Y-109844788D01*
X171339005Y-109816217D01*
X171310434Y-109787645D01*
X175076190Y-111910428D02*
X174838095Y-112077095D01*
X175076190Y-112196142D02*
X174576190Y-112196142D01*
X174576190Y-112005666D01*
X174600000Y-111958047D01*
X174623809Y-111934238D01*
X174671428Y-111910428D01*
X174742857Y-111910428D01*
X174790476Y-111934238D01*
X174814285Y-111958047D01*
X174838095Y-112005666D01*
X174838095Y-112196142D01*
X175076190Y-111434238D02*
X175076190Y-111719952D01*
X175076190Y-111577095D02*
X174576190Y-111577095D01*
X174647619Y-111624714D01*
X174695238Y-111672333D01*
X174719047Y-111719952D01*
X178221990Y-110912958D02*
X177983895Y-111079624D01*
X178221990Y-111198672D02*
X177721990Y-111198672D01*
X177721990Y-111008196D01*
X177745800Y-110960577D01*
X177769609Y-110936767D01*
X177817228Y-110912958D01*
X177888657Y-110912958D01*
X177936276Y-110936767D01*
X177960085Y-110960577D01*
X177983895Y-111008196D01*
X177983895Y-111198672D01*
X177769609Y-110722481D02*
X177745800Y-110698672D01*
X177721990Y-110651053D01*
X177721990Y-110532005D01*
X177745800Y-110484386D01*
X177769609Y-110460577D01*
X177817228Y-110436767D01*
X177864847Y-110436767D01*
X177936276Y-110460577D01*
X178221990Y-110746291D01*
X178221990Y-110436767D01*
X174828571Y-114886619D02*
X174852380Y-114910428D01*
X174876190Y-114981857D01*
X174876190Y-115029476D01*
X174852380Y-115100904D01*
X174804761Y-115148523D01*
X174757142Y-115172333D01*
X174661904Y-115196142D01*
X174590476Y-115196142D01*
X174495238Y-115172333D01*
X174447619Y-115148523D01*
X174400000Y-115100904D01*
X174376190Y-115029476D01*
X174376190Y-114981857D01*
X174400000Y-114910428D01*
X174423809Y-114886619D01*
X174876190Y-114410428D02*
X174876190Y-114696142D01*
X174876190Y-114553285D02*
X174376190Y-114553285D01*
X174447619Y-114600904D01*
X174495238Y-114648523D01*
X174519047Y-114696142D01*
X174590476Y-114124714D02*
X174566666Y-114172333D01*
X174542857Y-114196142D01*
X174495238Y-114219952D01*
X174471428Y-114219952D01*
X174423809Y-114196142D01*
X174400000Y-114172333D01*
X174376190Y-114124714D01*
X174376190Y-114029476D01*
X174400000Y-113981857D01*
X174423809Y-113958047D01*
X174471428Y-113934238D01*
X174495238Y-113934238D01*
X174542857Y-113958047D01*
X174566666Y-113981857D01*
X174590476Y-114029476D01*
X174590476Y-114124714D01*
X174614285Y-114172333D01*
X174638095Y-114196142D01*
X174685714Y-114219952D01*
X174780952Y-114219952D01*
X174828571Y-114196142D01*
X174852380Y-114172333D01*
X174876190Y-114124714D01*
X174876190Y-114029476D01*
X174852380Y-113981857D01*
X174828571Y-113958047D01*
X174780952Y-113934238D01*
X174685714Y-113934238D01*
X174638095Y-113958047D01*
X174614285Y-113981857D01*
X174590476Y-114029476D01*
X173408811Y-111299510D02*
X173242144Y-111061415D01*
X173123097Y-111299510D02*
X173123097Y-110799510D01*
X173313573Y-110799510D01*
X173361192Y-110823320D01*
X173385001Y-110847129D01*
X173408811Y-110894748D01*
X173408811Y-110966177D01*
X173385001Y-111013796D01*
X173361192Y-111037605D01*
X173313573Y-111061415D01*
X173123097Y-111061415D01*
X173575478Y-110799510D02*
X173885001Y-110799510D01*
X173718335Y-110989986D01*
X173789763Y-110989986D01*
X173837382Y-111013796D01*
X173861192Y-111037605D01*
X173885001Y-111085224D01*
X173885001Y-111204272D01*
X173861192Y-111251891D01*
X173837382Y-111275700D01*
X173789763Y-111299510D01*
X173646906Y-111299510D01*
X173599287Y-111275700D01*
X173575478Y-111251891D01*
X172671428Y-107874714D02*
X172385714Y-108074714D01*
X172671428Y-108217571D02*
X172071428Y-108217571D01*
X172071428Y-107989000D01*
X172100000Y-107931857D01*
X172128571Y-107903285D01*
X172185714Y-107874714D01*
X172271428Y-107874714D01*
X172328571Y-107903285D01*
X172357142Y-107931857D01*
X172385714Y-107989000D01*
X172385714Y-108217571D01*
X172071428Y-107331857D02*
X172071428Y-107617571D01*
X172357142Y-107646142D01*
X172328571Y-107617571D01*
X172300000Y-107560428D01*
X172300000Y-107417571D01*
X172328571Y-107360428D01*
X172357142Y-107331857D01*
X172414285Y-107303285D01*
X172557142Y-107303285D01*
X172614285Y-107331857D01*
X172642857Y-107360428D01*
X172671428Y-107417571D01*
X172671428Y-107560428D01*
X172642857Y-107617571D01*
X172614285Y-107646142D01*
D22*
X181388546Y-102014285D02*
X181359974Y-102042857D01*
X181274260Y-102071428D01*
X181217117Y-102071428D01*
X181131403Y-102042857D01*
X181074260Y-101985714D01*
X181045689Y-101928571D01*
X181017117Y-101814285D01*
X181017117Y-101728571D01*
X181045689Y-101614285D01*
X181074260Y-101557142D01*
X181131403Y-101500000D01*
X181217117Y-101471428D01*
X181274260Y-101471428D01*
X181359974Y-101500000D01*
X181388546Y-101528571D01*
X181959974Y-102071428D02*
X181617117Y-102071428D01*
X181788546Y-102071428D02*
X181788546Y-101471428D01*
X181731403Y-101557142D01*
X181674260Y-101614285D01*
X181617117Y-101642857D01*
X182159974Y-101471428D02*
X182559974Y-101471428D01*
X182302832Y-102071428D01*
D12*
X194773185Y-114727542D02*
X194801757Y-114756114D01*
X194830328Y-114841828D01*
X194830328Y-114898971D01*
X194801757Y-114984685D01*
X194744614Y-115041828D01*
X194687471Y-115070400D01*
X194573185Y-115098971D01*
X194487471Y-115098971D01*
X194373185Y-115070400D01*
X194316042Y-115041828D01*
X194258900Y-114984685D01*
X194230328Y-114898971D01*
X194230328Y-114841828D01*
X194258900Y-114756114D01*
X194287471Y-114727542D01*
X194830328Y-114156114D02*
X194830328Y-114498971D01*
X194830328Y-114327542D02*
X194230328Y-114327542D01*
X194316042Y-114384685D01*
X194373185Y-114441828D01*
X194401757Y-114498971D01*
X194830328Y-113870400D02*
X194830328Y-113756114D01*
X194801757Y-113698971D01*
X194773185Y-113670400D01*
X194687471Y-113613257D01*
X194573185Y-113584685D01*
X194344614Y-113584685D01*
X194287471Y-113613257D01*
X194258900Y-113641828D01*
X194230328Y-113698971D01*
X194230328Y-113813257D01*
X194258900Y-113870400D01*
X194287471Y-113898971D01*
X194344614Y-113927542D01*
X194487471Y-113927542D01*
X194544614Y-113898971D01*
X194573185Y-113870400D01*
X194601757Y-113813257D01*
X194601757Y-113698971D01*
X194573185Y-113641828D01*
X194544614Y-113613257D01*
X194487471Y-113584685D01*
D22*
X189213258Y-102884880D02*
X189179925Y-102918213D01*
X189079925Y-102951546D01*
X189013258Y-102951546D01*
X188913258Y-102918213D01*
X188846592Y-102851546D01*
X188813258Y-102784880D01*
X188779925Y-102651546D01*
X188779925Y-102551546D01*
X188813258Y-102418213D01*
X188846592Y-102351546D01*
X188913258Y-102284880D01*
X189013258Y-102251546D01*
X189079925Y-102251546D01*
X189179925Y-102284880D01*
X189213258Y-102318213D01*
X189479925Y-102318213D02*
X189513258Y-102284880D01*
X189579925Y-102251546D01*
X189746592Y-102251546D01*
X189813258Y-102284880D01*
X189846592Y-102318213D01*
X189879925Y-102384880D01*
X189879925Y-102451546D01*
X189846592Y-102551546D01*
X189446592Y-102951546D01*
X189879925Y-102951546D01*
X190313258Y-102251546D02*
X190379925Y-102251546D01*
X190446592Y-102284880D01*
X190479925Y-102318213D01*
X190513258Y-102384880D01*
X190546592Y-102518213D01*
X190546592Y-102684880D01*
X190513258Y-102818213D01*
X190479925Y-102884880D01*
X190446592Y-102918213D01*
X190379925Y-102951546D01*
X190313258Y-102951546D01*
X190246592Y-102918213D01*
X190213258Y-102884880D01*
X190179925Y-102818213D01*
X190146592Y-102684880D01*
X190146592Y-102518213D01*
X190179925Y-102384880D01*
X190213258Y-102318213D01*
X190246592Y-102284880D01*
X190313258Y-102251546D01*
D12*
X191523185Y-115396142D02*
X191551757Y-115424714D01*
X191580328Y-115510428D01*
X191580328Y-115567571D01*
X191551757Y-115653285D01*
X191494614Y-115710428D01*
X191437471Y-115739000D01*
X191323185Y-115767571D01*
X191237471Y-115767571D01*
X191123185Y-115739000D01*
X191066042Y-115710428D01*
X191008900Y-115653285D01*
X190980328Y-115567571D01*
X190980328Y-115510428D01*
X191008900Y-115424714D01*
X191037471Y-115396142D01*
X191037471Y-115167571D02*
X191008900Y-115139000D01*
X190980328Y-115081857D01*
X190980328Y-114939000D01*
X191008900Y-114881857D01*
X191037471Y-114853285D01*
X191094614Y-114824714D01*
X191151757Y-114824714D01*
X191237471Y-114853285D01*
X191580328Y-115196142D01*
X191580328Y-114824714D01*
X191580328Y-114253285D02*
X191580328Y-114596142D01*
X191580328Y-114424714D02*
X190980328Y-114424714D01*
X191066042Y-114481857D01*
X191123185Y-114539000D01*
X191151757Y-114596142D01*
X176528451Y-114301318D02*
X176552260Y-114325127D01*
X176576070Y-114396556D01*
X176576070Y-114444175D01*
X176552260Y-114515603D01*
X176504641Y-114563222D01*
X176457022Y-114587032D01*
X176361784Y-114610841D01*
X176290356Y-114610841D01*
X176195118Y-114587032D01*
X176147499Y-114563222D01*
X176099880Y-114515603D01*
X176076070Y-114444175D01*
X176076070Y-114396556D01*
X176099880Y-114325127D01*
X176123689Y-114301318D01*
X176123689Y-114110841D02*
X176099880Y-114087032D01*
X176076070Y-114039413D01*
X176076070Y-113920365D01*
X176099880Y-113872746D01*
X176123689Y-113848937D01*
X176171308Y-113825127D01*
X176218927Y-113825127D01*
X176290356Y-113848937D01*
X176576070Y-114134651D01*
X176576070Y-113825127D01*
X176123689Y-113634651D02*
X176099880Y-113610841D01*
X176076070Y-113563222D01*
X176076070Y-113444175D01*
X176099880Y-113396556D01*
X176123689Y-113372746D01*
X176171308Y-113348937D01*
X176218927Y-113348937D01*
X176290356Y-113372746D01*
X176576070Y-113658460D01*
X176576070Y-113348937D01*
D23*
X175652251Y-106679975D02*
X175468404Y-106679975D01*
X175468404Y-106293895D01*
X175780945Y-106477742D02*
X175909638Y-106477742D01*
X175964792Y-106679975D02*
X175780945Y-106679975D01*
X175780945Y-106293895D01*
X175964792Y-106293895D01*
X176130255Y-106679975D02*
X176130255Y-106293895D01*
X176222179Y-106293895D01*
X176277333Y-106312280D01*
X176314103Y-106349049D01*
X176332488Y-106385819D01*
X176350872Y-106459358D01*
X176350872Y-106514512D01*
X176332488Y-106588051D01*
X176314103Y-106624820D01*
X176277333Y-106661590D01*
X176222179Y-106679975D01*
X176130255Y-106679975D01*
X176718568Y-106679975D02*
X176497951Y-106679975D01*
X176608259Y-106679975D02*
X176608259Y-106293895D01*
X176571490Y-106349049D01*
X176534720Y-106385819D01*
X176497951Y-106404203D01*
D12*
X177660771Y-108998270D02*
X177494104Y-108760175D01*
X177375057Y-108998270D02*
X177375057Y-108498270D01*
X177565533Y-108498270D01*
X177613152Y-108522080D01*
X177636961Y-108545889D01*
X177660771Y-108593508D01*
X177660771Y-108664937D01*
X177636961Y-108712556D01*
X177613152Y-108736365D01*
X177565533Y-108760175D01*
X177375057Y-108760175D01*
X177898866Y-108998270D02*
X177994104Y-108998270D01*
X178041723Y-108974460D01*
X178065533Y-108950651D01*
X178113152Y-108879222D01*
X178136961Y-108783984D01*
X178136961Y-108593508D01*
X178113152Y-108545889D01*
X178089342Y-108522080D01*
X178041723Y-108498270D01*
X177946485Y-108498270D01*
X177898866Y-108522080D01*
X177875057Y-108545889D01*
X177851247Y-108593508D01*
X177851247Y-108712556D01*
X177875057Y-108760175D01*
X177898866Y-108783984D01*
X177946485Y-108807794D01*
X178041723Y-108807794D01*
X178089342Y-108783984D01*
X178113152Y-108760175D01*
X178136961Y-108712556D01*
X189553474Y-101370712D02*
X189362998Y-101370712D01*
X189362998Y-100970712D01*
X189686807Y-101161188D02*
X189820140Y-101161188D01*
X189877283Y-101370712D02*
X189686807Y-101370712D01*
X189686807Y-100970712D01*
X189877283Y-100970712D01*
X190048712Y-101370712D02*
X190048712Y-100970712D01*
X190143950Y-100970712D01*
X190201093Y-100989760D01*
X190239188Y-101027855D01*
X190258236Y-101065950D01*
X190277283Y-101142140D01*
X190277283Y-101199283D01*
X190258236Y-101275474D01*
X190239188Y-101313569D01*
X190201093Y-101351664D01*
X190143950Y-101370712D01*
X190048712Y-101370712D01*
X190429664Y-101008807D02*
X190448712Y-100989760D01*
X190486807Y-100970712D01*
X190582045Y-100970712D01*
X190620140Y-100989760D01*
X190639188Y-101008807D01*
X190658236Y-101046902D01*
X190658236Y-101084998D01*
X190639188Y-101142140D01*
X190410617Y-101370712D01*
X190658236Y-101370712D01*
D24*
X184276817Y-102871428D02*
X184076817Y-102585714D01*
X183933960Y-102871428D02*
X183933960Y-102271428D01*
X184162531Y-102271428D01*
X184219674Y-102300000D01*
X184248245Y-102328571D01*
X184276817Y-102385714D01*
X184276817Y-102471428D01*
X184248245Y-102528571D01*
X184219674Y-102557142D01*
X184162531Y-102585714D01*
X183933960Y-102585714D01*
X184848245Y-102871428D02*
X184505388Y-102871428D01*
X184676817Y-102871428D02*
X184676817Y-102271428D01*
X184619674Y-102357142D01*
X184562531Y-102414285D01*
X184505388Y-102442857D01*
X185219674Y-102271428D02*
X185276817Y-102271428D01*
X185333960Y-102300000D01*
X185362531Y-102328571D01*
X185391102Y-102385714D01*
X185419674Y-102500000D01*
X185419674Y-102642857D01*
X185391102Y-102757142D01*
X185362531Y-102814285D01*
X185333960Y-102842857D01*
X185276817Y-102871428D01*
X185219674Y-102871428D01*
X185162531Y-102842857D01*
X185133960Y-102814285D01*
X185105388Y-102757142D01*
X185076817Y-102642857D01*
X185076817Y-102500000D01*
X185105388Y-102385714D01*
X185133960Y-102328571D01*
X185162531Y-102300000D01*
X185219674Y-102271428D01*
D12*
X194571428Y-111575285D02*
X195171428Y-111175285D01*
X194571428Y-111175285D02*
X195171428Y-111575285D01*
X194571428Y-111032428D02*
X194571428Y-110689571D01*
X195171428Y-110861000D02*
X194571428Y-110861000D01*
X195000000Y-110518142D02*
X195000000Y-110232428D01*
X195171428Y-110575285D02*
X194571428Y-110375285D01*
X195171428Y-110175285D01*
X195171428Y-109689571D02*
X195171428Y-109975285D01*
X194571428Y-109975285D01*
X195171428Y-109175285D02*
X195171428Y-109518142D01*
X195171428Y-109346714D02*
X194571428Y-109346714D01*
X194657142Y-109403857D01*
X194714285Y-109461000D01*
X194742857Y-109518142D01*
D21*
X191928571Y-108362738D02*
X191952380Y-108386547D01*
X191976190Y-108457976D01*
X191976190Y-108505595D01*
X191952380Y-108577023D01*
X191904761Y-108624642D01*
X191857142Y-108648452D01*
X191761904Y-108672261D01*
X191690476Y-108672261D01*
X191595238Y-108648452D01*
X191547619Y-108624642D01*
X191500000Y-108577023D01*
X191476190Y-108505595D01*
X191476190Y-108457976D01*
X191500000Y-108386547D01*
X191523809Y-108362738D01*
X191976190Y-107886547D02*
X191976190Y-108172261D01*
X191976190Y-108029404D02*
X191476190Y-108029404D01*
X191547619Y-108077023D01*
X191595238Y-108124642D01*
X191619047Y-108172261D01*
X191976190Y-107410357D02*
X191976190Y-107696071D01*
X191976190Y-107553214D02*
X191476190Y-107553214D01*
X191547619Y-107600833D01*
X191595238Y-107648452D01*
X191619047Y-107696071D01*
D12*
X172589571Y-122176190D02*
X172422904Y-121938095D01*
X172303857Y-122176190D02*
X172303857Y-121676190D01*
X172494333Y-121676190D01*
X172541952Y-121700000D01*
X172565761Y-121723809D01*
X172589571Y-121771428D01*
X172589571Y-121842857D01*
X172565761Y-121890476D01*
X172541952Y-121914285D01*
X172494333Y-121938095D01*
X172303857Y-121938095D01*
X172875285Y-121890476D02*
X172827666Y-121866666D01*
X172803857Y-121842857D01*
X172780047Y-121795238D01*
X172780047Y-121771428D01*
X172803857Y-121723809D01*
X172827666Y-121700000D01*
X172875285Y-121676190D01*
X172970523Y-121676190D01*
X173018142Y-121700000D01*
X173041952Y-121723809D01*
X173065761Y-121771428D01*
X173065761Y-121795238D01*
X173041952Y-121842857D01*
X173018142Y-121866666D01*
X172970523Y-121890476D01*
X172875285Y-121890476D01*
X172827666Y-121914285D01*
X172803857Y-121938095D01*
X172780047Y-121985714D01*
X172780047Y-122080952D01*
X172803857Y-122128571D01*
X172827666Y-122152380D01*
X172875285Y-122176190D01*
X172970523Y-122176190D01*
X173018142Y-122152380D01*
X173041952Y-122128571D01*
X173065761Y-122080952D01*
X173065761Y-121985714D01*
X173041952Y-121938095D01*
X173018142Y-121914285D01*
X172970523Y-121890476D01*
D21*
X187118214Y-118714285D02*
X187089642Y-118742857D01*
X187003928Y-118771428D01*
X186946785Y-118771428D01*
X186861071Y-118742857D01*
X186803928Y-118685714D01*
X186775357Y-118628571D01*
X186746785Y-118514285D01*
X186746785Y-118428571D01*
X186775357Y-118314285D01*
X186803928Y-118257142D01*
X186861071Y-118200000D01*
X186946785Y-118171428D01*
X187003928Y-118171428D01*
X187089642Y-118200000D01*
X187118214Y-118228571D01*
X187346785Y-118228571D02*
X187375357Y-118200000D01*
X187432500Y-118171428D01*
X187575357Y-118171428D01*
X187632500Y-118200000D01*
X187661071Y-118228571D01*
X187689642Y-118285714D01*
X187689642Y-118342857D01*
X187661071Y-118428571D01*
X187318214Y-118771428D01*
X187689642Y-118771428D01*
X188032500Y-118428571D02*
X187975357Y-118400000D01*
X187946785Y-118371428D01*
X187918214Y-118314285D01*
X187918214Y-118285714D01*
X187946785Y-118228571D01*
X187975357Y-118200000D01*
X188032500Y-118171428D01*
X188146785Y-118171428D01*
X188203928Y-118200000D01*
X188232500Y-118228571D01*
X188261071Y-118285714D01*
X188261071Y-118314285D01*
X188232500Y-118371428D01*
X188203928Y-118400000D01*
X188146785Y-118428571D01*
X188032500Y-118428571D01*
X187975357Y-118457142D01*
X187946785Y-118485714D01*
X187918214Y-118542857D01*
X187918214Y-118657142D01*
X187946785Y-118714285D01*
X187975357Y-118742857D01*
X188032500Y-118771428D01*
X188146785Y-118771428D01*
X188203928Y-118742857D01*
X188232500Y-118714285D01*
X188261071Y-118657142D01*
X188261071Y-118542857D01*
X188232500Y-118485714D01*
X188203928Y-118457142D01*
X188146785Y-118428571D01*
D12*
X180514285Y-119375285D02*
X180542857Y-119403857D01*
X180571428Y-119489571D01*
X180571428Y-119546714D01*
X180542857Y-119632428D01*
X180485714Y-119689571D01*
X180428571Y-119718142D01*
X180314285Y-119746714D01*
X180228571Y-119746714D01*
X180114285Y-119718142D01*
X180057142Y-119689571D01*
X180000000Y-119632428D01*
X179971428Y-119546714D01*
X179971428Y-119489571D01*
X180000000Y-119403857D01*
X180028571Y-119375285D01*
X180028571Y-119146714D02*
X180000000Y-119118142D01*
X179971428Y-119061000D01*
X179971428Y-118918142D01*
X180000000Y-118861000D01*
X180028571Y-118832428D01*
X180085714Y-118803857D01*
X180142857Y-118803857D01*
X180228571Y-118832428D01*
X180571428Y-119175285D01*
X180571428Y-118803857D01*
X179971428Y-118603857D02*
X179971428Y-118203857D01*
X180571428Y-118461000D01*
X162885681Y-107145091D02*
X162861872Y-107168900D01*
X162790443Y-107192710D01*
X162742824Y-107192710D01*
X162671396Y-107168900D01*
X162623777Y-107121281D01*
X162599967Y-107073662D01*
X162576158Y-106978424D01*
X162576158Y-106906996D01*
X162599967Y-106811758D01*
X162623777Y-106764139D01*
X162671396Y-106716520D01*
X162742824Y-106692710D01*
X162790443Y-106692710D01*
X162861872Y-106716520D01*
X162885681Y-106740329D01*
X163076158Y-106740329D02*
X163099967Y-106716520D01*
X163147586Y-106692710D01*
X163266634Y-106692710D01*
X163314253Y-106716520D01*
X163338062Y-106740329D01*
X163361872Y-106787948D01*
X163361872Y-106835567D01*
X163338062Y-106906996D01*
X163052348Y-107192710D01*
X163361872Y-107192710D01*
X163528539Y-106692710D02*
X163838062Y-106692710D01*
X163671396Y-106883186D01*
X163742824Y-106883186D01*
X163790443Y-106906996D01*
X163814253Y-106930805D01*
X163838062Y-106978424D01*
X163838062Y-107097472D01*
X163814253Y-107145091D01*
X163790443Y-107168900D01*
X163742824Y-107192710D01*
X163599967Y-107192710D01*
X163552348Y-107168900D01*
X163528539Y-107145091D01*
X167664285Y-106125285D02*
X167692857Y-106153857D01*
X167721428Y-106239571D01*
X167721428Y-106296714D01*
X167692857Y-106382428D01*
X167635714Y-106439571D01*
X167578571Y-106468142D01*
X167464285Y-106496714D01*
X167378571Y-106496714D01*
X167264285Y-106468142D01*
X167207142Y-106439571D01*
X167150000Y-106382428D01*
X167121428Y-106296714D01*
X167121428Y-106239571D01*
X167150000Y-106153857D01*
X167178571Y-106125285D01*
X167178571Y-105896714D02*
X167150000Y-105868142D01*
X167121428Y-105811000D01*
X167121428Y-105668142D01*
X167150000Y-105611000D01*
X167178571Y-105582428D01*
X167235714Y-105553857D01*
X167292857Y-105553857D01*
X167378571Y-105582428D01*
X167721428Y-105925285D01*
X167721428Y-105553857D01*
X167321428Y-105039571D02*
X167721428Y-105039571D01*
X167092857Y-105182428D02*
X167521428Y-105325285D01*
X167521428Y-104953857D01*
D25*
X167979821Y-122076190D02*
X167813154Y-121838095D01*
X167694107Y-122076190D02*
X167694107Y-121576190D01*
X167884583Y-121576190D01*
X167932202Y-121600000D01*
X167956011Y-121623809D01*
X167979821Y-121671428D01*
X167979821Y-121742857D01*
X167956011Y-121790476D01*
X167932202Y-121814285D01*
X167884583Y-121838095D01*
X167694107Y-121838095D01*
X168146488Y-121576190D02*
X168479821Y-121576190D01*
X168265535Y-122076190D01*
D22*
X176438546Y-125114285D02*
X176409974Y-125142857D01*
X176324260Y-125171428D01*
X176267117Y-125171428D01*
X176181403Y-125142857D01*
X176124260Y-125085714D01*
X176095689Y-125028571D01*
X176067117Y-124914285D01*
X176067117Y-124828571D01*
X176095689Y-124714285D01*
X176124260Y-124657142D01*
X176181403Y-124600000D01*
X176267117Y-124571428D01*
X176324260Y-124571428D01*
X176409974Y-124600000D01*
X176438546Y-124628571D01*
X176952832Y-124771428D02*
X176952832Y-125171428D01*
X176809974Y-124542857D02*
X176667117Y-124971428D01*
X177038546Y-124971428D01*
X163031493Y-124874971D02*
X163007684Y-124898780D01*
X162936255Y-124922590D01*
X162888636Y-124922590D01*
X162817208Y-124898780D01*
X162769589Y-124851161D01*
X162745779Y-124803542D01*
X162721970Y-124708304D01*
X162721970Y-124636876D01*
X162745779Y-124541638D01*
X162769589Y-124494019D01*
X162817208Y-124446400D01*
X162888636Y-124422590D01*
X162936255Y-124422590D01*
X163007684Y-124446400D01*
X163031493Y-124470209D01*
X163198160Y-124422590D02*
X163507684Y-124422590D01*
X163341017Y-124613066D01*
X163412446Y-124613066D01*
X163460065Y-124636876D01*
X163483874Y-124660685D01*
X163507684Y-124708304D01*
X163507684Y-124827352D01*
X163483874Y-124874971D01*
X163460065Y-124898780D01*
X163412446Y-124922590D01*
X163269589Y-124922590D01*
X163221970Y-124898780D01*
X163198160Y-124874971D01*
X161056493Y-124849971D02*
X161032684Y-124873780D01*
X160961255Y-124897590D01*
X160913636Y-124897590D01*
X160842208Y-124873780D01*
X160794589Y-124826161D01*
X160770779Y-124778542D01*
X160746970Y-124683304D01*
X160746970Y-124611876D01*
X160770779Y-124516638D01*
X160794589Y-124469019D01*
X160842208Y-124421400D01*
X160913636Y-124397590D01*
X160961255Y-124397590D01*
X161032684Y-124421400D01*
X161056493Y-124445209D01*
X161246970Y-124445209D02*
X161270779Y-124421400D01*
X161318398Y-124397590D01*
X161437446Y-124397590D01*
X161485065Y-124421400D01*
X161508874Y-124445209D01*
X161532684Y-124492828D01*
X161532684Y-124540447D01*
X161508874Y-124611876D01*
X161223160Y-124897590D01*
X161532684Y-124897590D01*
X184738546Y-125014285D02*
X184709974Y-125042857D01*
X184624260Y-125071428D01*
X184567117Y-125071428D01*
X184481403Y-125042857D01*
X184424260Y-124985714D01*
X184395689Y-124928571D01*
X184367117Y-124814285D01*
X184367117Y-124728571D01*
X184395689Y-124614285D01*
X184424260Y-124557142D01*
X184481403Y-124500000D01*
X184567117Y-124471428D01*
X184624260Y-124471428D01*
X184709974Y-124500000D01*
X184738546Y-124528571D01*
X184938546Y-124471428D02*
X185338546Y-124471428D01*
X185081403Y-125071428D01*
X182438546Y-125014285D02*
X182409974Y-125042857D01*
X182324260Y-125071428D01*
X182267117Y-125071428D01*
X182181403Y-125042857D01*
X182124260Y-124985714D01*
X182095689Y-124928571D01*
X182067117Y-124814285D01*
X182067117Y-124728571D01*
X182095689Y-124614285D01*
X182124260Y-124557142D01*
X182181403Y-124500000D01*
X182267117Y-124471428D01*
X182324260Y-124471428D01*
X182409974Y-124500000D01*
X182438546Y-124528571D01*
X182952832Y-124471428D02*
X182838546Y-124471428D01*
X182781403Y-124500000D01*
X182752832Y-124528571D01*
X182695689Y-124614285D01*
X182667117Y-124728571D01*
X182667117Y-124957142D01*
X182695689Y-125014285D01*
X182724260Y-125042857D01*
X182781403Y-125071428D01*
X182895689Y-125071428D01*
X182952832Y-125042857D01*
X182981403Y-125014285D01*
X183009974Y-124957142D01*
X183009974Y-124814285D01*
X182981403Y-124757142D01*
X182952832Y-124728571D01*
X182895689Y-124700000D01*
X182781403Y-124700000D01*
X182724260Y-124728571D01*
X182695689Y-124757142D01*
X182667117Y-124814285D01*
X178738546Y-125114285D02*
X178709974Y-125142857D01*
X178624260Y-125171428D01*
X178567117Y-125171428D01*
X178481403Y-125142857D01*
X178424260Y-125085714D01*
X178395689Y-125028571D01*
X178367117Y-124914285D01*
X178367117Y-124828571D01*
X178395689Y-124714285D01*
X178424260Y-124657142D01*
X178481403Y-124600000D01*
X178567117Y-124571428D01*
X178624260Y-124571428D01*
X178709974Y-124600000D01*
X178738546Y-124628571D01*
X179281403Y-124571428D02*
X178995689Y-124571428D01*
X178967117Y-124857142D01*
X178995689Y-124828571D01*
X179052832Y-124800000D01*
X179195689Y-124800000D01*
X179252832Y-124828571D01*
X179281403Y-124857142D01*
X179309974Y-124914285D01*
X179309974Y-125057142D01*
X179281403Y-125114285D01*
X179252832Y-125142857D01*
X179195689Y-125171428D01*
X179052832Y-125171428D01*
X178995689Y-125142857D01*
X178967117Y-125114285D01*
X158856493Y-124824971D02*
X158832684Y-124848780D01*
X158761255Y-124872590D01*
X158713636Y-124872590D01*
X158642208Y-124848780D01*
X158594589Y-124801161D01*
X158570779Y-124753542D01*
X158546970Y-124658304D01*
X158546970Y-124586876D01*
X158570779Y-124491638D01*
X158594589Y-124444019D01*
X158642208Y-124396400D01*
X158713636Y-124372590D01*
X158761255Y-124372590D01*
X158832684Y-124396400D01*
X158856493Y-124420209D01*
X159332684Y-124872590D02*
X159046970Y-124872590D01*
X159189827Y-124872590D02*
X159189827Y-124372590D01*
X159142208Y-124444019D01*
X159094589Y-124491638D01*
X159046970Y-124515447D01*
D12*
X190314285Y-123424714D02*
X190342857Y-123453285D01*
X190371428Y-123539000D01*
X190371428Y-123596142D01*
X190342857Y-123681857D01*
X190285714Y-123739000D01*
X190228571Y-123767571D01*
X190114285Y-123796142D01*
X190028571Y-123796142D01*
X189914285Y-123767571D01*
X189857142Y-123739000D01*
X189800000Y-123681857D01*
X189771428Y-123596142D01*
X189771428Y-123539000D01*
X189800000Y-123453285D01*
X189828571Y-123424714D01*
X190028571Y-123081857D02*
X190000000Y-123139000D01*
X189971428Y-123167571D01*
X189914285Y-123196142D01*
X189885714Y-123196142D01*
X189828571Y-123167571D01*
X189800000Y-123139000D01*
X189771428Y-123081857D01*
X189771428Y-122967571D01*
X189800000Y-122910428D01*
X189828571Y-122881857D01*
X189885714Y-122853285D01*
X189914285Y-122853285D01*
X189971428Y-122881857D01*
X190000000Y-122910428D01*
X190028571Y-122967571D01*
X190028571Y-123081857D01*
X190057142Y-123139000D01*
X190085714Y-123167571D01*
X190142857Y-123196142D01*
X190257142Y-123196142D01*
X190314285Y-123167571D01*
X190342857Y-123139000D01*
X190371428Y-123081857D01*
X190371428Y-122967571D01*
X190342857Y-122910428D01*
X190314285Y-122881857D01*
X190257142Y-122853285D01*
X190142857Y-122853285D01*
X190085714Y-122881857D01*
X190057142Y-122910428D01*
X190028571Y-122967571D01*
D21*
X160567951Y-116699688D02*
X160591760Y-116723498D01*
X160615570Y-116794926D01*
X160615570Y-116842545D01*
X160591760Y-116913974D01*
X160544141Y-116961593D01*
X160496522Y-116985402D01*
X160401284Y-117009212D01*
X160329856Y-117009212D01*
X160234618Y-116985402D01*
X160186999Y-116961593D01*
X160139380Y-116913974D01*
X160115570Y-116842545D01*
X160115570Y-116794926D01*
X160139380Y-116723498D01*
X160163189Y-116699688D01*
X160615570Y-116461593D02*
X160615570Y-116366355D01*
X160591760Y-116318736D01*
X160567951Y-116294926D01*
X160496522Y-116247307D01*
X160401284Y-116223498D01*
X160210808Y-116223498D01*
X160163189Y-116247307D01*
X160139380Y-116271117D01*
X160115570Y-116318736D01*
X160115570Y-116413974D01*
X160139380Y-116461593D01*
X160163189Y-116485402D01*
X160210808Y-116509212D01*
X160329856Y-116509212D01*
X160377475Y-116485402D01*
X160401284Y-116461593D01*
X160425094Y-116413974D01*
X160425094Y-116318736D01*
X160401284Y-116271117D01*
X160377475Y-116247307D01*
X160329856Y-116223498D01*
D12*
X176357397Y-119088365D02*
X176328825Y-119116937D01*
X176243111Y-119145508D01*
X176185968Y-119145508D01*
X176100254Y-119116937D01*
X176043111Y-119059794D01*
X176014540Y-119002651D01*
X175985968Y-118888365D01*
X175985968Y-118802651D01*
X176014540Y-118688365D01*
X176043111Y-118631222D01*
X176100254Y-118574080D01*
X176185968Y-118545508D01*
X176243111Y-118545508D01*
X176328825Y-118574080D01*
X176357397Y-118602651D01*
X176585968Y-118602651D02*
X176614540Y-118574080D01*
X176671682Y-118545508D01*
X176814540Y-118545508D01*
X176871682Y-118574080D01*
X176900254Y-118602651D01*
X176928825Y-118659794D01*
X176928825Y-118716937D01*
X176900254Y-118802651D01*
X176557397Y-119145508D01*
X176928825Y-119145508D01*
X177443111Y-118545508D02*
X177328825Y-118545508D01*
X177271682Y-118574080D01*
X177243111Y-118602651D01*
X177185968Y-118688365D01*
X177157397Y-118802651D01*
X177157397Y-119031222D01*
X177185968Y-119088365D01*
X177214540Y-119116937D01*
X177271682Y-119145508D01*
X177385968Y-119145508D01*
X177443111Y-119116937D01*
X177471682Y-119088365D01*
X177500254Y-119031222D01*
X177500254Y-118888365D01*
X177471682Y-118831222D01*
X177443111Y-118802651D01*
X177385968Y-118774080D01*
X177271682Y-118774080D01*
X177214540Y-118802651D01*
X177185968Y-118831222D01*
X177157397Y-118888365D01*
D21*
X159747261Y-104540476D02*
X159747261Y-104730952D01*
X159613928Y-104330952D02*
X159747261Y-104540476D01*
X159880595Y-104330952D01*
X160242500Y-104692857D02*
X160223452Y-104711904D01*
X160166309Y-104730952D01*
X160128214Y-104730952D01*
X160071071Y-104711904D01*
X160032976Y-104673809D01*
X160013928Y-104635714D01*
X159994880Y-104559523D01*
X159994880Y-104502380D01*
X160013928Y-104426190D01*
X160032976Y-104388095D01*
X160071071Y-104350000D01*
X160128214Y-104330952D01*
X160166309Y-104330952D01*
X160223452Y-104350000D01*
X160242500Y-104369047D01*
X160394880Y-104616666D02*
X160585357Y-104616666D01*
X160356785Y-104730952D02*
X160490119Y-104330952D01*
X160623452Y-104730952D01*
X160756785Y-104730952D02*
X160756785Y-104330952D01*
X160909166Y-104330952D01*
X160947261Y-104350000D01*
X160966309Y-104369047D01*
X160985357Y-104407142D01*
X160985357Y-104464285D01*
X160966309Y-104502380D01*
X160947261Y-104521428D01*
X160909166Y-104540476D01*
X160756785Y-104540476D01*
X161366309Y-104730952D02*
X161137738Y-104730952D01*
X161252023Y-104730952D02*
X161252023Y-104330952D01*
X161213928Y-104388095D01*
X161175833Y-104426190D01*
X161137738Y-104445238D01*
D12*
X191859376Y-133334238D02*
X192049852Y-133334238D01*
X191649852Y-133467571D02*
X191859376Y-133334238D01*
X191649852Y-133200904D01*
X192011757Y-132839000D02*
X192030804Y-132858047D01*
X192049852Y-132915190D01*
X192049852Y-132953285D01*
X192030804Y-133010428D01*
X191992709Y-133048523D01*
X191954614Y-133067571D01*
X191878423Y-133086619D01*
X191821280Y-133086619D01*
X191745090Y-133067571D01*
X191706995Y-133048523D01*
X191668900Y-133010428D01*
X191649852Y-132953285D01*
X191649852Y-132915190D01*
X191668900Y-132858047D01*
X191687947Y-132839000D01*
X191935566Y-132686619D02*
X191935566Y-132496142D01*
X192049852Y-132724714D02*
X191649852Y-132591380D01*
X192049852Y-132458047D01*
X192049852Y-132324714D02*
X191649852Y-132324714D01*
X191649852Y-132172333D01*
X191668900Y-132134238D01*
X191687947Y-132115190D01*
X191726042Y-132096142D01*
X191783185Y-132096142D01*
X191821280Y-132115190D01*
X191840328Y-132134238D01*
X191859376Y-132172333D01*
X191859376Y-132324714D01*
X191687947Y-131943761D02*
X191668900Y-131924714D01*
X191649852Y-131886619D01*
X191649852Y-131791380D01*
X191668900Y-131753285D01*
X191687947Y-131734238D01*
X191726042Y-131715190D01*
X191764138Y-131715190D01*
X191821280Y-131734238D01*
X192049852Y-131962809D01*
X192049852Y-131715190D01*
X194150476Y-133199238D02*
X194340952Y-133199238D01*
X193940952Y-133332571D02*
X194150476Y-133199238D01*
X193940952Y-133065904D01*
X194302857Y-132704000D02*
X194321904Y-132723047D01*
X194340952Y-132780190D01*
X194340952Y-132818285D01*
X194321904Y-132875428D01*
X194283809Y-132913523D01*
X194245714Y-132932571D01*
X194169523Y-132951619D01*
X194112380Y-132951619D01*
X194036190Y-132932571D01*
X193998095Y-132913523D01*
X193960000Y-132875428D01*
X193940952Y-132818285D01*
X193940952Y-132780190D01*
X193960000Y-132723047D01*
X193979047Y-132704000D01*
X194226666Y-132551619D02*
X194226666Y-132361142D01*
X194340952Y-132589714D02*
X193940952Y-132456380D01*
X194340952Y-132323047D01*
X194340952Y-132189714D02*
X193940952Y-132189714D01*
X193940952Y-132037333D01*
X193960000Y-131999238D01*
X193979047Y-131980190D01*
X194017142Y-131961142D01*
X194074285Y-131961142D01*
X194112380Y-131980190D01*
X194131428Y-131999238D01*
X194150476Y-132037333D01*
X194150476Y-132189714D01*
X193940952Y-131827809D02*
X193940952Y-131580190D01*
X194093333Y-131713523D01*
X194093333Y-131656380D01*
X194112380Y-131618285D01*
X194131428Y-131599238D01*
X194169523Y-131580190D01*
X194264761Y-131580190D01*
X194302857Y-131599238D01*
X194321904Y-131618285D01*
X194340952Y-131656380D01*
X194340952Y-131770666D01*
X194321904Y-131808761D01*
X194302857Y-131827809D01*
D21*
X182465476Y-117578571D02*
X182441666Y-117602380D01*
X182370238Y-117626190D01*
X182322619Y-117626190D01*
X182251190Y-117602380D01*
X182203571Y-117554761D01*
X182179761Y-117507142D01*
X182155952Y-117411904D01*
X182155952Y-117340476D01*
X182179761Y-117245238D01*
X182203571Y-117197619D01*
X182251190Y-117150000D01*
X182322619Y-117126190D01*
X182370238Y-117126190D01*
X182441666Y-117150000D01*
X182465476Y-117173809D01*
X182655952Y-117483333D02*
X182894047Y-117483333D01*
X182608333Y-117626190D02*
X182775000Y-117126190D01*
X182941666Y-117626190D01*
X183108333Y-117626190D02*
X183108333Y-117126190D01*
X183394047Y-117626190D01*
X183394047Y-117126190D01*
X183894047Y-117626190D02*
X183608333Y-117626190D01*
X183751190Y-117626190D02*
X183751190Y-117126190D01*
X183703571Y-117197619D01*
X183655952Y-117245238D01*
X183608333Y-117269047D01*
D13*
X171313095Y-102052380D02*
X171313095Y-101052380D01*
X171694047Y-101052380D01*
X171789285Y-101100000D01*
X171836904Y-101147619D01*
X171884523Y-101242857D01*
X171884523Y-101385714D01*
X171836904Y-101480952D01*
X171789285Y-101528571D01*
X171694047Y-101576190D01*
X171313095Y-101576190D01*
X172884523Y-102052380D02*
X172551190Y-101576190D01*
X172313095Y-102052380D02*
X172313095Y-101052380D01*
X172694047Y-101052380D01*
X172789285Y-101100000D01*
X172836904Y-101147619D01*
X172884523Y-101242857D01*
X172884523Y-101385714D01*
X172836904Y-101480952D01*
X172789285Y-101528571D01*
X172694047Y-101576190D01*
X172313095Y-101576190D01*
X173503571Y-101052380D02*
X173694047Y-101052380D01*
X173789285Y-101100000D01*
X173884523Y-101195238D01*
X173932142Y-101385714D01*
X173932142Y-101719047D01*
X173884523Y-101909523D01*
X173789285Y-102004761D01*
X173694047Y-102052380D01*
X173503571Y-102052380D01*
X173408333Y-102004761D01*
X173313095Y-101909523D01*
X173265476Y-101719047D01*
X173265476Y-101385714D01*
X173313095Y-101195238D01*
X173408333Y-101100000D01*
X173503571Y-101052380D01*
X174884523Y-101100000D02*
X174789285Y-101052380D01*
X174646428Y-101052380D01*
X174503571Y-101100000D01*
X174408333Y-101195238D01*
X174360714Y-101290476D01*
X174313095Y-101480952D01*
X174313095Y-101623809D01*
X174360714Y-101814285D01*
X174408333Y-101909523D01*
X174503571Y-102004761D01*
X174646428Y-102052380D01*
X174741666Y-102052380D01*
X174884523Y-102004761D01*
X174932142Y-101957142D01*
X174932142Y-101623809D01*
X174741666Y-101623809D01*
X175884523Y-102052380D02*
X175313095Y-102052380D01*
X175598809Y-102052380D02*
X175598809Y-101052380D01*
X175503571Y-101195238D01*
X175408333Y-101290476D01*
X175313095Y-101338095D01*
D12*
X161130508Y-112873028D02*
X161130508Y-112273028D01*
X161273365Y-112273028D01*
X161359080Y-112301600D01*
X161416222Y-112358742D01*
X161444794Y-112415885D01*
X161473365Y-112530171D01*
X161473365Y-112615885D01*
X161444794Y-112730171D01*
X161416222Y-112787314D01*
X161359080Y-112844457D01*
X161273365Y-112873028D01*
X161130508Y-112873028D01*
X162044794Y-112873028D02*
X161701937Y-112873028D01*
X161873365Y-112873028D02*
X161873365Y-112273028D01*
X161816222Y-112358742D01*
X161759080Y-112415885D01*
X161701937Y-112444457D01*
M02*
