G04 #@! TF.GenerationSoftware,KiCad,Pcbnew,(5.1.2-1)-1*
G04 #@! TF.CreationDate,2019-08-23T13:21:54-04:00*
G04 #@! TF.ProjectId,PCB_V1.2,5043425f-5631-42e3-922e-6b696361645f,rev?*
G04 #@! TF.SameCoordinates,Original*
G04 #@! TF.FileFunction,Soldermask,Top*
G04 #@! TF.FilePolarity,Negative*
%FSLAX46Y46*%
G04 Gerber Fmt 4.6, Leading zero omitted, Abs format (unit mm)*
G04 Created by KiCad (PCBNEW (5.1.2-1)-1) date 2019-08-23 13:21:54*
%MOMM*%
%LPD*%
G04 APERTURE LIST*
%ADD10C,0.100000*%
G04 APERTURE END LIST*
D10*
G36*
X167726100Y-107303600D02*
G01*
X166776100Y-107303600D01*
X166776100Y-107853600D01*
X167726100Y-107853600D01*
X167726100Y-107303600D01*
G37*
G36*
X167726100Y-108303600D02*
G01*
X166776100Y-108303600D01*
X166776100Y-108853600D01*
X167726100Y-108853600D01*
X167726100Y-108303600D01*
G37*
G36*
X167726100Y-109303600D02*
G01*
X166776100Y-109303600D01*
X166776100Y-109853600D01*
X167726100Y-109853600D01*
X167726100Y-109303600D01*
G37*
G36*
X164826100Y-107303600D02*
G01*
X163876100Y-107303600D01*
X163876100Y-107853600D01*
X164826100Y-107853600D01*
X164826100Y-107303600D01*
G37*
G36*
X164826100Y-108303600D02*
G01*
X163876100Y-108303600D01*
X163876100Y-108853600D01*
X164826100Y-108853600D01*
X164826100Y-108303600D01*
G37*
G36*
X164826100Y-109303600D02*
G01*
X163876100Y-109303600D01*
X163876100Y-109853600D01*
X164826100Y-109853600D01*
X164826100Y-109303600D01*
G37*
G36*
X166651100Y-107278600D02*
G01*
X164951100Y-107278600D01*
X164951100Y-109878600D01*
X166651100Y-109878600D01*
X166651100Y-107278600D01*
G37*
G36*
X169077700Y-133212248D02*
G01*
X169075102Y-133220813D01*
X169072700Y-133245199D01*
X169072700Y-134275200D01*
X168339500Y-134275200D01*
X168339500Y-133245199D01*
X168337098Y-133220813D01*
X168329985Y-133197364D01*
X168318434Y-133175753D01*
X168302889Y-133156811D01*
X168283947Y-133141266D01*
X168262336Y-133129715D01*
X168238887Y-133122602D01*
X168214501Y-133120200D01*
X167927699Y-133120200D01*
X167903313Y-133122602D01*
X167879864Y-133129715D01*
X167858253Y-133141266D01*
X167839311Y-133156811D01*
X167823766Y-133175753D01*
X167812215Y-133197364D01*
X167805102Y-133220813D01*
X167802700Y-133245199D01*
X167802700Y-134275200D01*
X167200999Y-134275200D01*
X167176613Y-134277602D01*
X167153164Y-134284715D01*
X167131553Y-134296266D01*
X167112611Y-134311811D01*
X167097066Y-134330753D01*
X167085515Y-134352364D01*
X167078402Y-134375813D01*
X167076000Y-134400199D01*
X167076000Y-136876000D01*
X163974000Y-136876000D01*
X163974000Y-133774000D01*
X164404501Y-133774000D01*
X164428887Y-133771598D01*
X164452336Y-133764485D01*
X164473947Y-133752934D01*
X164492889Y-133737389D01*
X164508434Y-133718447D01*
X164519985Y-133696836D01*
X164527098Y-133673387D01*
X164529500Y-133649001D01*
X164529500Y-133245199D01*
X165262700Y-133245199D01*
X165262700Y-133649001D01*
X165265102Y-133673387D01*
X165272215Y-133696836D01*
X165283766Y-133718447D01*
X165299311Y-133737389D01*
X165318253Y-133752934D01*
X165339864Y-133764485D01*
X165363313Y-133771598D01*
X165387699Y-133774000D01*
X165674501Y-133774000D01*
X165698887Y-133771598D01*
X165722336Y-133764485D01*
X165743947Y-133752934D01*
X165762889Y-133737389D01*
X165778434Y-133718447D01*
X165789985Y-133696836D01*
X165797098Y-133673387D01*
X165799500Y-133649001D01*
X165799500Y-133245199D01*
X166532700Y-133245199D01*
X166532700Y-133649001D01*
X166535102Y-133673387D01*
X166542215Y-133696836D01*
X166553766Y-133718447D01*
X166569311Y-133737389D01*
X166588253Y-133752934D01*
X166609864Y-133764485D01*
X166633313Y-133771598D01*
X166657699Y-133774000D01*
X166944501Y-133774000D01*
X166968887Y-133771598D01*
X166992336Y-133764485D01*
X167013947Y-133752934D01*
X167032889Y-133737389D01*
X167048434Y-133718447D01*
X167059985Y-133696836D01*
X167067098Y-133673387D01*
X167069500Y-133649001D01*
X167069500Y-133245199D01*
X167067098Y-133220813D01*
X167059985Y-133197364D01*
X167048434Y-133175753D01*
X167032889Y-133156811D01*
X167013947Y-133141266D01*
X166992336Y-133129715D01*
X166968887Y-133122602D01*
X166944501Y-133120200D01*
X166657699Y-133120200D01*
X166633313Y-133122602D01*
X166609864Y-133129715D01*
X166588253Y-133141266D01*
X166569311Y-133156811D01*
X166553766Y-133175753D01*
X166542215Y-133197364D01*
X166535102Y-133220813D01*
X166532700Y-133245199D01*
X165799500Y-133245199D01*
X165797098Y-133220813D01*
X165789985Y-133197364D01*
X165778434Y-133175753D01*
X165762889Y-133156811D01*
X165743947Y-133141266D01*
X165722336Y-133129715D01*
X165698887Y-133122602D01*
X165674501Y-133120200D01*
X165387699Y-133120200D01*
X165363313Y-133122602D01*
X165339864Y-133129715D01*
X165318253Y-133141266D01*
X165299311Y-133156811D01*
X165283766Y-133175753D01*
X165272215Y-133197364D01*
X165265102Y-133220813D01*
X165262700Y-133245199D01*
X164529500Y-133245199D01*
X164527098Y-133220813D01*
X164524500Y-133212248D01*
X164524500Y-129217000D01*
X169077700Y-129217000D01*
X169077700Y-133212248D01*
X169077700Y-133212248D01*
G37*
G36*
X174777700Y-133212248D02*
G01*
X174775102Y-133220813D01*
X174772700Y-133245199D01*
X174772700Y-133649001D01*
X174775102Y-133673387D01*
X174782215Y-133696836D01*
X174793766Y-133718447D01*
X174809311Y-133737389D01*
X174828253Y-133752934D01*
X174849864Y-133764485D01*
X174873313Y-133771598D01*
X174897699Y-133774000D01*
X175026000Y-133774000D01*
X175026000Y-136876000D01*
X171924000Y-136876000D01*
X171924000Y-134400199D01*
X171921598Y-134375813D01*
X171914485Y-134352364D01*
X171902934Y-134330753D01*
X171887389Y-134311811D01*
X171868447Y-134296266D01*
X171846836Y-134284715D01*
X171823387Y-134277602D01*
X171799001Y-134275200D01*
X171499500Y-134275200D01*
X171499500Y-133245199D01*
X172232700Y-133245199D01*
X172232700Y-133649001D01*
X172235102Y-133673387D01*
X172242215Y-133696836D01*
X172253766Y-133718447D01*
X172269311Y-133737389D01*
X172288253Y-133752934D01*
X172309864Y-133764485D01*
X172333313Y-133771598D01*
X172357699Y-133774000D01*
X172644501Y-133774000D01*
X172668887Y-133771598D01*
X172692336Y-133764485D01*
X172713947Y-133752934D01*
X172732889Y-133737389D01*
X172748434Y-133718447D01*
X172759985Y-133696836D01*
X172767098Y-133673387D01*
X172769500Y-133649001D01*
X172769500Y-133245199D01*
X173502700Y-133245199D01*
X173502700Y-133649001D01*
X173505102Y-133673387D01*
X173512215Y-133696836D01*
X173523766Y-133718447D01*
X173539311Y-133737389D01*
X173558253Y-133752934D01*
X173579864Y-133764485D01*
X173603313Y-133771598D01*
X173627699Y-133774000D01*
X173914501Y-133774000D01*
X173938887Y-133771598D01*
X173962336Y-133764485D01*
X173983947Y-133752934D01*
X174002889Y-133737389D01*
X174018434Y-133718447D01*
X174029985Y-133696836D01*
X174037098Y-133673387D01*
X174039500Y-133649001D01*
X174039500Y-133245199D01*
X174037098Y-133220813D01*
X174029985Y-133197364D01*
X174018434Y-133175753D01*
X174002889Y-133156811D01*
X173983947Y-133141266D01*
X173962336Y-133129715D01*
X173938887Y-133122602D01*
X173914501Y-133120200D01*
X173627699Y-133120200D01*
X173603313Y-133122602D01*
X173579864Y-133129715D01*
X173558253Y-133141266D01*
X173539311Y-133156811D01*
X173523766Y-133175753D01*
X173512215Y-133197364D01*
X173505102Y-133220813D01*
X173502700Y-133245199D01*
X172769500Y-133245199D01*
X172767098Y-133220813D01*
X172759985Y-133197364D01*
X172748434Y-133175753D01*
X172732889Y-133156811D01*
X172713947Y-133141266D01*
X172692336Y-133129715D01*
X172668887Y-133122602D01*
X172644501Y-133120200D01*
X172357699Y-133120200D01*
X172333313Y-133122602D01*
X172309864Y-133129715D01*
X172288253Y-133141266D01*
X172269311Y-133156811D01*
X172253766Y-133175753D01*
X172242215Y-133197364D01*
X172235102Y-133220813D01*
X172232700Y-133245199D01*
X171499500Y-133245199D01*
X171497098Y-133220813D01*
X171489985Y-133197364D01*
X171478434Y-133175753D01*
X171462889Y-133156811D01*
X171443947Y-133141266D01*
X171422336Y-133129715D01*
X171398887Y-133122602D01*
X171374501Y-133120200D01*
X171087699Y-133120200D01*
X171063313Y-133122602D01*
X171039864Y-133129715D01*
X171018253Y-133141266D01*
X170999311Y-133156811D01*
X170983766Y-133175753D01*
X170972215Y-133197364D01*
X170965102Y-133220813D01*
X170962700Y-133245199D01*
X170962700Y-134275200D01*
X170229500Y-134275200D01*
X170229500Y-133245199D01*
X170227098Y-133220813D01*
X170224500Y-133212248D01*
X170224500Y-129217000D01*
X174777700Y-129217000D01*
X174777700Y-133212248D01*
X174777700Y-133212248D01*
G37*
G36*
X182062700Y-133649001D02*
G01*
X182065102Y-133673387D01*
X182072215Y-133696836D01*
X182083766Y-133718447D01*
X182099311Y-133737389D01*
X182118253Y-133752934D01*
X182139864Y-133764485D01*
X182163313Y-133771598D01*
X182187699Y-133774000D01*
X182474501Y-133774000D01*
X182498887Y-133771598D01*
X182522336Y-133764485D01*
X182543947Y-133752934D01*
X182562889Y-133737389D01*
X182578434Y-133718447D01*
X182589985Y-133696836D01*
X182597098Y-133673387D01*
X182599500Y-133649001D01*
X182599500Y-132392000D01*
X183332700Y-132392000D01*
X183332700Y-133649001D01*
X183335102Y-133673387D01*
X183342215Y-133696836D01*
X183353766Y-133718447D01*
X183369311Y-133737389D01*
X183388253Y-133752934D01*
X183409864Y-133764485D01*
X183433313Y-133771598D01*
X183457699Y-133774000D01*
X183744501Y-133774000D01*
X183768887Y-133771598D01*
X183792336Y-133764485D01*
X183813947Y-133752934D01*
X183832889Y-133737389D01*
X183848434Y-133718447D01*
X183859985Y-133696836D01*
X183867098Y-133673387D01*
X183869500Y-133649001D01*
X183869500Y-132392000D01*
X184602700Y-132392000D01*
X184602700Y-133832940D01*
X184601000Y-133850199D01*
X184601000Y-136876000D01*
X181499000Y-136876000D01*
X181499000Y-133850199D01*
X181496598Y-133825813D01*
X181489485Y-133802364D01*
X181477934Y-133780753D01*
X181462389Y-133761811D01*
X181443447Y-133746266D01*
X181421836Y-133734715D01*
X181398387Y-133727602D01*
X181374001Y-133725200D01*
X181329500Y-133725200D01*
X181329500Y-132392000D01*
X182062700Y-132392000D01*
X182062700Y-133649001D01*
X182062700Y-133649001D01*
G37*
G36*
X185872700Y-133725200D02*
G01*
X185139500Y-133725200D01*
X185139500Y-132392000D01*
X185872700Y-132392000D01*
X185872700Y-133725200D01*
X185872700Y-133725200D01*
G37*
G36*
X193146600Y-133539100D02*
G01*
X192203400Y-133539100D01*
X192203400Y-131210900D01*
X193146600Y-131210900D01*
X193146600Y-133539100D01*
X193146600Y-133539100D01*
G37*
G36*
X195521600Y-133439100D02*
G01*
X194578400Y-133439100D01*
X194578400Y-131110900D01*
X195521600Y-131110900D01*
X195521600Y-133439100D01*
X195521600Y-133439100D01*
G37*
G36*
X177782700Y-133225200D02*
G01*
X177049500Y-133225200D01*
X177049500Y-131892000D01*
X177782700Y-131892000D01*
X177782700Y-133225200D01*
X177782700Y-133225200D01*
G37*
G36*
X176512700Y-133225200D02*
G01*
X175779500Y-133225200D01*
X175779500Y-131892000D01*
X176512700Y-131892000D01*
X176512700Y-133225200D01*
X176512700Y-133225200D01*
G37*
G36*
X180322700Y-133225200D02*
G01*
X179589500Y-133225200D01*
X179589500Y-131892000D01*
X180322700Y-131892000D01*
X180322700Y-133225200D01*
X180322700Y-133225200D01*
G37*
G36*
X179052700Y-133225200D02*
G01*
X178319500Y-133225200D01*
X178319500Y-131892000D01*
X179052700Y-131892000D01*
X179052700Y-133225200D01*
X179052700Y-133225200D01*
G37*
G36*
X163672700Y-132825200D02*
G01*
X162939500Y-132825200D01*
X162939500Y-131492000D01*
X163672700Y-131492000D01*
X163672700Y-132825200D01*
X163672700Y-132825200D01*
G37*
G36*
X162402700Y-132825200D02*
G01*
X161669500Y-132825200D01*
X161669500Y-131492000D01*
X162402700Y-131492000D01*
X162402700Y-132825200D01*
X162402700Y-132825200D01*
G37*
G36*
X161132700Y-132825200D02*
G01*
X160399500Y-132825200D01*
X160399500Y-131492000D01*
X161132700Y-131492000D01*
X161132700Y-132825200D01*
X161132700Y-132825200D01*
G37*
G36*
X159862700Y-132825200D02*
G01*
X159129500Y-132825200D01*
X159129500Y-131492000D01*
X159862700Y-131492000D01*
X159862700Y-132825200D01*
X159862700Y-132825200D01*
G37*
G36*
X191526600Y-131593648D02*
G01*
X191524002Y-131602213D01*
X191521600Y-131626599D01*
X191521600Y-132656600D01*
X190788400Y-132656600D01*
X190788400Y-131626599D01*
X190785998Y-131602213D01*
X190778885Y-131578764D01*
X190767334Y-131557153D01*
X190751789Y-131538211D01*
X190732847Y-131522666D01*
X190711236Y-131511115D01*
X190687787Y-131504002D01*
X190663401Y-131501600D01*
X190376599Y-131501600D01*
X190352213Y-131504002D01*
X190328764Y-131511115D01*
X190307153Y-131522666D01*
X190288211Y-131538211D01*
X190272666Y-131557153D01*
X190261115Y-131578764D01*
X190254002Y-131602213D01*
X190251600Y-131626599D01*
X190251600Y-132656600D01*
X189518400Y-132656600D01*
X189518400Y-131626599D01*
X189515998Y-131602213D01*
X189508885Y-131578764D01*
X189497334Y-131557153D01*
X189481789Y-131538211D01*
X189462847Y-131522666D01*
X189441236Y-131511115D01*
X189417787Y-131504002D01*
X189393401Y-131501600D01*
X189106599Y-131501600D01*
X189082213Y-131504002D01*
X189058764Y-131511115D01*
X189037153Y-131522666D01*
X189018211Y-131538211D01*
X189002666Y-131557153D01*
X188991115Y-131578764D01*
X188984002Y-131602213D01*
X188981600Y-131626599D01*
X188981600Y-132656600D01*
X188248400Y-132656600D01*
X188248400Y-131626599D01*
X188245998Y-131602213D01*
X188238885Y-131578764D01*
X188227334Y-131557153D01*
X188211789Y-131538211D01*
X188192847Y-131522666D01*
X188171236Y-131511115D01*
X188147787Y-131504002D01*
X188123401Y-131501600D01*
X187836599Y-131501600D01*
X187812213Y-131504002D01*
X187788764Y-131511115D01*
X187767153Y-131522666D01*
X187748211Y-131538211D01*
X187732666Y-131557153D01*
X187721115Y-131578764D01*
X187714002Y-131602213D01*
X187711600Y-131626599D01*
X187711600Y-132656600D01*
X186978400Y-132656600D01*
X186978400Y-131626599D01*
X186975998Y-131602213D01*
X186973400Y-131593648D01*
X186973400Y-127598400D01*
X191526600Y-127598400D01*
X191526600Y-131593648D01*
X191526600Y-131593648D01*
G37*
G36*
X185992700Y-127130692D02*
G01*
X185973313Y-127132602D01*
X185949864Y-127139715D01*
X185928253Y-127151266D01*
X185909311Y-127166811D01*
X185893766Y-127185753D01*
X185882215Y-127207364D01*
X185875102Y-127230813D01*
X185872700Y-127255199D01*
X185872700Y-127842001D01*
X185875102Y-127866387D01*
X185877700Y-127874952D01*
X185877700Y-131870200D01*
X181324500Y-131870200D01*
X181324500Y-127874952D01*
X181327098Y-127866387D01*
X181329500Y-127842001D01*
X181329500Y-127255199D01*
X182062700Y-127255199D01*
X182062700Y-127842001D01*
X182065102Y-127866387D01*
X182072215Y-127889836D01*
X182083766Y-127911447D01*
X182099311Y-127930389D01*
X182118253Y-127945934D01*
X182139864Y-127957485D01*
X182163313Y-127964598D01*
X182187699Y-127967000D01*
X182474501Y-127967000D01*
X182498887Y-127964598D01*
X182522336Y-127957485D01*
X182543947Y-127945934D01*
X182562889Y-127930389D01*
X182578434Y-127911447D01*
X182589985Y-127889836D01*
X182597098Y-127866387D01*
X182599500Y-127842001D01*
X182599500Y-127255199D01*
X183332700Y-127255199D01*
X183332700Y-127842001D01*
X183335102Y-127866387D01*
X183342215Y-127889836D01*
X183353766Y-127911447D01*
X183369311Y-127930389D01*
X183388253Y-127945934D01*
X183409864Y-127957485D01*
X183433313Y-127964598D01*
X183457699Y-127967000D01*
X183744501Y-127967000D01*
X183768887Y-127964598D01*
X183792336Y-127957485D01*
X183813947Y-127945934D01*
X183832889Y-127930389D01*
X183848434Y-127911447D01*
X183859985Y-127889836D01*
X183867098Y-127866387D01*
X183869500Y-127842001D01*
X183869500Y-127255199D01*
X184602700Y-127255199D01*
X184602700Y-127842001D01*
X184605102Y-127866387D01*
X184612215Y-127889836D01*
X184623766Y-127911447D01*
X184639311Y-127930389D01*
X184658253Y-127945934D01*
X184679864Y-127957485D01*
X184703313Y-127964598D01*
X184727699Y-127967000D01*
X185014501Y-127967000D01*
X185038887Y-127964598D01*
X185062336Y-127957485D01*
X185083947Y-127945934D01*
X185102889Y-127930389D01*
X185118434Y-127911447D01*
X185129985Y-127889836D01*
X185137098Y-127866387D01*
X185139500Y-127842001D01*
X185139500Y-127255199D01*
X185137098Y-127230813D01*
X185129985Y-127207364D01*
X185118434Y-127185753D01*
X185102889Y-127166811D01*
X185083947Y-127151266D01*
X185062336Y-127139715D01*
X185038887Y-127132602D01*
X185014501Y-127130200D01*
X184727699Y-127130200D01*
X184703313Y-127132602D01*
X184679864Y-127139715D01*
X184658253Y-127151266D01*
X184639311Y-127166811D01*
X184623766Y-127185753D01*
X184612215Y-127207364D01*
X184605102Y-127230813D01*
X184602700Y-127255199D01*
X183869500Y-127255199D01*
X183867098Y-127230813D01*
X183859985Y-127207364D01*
X183848434Y-127185753D01*
X183832889Y-127166811D01*
X183813947Y-127151266D01*
X183792336Y-127139715D01*
X183768887Y-127132602D01*
X183744501Y-127130200D01*
X183457699Y-127130200D01*
X183433313Y-127132602D01*
X183409864Y-127139715D01*
X183388253Y-127151266D01*
X183369311Y-127166811D01*
X183353766Y-127185753D01*
X183342215Y-127207364D01*
X183335102Y-127230813D01*
X183332700Y-127255199D01*
X182599500Y-127255199D01*
X182597098Y-127230813D01*
X182589985Y-127207364D01*
X182578434Y-127185753D01*
X182562889Y-127166811D01*
X182543947Y-127151266D01*
X182522336Y-127139715D01*
X182498887Y-127132602D01*
X182474501Y-127130200D01*
X182187699Y-127130200D01*
X182163313Y-127132602D01*
X182139864Y-127139715D01*
X182118253Y-127151266D01*
X182099311Y-127166811D01*
X182083766Y-127185753D01*
X182072215Y-127207364D01*
X182065102Y-127230813D01*
X182062700Y-127255199D01*
X181329500Y-127255199D01*
X181329500Y-126812000D01*
X181564501Y-126812000D01*
X181588887Y-126809598D01*
X181612336Y-126802485D01*
X181633947Y-126790934D01*
X181652889Y-126775389D01*
X181668434Y-126756447D01*
X181679985Y-126734836D01*
X181687098Y-126711387D01*
X181689500Y-126687001D01*
X181689500Y-125427000D01*
X185992700Y-125427000D01*
X185992700Y-127130692D01*
X185992700Y-127130692D01*
G37*
G36*
X179872700Y-126187001D02*
G01*
X179875102Y-126211387D01*
X179882215Y-126234836D01*
X179893766Y-126256447D01*
X179909311Y-126275389D01*
X179928253Y-126290934D01*
X179949864Y-126302485D01*
X179973313Y-126309598D01*
X179997699Y-126312000D01*
X180322700Y-126312000D01*
X180322700Y-127342001D01*
X180325102Y-127366387D01*
X180327700Y-127374952D01*
X180327700Y-131370200D01*
X175774500Y-131370200D01*
X175774500Y-127374952D01*
X175777098Y-127366387D01*
X175779500Y-127342001D01*
X175779500Y-127105199D01*
X176512700Y-127105199D01*
X176512700Y-127342001D01*
X176515102Y-127366387D01*
X176522215Y-127389836D01*
X176533766Y-127411447D01*
X176549311Y-127430389D01*
X176568253Y-127445934D01*
X176589864Y-127457485D01*
X176613313Y-127464598D01*
X176637699Y-127467000D01*
X176924501Y-127467000D01*
X176948887Y-127464598D01*
X176972336Y-127457485D01*
X176993947Y-127445934D01*
X177012889Y-127430389D01*
X177028434Y-127411447D01*
X177039985Y-127389836D01*
X177047098Y-127366387D01*
X177049500Y-127342001D01*
X177049500Y-127105199D01*
X177782700Y-127105199D01*
X177782700Y-127342001D01*
X177785102Y-127366387D01*
X177792215Y-127389836D01*
X177803766Y-127411447D01*
X177819311Y-127430389D01*
X177838253Y-127445934D01*
X177859864Y-127457485D01*
X177883313Y-127464598D01*
X177907699Y-127467000D01*
X178194501Y-127467000D01*
X178218887Y-127464598D01*
X178242336Y-127457485D01*
X178263947Y-127445934D01*
X178282889Y-127430389D01*
X178298434Y-127411447D01*
X178309985Y-127389836D01*
X178317098Y-127366387D01*
X178319500Y-127342001D01*
X178319500Y-127105199D01*
X179052700Y-127105199D01*
X179052700Y-127342001D01*
X179055102Y-127366387D01*
X179062215Y-127389836D01*
X179073766Y-127411447D01*
X179089311Y-127430389D01*
X179108253Y-127445934D01*
X179129864Y-127457485D01*
X179153313Y-127464598D01*
X179177699Y-127467000D01*
X179464501Y-127467000D01*
X179488887Y-127464598D01*
X179512336Y-127457485D01*
X179533947Y-127445934D01*
X179552889Y-127430389D01*
X179568434Y-127411447D01*
X179579985Y-127389836D01*
X179587098Y-127366387D01*
X179589500Y-127342001D01*
X179589500Y-127105199D01*
X179587098Y-127080813D01*
X179579985Y-127057364D01*
X179568434Y-127035753D01*
X179552889Y-127016811D01*
X179533947Y-127001266D01*
X179512336Y-126989715D01*
X179488887Y-126982602D01*
X179464501Y-126980200D01*
X179177699Y-126980200D01*
X179153313Y-126982602D01*
X179129864Y-126989715D01*
X179108253Y-127001266D01*
X179089311Y-127016811D01*
X179073766Y-127035753D01*
X179062215Y-127057364D01*
X179055102Y-127080813D01*
X179052700Y-127105199D01*
X178319500Y-127105199D01*
X178317098Y-127080813D01*
X178309985Y-127057364D01*
X178298434Y-127035753D01*
X178282889Y-127016811D01*
X178263947Y-127001266D01*
X178242336Y-126989715D01*
X178218887Y-126982602D01*
X178194501Y-126980200D01*
X177907699Y-126980200D01*
X177883313Y-126982602D01*
X177859864Y-126989715D01*
X177838253Y-127001266D01*
X177819311Y-127016811D01*
X177803766Y-127035753D01*
X177792215Y-127057364D01*
X177785102Y-127080813D01*
X177782700Y-127105199D01*
X177049500Y-127105199D01*
X177047098Y-127080813D01*
X177039985Y-127057364D01*
X177028434Y-127035753D01*
X177012889Y-127016811D01*
X176993947Y-127001266D01*
X176972336Y-126989715D01*
X176948887Y-126982602D01*
X176924501Y-126980200D01*
X176637699Y-126980200D01*
X176613313Y-126982602D01*
X176589864Y-126989715D01*
X176568253Y-127001266D01*
X176549311Y-127016811D01*
X176533766Y-127035753D01*
X176522215Y-127057364D01*
X176515102Y-127080813D01*
X176512700Y-127105199D01*
X175779500Y-127105199D01*
X175777098Y-127080813D01*
X175769985Y-127057364D01*
X175758434Y-127035753D01*
X175742889Y-127016811D01*
X175729500Y-127005823D01*
X175729500Y-125277000D01*
X179872700Y-125277000D01*
X179872700Y-126187001D01*
X179872700Y-126187001D01*
G37*
G36*
X160107153Y-124977334D02*
G01*
X160128764Y-124988885D01*
X160152213Y-124995998D01*
X160176599Y-124998400D01*
X162202359Y-124998400D01*
X162207153Y-125002334D01*
X162228764Y-125013885D01*
X162252213Y-125020998D01*
X162276599Y-125023400D01*
X164176600Y-125023400D01*
X164176600Y-126726600D01*
X163797699Y-126726600D01*
X163773313Y-126729002D01*
X163749864Y-126736115D01*
X163728253Y-126747666D01*
X163709311Y-126763211D01*
X163693766Y-126782153D01*
X163682215Y-126803764D01*
X163675102Y-126827213D01*
X163672700Y-126851599D01*
X163672700Y-126942001D01*
X163675102Y-126966387D01*
X163677700Y-126974952D01*
X163677700Y-130970200D01*
X159124500Y-130970200D01*
X159124500Y-126974952D01*
X159127098Y-126966387D01*
X159129500Y-126942001D01*
X159129500Y-126826599D01*
X159862700Y-126826599D01*
X159862700Y-126942001D01*
X159865102Y-126966387D01*
X159872215Y-126989836D01*
X159883766Y-127011447D01*
X159899311Y-127030389D01*
X159918253Y-127045934D01*
X159939864Y-127057485D01*
X159963313Y-127064598D01*
X159987699Y-127067000D01*
X160274501Y-127067000D01*
X160298887Y-127064598D01*
X160322336Y-127057485D01*
X160343947Y-127045934D01*
X160362889Y-127030389D01*
X160378434Y-127011447D01*
X160389985Y-126989836D01*
X160397098Y-126966387D01*
X160399500Y-126942001D01*
X160399500Y-126826599D01*
X161132700Y-126826599D01*
X161132700Y-126942001D01*
X161135102Y-126966387D01*
X161142215Y-126989836D01*
X161153766Y-127011447D01*
X161169311Y-127030389D01*
X161188253Y-127045934D01*
X161209864Y-127057485D01*
X161233313Y-127064598D01*
X161257699Y-127067000D01*
X161544501Y-127067000D01*
X161568887Y-127064598D01*
X161592336Y-127057485D01*
X161613947Y-127045934D01*
X161632889Y-127030389D01*
X161648434Y-127011447D01*
X161659985Y-126989836D01*
X161667098Y-126966387D01*
X161669500Y-126942001D01*
X161669500Y-126851599D01*
X162402700Y-126851599D01*
X162402700Y-126942001D01*
X162405102Y-126966387D01*
X162412215Y-126989836D01*
X162423766Y-127011447D01*
X162439311Y-127030389D01*
X162458253Y-127045934D01*
X162479864Y-127057485D01*
X162503313Y-127064598D01*
X162527699Y-127067000D01*
X162814501Y-127067000D01*
X162838887Y-127064598D01*
X162862336Y-127057485D01*
X162883947Y-127045934D01*
X162902889Y-127030389D01*
X162918434Y-127011447D01*
X162929985Y-126989836D01*
X162937098Y-126966387D01*
X162939500Y-126942001D01*
X162939500Y-126851599D01*
X162937098Y-126827213D01*
X162929985Y-126803764D01*
X162918434Y-126782153D01*
X162902889Y-126763211D01*
X162883947Y-126747666D01*
X162862336Y-126736115D01*
X162838887Y-126729002D01*
X162814501Y-126726600D01*
X162527699Y-126726600D01*
X162503313Y-126729002D01*
X162479864Y-126736115D01*
X162458253Y-126747666D01*
X162439311Y-126763211D01*
X162423766Y-126782153D01*
X162412215Y-126803764D01*
X162405102Y-126827213D01*
X162402700Y-126851599D01*
X161669500Y-126851599D01*
X161669500Y-126826599D01*
X161667098Y-126802213D01*
X161659985Y-126778764D01*
X161648434Y-126757153D01*
X161632889Y-126738211D01*
X161613947Y-126722666D01*
X161592336Y-126711115D01*
X161568887Y-126704002D01*
X161544501Y-126701600D01*
X161257699Y-126701600D01*
X161233313Y-126704002D01*
X161209864Y-126711115D01*
X161188253Y-126722666D01*
X161169311Y-126738211D01*
X161153766Y-126757153D01*
X161142215Y-126778764D01*
X161135102Y-126802213D01*
X161132700Y-126826599D01*
X160399500Y-126826599D01*
X160397098Y-126802213D01*
X160389985Y-126778764D01*
X160378434Y-126757153D01*
X160362889Y-126738211D01*
X160343947Y-126722666D01*
X160322336Y-126711115D01*
X160298887Y-126704002D01*
X160274501Y-126701600D01*
X159987699Y-126701600D01*
X159963313Y-126704002D01*
X159939864Y-126711115D01*
X159918253Y-126722666D01*
X159899311Y-126738211D01*
X159883766Y-126757153D01*
X159872215Y-126778764D01*
X159865102Y-126802213D01*
X159862700Y-126826599D01*
X159129500Y-126826599D01*
X159129500Y-126801599D01*
X159127098Y-126777213D01*
X159119985Y-126753764D01*
X159108434Y-126732153D01*
X159092889Y-126713211D01*
X159073947Y-126697666D01*
X159052336Y-126686115D01*
X159028887Y-126679002D01*
X159004501Y-126676600D01*
X157848400Y-126676600D01*
X157848400Y-124973400D01*
X160102359Y-124973400D01*
X160107153Y-124977334D01*
X160107153Y-124977334D01*
G37*
G36*
X195776000Y-130601000D02*
G01*
X192674000Y-130601000D01*
X192674000Y-126999000D01*
X195776000Y-126999000D01*
X195776000Y-130601000D01*
X195776000Y-130601000D01*
G37*
G36*
X172232700Y-128695200D02*
G01*
X171499500Y-128695200D01*
X171499500Y-127362000D01*
X172232700Y-127362000D01*
X172232700Y-128695200D01*
X172232700Y-128695200D01*
G37*
G36*
X174772700Y-128695200D02*
G01*
X174039500Y-128695200D01*
X174039500Y-127362000D01*
X174772700Y-127362000D01*
X174772700Y-128695200D01*
X174772700Y-128695200D01*
G37*
G36*
X170237699Y-127362000D02*
G01*
X170962700Y-127362000D01*
X170962700Y-128695200D01*
X170229500Y-128695200D01*
X170229500Y-127361192D01*
X170237699Y-127362000D01*
X170237699Y-127362000D01*
G37*
G36*
X170112700Y-127131008D02*
G01*
X170104501Y-127130200D01*
X169197699Y-127130200D01*
X169173313Y-127132602D01*
X169149864Y-127139715D01*
X169128253Y-127151266D01*
X169109311Y-127166811D01*
X169093766Y-127185753D01*
X169082215Y-127207364D01*
X169075102Y-127230813D01*
X169072700Y-127255199D01*
X169072700Y-128695200D01*
X168339500Y-128695200D01*
X168339500Y-127255199D01*
X168337098Y-127230813D01*
X168329985Y-127207364D01*
X168318434Y-127185753D01*
X168302889Y-127166811D01*
X168283947Y-127151266D01*
X168262336Y-127139715D01*
X168238887Y-127132602D01*
X168214501Y-127130200D01*
X167927699Y-127130200D01*
X167903313Y-127132602D01*
X167879864Y-127139715D01*
X167858253Y-127151266D01*
X167839311Y-127166811D01*
X167823766Y-127185753D01*
X167812215Y-127207364D01*
X167805102Y-127230813D01*
X167802700Y-127255199D01*
X167802700Y-128695200D01*
X167069500Y-128695200D01*
X167069500Y-127362000D01*
X167084501Y-127362000D01*
X167108887Y-127359598D01*
X167132336Y-127352485D01*
X167153947Y-127340934D01*
X167172889Y-127325389D01*
X167188434Y-127306447D01*
X167199985Y-127284836D01*
X167207098Y-127261387D01*
X167209500Y-127237001D01*
X167209500Y-125327000D01*
X170112700Y-125327000D01*
X170112700Y-127131008D01*
X170112700Y-127131008D01*
G37*
G36*
X165262700Y-128695200D02*
G01*
X164529500Y-128695200D01*
X164529500Y-127362000D01*
X165262700Y-127362000D01*
X165262700Y-128695200D01*
X165262700Y-128695200D01*
G37*
G36*
X166532700Y-128695200D02*
G01*
X165799500Y-128695200D01*
X165799500Y-127362000D01*
X166532700Y-127362000D01*
X166532700Y-128695200D01*
X166532700Y-128695200D01*
G37*
G36*
X173502700Y-128695200D02*
G01*
X172769500Y-128695200D01*
X172769500Y-127362000D01*
X173502700Y-127362000D01*
X173502700Y-128695200D01*
X173502700Y-128695200D01*
G37*
G36*
X174712700Y-127110200D02*
G01*
X171809500Y-127110200D01*
X171809500Y-125307000D01*
X174712700Y-125307000D01*
X174712700Y-127110200D01*
X174712700Y-127110200D01*
G37*
G36*
X187711600Y-127076600D02*
G01*
X186978400Y-127076600D01*
X186978400Y-125743400D01*
X187711600Y-125743400D01*
X187711600Y-127076600D01*
X187711600Y-127076600D01*
G37*
G36*
X188981600Y-127076600D02*
G01*
X188248400Y-127076600D01*
X188248400Y-125743400D01*
X188981600Y-125743400D01*
X188981600Y-127076600D01*
X188981600Y-127076600D01*
G37*
G36*
X191521600Y-127076600D02*
G01*
X190788400Y-127076600D01*
X190788400Y-125743400D01*
X191521600Y-125743400D01*
X191521600Y-127076600D01*
X191521600Y-127076600D01*
G37*
G36*
X190251600Y-127076600D02*
G01*
X189518400Y-127076600D01*
X189518400Y-125743400D01*
X190251600Y-125743400D01*
X190251600Y-127076600D01*
X190251600Y-127076600D01*
G37*
G36*
X195801000Y-126076000D02*
G01*
X192699000Y-126076000D01*
X192699000Y-122474000D01*
X195801000Y-122474000D01*
X195801000Y-126076000D01*
X195801000Y-126076000D01*
G37*
G36*
X170112700Y-124330200D02*
G01*
X167209500Y-124330200D01*
X167209500Y-122527000D01*
X170112700Y-122527000D01*
X170112700Y-124330200D01*
X170112700Y-124330200D01*
G37*
G36*
X189401600Y-124326600D02*
G01*
X187698400Y-124326600D01*
X187698400Y-122123400D01*
X189401600Y-122123400D01*
X189401600Y-124326600D01*
X189401600Y-124326600D01*
G37*
G36*
X192401600Y-124326600D02*
G01*
X190698400Y-124326600D01*
X190698400Y-122123400D01*
X192401600Y-122123400D01*
X192401600Y-124326600D01*
X192401600Y-124326600D01*
G37*
G36*
X174712700Y-124310200D02*
G01*
X171809500Y-124310200D01*
X171809500Y-122507000D01*
X174712700Y-122507000D01*
X174712700Y-124310200D01*
X174712700Y-124310200D01*
G37*
G36*
X185992700Y-124130200D02*
G01*
X181689500Y-124130200D01*
X181689500Y-122427000D01*
X185992700Y-122427000D01*
X185992700Y-124130200D01*
X185992700Y-124130200D01*
G37*
G36*
X179872700Y-123980200D02*
G01*
X175729500Y-123980200D01*
X175729500Y-122277000D01*
X179872700Y-122277000D01*
X179872700Y-123980200D01*
X179872700Y-123980200D01*
G37*
G36*
X160107153Y-121977334D02*
G01*
X160128764Y-121988885D01*
X160152213Y-121995998D01*
X160176599Y-121998400D01*
X162202359Y-121998400D01*
X162207153Y-122002334D01*
X162228764Y-122013885D01*
X162252213Y-122020998D01*
X162276599Y-122023400D01*
X164176600Y-122023400D01*
X164176600Y-123726600D01*
X161922641Y-123726600D01*
X161917847Y-123722666D01*
X161896236Y-123711115D01*
X161872787Y-123704002D01*
X161848401Y-123701600D01*
X159897641Y-123701600D01*
X159892847Y-123697666D01*
X159871236Y-123686115D01*
X159847787Y-123679002D01*
X159823401Y-123676600D01*
X157848400Y-123676600D01*
X157848400Y-121973400D01*
X160102359Y-121973400D01*
X160107153Y-121977334D01*
X160107153Y-121977334D01*
G37*
G36*
X194566242Y-120253404D02*
G01*
X194603337Y-120264657D01*
X194637515Y-120282925D01*
X194667481Y-120307519D01*
X194692075Y-120337485D01*
X194710343Y-120371663D01*
X194721596Y-120408758D01*
X194726000Y-120453474D01*
X194726000Y-121346526D01*
X194721596Y-121391242D01*
X194710343Y-121428337D01*
X194692075Y-121462515D01*
X194667481Y-121492481D01*
X194637515Y-121517075D01*
X194603337Y-121535343D01*
X194566242Y-121546596D01*
X194521526Y-121551000D01*
X193128474Y-121551000D01*
X193083758Y-121546596D01*
X193046663Y-121535343D01*
X193012485Y-121517075D01*
X192982519Y-121492481D01*
X192957925Y-121462515D01*
X192939657Y-121428337D01*
X192928404Y-121391242D01*
X192924000Y-121346526D01*
X192924000Y-120453474D01*
X192928404Y-120408758D01*
X192939657Y-120371663D01*
X192957925Y-120337485D01*
X192982519Y-120307519D01*
X193012485Y-120282925D01*
X193046663Y-120264657D01*
X193083758Y-120253404D01*
X193128474Y-120249000D01*
X194521526Y-120249000D01*
X194566242Y-120253404D01*
X194566242Y-120253404D01*
G37*
G36*
X190841242Y-120253404D02*
G01*
X190878337Y-120264657D01*
X190912515Y-120282925D01*
X190942481Y-120307519D01*
X190967075Y-120337485D01*
X190985343Y-120371663D01*
X190996596Y-120408758D01*
X191001000Y-120453474D01*
X191001000Y-121346526D01*
X190996596Y-121391242D01*
X190985343Y-121428337D01*
X190967075Y-121462515D01*
X190942481Y-121492481D01*
X190912515Y-121517075D01*
X190878337Y-121535343D01*
X190841242Y-121546596D01*
X190796526Y-121551000D01*
X189403474Y-121551000D01*
X189358758Y-121546596D01*
X189321663Y-121535343D01*
X189287485Y-121517075D01*
X189257519Y-121492481D01*
X189232925Y-121462515D01*
X189214657Y-121428337D01*
X189203404Y-121391242D01*
X189199000Y-121346526D01*
X189199000Y-120453474D01*
X189203404Y-120408758D01*
X189214657Y-120371663D01*
X189232925Y-120337485D01*
X189257519Y-120307519D01*
X189287485Y-120282925D01*
X189321663Y-120264657D01*
X189358758Y-120253404D01*
X189403474Y-120249000D01*
X190796526Y-120249000D01*
X190841242Y-120253404D01*
X190841242Y-120253404D01*
G37*
G36*
X165032700Y-121480200D02*
G01*
X163749500Y-121480200D01*
X163749500Y-120227000D01*
X165032700Y-120227000D01*
X165032700Y-121480200D01*
X165032700Y-121480200D01*
G37*
G36*
X163202700Y-121202700D02*
G01*
X162259500Y-121202700D01*
X162259500Y-118874500D01*
X163202700Y-118874500D01*
X163202700Y-121202700D01*
X163202700Y-121202700D01*
G37*
G36*
X159626600Y-121076600D02*
G01*
X158723400Y-121076600D01*
X158723400Y-119973400D01*
X159626600Y-119973400D01*
X159626600Y-121076600D01*
X159626600Y-121076600D01*
G37*
G36*
X160926600Y-121076600D02*
G01*
X160023400Y-121076600D01*
X160023400Y-119973400D01*
X160926600Y-119973400D01*
X160926600Y-121076600D01*
X160926600Y-121076600D01*
G37*
G36*
X171645200Y-110850200D02*
G01*
X170266677Y-110850200D01*
X170242291Y-110852602D01*
X170218842Y-110859715D01*
X170197231Y-110871266D01*
X170178289Y-110886811D01*
X170162744Y-110905753D01*
X170151193Y-110927364D01*
X170144080Y-110950813D01*
X170141678Y-110975199D01*
X170144080Y-110999585D01*
X170151193Y-111023034D01*
X170162744Y-111044645D01*
X170178289Y-111063587D01*
X170274738Y-111160036D01*
X170281746Y-111168575D01*
X170284045Y-111172877D01*
X170285463Y-111177551D01*
X170286271Y-111185753D01*
X170291052Y-111209787D01*
X170300430Y-111232425D01*
X170314045Y-111252799D01*
X170331372Y-111270126D01*
X170351747Y-111283739D01*
X170374386Y-111293116D01*
X170398413Y-111297895D01*
X170406615Y-111298703D01*
X170411289Y-111300121D01*
X170415591Y-111302420D01*
X170424130Y-111309428D01*
X170628291Y-111513589D01*
X170635299Y-111522128D01*
X170637598Y-111526430D01*
X170639016Y-111531104D01*
X170639824Y-111539307D01*
X170644605Y-111563340D01*
X170653983Y-111585979D01*
X170667597Y-111606353D01*
X170684925Y-111623679D01*
X170705299Y-111637293D01*
X170727938Y-111646669D01*
X170751966Y-111651449D01*
X170760169Y-111652257D01*
X170764843Y-111653675D01*
X170769145Y-111655974D01*
X170777684Y-111662982D01*
X170981845Y-111867143D01*
X170988853Y-111875682D01*
X170991152Y-111879984D01*
X170992570Y-111884658D01*
X170993378Y-111892860D01*
X170998159Y-111916894D01*
X171007537Y-111939532D01*
X171021152Y-111959906D01*
X171038479Y-111977233D01*
X171058854Y-111990846D01*
X171081493Y-112000223D01*
X171105520Y-112005002D01*
X171113722Y-112005810D01*
X171118396Y-112007228D01*
X171122698Y-112009527D01*
X171131237Y-112016535D01*
X171335398Y-112220696D01*
X171342406Y-112229235D01*
X171344705Y-112233537D01*
X171346123Y-112238211D01*
X171346931Y-112246413D01*
X171351712Y-112270447D01*
X171361090Y-112293085D01*
X171374705Y-112313459D01*
X171392032Y-112330786D01*
X171412407Y-112344399D01*
X171435046Y-112353776D01*
X171459073Y-112358555D01*
X171467275Y-112359363D01*
X171471949Y-112360781D01*
X171476251Y-112363080D01*
X171484790Y-112370088D01*
X171688951Y-112574249D01*
X171695959Y-112582788D01*
X171698258Y-112587090D01*
X171699676Y-112591764D01*
X171700484Y-112599967D01*
X171705265Y-112624000D01*
X171714643Y-112646639D01*
X171728257Y-112667013D01*
X171745585Y-112684339D01*
X171765959Y-112697953D01*
X171788598Y-112707329D01*
X171812626Y-112712109D01*
X171820829Y-112712917D01*
X171825503Y-112714335D01*
X171829805Y-112716634D01*
X171838344Y-112723642D01*
X172042505Y-112927803D01*
X172049513Y-112936342D01*
X172051812Y-112940644D01*
X172053230Y-112945318D01*
X172054038Y-112953520D01*
X172058819Y-112977554D01*
X172068197Y-113000192D01*
X172081812Y-113020566D01*
X172099139Y-113037893D01*
X172119514Y-113051506D01*
X172142153Y-113060883D01*
X172166180Y-113065662D01*
X172174382Y-113066470D01*
X172179056Y-113067888D01*
X172183358Y-113070187D01*
X172191897Y-113077195D01*
X172396058Y-113281356D01*
X172403066Y-113289895D01*
X172405365Y-113294197D01*
X172406783Y-113298871D01*
X172407591Y-113307074D01*
X172412372Y-113331107D01*
X172421750Y-113353746D01*
X172435364Y-113374120D01*
X172452692Y-113391446D01*
X172473066Y-113405060D01*
X172495705Y-113414436D01*
X172519733Y-113419216D01*
X172527936Y-113420024D01*
X172532610Y-113421442D01*
X172536912Y-113423741D01*
X172545451Y-113430749D01*
X172749612Y-113634910D01*
X172756620Y-113643449D01*
X172758919Y-113647751D01*
X172760337Y-113652425D01*
X172761145Y-113660627D01*
X172765926Y-113684661D01*
X172775304Y-113707299D01*
X172788919Y-113727673D01*
X172806246Y-113745000D01*
X172826621Y-113758613D01*
X172849260Y-113767990D01*
X172873287Y-113772769D01*
X172881489Y-113773577D01*
X172886163Y-113774995D01*
X172890465Y-113777294D01*
X172899004Y-113784302D01*
X173103165Y-113988463D01*
X173110173Y-113997002D01*
X173112472Y-114001304D01*
X173113890Y-114005978D01*
X173114698Y-114014180D01*
X173119479Y-114038214D01*
X173128857Y-114060852D01*
X173142472Y-114081226D01*
X173159799Y-114098553D01*
X173180174Y-114112166D01*
X173202813Y-114121543D01*
X173226840Y-114126322D01*
X173235042Y-114127130D01*
X173239716Y-114128548D01*
X173244018Y-114130847D01*
X173252557Y-114137855D01*
X173456718Y-114342016D01*
X173463726Y-114350555D01*
X173466025Y-114354857D01*
X173467443Y-114359531D01*
X173468251Y-114367734D01*
X173473032Y-114391767D01*
X173482410Y-114414406D01*
X173496024Y-114434780D01*
X173513352Y-114452106D01*
X173533726Y-114465720D01*
X173556365Y-114475096D01*
X173580393Y-114479876D01*
X173588596Y-114480684D01*
X173593270Y-114482102D01*
X173597572Y-114484401D01*
X173606111Y-114491409D01*
X173810272Y-114695570D01*
X173817280Y-114704109D01*
X173819579Y-114708411D01*
X173820997Y-114713085D01*
X173821805Y-114721287D01*
X173826586Y-114745321D01*
X173835964Y-114767959D01*
X173849579Y-114788333D01*
X173866906Y-114805660D01*
X173887281Y-114819273D01*
X173909920Y-114828650D01*
X173933947Y-114833429D01*
X173942149Y-114834237D01*
X173946823Y-114835655D01*
X173951125Y-114837954D01*
X173959664Y-114844962D01*
X174163825Y-115049123D01*
X174170833Y-115057662D01*
X174173132Y-115061964D01*
X174174550Y-115066638D01*
X174175028Y-115071493D01*
X174174550Y-115076348D01*
X174173132Y-115081022D01*
X174170833Y-115085324D01*
X174163825Y-115093863D01*
X173567476Y-115690212D01*
X173551931Y-115709154D01*
X173540380Y-115730765D01*
X173533267Y-115754214D01*
X173530865Y-115778600D01*
X173533267Y-115802986D01*
X173540380Y-115826435D01*
X173551931Y-115848046D01*
X173567476Y-115866988D01*
X174163825Y-116463337D01*
X174170833Y-116471876D01*
X174173132Y-116476178D01*
X174174550Y-116480852D01*
X174175028Y-116485707D01*
X174174550Y-116490562D01*
X174173132Y-116495236D01*
X174170833Y-116499538D01*
X174163825Y-116508077D01*
X173959664Y-116712238D01*
X173951125Y-116719246D01*
X173946823Y-116721545D01*
X173942149Y-116722963D01*
X173933947Y-116723771D01*
X173909913Y-116728552D01*
X173887275Y-116737930D01*
X173866901Y-116751545D01*
X173849574Y-116768872D01*
X173835961Y-116789247D01*
X173826584Y-116811886D01*
X173821805Y-116835913D01*
X173820997Y-116844115D01*
X173819579Y-116848789D01*
X173817280Y-116853091D01*
X173810272Y-116861630D01*
X173606111Y-117065791D01*
X173597572Y-117072799D01*
X173593270Y-117075098D01*
X173588596Y-117076516D01*
X173580393Y-117077324D01*
X173556360Y-117082105D01*
X173533721Y-117091483D01*
X173513347Y-117105097D01*
X173496021Y-117122425D01*
X173482407Y-117142799D01*
X173473031Y-117165438D01*
X173468251Y-117189466D01*
X173467443Y-117197669D01*
X173466025Y-117202343D01*
X173463726Y-117206645D01*
X173456718Y-117215184D01*
X173252557Y-117419345D01*
X173244018Y-117426353D01*
X173239716Y-117428652D01*
X173235042Y-117430070D01*
X173226840Y-117430878D01*
X173202806Y-117435659D01*
X173180168Y-117445037D01*
X173159794Y-117458652D01*
X173142467Y-117475979D01*
X173128854Y-117496354D01*
X173119477Y-117518993D01*
X173114698Y-117543020D01*
X173113890Y-117551222D01*
X173112472Y-117555896D01*
X173110173Y-117560198D01*
X173103165Y-117568737D01*
X172899004Y-117772898D01*
X172890465Y-117779906D01*
X172886163Y-117782205D01*
X172881489Y-117783623D01*
X172873287Y-117784431D01*
X172849253Y-117789212D01*
X172826615Y-117798590D01*
X172806241Y-117812205D01*
X172788914Y-117829532D01*
X172775301Y-117849907D01*
X172765924Y-117872546D01*
X172761145Y-117896573D01*
X172760337Y-117904775D01*
X172758919Y-117909449D01*
X172756620Y-117913751D01*
X172749612Y-117922290D01*
X172545451Y-118126451D01*
X172536912Y-118133459D01*
X172532610Y-118135758D01*
X172527936Y-118137176D01*
X172519733Y-118137984D01*
X172495700Y-118142765D01*
X172473061Y-118152143D01*
X172452687Y-118165757D01*
X172435361Y-118183085D01*
X172421747Y-118203459D01*
X172412371Y-118226098D01*
X172407591Y-118250126D01*
X172406783Y-118258329D01*
X172405365Y-118263003D01*
X172403066Y-118267305D01*
X172396058Y-118275844D01*
X172191897Y-118480005D01*
X172183358Y-118487013D01*
X172179056Y-118489312D01*
X172174382Y-118490730D01*
X172166180Y-118491538D01*
X172142146Y-118496319D01*
X172119508Y-118505697D01*
X172099134Y-118519312D01*
X172081807Y-118536639D01*
X172068194Y-118557014D01*
X172058817Y-118579653D01*
X172054038Y-118603680D01*
X172053230Y-118611882D01*
X172051812Y-118616556D01*
X172049513Y-118620858D01*
X172042505Y-118629397D01*
X171838344Y-118833558D01*
X171829805Y-118840566D01*
X171825503Y-118842865D01*
X171820829Y-118844283D01*
X171812626Y-118845091D01*
X171788593Y-118849872D01*
X171765954Y-118859250D01*
X171745580Y-118872864D01*
X171728254Y-118890192D01*
X171714640Y-118910566D01*
X171705264Y-118933205D01*
X171700484Y-118957233D01*
X171699676Y-118965436D01*
X171698258Y-118970110D01*
X171695959Y-118974412D01*
X171688951Y-118982951D01*
X171484790Y-119187112D01*
X171476251Y-119194120D01*
X171471949Y-119196419D01*
X171467275Y-119197837D01*
X171459073Y-119198645D01*
X171435039Y-119203426D01*
X171412401Y-119212804D01*
X171392027Y-119226419D01*
X171374700Y-119243746D01*
X171361087Y-119264121D01*
X171351710Y-119286760D01*
X171346931Y-119310787D01*
X171346123Y-119318989D01*
X171344705Y-119323663D01*
X171342406Y-119327965D01*
X171335398Y-119336504D01*
X171131237Y-119540665D01*
X171122698Y-119547673D01*
X171118396Y-119549972D01*
X171113722Y-119551390D01*
X171105520Y-119552198D01*
X171081486Y-119556979D01*
X171058848Y-119566357D01*
X171038474Y-119579972D01*
X171021147Y-119597299D01*
X171007534Y-119617674D01*
X170998157Y-119640313D01*
X170993378Y-119664340D01*
X170992570Y-119672542D01*
X170991152Y-119677216D01*
X170988853Y-119681518D01*
X170981845Y-119690057D01*
X170777684Y-119894218D01*
X170769145Y-119901226D01*
X170764843Y-119903525D01*
X170760169Y-119904943D01*
X170751966Y-119905751D01*
X170727933Y-119910532D01*
X170705294Y-119919910D01*
X170684920Y-119933524D01*
X170667594Y-119950852D01*
X170653980Y-119971226D01*
X170644604Y-119993865D01*
X170639824Y-120017893D01*
X170639016Y-120026096D01*
X170637598Y-120030770D01*
X170635299Y-120035072D01*
X170628291Y-120043611D01*
X170424130Y-120247772D01*
X170415591Y-120254780D01*
X170411289Y-120257079D01*
X170406615Y-120258497D01*
X170398413Y-120259305D01*
X170374379Y-120264086D01*
X170351741Y-120273464D01*
X170331367Y-120287079D01*
X170314040Y-120304406D01*
X170300427Y-120324781D01*
X170291050Y-120347420D01*
X170286271Y-120371447D01*
X170285463Y-120379649D01*
X170284045Y-120384323D01*
X170281746Y-120388625D01*
X170274738Y-120397164D01*
X170070577Y-120601325D01*
X170062038Y-120608333D01*
X170057736Y-120610632D01*
X170053062Y-120612050D01*
X170048207Y-120612528D01*
X170043352Y-120612050D01*
X170038678Y-120610632D01*
X170034376Y-120608333D01*
X170025837Y-120601325D01*
X169429488Y-120004976D01*
X169410546Y-119989431D01*
X169388935Y-119977880D01*
X169365486Y-119970767D01*
X169341100Y-119968365D01*
X169316714Y-119970767D01*
X169293265Y-119977880D01*
X169271654Y-119989431D01*
X169252712Y-120004976D01*
X168656363Y-120601325D01*
X168647824Y-120608333D01*
X168643522Y-120610632D01*
X168638848Y-120612050D01*
X168633993Y-120612528D01*
X168629138Y-120612050D01*
X168624464Y-120610632D01*
X168620162Y-120608333D01*
X168611623Y-120601325D01*
X168407462Y-120397164D01*
X168400454Y-120388625D01*
X168398155Y-120384323D01*
X168396737Y-120379649D01*
X168395929Y-120371447D01*
X168391148Y-120347413D01*
X168381770Y-120324775D01*
X168368155Y-120304401D01*
X168350828Y-120287074D01*
X168330453Y-120273461D01*
X168307814Y-120264084D01*
X168283787Y-120259305D01*
X168275585Y-120258497D01*
X168270911Y-120257079D01*
X168266609Y-120254780D01*
X168258070Y-120247772D01*
X168053909Y-120043611D01*
X168046901Y-120035072D01*
X168044602Y-120030770D01*
X168043184Y-120026096D01*
X168042376Y-120017893D01*
X168037595Y-119993860D01*
X168028217Y-119971221D01*
X168014603Y-119950847D01*
X167997275Y-119933521D01*
X167976901Y-119919907D01*
X167954262Y-119910531D01*
X167930234Y-119905751D01*
X167922031Y-119904943D01*
X167917357Y-119903525D01*
X167913055Y-119901226D01*
X167904516Y-119894218D01*
X167700355Y-119690057D01*
X167693347Y-119681518D01*
X167691048Y-119677216D01*
X167689630Y-119672542D01*
X167688822Y-119664340D01*
X167684041Y-119640306D01*
X167674663Y-119617668D01*
X167661048Y-119597294D01*
X167643721Y-119579967D01*
X167623346Y-119566354D01*
X167600707Y-119556977D01*
X167576680Y-119552198D01*
X167568478Y-119551390D01*
X167563804Y-119549972D01*
X167559502Y-119547673D01*
X167550963Y-119540665D01*
X167346802Y-119336504D01*
X167339794Y-119327965D01*
X167337495Y-119323663D01*
X167336077Y-119318989D01*
X167335269Y-119310787D01*
X167330488Y-119286753D01*
X167321110Y-119264115D01*
X167307495Y-119243741D01*
X167290168Y-119226414D01*
X167269793Y-119212801D01*
X167247154Y-119203424D01*
X167223127Y-119198645D01*
X167214925Y-119197837D01*
X167210251Y-119196419D01*
X167205949Y-119194120D01*
X167197410Y-119187112D01*
X166993249Y-118982951D01*
X166986241Y-118974412D01*
X166983942Y-118970110D01*
X166982524Y-118965436D01*
X166981716Y-118957233D01*
X166976935Y-118933200D01*
X166967557Y-118910561D01*
X166953943Y-118890187D01*
X166936615Y-118872861D01*
X166916241Y-118859247D01*
X166893602Y-118849871D01*
X166869574Y-118845091D01*
X166861371Y-118844283D01*
X166856697Y-118842865D01*
X166852395Y-118840566D01*
X166843856Y-118833558D01*
X166639695Y-118629397D01*
X166632687Y-118620858D01*
X166630388Y-118616556D01*
X166628970Y-118611882D01*
X166628162Y-118603680D01*
X166623381Y-118579646D01*
X166614003Y-118557008D01*
X166600388Y-118536634D01*
X166583061Y-118519307D01*
X166562686Y-118505694D01*
X166540047Y-118496317D01*
X166516020Y-118491538D01*
X166507818Y-118490730D01*
X166503144Y-118489312D01*
X166498842Y-118487013D01*
X166490303Y-118480005D01*
X166286142Y-118275844D01*
X166279134Y-118267305D01*
X166276835Y-118263003D01*
X166275417Y-118258329D01*
X166274609Y-118250126D01*
X166269828Y-118226093D01*
X166260450Y-118203454D01*
X166246836Y-118183080D01*
X166229508Y-118165754D01*
X166209134Y-118152140D01*
X166186495Y-118142764D01*
X166162467Y-118137984D01*
X166154264Y-118137176D01*
X166149590Y-118135758D01*
X166145288Y-118133459D01*
X166136749Y-118126451D01*
X165932588Y-117922290D01*
X165925580Y-117913751D01*
X165923281Y-117909449D01*
X165921863Y-117904775D01*
X165921055Y-117896573D01*
X165916274Y-117872539D01*
X165906896Y-117849901D01*
X165893281Y-117829527D01*
X165875954Y-117812200D01*
X165855579Y-117798587D01*
X165832940Y-117789210D01*
X165808913Y-117784431D01*
X165800711Y-117783623D01*
X165796037Y-117782205D01*
X165791735Y-117779906D01*
X165783196Y-117772898D01*
X165579035Y-117568737D01*
X165572027Y-117560198D01*
X165569728Y-117555896D01*
X165568310Y-117551222D01*
X165567502Y-117543020D01*
X165562721Y-117518986D01*
X165553343Y-117496348D01*
X165539728Y-117475974D01*
X165522401Y-117458647D01*
X165502026Y-117445034D01*
X165479387Y-117435657D01*
X165455360Y-117430878D01*
X165447158Y-117430070D01*
X165442484Y-117428652D01*
X165438182Y-117426353D01*
X165429643Y-117419345D01*
X165225482Y-117215184D01*
X165218474Y-117206645D01*
X165216175Y-117202343D01*
X165214757Y-117197669D01*
X165213949Y-117189466D01*
X165209168Y-117165433D01*
X165199790Y-117142794D01*
X165186176Y-117122420D01*
X165168848Y-117105094D01*
X165148474Y-117091480D01*
X165125835Y-117082104D01*
X165101807Y-117077324D01*
X165093604Y-117076516D01*
X165088930Y-117075098D01*
X165084628Y-117072799D01*
X165076089Y-117065791D01*
X164871928Y-116861630D01*
X164864920Y-116853091D01*
X164862621Y-116848789D01*
X164861203Y-116844115D01*
X164860395Y-116835913D01*
X164855614Y-116811879D01*
X164846236Y-116789241D01*
X164832621Y-116768867D01*
X164815294Y-116751540D01*
X164794919Y-116737927D01*
X164772280Y-116728550D01*
X164748253Y-116723771D01*
X164740051Y-116722963D01*
X164735377Y-116721545D01*
X164731075Y-116719246D01*
X164722536Y-116712238D01*
X164518375Y-116508077D01*
X164511367Y-116499538D01*
X164509068Y-116495236D01*
X164507650Y-116490562D01*
X164507172Y-116485707D01*
X164507650Y-116480852D01*
X164509068Y-116476178D01*
X164511367Y-116471876D01*
X164518375Y-116463337D01*
X165114724Y-115866988D01*
X165130269Y-115848046D01*
X165141820Y-115826435D01*
X165148933Y-115802986D01*
X165151335Y-115778600D01*
X165222361Y-115778600D01*
X165224763Y-115802986D01*
X165231876Y-115826435D01*
X165243427Y-115848046D01*
X165258972Y-115866988D01*
X165413379Y-116021395D01*
X165420387Y-116029934D01*
X165422686Y-116034236D01*
X165424104Y-116038910D01*
X165424912Y-116047112D01*
X165429693Y-116071146D01*
X165439071Y-116093784D01*
X165452686Y-116114158D01*
X165470013Y-116131485D01*
X165490388Y-116145098D01*
X165513027Y-116154475D01*
X165537054Y-116159254D01*
X165545256Y-116160062D01*
X165549930Y-116161480D01*
X165554232Y-116163779D01*
X165562771Y-116170787D01*
X165766932Y-116374948D01*
X165773940Y-116383487D01*
X165776239Y-116387789D01*
X165777657Y-116392463D01*
X165778465Y-116400666D01*
X165783246Y-116424699D01*
X165792624Y-116447338D01*
X165806238Y-116467712D01*
X165823566Y-116485038D01*
X165843940Y-116498652D01*
X165866579Y-116508028D01*
X165890607Y-116512808D01*
X165898810Y-116513616D01*
X165903484Y-116515034D01*
X165907786Y-116517333D01*
X165916325Y-116524341D01*
X166120486Y-116728502D01*
X166127494Y-116737041D01*
X166129793Y-116741343D01*
X166131211Y-116746017D01*
X166132019Y-116754219D01*
X166136800Y-116778253D01*
X166146178Y-116800891D01*
X166159793Y-116821265D01*
X166177120Y-116838592D01*
X166197495Y-116852205D01*
X166220134Y-116861582D01*
X166244161Y-116866361D01*
X166252363Y-116867169D01*
X166257037Y-116868587D01*
X166261339Y-116870886D01*
X166269878Y-116877894D01*
X166474039Y-117082055D01*
X166481047Y-117090594D01*
X166483346Y-117094896D01*
X166484764Y-117099570D01*
X166485572Y-117107772D01*
X166490353Y-117131806D01*
X166499731Y-117154444D01*
X166513346Y-117174818D01*
X166530673Y-117192145D01*
X166551048Y-117205758D01*
X166573687Y-117215135D01*
X166597714Y-117219914D01*
X166605916Y-117220722D01*
X166610590Y-117222140D01*
X166614892Y-117224439D01*
X166623431Y-117231447D01*
X166827592Y-117435608D01*
X166834600Y-117444147D01*
X166836899Y-117448449D01*
X166838317Y-117453123D01*
X166839125Y-117461326D01*
X166843906Y-117485359D01*
X166853284Y-117507998D01*
X166866898Y-117528372D01*
X166884226Y-117545698D01*
X166904600Y-117559312D01*
X166927239Y-117568688D01*
X166951267Y-117573468D01*
X166959470Y-117574276D01*
X166964144Y-117575694D01*
X166968446Y-117577993D01*
X166976985Y-117585001D01*
X167181146Y-117789162D01*
X167188154Y-117797701D01*
X167190453Y-117802003D01*
X167191871Y-117806677D01*
X167192679Y-117814879D01*
X167197460Y-117838913D01*
X167206838Y-117861551D01*
X167220453Y-117881925D01*
X167237780Y-117899252D01*
X167258155Y-117912865D01*
X167280794Y-117922242D01*
X167304821Y-117927021D01*
X167313023Y-117927829D01*
X167317697Y-117929247D01*
X167321999Y-117931546D01*
X167330538Y-117938554D01*
X167534699Y-118142715D01*
X167541707Y-118151254D01*
X167544006Y-118155556D01*
X167545424Y-118160230D01*
X167546232Y-118168433D01*
X167551013Y-118192466D01*
X167560391Y-118215105D01*
X167574005Y-118235479D01*
X167591333Y-118252805D01*
X167611707Y-118266419D01*
X167634346Y-118275795D01*
X167658374Y-118280575D01*
X167666577Y-118281383D01*
X167671251Y-118282801D01*
X167675553Y-118285100D01*
X167684092Y-118292108D01*
X167888253Y-118496269D01*
X167895261Y-118504808D01*
X167897560Y-118509110D01*
X167898978Y-118513784D01*
X167899786Y-118521986D01*
X167904567Y-118546020D01*
X167913945Y-118568658D01*
X167927560Y-118589032D01*
X167944887Y-118606359D01*
X167965262Y-118619972D01*
X167987901Y-118629349D01*
X168011928Y-118634128D01*
X168020130Y-118634936D01*
X168024804Y-118636354D01*
X168029106Y-118638653D01*
X168037645Y-118645661D01*
X168241806Y-118849822D01*
X168248814Y-118858361D01*
X168251113Y-118862663D01*
X168252531Y-118867337D01*
X168253339Y-118875539D01*
X168258120Y-118899573D01*
X168267498Y-118922211D01*
X168281113Y-118942585D01*
X168298440Y-118959912D01*
X168318815Y-118973525D01*
X168341454Y-118982902D01*
X168365481Y-118987681D01*
X168373683Y-118988489D01*
X168378357Y-118989907D01*
X168382659Y-118992206D01*
X168391198Y-118999214D01*
X168595359Y-119203375D01*
X168602367Y-119211914D01*
X168604666Y-119216216D01*
X168606084Y-119220890D01*
X168606892Y-119229093D01*
X168611673Y-119253126D01*
X168621051Y-119275765D01*
X168634665Y-119296139D01*
X168651993Y-119313465D01*
X168672367Y-119327079D01*
X168695006Y-119336455D01*
X168719034Y-119341235D01*
X168727237Y-119342043D01*
X168731911Y-119343461D01*
X168736213Y-119345760D01*
X168744752Y-119352768D01*
X168948913Y-119556929D01*
X168955921Y-119565468D01*
X168958220Y-119569770D01*
X168959638Y-119574444D01*
X168960446Y-119582646D01*
X168965227Y-119606680D01*
X168974605Y-119629318D01*
X168988220Y-119649692D01*
X169005547Y-119667019D01*
X169025922Y-119680632D01*
X169048561Y-119690009D01*
X169072588Y-119694788D01*
X169080790Y-119695596D01*
X169085464Y-119697014D01*
X169089766Y-119699313D01*
X169098305Y-119706321D01*
X169252712Y-119860728D01*
X169271654Y-119876273D01*
X169293265Y-119887824D01*
X169316714Y-119894937D01*
X169341100Y-119897339D01*
X169365486Y-119894937D01*
X169388935Y-119887824D01*
X169410546Y-119876273D01*
X169429488Y-119860728D01*
X169583895Y-119706321D01*
X169592434Y-119699313D01*
X169596736Y-119697014D01*
X169601410Y-119695596D01*
X169609612Y-119694788D01*
X169633646Y-119690007D01*
X169656284Y-119680629D01*
X169676658Y-119667014D01*
X169693985Y-119649687D01*
X169707598Y-119629312D01*
X169716975Y-119606673D01*
X169721754Y-119582646D01*
X169722562Y-119574444D01*
X169723980Y-119569770D01*
X169726279Y-119565468D01*
X169733287Y-119556929D01*
X169937448Y-119352768D01*
X169945987Y-119345760D01*
X169950289Y-119343461D01*
X169954963Y-119342043D01*
X169963166Y-119341235D01*
X169987199Y-119336454D01*
X170009838Y-119327076D01*
X170030212Y-119313462D01*
X170047538Y-119296134D01*
X170061152Y-119275760D01*
X170070528Y-119253121D01*
X170075308Y-119229093D01*
X170076116Y-119220890D01*
X170077534Y-119216216D01*
X170079833Y-119211914D01*
X170086841Y-119203375D01*
X170291002Y-118999214D01*
X170299541Y-118992206D01*
X170303843Y-118989907D01*
X170308517Y-118988489D01*
X170316719Y-118987681D01*
X170340753Y-118982900D01*
X170363391Y-118973522D01*
X170383765Y-118959907D01*
X170401092Y-118942580D01*
X170414705Y-118922205D01*
X170424082Y-118899566D01*
X170428861Y-118875539D01*
X170429669Y-118867337D01*
X170431087Y-118862663D01*
X170433386Y-118858361D01*
X170440394Y-118849822D01*
X170644555Y-118645661D01*
X170653094Y-118638653D01*
X170657396Y-118636354D01*
X170662070Y-118634936D01*
X170670272Y-118634128D01*
X170694306Y-118629347D01*
X170716944Y-118619969D01*
X170737318Y-118606354D01*
X170754645Y-118589027D01*
X170768258Y-118568652D01*
X170777635Y-118546013D01*
X170782414Y-118521986D01*
X170783222Y-118513784D01*
X170784640Y-118509110D01*
X170786939Y-118504808D01*
X170793947Y-118496269D01*
X170998108Y-118292108D01*
X171006647Y-118285100D01*
X171010949Y-118282801D01*
X171015623Y-118281383D01*
X171023826Y-118280575D01*
X171047859Y-118275794D01*
X171070498Y-118266416D01*
X171090872Y-118252802D01*
X171108198Y-118235474D01*
X171121812Y-118215100D01*
X171131188Y-118192461D01*
X171135968Y-118168433D01*
X171136776Y-118160230D01*
X171138194Y-118155556D01*
X171140493Y-118151254D01*
X171147501Y-118142715D01*
X171351662Y-117938554D01*
X171360201Y-117931546D01*
X171364503Y-117929247D01*
X171369177Y-117927829D01*
X171377379Y-117927021D01*
X171401413Y-117922240D01*
X171424051Y-117912862D01*
X171444425Y-117899247D01*
X171461752Y-117881920D01*
X171475365Y-117861545D01*
X171484742Y-117838906D01*
X171489521Y-117814879D01*
X171490329Y-117806677D01*
X171491747Y-117802003D01*
X171494046Y-117797701D01*
X171501054Y-117789162D01*
X171705215Y-117585001D01*
X171713754Y-117577993D01*
X171718056Y-117575694D01*
X171722730Y-117574276D01*
X171730933Y-117573468D01*
X171754966Y-117568687D01*
X171777605Y-117559309D01*
X171797979Y-117545695D01*
X171815305Y-117528367D01*
X171828919Y-117507993D01*
X171838295Y-117485354D01*
X171843075Y-117461326D01*
X171843883Y-117453123D01*
X171845301Y-117448449D01*
X171847600Y-117444147D01*
X171854608Y-117435608D01*
X172058769Y-117231447D01*
X172067308Y-117224439D01*
X172071610Y-117222140D01*
X172076284Y-117220722D01*
X172084486Y-117219914D01*
X172108520Y-117215133D01*
X172131158Y-117205755D01*
X172151532Y-117192140D01*
X172168859Y-117174813D01*
X172182472Y-117154438D01*
X172191849Y-117131799D01*
X172196628Y-117107772D01*
X172197436Y-117099570D01*
X172198854Y-117094896D01*
X172201153Y-117090594D01*
X172208161Y-117082055D01*
X172412322Y-116877894D01*
X172420861Y-116870886D01*
X172425163Y-116868587D01*
X172429837Y-116867169D01*
X172438039Y-116866361D01*
X172462073Y-116861580D01*
X172484711Y-116852202D01*
X172505085Y-116838587D01*
X172522412Y-116821260D01*
X172536025Y-116800885D01*
X172545402Y-116778246D01*
X172550181Y-116754219D01*
X172550989Y-116746017D01*
X172552407Y-116741343D01*
X172554706Y-116737041D01*
X172561714Y-116728502D01*
X172765875Y-116524341D01*
X172774414Y-116517333D01*
X172778716Y-116515034D01*
X172783390Y-116513616D01*
X172791593Y-116512808D01*
X172815626Y-116508027D01*
X172838265Y-116498649D01*
X172858639Y-116485035D01*
X172875965Y-116467707D01*
X172889579Y-116447333D01*
X172898955Y-116424694D01*
X172903735Y-116400666D01*
X172904543Y-116392463D01*
X172905961Y-116387789D01*
X172908260Y-116383487D01*
X172915268Y-116374948D01*
X173119429Y-116170787D01*
X173127968Y-116163779D01*
X173132270Y-116161480D01*
X173136944Y-116160062D01*
X173145146Y-116159254D01*
X173169180Y-116154473D01*
X173191818Y-116145095D01*
X173212192Y-116131480D01*
X173229519Y-116114153D01*
X173243132Y-116093778D01*
X173252509Y-116071139D01*
X173257288Y-116047112D01*
X173258096Y-116038910D01*
X173259514Y-116034236D01*
X173261813Y-116029934D01*
X173268821Y-116021395D01*
X173423228Y-115866988D01*
X173438773Y-115848046D01*
X173450324Y-115826435D01*
X173457437Y-115802986D01*
X173459839Y-115778600D01*
X173457437Y-115754214D01*
X173450324Y-115730765D01*
X173438773Y-115709154D01*
X173423228Y-115690212D01*
X173268821Y-115535805D01*
X173261813Y-115527266D01*
X173259514Y-115522964D01*
X173258096Y-115518290D01*
X173257288Y-115510088D01*
X173252507Y-115486054D01*
X173243129Y-115463416D01*
X173229514Y-115443042D01*
X173212187Y-115425715D01*
X173191812Y-115412102D01*
X173169173Y-115402725D01*
X173145146Y-115397946D01*
X173136944Y-115397138D01*
X173132270Y-115395720D01*
X173127968Y-115393421D01*
X173119429Y-115386413D01*
X172915268Y-115182252D01*
X172908260Y-115173713D01*
X172905961Y-115169411D01*
X172904543Y-115164737D01*
X172903735Y-115156534D01*
X172898954Y-115132501D01*
X172889576Y-115109862D01*
X172875962Y-115089488D01*
X172858634Y-115072162D01*
X172838260Y-115058548D01*
X172815621Y-115049172D01*
X172791593Y-115044392D01*
X172783390Y-115043584D01*
X172778716Y-115042166D01*
X172774414Y-115039867D01*
X172765875Y-115032859D01*
X172561714Y-114828698D01*
X172554706Y-114820159D01*
X172552407Y-114815857D01*
X172550989Y-114811183D01*
X172550181Y-114802981D01*
X172545400Y-114778947D01*
X172536022Y-114756309D01*
X172522407Y-114735935D01*
X172505080Y-114718608D01*
X172484705Y-114704995D01*
X172462066Y-114695618D01*
X172438039Y-114690839D01*
X172429837Y-114690031D01*
X172425163Y-114688613D01*
X172420861Y-114686314D01*
X172412322Y-114679306D01*
X172208161Y-114475145D01*
X172201153Y-114466606D01*
X172198854Y-114462304D01*
X172197436Y-114457630D01*
X172196628Y-114449428D01*
X172191847Y-114425394D01*
X172182469Y-114402756D01*
X172168854Y-114382382D01*
X172151527Y-114365055D01*
X172131152Y-114351442D01*
X172108513Y-114342065D01*
X172084486Y-114337286D01*
X172076284Y-114336478D01*
X172071610Y-114335060D01*
X172067308Y-114332761D01*
X172058769Y-114325753D01*
X171854608Y-114121592D01*
X171847600Y-114113053D01*
X171845301Y-114108751D01*
X171843883Y-114104077D01*
X171843075Y-114095874D01*
X171838294Y-114071841D01*
X171828916Y-114049202D01*
X171815302Y-114028828D01*
X171797974Y-114011502D01*
X171777600Y-113997888D01*
X171754961Y-113988512D01*
X171730933Y-113983732D01*
X171722730Y-113982924D01*
X171718056Y-113981506D01*
X171713754Y-113979207D01*
X171705215Y-113972199D01*
X171501054Y-113768038D01*
X171494046Y-113759499D01*
X171491747Y-113755197D01*
X171490329Y-113750523D01*
X171489521Y-113742321D01*
X171484740Y-113718287D01*
X171475362Y-113695649D01*
X171461747Y-113675275D01*
X171444420Y-113657948D01*
X171424045Y-113644335D01*
X171401406Y-113634958D01*
X171377379Y-113630179D01*
X171369177Y-113629371D01*
X171364503Y-113627953D01*
X171360201Y-113625654D01*
X171351662Y-113618646D01*
X171147501Y-113414485D01*
X171140493Y-113405946D01*
X171138194Y-113401644D01*
X171136776Y-113396970D01*
X171135968Y-113388767D01*
X171131187Y-113364734D01*
X171121809Y-113342095D01*
X171108195Y-113321721D01*
X171090867Y-113304395D01*
X171070493Y-113290781D01*
X171047854Y-113281405D01*
X171023826Y-113276625D01*
X171015623Y-113275817D01*
X171010949Y-113274399D01*
X171006647Y-113272100D01*
X170998108Y-113265092D01*
X170793947Y-113060931D01*
X170786939Y-113052392D01*
X170784640Y-113048090D01*
X170783222Y-113043416D01*
X170782414Y-113035214D01*
X170777633Y-113011180D01*
X170768255Y-112988542D01*
X170754640Y-112968168D01*
X170737313Y-112950841D01*
X170716938Y-112937228D01*
X170694299Y-112927851D01*
X170670272Y-112923072D01*
X170662070Y-112922264D01*
X170657396Y-112920846D01*
X170653094Y-112918547D01*
X170644555Y-112911539D01*
X170440394Y-112707378D01*
X170433386Y-112698839D01*
X170431087Y-112694537D01*
X170429669Y-112689863D01*
X170428861Y-112681661D01*
X170424080Y-112657627D01*
X170414702Y-112634989D01*
X170401087Y-112614615D01*
X170383760Y-112597288D01*
X170363385Y-112583675D01*
X170340746Y-112574298D01*
X170316719Y-112569519D01*
X170308517Y-112568711D01*
X170303843Y-112567293D01*
X170299541Y-112564994D01*
X170291002Y-112557986D01*
X170086841Y-112353825D01*
X170079833Y-112345286D01*
X170077534Y-112340984D01*
X170076116Y-112336310D01*
X170075308Y-112328107D01*
X170070527Y-112304074D01*
X170061149Y-112281435D01*
X170047535Y-112261061D01*
X170030207Y-112243735D01*
X170009833Y-112230121D01*
X169987194Y-112220745D01*
X169963166Y-112215965D01*
X169954963Y-112215157D01*
X169950289Y-112213739D01*
X169945987Y-112211440D01*
X169937448Y-112204432D01*
X169733287Y-112000271D01*
X169726279Y-111991732D01*
X169723980Y-111987430D01*
X169722562Y-111982756D01*
X169721754Y-111974554D01*
X169716973Y-111950520D01*
X169707595Y-111927882D01*
X169693980Y-111907508D01*
X169676653Y-111890181D01*
X169656278Y-111876568D01*
X169633639Y-111867191D01*
X169609612Y-111862412D01*
X169601410Y-111861604D01*
X169596736Y-111860186D01*
X169592434Y-111857887D01*
X169583895Y-111850879D01*
X169429488Y-111696472D01*
X169410546Y-111680927D01*
X169388935Y-111669376D01*
X169365486Y-111662263D01*
X169341100Y-111659861D01*
X169316714Y-111662263D01*
X169293265Y-111669376D01*
X169271654Y-111680927D01*
X169252712Y-111696472D01*
X169098305Y-111850879D01*
X169089766Y-111857887D01*
X169085464Y-111860186D01*
X169080790Y-111861604D01*
X169072588Y-111862412D01*
X169048554Y-111867193D01*
X169025916Y-111876571D01*
X169005542Y-111890186D01*
X168988215Y-111907513D01*
X168974602Y-111927888D01*
X168965225Y-111950527D01*
X168960446Y-111974554D01*
X168959638Y-111982756D01*
X168958220Y-111987430D01*
X168955921Y-111991732D01*
X168948913Y-112000271D01*
X168744752Y-112204432D01*
X168736213Y-112211440D01*
X168731911Y-112213739D01*
X168727237Y-112215157D01*
X168719034Y-112215965D01*
X168695001Y-112220746D01*
X168672362Y-112230124D01*
X168651988Y-112243738D01*
X168634662Y-112261066D01*
X168621048Y-112281440D01*
X168611672Y-112304079D01*
X168606892Y-112328107D01*
X168606084Y-112336310D01*
X168604666Y-112340984D01*
X168602367Y-112345286D01*
X168595359Y-112353825D01*
X168391198Y-112557986D01*
X168382659Y-112564994D01*
X168378357Y-112567293D01*
X168373683Y-112568711D01*
X168365481Y-112569519D01*
X168341447Y-112574300D01*
X168318809Y-112583678D01*
X168298435Y-112597293D01*
X168281108Y-112614620D01*
X168267495Y-112634995D01*
X168258118Y-112657634D01*
X168253339Y-112681661D01*
X168252531Y-112689863D01*
X168251113Y-112694537D01*
X168248814Y-112698839D01*
X168241806Y-112707378D01*
X168037645Y-112911539D01*
X168029106Y-112918547D01*
X168024804Y-112920846D01*
X168020130Y-112922264D01*
X168011928Y-112923072D01*
X167987894Y-112927853D01*
X167965256Y-112937231D01*
X167944882Y-112950846D01*
X167927555Y-112968173D01*
X167913942Y-112988548D01*
X167904565Y-113011187D01*
X167899786Y-113035214D01*
X167898978Y-113043416D01*
X167897560Y-113048090D01*
X167895261Y-113052392D01*
X167888253Y-113060931D01*
X167684092Y-113265092D01*
X167675553Y-113272100D01*
X167671251Y-113274399D01*
X167666577Y-113275817D01*
X167658374Y-113276625D01*
X167634341Y-113281406D01*
X167611702Y-113290784D01*
X167591328Y-113304398D01*
X167574002Y-113321726D01*
X167560388Y-113342100D01*
X167551012Y-113364739D01*
X167546232Y-113388767D01*
X167545424Y-113396970D01*
X167544006Y-113401644D01*
X167541707Y-113405946D01*
X167534699Y-113414485D01*
X167330538Y-113618646D01*
X167321999Y-113625654D01*
X167317697Y-113627953D01*
X167313023Y-113629371D01*
X167304821Y-113630179D01*
X167280787Y-113634960D01*
X167258149Y-113644338D01*
X167237775Y-113657953D01*
X167220448Y-113675280D01*
X167206835Y-113695655D01*
X167197458Y-113718294D01*
X167192679Y-113742321D01*
X167191871Y-113750523D01*
X167190453Y-113755197D01*
X167188154Y-113759499D01*
X167181146Y-113768038D01*
X166976985Y-113972199D01*
X166968446Y-113979207D01*
X166964144Y-113981506D01*
X166959470Y-113982924D01*
X166951267Y-113983732D01*
X166927234Y-113988513D01*
X166904595Y-113997891D01*
X166884221Y-114011505D01*
X166866895Y-114028833D01*
X166853281Y-114049207D01*
X166843905Y-114071846D01*
X166839125Y-114095874D01*
X166838317Y-114104077D01*
X166836899Y-114108751D01*
X166834600Y-114113053D01*
X166827592Y-114121592D01*
X166623431Y-114325753D01*
X166614892Y-114332761D01*
X166610590Y-114335060D01*
X166605916Y-114336478D01*
X166597714Y-114337286D01*
X166573680Y-114342067D01*
X166551042Y-114351445D01*
X166530668Y-114365060D01*
X166513341Y-114382387D01*
X166499728Y-114402762D01*
X166490351Y-114425401D01*
X166485572Y-114449428D01*
X166484764Y-114457630D01*
X166483346Y-114462304D01*
X166481047Y-114466606D01*
X166474039Y-114475145D01*
X166269878Y-114679306D01*
X166261339Y-114686314D01*
X166257037Y-114688613D01*
X166252363Y-114690031D01*
X166244161Y-114690839D01*
X166220127Y-114695620D01*
X166197489Y-114704998D01*
X166177115Y-114718613D01*
X166159788Y-114735940D01*
X166146175Y-114756315D01*
X166136798Y-114778954D01*
X166132019Y-114802981D01*
X166131211Y-114811183D01*
X166129793Y-114815857D01*
X166127494Y-114820159D01*
X166120486Y-114828698D01*
X165916325Y-115032859D01*
X165907786Y-115039867D01*
X165903484Y-115042166D01*
X165898810Y-115043584D01*
X165890607Y-115044392D01*
X165866574Y-115049173D01*
X165843935Y-115058551D01*
X165823561Y-115072165D01*
X165806235Y-115089493D01*
X165792621Y-115109867D01*
X165783245Y-115132506D01*
X165778465Y-115156534D01*
X165777657Y-115164737D01*
X165776239Y-115169411D01*
X165773940Y-115173713D01*
X165766932Y-115182252D01*
X165562771Y-115386413D01*
X165554232Y-115393421D01*
X165549930Y-115395720D01*
X165545256Y-115397138D01*
X165537054Y-115397946D01*
X165513020Y-115402727D01*
X165490382Y-115412105D01*
X165470008Y-115425720D01*
X165452681Y-115443047D01*
X165439068Y-115463422D01*
X165429691Y-115486061D01*
X165424912Y-115510088D01*
X165424104Y-115518290D01*
X165422686Y-115522964D01*
X165420387Y-115527266D01*
X165413379Y-115535805D01*
X165258972Y-115690212D01*
X165243427Y-115709154D01*
X165231876Y-115730765D01*
X165224763Y-115754214D01*
X165222361Y-115778600D01*
X165151335Y-115778600D01*
X165148933Y-115754214D01*
X165141820Y-115730765D01*
X165130269Y-115709154D01*
X165114724Y-115690212D01*
X164518375Y-115093863D01*
X164511367Y-115085324D01*
X164509068Y-115081022D01*
X164507650Y-115076348D01*
X164507172Y-115071493D01*
X164507650Y-115066638D01*
X164509068Y-115061964D01*
X164511367Y-115057662D01*
X164518375Y-115049123D01*
X164722536Y-114844962D01*
X164731075Y-114837954D01*
X164735377Y-114835655D01*
X164740051Y-114834237D01*
X164748253Y-114833429D01*
X164772287Y-114828648D01*
X164794925Y-114819270D01*
X164815299Y-114805655D01*
X164832626Y-114788328D01*
X164846239Y-114767953D01*
X164855616Y-114745314D01*
X164860395Y-114721287D01*
X164861203Y-114713085D01*
X164862621Y-114708411D01*
X164864920Y-114704109D01*
X164871928Y-114695570D01*
X165076089Y-114491409D01*
X165084628Y-114484401D01*
X165088930Y-114482102D01*
X165093604Y-114480684D01*
X165101807Y-114479876D01*
X165125840Y-114475095D01*
X165148479Y-114465717D01*
X165168853Y-114452103D01*
X165186179Y-114434775D01*
X165199793Y-114414401D01*
X165209169Y-114391762D01*
X165213949Y-114367734D01*
X165214757Y-114359531D01*
X165216175Y-114354857D01*
X165218474Y-114350555D01*
X165225482Y-114342016D01*
X165429643Y-114137855D01*
X165438182Y-114130847D01*
X165442484Y-114128548D01*
X165447158Y-114127130D01*
X165455360Y-114126322D01*
X165479394Y-114121541D01*
X165502032Y-114112163D01*
X165522406Y-114098548D01*
X165539733Y-114081221D01*
X165553346Y-114060846D01*
X165562723Y-114038207D01*
X165567502Y-114014180D01*
X165568310Y-114005978D01*
X165569728Y-114001304D01*
X165572027Y-113997002D01*
X165579035Y-113988463D01*
X165783196Y-113784302D01*
X165791735Y-113777294D01*
X165796037Y-113774995D01*
X165800711Y-113773577D01*
X165808913Y-113772769D01*
X165832947Y-113767988D01*
X165855585Y-113758610D01*
X165875959Y-113744995D01*
X165893286Y-113727668D01*
X165906899Y-113707293D01*
X165916276Y-113684654D01*
X165921055Y-113660627D01*
X165921863Y-113652425D01*
X165923281Y-113647751D01*
X165925580Y-113643449D01*
X165932588Y-113634910D01*
X166136749Y-113430749D01*
X166145288Y-113423741D01*
X166149590Y-113421442D01*
X166154264Y-113420024D01*
X166162467Y-113419216D01*
X166186500Y-113414435D01*
X166209139Y-113405057D01*
X166229513Y-113391443D01*
X166246839Y-113374115D01*
X166260453Y-113353741D01*
X166269829Y-113331102D01*
X166274609Y-113307074D01*
X166275417Y-113298871D01*
X166276835Y-113294197D01*
X166279134Y-113289895D01*
X166286142Y-113281356D01*
X166490303Y-113077195D01*
X166498842Y-113070187D01*
X166503144Y-113067888D01*
X166507818Y-113066470D01*
X166516020Y-113065662D01*
X166540054Y-113060881D01*
X166562692Y-113051503D01*
X166583066Y-113037888D01*
X166600393Y-113020561D01*
X166614006Y-113000186D01*
X166623383Y-112977547D01*
X166628162Y-112953520D01*
X166628970Y-112945318D01*
X166630388Y-112940644D01*
X166632687Y-112936342D01*
X166639695Y-112927803D01*
X166843856Y-112723642D01*
X166852395Y-112716634D01*
X166856697Y-112714335D01*
X166861371Y-112712917D01*
X166869574Y-112712109D01*
X166893607Y-112707328D01*
X166916246Y-112697950D01*
X166936620Y-112684336D01*
X166953946Y-112667008D01*
X166967560Y-112646634D01*
X166976936Y-112623995D01*
X166981716Y-112599967D01*
X166982524Y-112591764D01*
X166983942Y-112587090D01*
X166986241Y-112582788D01*
X166993249Y-112574249D01*
X167197410Y-112370088D01*
X167205949Y-112363080D01*
X167210251Y-112360781D01*
X167214925Y-112359363D01*
X167223127Y-112358555D01*
X167247161Y-112353774D01*
X167269799Y-112344396D01*
X167290173Y-112330781D01*
X167307500Y-112313454D01*
X167321113Y-112293079D01*
X167330490Y-112270440D01*
X167335269Y-112246413D01*
X167336077Y-112238211D01*
X167337495Y-112233537D01*
X167339794Y-112229235D01*
X167346802Y-112220696D01*
X167550963Y-112016535D01*
X167559502Y-112009527D01*
X167563804Y-112007228D01*
X167568478Y-112005810D01*
X167576680Y-112005002D01*
X167600714Y-112000221D01*
X167623352Y-111990843D01*
X167643726Y-111977228D01*
X167661053Y-111959901D01*
X167674666Y-111939526D01*
X167684043Y-111916887D01*
X167688822Y-111892860D01*
X167689630Y-111884658D01*
X167691048Y-111879984D01*
X167693347Y-111875682D01*
X167700355Y-111867143D01*
X167904516Y-111662982D01*
X167913055Y-111655974D01*
X167917357Y-111653675D01*
X167922031Y-111652257D01*
X167930234Y-111651449D01*
X167954267Y-111646668D01*
X167976906Y-111637290D01*
X167997280Y-111623676D01*
X168014606Y-111606348D01*
X168028220Y-111585974D01*
X168037596Y-111563335D01*
X168042376Y-111539307D01*
X168043184Y-111531104D01*
X168044602Y-111526430D01*
X168046901Y-111522128D01*
X168053909Y-111513589D01*
X168258070Y-111309428D01*
X168266609Y-111302420D01*
X168270911Y-111300121D01*
X168275585Y-111298703D01*
X168283787Y-111297895D01*
X168307821Y-111293114D01*
X168330459Y-111283736D01*
X168350833Y-111270121D01*
X168368160Y-111252794D01*
X168381773Y-111232419D01*
X168391150Y-111209780D01*
X168395929Y-111185753D01*
X168396737Y-111177551D01*
X168398155Y-111172877D01*
X168400454Y-111168575D01*
X168407462Y-111160036D01*
X168611623Y-110955875D01*
X168620162Y-110948867D01*
X168624464Y-110946568D01*
X168629138Y-110945150D01*
X168633993Y-110944672D01*
X168638848Y-110945150D01*
X168643522Y-110946568D01*
X168647824Y-110948867D01*
X168656363Y-110955875D01*
X169252712Y-111552224D01*
X169271654Y-111567769D01*
X169293265Y-111579320D01*
X169316714Y-111586433D01*
X169341100Y-111588835D01*
X169365486Y-111586433D01*
X169388935Y-111579320D01*
X169410546Y-111567769D01*
X169429488Y-111552224D01*
X169918125Y-111063587D01*
X169933670Y-111044645D01*
X169945221Y-111023034D01*
X169952334Y-110999585D01*
X169954736Y-110975199D01*
X169952334Y-110950813D01*
X169945221Y-110927364D01*
X169933670Y-110905753D01*
X169918125Y-110886811D01*
X169899183Y-110871266D01*
X169877572Y-110859715D01*
X169854123Y-110852602D01*
X169829737Y-110850200D01*
X169317000Y-110850200D01*
X169317000Y-109907000D01*
X171645200Y-109907000D01*
X171645200Y-110850200D01*
X171645200Y-110850200D01*
G37*
G36*
X181732700Y-120492700D02*
G01*
X180789500Y-120492700D01*
X180789500Y-118164500D01*
X181732700Y-118164500D01*
X181732700Y-120492700D01*
X181732700Y-120492700D01*
G37*
G36*
X178064100Y-120171600D02*
G01*
X175735900Y-120171600D01*
X175735900Y-119228400D01*
X178064100Y-119228400D01*
X178064100Y-120171600D01*
X178064100Y-120171600D01*
G37*
G36*
X183134502Y-118151547D02*
G01*
X183167678Y-118161611D01*
X183202306Y-118180120D01*
X183215079Y-118188654D01*
X183237718Y-118198031D01*
X183261751Y-118202811D01*
X183286255Y-118202811D01*
X183305412Y-118199000D01*
X185194983Y-118199000D01*
X185201613Y-118201011D01*
X185225999Y-118203413D01*
X185250385Y-118201011D01*
X185273834Y-118193898D01*
X185290857Y-118183695D01*
X185290890Y-118183757D01*
X185332322Y-118161611D01*
X185365498Y-118151547D01*
X185391359Y-118149000D01*
X186008641Y-118149000D01*
X186034502Y-118151547D01*
X186067678Y-118161611D01*
X186067680Y-118161612D01*
X186074616Y-118163716D01*
X186098649Y-118168496D01*
X186123153Y-118168496D01*
X186134840Y-118166171D01*
X186134305Y-118171599D01*
X186136707Y-118195985D01*
X186143820Y-118219434D01*
X186149065Y-118230524D01*
X186163389Y-118257322D01*
X186173453Y-118290498D01*
X186176851Y-118325000D01*
X186173453Y-118359502D01*
X186163389Y-118392678D01*
X186147046Y-118423254D01*
X186125053Y-118450053D01*
X186090543Y-118478374D01*
X186073215Y-118495701D01*
X186059602Y-118516076D01*
X186050224Y-118538715D01*
X186045444Y-118562748D01*
X186045444Y-118587252D01*
X186050224Y-118611285D01*
X186059602Y-118633924D01*
X186073215Y-118654298D01*
X186090543Y-118671626D01*
X186125053Y-118699947D01*
X186147046Y-118726746D01*
X186163389Y-118757322D01*
X186173453Y-118790498D01*
X186176851Y-118825000D01*
X186173453Y-118859502D01*
X186163389Y-118892678D01*
X186147046Y-118923254D01*
X186125053Y-118950053D01*
X186090543Y-118978374D01*
X186073215Y-118995701D01*
X186059602Y-119016076D01*
X186050224Y-119038715D01*
X186045444Y-119062748D01*
X186045444Y-119087252D01*
X186050224Y-119111285D01*
X186059602Y-119133924D01*
X186073215Y-119154298D01*
X186090543Y-119171626D01*
X186125053Y-119199947D01*
X186147046Y-119226746D01*
X186163389Y-119257322D01*
X186173453Y-119290498D01*
X186176851Y-119325000D01*
X186173453Y-119359502D01*
X186163389Y-119392678D01*
X186147046Y-119423254D01*
X186125053Y-119450053D01*
X186090543Y-119478374D01*
X186073215Y-119495701D01*
X186059602Y-119516076D01*
X186050224Y-119538715D01*
X186045444Y-119562748D01*
X186045444Y-119587252D01*
X186050224Y-119611285D01*
X186059602Y-119633924D01*
X186073215Y-119654298D01*
X186090543Y-119671626D01*
X186125053Y-119699947D01*
X186147046Y-119726746D01*
X186163389Y-119757322D01*
X186173453Y-119790498D01*
X186176851Y-119825000D01*
X186173453Y-119859502D01*
X186163389Y-119892678D01*
X186147046Y-119923254D01*
X186125053Y-119950053D01*
X186098254Y-119972046D01*
X186067678Y-119988389D01*
X186034502Y-119998453D01*
X186008641Y-120001000D01*
X185391359Y-120001000D01*
X185365498Y-119998453D01*
X185332322Y-119988389D01*
X185297694Y-119969880D01*
X185284921Y-119961346D01*
X185262282Y-119951969D01*
X185238249Y-119947189D01*
X185213745Y-119947189D01*
X185194588Y-119951000D01*
X183305017Y-119951000D01*
X183298387Y-119948989D01*
X183274001Y-119946587D01*
X183249615Y-119948989D01*
X183226166Y-119956102D01*
X183209143Y-119966305D01*
X183209110Y-119966243D01*
X183167678Y-119988389D01*
X183134502Y-119998453D01*
X183108641Y-120001000D01*
X182491359Y-120001000D01*
X182465498Y-119998453D01*
X182432322Y-119988389D01*
X182401746Y-119972046D01*
X182374947Y-119950053D01*
X182352954Y-119923254D01*
X182336611Y-119892678D01*
X182326547Y-119859502D01*
X182323149Y-119825000D01*
X182326547Y-119790498D01*
X182336611Y-119757322D01*
X182352954Y-119726746D01*
X182374947Y-119699947D01*
X182409457Y-119671626D01*
X182426785Y-119654299D01*
X182440398Y-119633924D01*
X182449776Y-119611285D01*
X182454556Y-119587252D01*
X182454556Y-119562748D01*
X183145444Y-119562748D01*
X183145444Y-119587252D01*
X183150224Y-119611285D01*
X183159602Y-119633924D01*
X183173215Y-119654298D01*
X183190543Y-119671626D01*
X183194703Y-119675040D01*
X183215077Y-119688653D01*
X183237716Y-119698031D01*
X183261749Y-119702811D01*
X183286253Y-119702811D01*
X183310287Y-119698030D01*
X183332925Y-119688653D01*
X183353300Y-119675039D01*
X183370627Y-119657712D01*
X183384240Y-119637338D01*
X183393618Y-119614699D01*
X183399000Y-119578414D01*
X183399000Y-119571586D01*
X185101000Y-119571586D01*
X185101000Y-119578414D01*
X185103402Y-119602800D01*
X185110515Y-119626249D01*
X185122066Y-119647860D01*
X185137611Y-119666802D01*
X185156553Y-119682347D01*
X185178164Y-119693898D01*
X185201613Y-119701011D01*
X185225999Y-119703413D01*
X185250385Y-119701011D01*
X185273834Y-119693898D01*
X185305297Y-119675040D01*
X185309457Y-119671626D01*
X185326784Y-119654299D01*
X185340398Y-119633924D01*
X185349775Y-119611286D01*
X185354556Y-119587252D01*
X185354556Y-119562748D01*
X185349776Y-119538715D01*
X185340398Y-119516076D01*
X185326785Y-119495702D01*
X185309457Y-119478374D01*
X185305297Y-119474960D01*
X185284923Y-119461347D01*
X185262284Y-119451969D01*
X185238251Y-119447189D01*
X185213747Y-119447189D01*
X185189713Y-119451970D01*
X185167075Y-119461347D01*
X185146700Y-119474961D01*
X185129373Y-119492288D01*
X185115760Y-119512662D01*
X185106382Y-119535301D01*
X185101000Y-119571586D01*
X183399000Y-119571586D01*
X183396598Y-119547200D01*
X183389485Y-119523751D01*
X183377934Y-119502140D01*
X183362389Y-119483198D01*
X183343447Y-119467653D01*
X183321836Y-119456102D01*
X183298387Y-119448989D01*
X183274001Y-119446587D01*
X183249615Y-119448989D01*
X183226166Y-119456102D01*
X183194703Y-119474960D01*
X183190543Y-119478374D01*
X183173216Y-119495701D01*
X183159602Y-119516076D01*
X183150225Y-119538714D01*
X183145444Y-119562748D01*
X182454556Y-119562748D01*
X182449776Y-119538715D01*
X182440398Y-119516076D01*
X182426785Y-119495702D01*
X182409457Y-119478374D01*
X182374947Y-119450053D01*
X182352954Y-119423254D01*
X182336611Y-119392678D01*
X182326547Y-119359502D01*
X182323149Y-119325000D01*
X182326547Y-119290498D01*
X182336611Y-119257322D01*
X182352954Y-119226746D01*
X182374947Y-119199947D01*
X182409457Y-119171626D01*
X182426785Y-119154299D01*
X182440398Y-119133924D01*
X182449776Y-119111285D01*
X182454556Y-119087252D01*
X182454556Y-119062748D01*
X183145444Y-119062748D01*
X183145444Y-119087252D01*
X183150224Y-119111285D01*
X183159602Y-119133924D01*
X183173215Y-119154298D01*
X183190543Y-119171626D01*
X183194703Y-119175040D01*
X183215077Y-119188653D01*
X183237716Y-119198031D01*
X183261749Y-119202811D01*
X183286253Y-119202811D01*
X183310287Y-119198030D01*
X183332925Y-119188653D01*
X183353300Y-119175039D01*
X183370627Y-119157712D01*
X183384240Y-119137338D01*
X183393618Y-119114699D01*
X183399000Y-119078414D01*
X183399000Y-119071586D01*
X185101000Y-119071586D01*
X185101000Y-119078414D01*
X185103402Y-119102800D01*
X185110515Y-119126249D01*
X185122066Y-119147860D01*
X185137611Y-119166802D01*
X185156553Y-119182347D01*
X185178164Y-119193898D01*
X185201613Y-119201011D01*
X185225999Y-119203413D01*
X185250385Y-119201011D01*
X185273834Y-119193898D01*
X185305297Y-119175040D01*
X185309457Y-119171626D01*
X185326784Y-119154299D01*
X185340398Y-119133924D01*
X185349775Y-119111286D01*
X185354556Y-119087252D01*
X185354556Y-119062748D01*
X185349776Y-119038715D01*
X185340398Y-119016076D01*
X185326785Y-118995702D01*
X185309457Y-118978374D01*
X185305297Y-118974960D01*
X185284923Y-118961347D01*
X185262284Y-118951969D01*
X185238251Y-118947189D01*
X185213747Y-118947189D01*
X185189713Y-118951970D01*
X185167075Y-118961347D01*
X185146700Y-118974961D01*
X185129373Y-118992288D01*
X185115760Y-119012662D01*
X185106382Y-119035301D01*
X185101000Y-119071586D01*
X183399000Y-119071586D01*
X183396598Y-119047200D01*
X183389485Y-119023751D01*
X183377934Y-119002140D01*
X183362389Y-118983198D01*
X183343447Y-118967653D01*
X183321836Y-118956102D01*
X183298387Y-118948989D01*
X183274001Y-118946587D01*
X183249615Y-118948989D01*
X183226166Y-118956102D01*
X183194703Y-118974960D01*
X183190543Y-118978374D01*
X183173216Y-118995701D01*
X183159602Y-119016076D01*
X183150225Y-119038714D01*
X183145444Y-119062748D01*
X182454556Y-119062748D01*
X182449776Y-119038715D01*
X182440398Y-119016076D01*
X182426785Y-118995702D01*
X182409457Y-118978374D01*
X182374947Y-118950053D01*
X182352954Y-118923254D01*
X182336611Y-118892678D01*
X182326547Y-118859502D01*
X182323149Y-118825000D01*
X182326547Y-118790498D01*
X182336611Y-118757322D01*
X182352954Y-118726746D01*
X182374947Y-118699947D01*
X182409457Y-118671626D01*
X182426785Y-118654299D01*
X182440398Y-118633924D01*
X182449776Y-118611285D01*
X182454556Y-118587252D01*
X182454556Y-118562748D01*
X183145444Y-118562748D01*
X183145444Y-118587252D01*
X183150224Y-118611285D01*
X183159602Y-118633924D01*
X183173215Y-118654298D01*
X183190543Y-118671626D01*
X183194703Y-118675040D01*
X183215077Y-118688653D01*
X183237716Y-118698031D01*
X183261749Y-118702811D01*
X183286253Y-118702811D01*
X183310287Y-118698030D01*
X183332925Y-118688653D01*
X183353300Y-118675039D01*
X183370627Y-118657712D01*
X183384240Y-118637338D01*
X183393618Y-118614699D01*
X183399000Y-118578414D01*
X183399000Y-118571586D01*
X185101000Y-118571586D01*
X185101000Y-118578414D01*
X185103402Y-118602800D01*
X185110515Y-118626249D01*
X185122066Y-118647860D01*
X185137611Y-118666802D01*
X185156553Y-118682347D01*
X185178164Y-118693898D01*
X185201613Y-118701011D01*
X185225999Y-118703413D01*
X185250385Y-118701011D01*
X185273834Y-118693898D01*
X185305297Y-118675040D01*
X185309457Y-118671626D01*
X185326784Y-118654299D01*
X185340398Y-118633924D01*
X185349775Y-118611286D01*
X185354556Y-118587252D01*
X185354556Y-118562748D01*
X185349776Y-118538715D01*
X185340398Y-118516076D01*
X185326785Y-118495702D01*
X185309457Y-118478374D01*
X185305297Y-118474960D01*
X185284923Y-118461347D01*
X185262284Y-118451969D01*
X185238251Y-118447189D01*
X185213747Y-118447189D01*
X185189713Y-118451970D01*
X185167075Y-118461347D01*
X185146700Y-118474961D01*
X185129373Y-118492288D01*
X185115760Y-118512662D01*
X185106382Y-118535301D01*
X185101000Y-118571586D01*
X183399000Y-118571586D01*
X183396598Y-118547200D01*
X183389485Y-118523751D01*
X183377934Y-118502140D01*
X183362389Y-118483198D01*
X183343447Y-118467653D01*
X183321836Y-118456102D01*
X183298387Y-118448989D01*
X183274001Y-118446587D01*
X183249615Y-118448989D01*
X183226166Y-118456102D01*
X183194703Y-118474960D01*
X183190543Y-118478374D01*
X183173216Y-118495701D01*
X183159602Y-118516076D01*
X183150225Y-118538714D01*
X183145444Y-118562748D01*
X182454556Y-118562748D01*
X182449776Y-118538715D01*
X182440398Y-118516076D01*
X182426785Y-118495702D01*
X182409457Y-118478374D01*
X182374947Y-118450053D01*
X182352954Y-118423254D01*
X182336611Y-118392678D01*
X182326547Y-118359502D01*
X182323149Y-118325000D01*
X182326547Y-118290498D01*
X182336611Y-118257322D01*
X182352954Y-118226746D01*
X182374947Y-118199947D01*
X182401746Y-118177954D01*
X182432322Y-118161611D01*
X182465498Y-118151547D01*
X182491359Y-118149000D01*
X183108641Y-118149000D01*
X183134502Y-118151547D01*
X183134502Y-118151547D01*
G37*
G36*
X195755051Y-117701284D02*
G01*
X195771443Y-117706257D01*
X195786555Y-117714334D01*
X195799798Y-117725202D01*
X195810666Y-117738445D01*
X195818743Y-117753557D01*
X195823716Y-117769949D01*
X195826000Y-117793141D01*
X195826000Y-118206859D01*
X195823716Y-118230051D01*
X195818743Y-118246443D01*
X195810666Y-118261555D01*
X195799798Y-118274798D01*
X195786553Y-118285667D01*
X195778894Y-118289761D01*
X195758520Y-118303374D01*
X195741193Y-118320701D01*
X195727579Y-118341076D01*
X195718202Y-118363714D01*
X195713421Y-118387748D01*
X195713421Y-118412252D01*
X195718201Y-118436285D01*
X195727579Y-118458924D01*
X195741192Y-118479298D01*
X195758519Y-118496625D01*
X195778894Y-118510239D01*
X195786553Y-118514333D01*
X195799798Y-118525202D01*
X195810666Y-118538445D01*
X195818743Y-118553557D01*
X195823716Y-118569949D01*
X195826000Y-118593141D01*
X195826000Y-119006859D01*
X195823716Y-119030051D01*
X195818743Y-119046443D01*
X195810666Y-119061555D01*
X195799798Y-119074798D01*
X195786553Y-119085667D01*
X195778894Y-119089761D01*
X195758520Y-119103374D01*
X195741193Y-119120701D01*
X195727579Y-119141076D01*
X195718202Y-119163714D01*
X195713421Y-119187748D01*
X195713421Y-119212252D01*
X195718201Y-119236285D01*
X195727579Y-119258924D01*
X195741192Y-119279298D01*
X195758519Y-119296625D01*
X195778894Y-119310239D01*
X195786553Y-119314333D01*
X195799798Y-119325202D01*
X195810666Y-119338445D01*
X195818743Y-119353557D01*
X195823716Y-119369949D01*
X195826000Y-119393141D01*
X195826000Y-119806859D01*
X195823716Y-119830051D01*
X195818743Y-119846443D01*
X195810666Y-119861555D01*
X195799798Y-119874798D01*
X195786555Y-119885666D01*
X195771443Y-119893743D01*
X195755051Y-119898716D01*
X195731859Y-119901000D01*
X194718141Y-119901000D01*
X194694949Y-119898716D01*
X194678557Y-119893743D01*
X194663445Y-119885666D01*
X194650202Y-119874798D01*
X194639334Y-119861555D01*
X194631257Y-119846443D01*
X194626284Y-119830051D01*
X194624000Y-119806859D01*
X194624000Y-119393141D01*
X194626284Y-119369949D01*
X194631257Y-119353557D01*
X194639334Y-119338445D01*
X194650202Y-119325202D01*
X194663447Y-119314333D01*
X194671106Y-119310239D01*
X194691480Y-119296626D01*
X194708807Y-119279299D01*
X194722421Y-119258924D01*
X194731798Y-119236286D01*
X194736579Y-119212252D01*
X194736579Y-119187748D01*
X194731799Y-119163715D01*
X194722421Y-119141076D01*
X194708808Y-119120702D01*
X194691481Y-119103375D01*
X194671106Y-119089761D01*
X194663447Y-119085667D01*
X194650202Y-119074798D01*
X194639334Y-119061555D01*
X194631257Y-119046443D01*
X194626284Y-119030051D01*
X194624000Y-119006859D01*
X194624000Y-118593141D01*
X194626284Y-118569949D01*
X194631257Y-118553557D01*
X194639334Y-118538445D01*
X194650202Y-118525202D01*
X194663447Y-118514333D01*
X194671106Y-118510239D01*
X194691480Y-118496626D01*
X194708807Y-118479299D01*
X194722421Y-118458924D01*
X194731798Y-118436286D01*
X194736579Y-118412252D01*
X194736579Y-118387748D01*
X194731799Y-118363715D01*
X194722421Y-118341076D01*
X194708808Y-118320702D01*
X194691481Y-118303375D01*
X194671106Y-118289761D01*
X194663447Y-118285667D01*
X194650202Y-118274798D01*
X194639334Y-118261555D01*
X194631257Y-118246443D01*
X194626284Y-118230051D01*
X194624000Y-118206859D01*
X194624000Y-117793141D01*
X194626284Y-117769949D01*
X194631257Y-117753557D01*
X194639334Y-117738445D01*
X194650202Y-117725202D01*
X194663445Y-117714334D01*
X194678557Y-117706257D01*
X194694949Y-117701284D01*
X194718141Y-117699000D01*
X195731859Y-117699000D01*
X195755051Y-117701284D01*
X195755051Y-117701284D01*
G37*
G36*
X192030051Y-117701284D02*
G01*
X192046443Y-117706257D01*
X192061555Y-117714334D01*
X192074798Y-117725202D01*
X192085666Y-117738445D01*
X192093743Y-117753557D01*
X192098716Y-117769949D01*
X192101000Y-117793141D01*
X192101000Y-118206859D01*
X192098716Y-118230051D01*
X192093743Y-118246443D01*
X192085666Y-118261555D01*
X192074798Y-118274798D01*
X192061553Y-118285667D01*
X192053894Y-118289761D01*
X192033520Y-118303374D01*
X192016193Y-118320701D01*
X192002579Y-118341076D01*
X191993202Y-118363714D01*
X191988421Y-118387748D01*
X191988421Y-118412252D01*
X191993201Y-118436285D01*
X192002579Y-118458924D01*
X192016192Y-118479298D01*
X192033519Y-118496625D01*
X192053894Y-118510239D01*
X192061553Y-118514333D01*
X192074798Y-118525202D01*
X192085666Y-118538445D01*
X192093743Y-118553557D01*
X192098716Y-118569949D01*
X192101000Y-118593141D01*
X192101000Y-119006859D01*
X192098716Y-119030051D01*
X192093743Y-119046443D01*
X192085666Y-119061555D01*
X192074798Y-119074798D01*
X192061553Y-119085667D01*
X192053894Y-119089761D01*
X192033520Y-119103374D01*
X192016193Y-119120701D01*
X192002579Y-119141076D01*
X191993202Y-119163714D01*
X191988421Y-119187748D01*
X191988421Y-119212252D01*
X191993201Y-119236285D01*
X192002579Y-119258924D01*
X192016192Y-119279298D01*
X192033519Y-119296625D01*
X192053894Y-119310239D01*
X192061553Y-119314333D01*
X192074798Y-119325202D01*
X192085666Y-119338445D01*
X192093743Y-119353557D01*
X192098716Y-119369949D01*
X192101000Y-119393141D01*
X192101000Y-119806859D01*
X192098716Y-119830051D01*
X192093743Y-119846443D01*
X192085666Y-119861555D01*
X192074798Y-119874798D01*
X192061555Y-119885666D01*
X192046443Y-119893743D01*
X192030051Y-119898716D01*
X192006859Y-119901000D01*
X190993141Y-119901000D01*
X190969949Y-119898716D01*
X190953557Y-119893743D01*
X190938445Y-119885666D01*
X190925202Y-119874798D01*
X190914334Y-119861555D01*
X190906257Y-119846443D01*
X190901284Y-119830051D01*
X190899000Y-119806859D01*
X190899000Y-119393141D01*
X190901284Y-119369949D01*
X190906257Y-119353557D01*
X190914334Y-119338445D01*
X190925202Y-119325202D01*
X190938447Y-119314333D01*
X190946106Y-119310239D01*
X190966480Y-119296626D01*
X190983807Y-119279299D01*
X190997421Y-119258924D01*
X191006798Y-119236286D01*
X191011579Y-119212252D01*
X191011579Y-119187748D01*
X191006799Y-119163715D01*
X190997421Y-119141076D01*
X190983808Y-119120702D01*
X190966481Y-119103375D01*
X190946106Y-119089761D01*
X190938447Y-119085667D01*
X190925202Y-119074798D01*
X190914334Y-119061555D01*
X190906257Y-119046443D01*
X190901284Y-119030051D01*
X190899000Y-119006859D01*
X190899000Y-118593141D01*
X190901284Y-118569949D01*
X190906257Y-118553557D01*
X190914334Y-118538445D01*
X190925202Y-118525202D01*
X190938447Y-118514333D01*
X190946106Y-118510239D01*
X190966480Y-118496626D01*
X190983807Y-118479299D01*
X190997421Y-118458924D01*
X191006798Y-118436286D01*
X191011579Y-118412252D01*
X191011579Y-118387748D01*
X191006799Y-118363715D01*
X190997421Y-118341076D01*
X190983808Y-118320702D01*
X190966481Y-118303375D01*
X190946106Y-118289761D01*
X190938447Y-118285667D01*
X190925202Y-118274798D01*
X190914334Y-118261555D01*
X190906257Y-118246443D01*
X190901284Y-118230051D01*
X190899000Y-118206859D01*
X190899000Y-117793141D01*
X190901284Y-117769949D01*
X190906257Y-117753557D01*
X190914334Y-117738445D01*
X190925202Y-117725202D01*
X190938445Y-117714334D01*
X190953557Y-117706257D01*
X190969949Y-117701284D01*
X190993141Y-117699000D01*
X192006859Y-117699000D01*
X192030051Y-117701284D01*
X192030051Y-117701284D01*
G37*
G36*
X165032700Y-119730200D02*
G01*
X163749500Y-119730200D01*
X163749500Y-118477000D01*
X165032700Y-118477000D01*
X165032700Y-119730200D01*
X165032700Y-119730200D01*
G37*
G36*
X160926600Y-119601600D02*
G01*
X160023400Y-119601600D01*
X160023400Y-118498400D01*
X160926600Y-118498400D01*
X160926600Y-119601600D01*
X160926600Y-119601600D01*
G37*
G36*
X159626600Y-119601600D02*
G01*
X158723400Y-119601600D01*
X158723400Y-118498400D01*
X159626600Y-118498400D01*
X159626600Y-119601600D01*
X159626600Y-119601600D01*
G37*
G36*
X188564100Y-118046600D02*
G01*
X186259304Y-118046600D01*
X186235177Y-118048977D01*
X186235900Y-118044099D01*
X186235900Y-117103400D01*
X188564100Y-117103400D01*
X188564100Y-118046600D01*
X188564100Y-118046600D01*
G37*
G36*
X162726600Y-117926600D02*
G01*
X161023400Y-117926600D01*
X161023400Y-115723400D01*
X162726600Y-115723400D01*
X162726600Y-117926600D01*
X162726600Y-117926600D01*
G37*
G36*
X159726600Y-117926600D02*
G01*
X158023400Y-117926600D01*
X158023400Y-115723400D01*
X159726600Y-115723400D01*
X159726600Y-117926600D01*
X159726600Y-117926600D01*
G37*
G36*
X194566242Y-116053404D02*
G01*
X194603337Y-116064657D01*
X194637515Y-116082925D01*
X194667481Y-116107519D01*
X194692075Y-116137485D01*
X194710343Y-116171663D01*
X194721596Y-116208758D01*
X194726000Y-116253474D01*
X194726000Y-117146526D01*
X194721596Y-117191242D01*
X194710343Y-117228337D01*
X194692075Y-117262515D01*
X194667481Y-117292481D01*
X194637515Y-117317075D01*
X194603337Y-117335343D01*
X194566242Y-117346596D01*
X194521526Y-117351000D01*
X193128474Y-117351000D01*
X193083758Y-117346596D01*
X193046663Y-117335343D01*
X193012485Y-117317075D01*
X192982519Y-117292481D01*
X192957925Y-117262515D01*
X192939657Y-117228337D01*
X192928404Y-117191242D01*
X192924000Y-117146526D01*
X192924000Y-116253474D01*
X192928404Y-116208758D01*
X192939657Y-116171663D01*
X192957925Y-116137485D01*
X192982519Y-116107519D01*
X193012485Y-116082925D01*
X193046663Y-116064657D01*
X193083758Y-116053404D01*
X193128474Y-116049000D01*
X194521526Y-116049000D01*
X194566242Y-116053404D01*
X194566242Y-116053404D01*
G37*
G36*
X190841242Y-116053404D02*
G01*
X190878337Y-116064657D01*
X190912515Y-116082925D01*
X190942481Y-116107519D01*
X190967075Y-116137485D01*
X190985343Y-116171663D01*
X190996596Y-116208758D01*
X191001000Y-116253474D01*
X191001000Y-117146526D01*
X190996596Y-117191242D01*
X190985343Y-117228337D01*
X190967075Y-117262515D01*
X190942481Y-117292481D01*
X190912515Y-117317075D01*
X190878337Y-117335343D01*
X190841242Y-117346596D01*
X190796526Y-117351000D01*
X189403474Y-117351000D01*
X189358758Y-117346596D01*
X189321663Y-117335343D01*
X189287485Y-117317075D01*
X189257519Y-117292481D01*
X189232925Y-117262515D01*
X189214657Y-117228337D01*
X189203404Y-117191242D01*
X189199000Y-117146526D01*
X189199000Y-116253474D01*
X189203404Y-116208758D01*
X189214657Y-116171663D01*
X189232925Y-116137485D01*
X189257519Y-116107519D01*
X189287485Y-116082925D01*
X189321663Y-116064657D01*
X189358758Y-116053404D01*
X189403474Y-116049000D01*
X190796526Y-116049000D01*
X190841242Y-116053404D01*
X190841242Y-116053404D01*
G37*
G36*
X188692700Y-116590200D02*
G01*
X180769500Y-116590200D01*
X180769500Y-115387000D01*
X188692700Y-115387000D01*
X188692700Y-116590200D01*
X188692700Y-116590200D01*
G37*
G36*
X176002700Y-115552700D02*
G01*
X175059500Y-115552700D01*
X175059500Y-113224500D01*
X176002700Y-113224500D01*
X176002700Y-115552700D01*
X176002700Y-115552700D01*
G37*
G36*
X161047699Y-114177000D02*
G01*
X162282700Y-114177000D01*
X162282700Y-115460200D01*
X161029500Y-115460200D01*
X161029500Y-114175207D01*
X161047699Y-114177000D01*
X161047699Y-114177000D01*
G37*
G36*
X160922700Y-114001993D02*
G01*
X160904501Y-114000200D01*
X160657699Y-114000200D01*
X160633313Y-114002602D01*
X160609864Y-114009715D01*
X160588253Y-114021266D01*
X160569311Y-114036811D01*
X160553766Y-114055753D01*
X160542215Y-114077364D01*
X160535102Y-114100813D01*
X160532700Y-114125199D01*
X160532700Y-115460200D01*
X159279500Y-115460200D01*
X159279500Y-114143170D01*
X159282889Y-114140389D01*
X159298434Y-114121447D01*
X159309985Y-114099836D01*
X159317098Y-114076387D01*
X159319500Y-114052001D01*
X159319500Y-112397000D01*
X160922700Y-112397000D01*
X160922700Y-114001993D01*
X160922700Y-114001993D01*
G37*
G36*
X192671600Y-115264100D02*
G01*
X191728400Y-115264100D01*
X191728400Y-112935900D01*
X192671600Y-112935900D01*
X192671600Y-115264100D01*
X192671600Y-115264100D01*
G37*
G36*
X193971600Y-115264100D02*
G01*
X193028400Y-115264100D01*
X193028400Y-112935900D01*
X193971600Y-112935900D01*
X193971600Y-115264100D01*
X193971600Y-115264100D01*
G37*
G36*
X177672700Y-114562700D02*
G01*
X176729500Y-114562700D01*
X176729500Y-112234500D01*
X177672700Y-112234500D01*
X177672700Y-114562700D01*
X177672700Y-114562700D01*
G37*
G36*
X179582700Y-114200200D02*
G01*
X178379500Y-114200200D01*
X178379500Y-106277000D01*
X179582700Y-106277000D01*
X179582700Y-114200200D01*
X179582700Y-114200200D01*
G37*
G36*
X191082700Y-114200200D02*
G01*
X189879500Y-114200200D01*
X189879500Y-106277000D01*
X191082700Y-106277000D01*
X191082700Y-114200200D01*
X191082700Y-114200200D01*
G37*
G36*
X164722700Y-114000200D02*
G01*
X163119500Y-114000200D01*
X163119500Y-112397000D01*
X164722700Y-112397000D01*
X164722700Y-114000200D01*
X164722700Y-114000200D01*
G37*
G36*
X194262700Y-112030200D02*
G01*
X192459500Y-112030200D01*
X192459500Y-111227000D01*
X194262700Y-111227000D01*
X194262700Y-112030200D01*
X194262700Y-112030200D01*
G37*
G36*
X165542700Y-111940200D02*
G01*
X164289500Y-111940200D01*
X164289500Y-110657000D01*
X165542700Y-110657000D01*
X165542700Y-111940200D01*
X165542700Y-111940200D01*
G37*
G36*
X163792700Y-111940200D02*
G01*
X162539500Y-111940200D01*
X162539500Y-110657000D01*
X163792700Y-110657000D01*
X163792700Y-111940200D01*
X163792700Y-111940200D01*
G37*
G36*
X177632700Y-111900200D02*
G01*
X175219500Y-111900200D01*
X175219500Y-110997000D01*
X177632700Y-110997000D01*
X177632700Y-111900200D01*
X177632700Y-111900200D01*
G37*
G36*
X161886736Y-110179642D02*
G01*
X161906632Y-110185677D01*
X161924966Y-110195477D01*
X161941035Y-110208665D01*
X161954223Y-110224734D01*
X161964023Y-110243068D01*
X161970058Y-110262964D01*
X161972700Y-110289790D01*
X161972700Y-111667410D01*
X161970058Y-111694236D01*
X161964023Y-111714132D01*
X161954223Y-111732466D01*
X161941035Y-111748535D01*
X161924966Y-111761723D01*
X161906632Y-111771523D01*
X161886736Y-111777558D01*
X161859910Y-111780200D01*
X158882290Y-111780200D01*
X158855464Y-111777558D01*
X158835568Y-111771523D01*
X158817234Y-111761723D01*
X158801165Y-111748535D01*
X158787977Y-111732466D01*
X158778177Y-111714132D01*
X158772142Y-111694236D01*
X158769500Y-111667410D01*
X158769500Y-110289790D01*
X158772142Y-110262964D01*
X158778177Y-110243068D01*
X158787977Y-110224734D01*
X158801165Y-110208665D01*
X158817234Y-110195477D01*
X158835568Y-110185677D01*
X158855464Y-110179642D01*
X158882290Y-110177000D01*
X161859910Y-110177000D01*
X161886736Y-110179642D01*
X161886736Y-110179642D01*
G37*
G36*
X194262700Y-110830200D02*
G01*
X192459500Y-110830200D01*
X192459500Y-110027000D01*
X194262700Y-110027000D01*
X194262700Y-110830200D01*
X194262700Y-110830200D01*
G37*
G36*
X174702700Y-110650200D02*
G01*
X173799500Y-110650200D01*
X173799500Y-109547000D01*
X174702700Y-109547000D01*
X174702700Y-110650200D01*
X174702700Y-110650200D01*
G37*
G36*
X173402700Y-110650200D02*
G01*
X172499500Y-110650200D01*
X172499500Y-109547000D01*
X173402700Y-109547000D01*
X173402700Y-110650200D01*
X173402700Y-110650200D01*
G37*
G36*
X177632700Y-110600200D02*
G01*
X175219500Y-110600200D01*
X175219500Y-109697000D01*
X177632700Y-109697000D01*
X177632700Y-110600200D01*
X177632700Y-110600200D01*
G37*
G36*
X166758253Y-107230934D02*
G01*
X166779864Y-107242485D01*
X166803313Y-107249598D01*
X166827699Y-107252000D01*
X167777700Y-107252000D01*
X167777700Y-107372001D01*
X167780102Y-107396387D01*
X167787215Y-107419836D01*
X167798766Y-107441447D01*
X167814311Y-107460389D01*
X167833253Y-107475934D01*
X167854864Y-107487485D01*
X167878313Y-107494598D01*
X167902699Y-107497000D01*
X169282700Y-107497000D01*
X169282700Y-108750200D01*
X167902699Y-108750200D01*
X167878313Y-108752602D01*
X167854864Y-108759715D01*
X167833253Y-108771266D01*
X167814311Y-108786811D01*
X167798766Y-108805753D01*
X167787215Y-108827364D01*
X167780102Y-108850813D01*
X167777700Y-108875199D01*
X167777700Y-108905200D01*
X166827699Y-108905200D01*
X166803313Y-108907602D01*
X166779864Y-108914715D01*
X166758253Y-108926266D01*
X166739311Y-108941811D01*
X166723766Y-108960753D01*
X166712215Y-108982364D01*
X166705102Y-109005813D01*
X166702700Y-109030199D01*
X166702700Y-109127001D01*
X166705102Y-109151387D01*
X166712215Y-109174836D01*
X166723766Y-109196447D01*
X166739311Y-109215389D01*
X166758253Y-109230934D01*
X166779864Y-109242485D01*
X166803313Y-109249598D01*
X166827699Y-109252000D01*
X167777700Y-109252000D01*
X167777700Y-109905200D01*
X166827699Y-109905200D01*
X166803313Y-109907602D01*
X166779864Y-109914715D01*
X166758253Y-109926266D01*
X166753459Y-109930200D01*
X164848741Y-109930200D01*
X164843947Y-109926266D01*
X164822336Y-109914715D01*
X164798887Y-109907602D01*
X164774501Y-109905200D01*
X163824500Y-109905200D01*
X163824500Y-109815199D01*
X163822098Y-109790813D01*
X163814985Y-109767364D01*
X163803434Y-109745753D01*
X163787889Y-109726811D01*
X163768947Y-109711266D01*
X163747336Y-109699715D01*
X163723887Y-109692602D01*
X163699501Y-109690200D01*
X162629500Y-109690200D01*
X162629500Y-109030199D01*
X163732700Y-109030199D01*
X163732700Y-109127001D01*
X163735102Y-109151387D01*
X163742215Y-109174836D01*
X163753766Y-109196447D01*
X163769311Y-109215389D01*
X163788253Y-109230934D01*
X163809864Y-109242485D01*
X163833313Y-109249598D01*
X163857699Y-109252000D01*
X164774501Y-109252000D01*
X164798887Y-109249598D01*
X164822336Y-109242485D01*
X164843947Y-109230934D01*
X164862889Y-109215389D01*
X164878434Y-109196447D01*
X164889985Y-109174836D01*
X164897098Y-109151387D01*
X164899500Y-109127001D01*
X164899500Y-109030199D01*
X164897098Y-109005813D01*
X164889985Y-108982364D01*
X164878434Y-108960753D01*
X164862889Y-108941811D01*
X164843947Y-108926266D01*
X164822336Y-108914715D01*
X164798887Y-108907602D01*
X164774501Y-108905200D01*
X163857699Y-108905200D01*
X163833313Y-108907602D01*
X163809864Y-108914715D01*
X163788253Y-108926266D01*
X163769311Y-108941811D01*
X163753766Y-108960753D01*
X163742215Y-108982364D01*
X163735102Y-109005813D01*
X163732700Y-109030199D01*
X162629500Y-109030199D01*
X162629500Y-108787000D01*
X163699501Y-108787000D01*
X163723887Y-108784598D01*
X163747336Y-108777485D01*
X163768947Y-108765934D01*
X163787889Y-108750389D01*
X163803434Y-108731447D01*
X163814985Y-108709836D01*
X163822098Y-108686387D01*
X163824500Y-108662001D01*
X163824500Y-108515199D01*
X163822098Y-108490813D01*
X163814985Y-108467364D01*
X163803434Y-108445753D01*
X163787889Y-108426811D01*
X163768947Y-108411266D01*
X163747336Y-108399715D01*
X163723887Y-108392602D01*
X163699501Y-108390200D01*
X162629500Y-108390200D01*
X162629500Y-108030199D01*
X163732700Y-108030199D01*
X163732700Y-108127001D01*
X163735102Y-108151387D01*
X163742215Y-108174836D01*
X163753766Y-108196447D01*
X163769311Y-108215389D01*
X163788253Y-108230934D01*
X163809864Y-108242485D01*
X163833313Y-108249598D01*
X163857699Y-108252000D01*
X164774501Y-108252000D01*
X164798887Y-108249598D01*
X164822336Y-108242485D01*
X164843947Y-108230934D01*
X164862889Y-108215389D01*
X164878434Y-108196447D01*
X164889985Y-108174836D01*
X164897098Y-108151387D01*
X164899500Y-108127001D01*
X164899500Y-108030199D01*
X166702700Y-108030199D01*
X166702700Y-108127001D01*
X166705102Y-108151387D01*
X166712215Y-108174836D01*
X166723766Y-108196447D01*
X166739311Y-108215389D01*
X166758253Y-108230934D01*
X166779864Y-108242485D01*
X166803313Y-108249598D01*
X166827699Y-108252000D01*
X167874501Y-108252000D01*
X167898887Y-108249598D01*
X167922336Y-108242485D01*
X167943947Y-108230934D01*
X167962889Y-108215389D01*
X167978434Y-108196447D01*
X167989985Y-108174836D01*
X167997098Y-108151387D01*
X167999500Y-108127001D01*
X167999500Y-108030199D01*
X167997098Y-108005813D01*
X167989985Y-107982364D01*
X167978434Y-107960753D01*
X167962889Y-107941811D01*
X167943947Y-107926266D01*
X167922336Y-107914715D01*
X167898887Y-107907602D01*
X167874501Y-107905200D01*
X166827699Y-107905200D01*
X166803313Y-107907602D01*
X166779864Y-107914715D01*
X166758253Y-107926266D01*
X166739311Y-107941811D01*
X166723766Y-107960753D01*
X166712215Y-107982364D01*
X166705102Y-108005813D01*
X166702700Y-108030199D01*
X164899500Y-108030199D01*
X164897098Y-108005813D01*
X164889985Y-107982364D01*
X164878434Y-107960753D01*
X164862889Y-107941811D01*
X164843947Y-107926266D01*
X164822336Y-107914715D01*
X164798887Y-107907602D01*
X164774501Y-107905200D01*
X163857699Y-107905200D01*
X163833313Y-107907602D01*
X163809864Y-107914715D01*
X163788253Y-107926266D01*
X163769311Y-107941811D01*
X163753766Y-107960753D01*
X163742215Y-107982364D01*
X163735102Y-108005813D01*
X163732700Y-108030199D01*
X162629500Y-108030199D01*
X162629500Y-107487000D01*
X163699501Y-107487000D01*
X163723887Y-107484598D01*
X163747336Y-107477485D01*
X163768947Y-107465934D01*
X163787889Y-107450389D01*
X163803434Y-107431447D01*
X163814985Y-107409836D01*
X163822098Y-107386387D01*
X163824500Y-107362001D01*
X163824500Y-107252000D01*
X164774501Y-107252000D01*
X164798887Y-107249598D01*
X164822336Y-107242485D01*
X164843947Y-107230934D01*
X164848741Y-107227000D01*
X166753459Y-107227000D01*
X166758253Y-107230934D01*
X166758253Y-107230934D01*
G37*
G36*
X194262700Y-109630200D02*
G01*
X192459500Y-109630200D01*
X192459500Y-108827000D01*
X194262700Y-108827000D01*
X194262700Y-109630200D01*
X194262700Y-109630200D01*
G37*
G36*
X161886736Y-107979642D02*
G01*
X161906632Y-107985677D01*
X161924966Y-107995477D01*
X161941035Y-108008665D01*
X161954223Y-108024734D01*
X161964023Y-108043068D01*
X161970058Y-108062964D01*
X161972700Y-108089790D01*
X161972700Y-109467410D01*
X161970058Y-109494236D01*
X161964023Y-109514132D01*
X161954223Y-109532466D01*
X161941035Y-109548535D01*
X161924966Y-109561723D01*
X161906632Y-109571523D01*
X161886736Y-109577558D01*
X161859910Y-109580200D01*
X158882290Y-109580200D01*
X158855464Y-109577558D01*
X158835568Y-109571523D01*
X158817234Y-109561723D01*
X158801165Y-109548535D01*
X158787977Y-109532466D01*
X158778177Y-109514132D01*
X158772142Y-109494236D01*
X158769500Y-109467410D01*
X158769500Y-108089790D01*
X158772142Y-108062964D01*
X158778177Y-108043068D01*
X158787977Y-108024734D01*
X158801165Y-108008665D01*
X158817234Y-107995477D01*
X158835568Y-107985677D01*
X158855464Y-107979642D01*
X158882290Y-107977000D01*
X161859910Y-107977000D01*
X161886736Y-107979642D01*
X161886736Y-107979642D01*
G37*
G36*
X177594739Y-106769379D02*
G01*
X177612071Y-106774637D01*
X177628039Y-106783172D01*
X177642039Y-106794661D01*
X177653528Y-106808661D01*
X177662063Y-106824629D01*
X177667321Y-106841961D01*
X177669700Y-106866118D01*
X177669700Y-107871082D01*
X177667321Y-107895239D01*
X177662063Y-107912571D01*
X177653528Y-107928539D01*
X177642039Y-107942539D01*
X177628039Y-107954028D01*
X177612071Y-107962563D01*
X177594739Y-107967821D01*
X177570582Y-107970200D01*
X177417699Y-107970200D01*
X177393313Y-107972602D01*
X177369864Y-107979715D01*
X177348253Y-107991266D01*
X177329311Y-108006811D01*
X177313766Y-108025753D01*
X177302215Y-108047364D01*
X177295102Y-108070813D01*
X177292700Y-108095199D01*
X177292700Y-109290200D01*
X176389500Y-109290200D01*
X176389500Y-108187000D01*
X176444996Y-108187000D01*
X176469382Y-108184598D01*
X176492831Y-108177485D01*
X176514442Y-108165934D01*
X176533384Y-108150389D01*
X176548929Y-108131447D01*
X176560480Y-108109836D01*
X176567593Y-108086387D01*
X176569995Y-108062001D01*
X176567593Y-108037615D01*
X176560480Y-108014166D01*
X176548929Y-107992555D01*
X176533384Y-107973613D01*
X176517614Y-107961917D01*
X176517678Y-107961839D01*
X176494161Y-107942539D01*
X176482672Y-107928539D01*
X176474137Y-107912571D01*
X176468879Y-107895239D01*
X176466500Y-107871082D01*
X176466500Y-106866118D01*
X176468879Y-106841961D01*
X176474137Y-106824629D01*
X176482672Y-106808661D01*
X176494161Y-106794661D01*
X176508161Y-106783172D01*
X176524129Y-106774637D01*
X176541461Y-106769379D01*
X176565618Y-106767000D01*
X177570582Y-106767000D01*
X177594739Y-106769379D01*
X177594739Y-106769379D01*
G37*
G36*
X175840739Y-106769379D02*
G01*
X175858071Y-106774637D01*
X175874039Y-106783172D01*
X175888039Y-106794661D01*
X175899528Y-106808661D01*
X175908063Y-106824629D01*
X175913321Y-106841961D01*
X175915700Y-106866118D01*
X175915700Y-107871082D01*
X175913321Y-107895239D01*
X175908063Y-107912571D01*
X175899528Y-107928539D01*
X175888039Y-107942539D01*
X175870322Y-107957079D01*
X175857905Y-107965376D01*
X175840578Y-107982703D01*
X175826964Y-108003078D01*
X175817587Y-108025717D01*
X175812807Y-108049750D01*
X175812807Y-108074254D01*
X175817588Y-108098287D01*
X175826965Y-108120926D01*
X175840579Y-108141300D01*
X175857906Y-108158627D01*
X175878281Y-108172241D01*
X175900920Y-108181618D01*
X175937204Y-108187000D01*
X175992700Y-108187000D01*
X175992700Y-109290200D01*
X175089500Y-109290200D01*
X175089500Y-108095199D01*
X175087098Y-108070813D01*
X175079985Y-108047364D01*
X175068434Y-108025753D01*
X175052889Y-108006811D01*
X175033947Y-107991266D01*
X175012336Y-107979715D01*
X174988887Y-107972602D01*
X174964501Y-107970200D01*
X174811618Y-107970200D01*
X174787461Y-107967821D01*
X174770129Y-107962563D01*
X174754161Y-107954028D01*
X174740161Y-107942539D01*
X174728672Y-107928539D01*
X174720137Y-107912571D01*
X174714879Y-107895239D01*
X174712500Y-107871082D01*
X174712500Y-106866118D01*
X174714879Y-106841961D01*
X174720137Y-106824629D01*
X174728672Y-106808661D01*
X174740161Y-106794661D01*
X174754161Y-106783172D01*
X174770129Y-106774637D01*
X174787461Y-106769379D01*
X174811618Y-106767000D01*
X175816582Y-106767000D01*
X175840739Y-106769379D01*
X175840739Y-106769379D01*
G37*
G36*
X174051600Y-109101600D02*
G01*
X172948400Y-109101600D01*
X172948400Y-108198400D01*
X174051600Y-108198400D01*
X174051600Y-109101600D01*
X174051600Y-109101600D01*
G37*
G36*
X170891600Y-109051600D02*
G01*
X169608400Y-109051600D01*
X169608400Y-107798400D01*
X170891600Y-107798400D01*
X170891600Y-109051600D01*
X170891600Y-109051600D01*
G37*
G36*
X194712700Y-108305200D02*
G01*
X193509500Y-108305200D01*
X193509500Y-107002000D01*
X194712700Y-107002000D01*
X194712700Y-108305200D01*
X194712700Y-108305200D01*
G37*
G36*
X193251600Y-108245200D02*
G01*
X192148400Y-108245200D01*
X192148400Y-107342000D01*
X193251600Y-107342000D01*
X193251600Y-108245200D01*
X193251600Y-108245200D01*
G37*
G36*
X174051600Y-107801600D02*
G01*
X172948400Y-107801600D01*
X172948400Y-106898400D01*
X174051600Y-106898400D01*
X174051600Y-107801600D01*
X174051600Y-107801600D01*
G37*
G36*
X161432700Y-107330200D02*
G01*
X160179500Y-107330200D01*
X160179500Y-106047000D01*
X161432700Y-106047000D01*
X161432700Y-107330200D01*
X161432700Y-107330200D01*
G37*
G36*
X159682700Y-107330200D02*
G01*
X158429500Y-107330200D01*
X158429500Y-106047000D01*
X159682700Y-106047000D01*
X159682700Y-107330200D01*
X159682700Y-107330200D01*
G37*
G36*
X170609928Y-104176764D02*
G01*
X170631009Y-104183160D01*
X170650445Y-104193548D01*
X170667476Y-104207524D01*
X170681452Y-104224555D01*
X170691840Y-104243991D01*
X170698236Y-104265072D01*
X170701000Y-104293140D01*
X170701000Y-105706860D01*
X170698236Y-105734928D01*
X170691840Y-105756009D01*
X170681452Y-105775445D01*
X170667476Y-105792476D01*
X170650445Y-105806452D01*
X170637893Y-105813161D01*
X170617519Y-105826774D01*
X170600191Y-105844101D01*
X170586577Y-105864476D01*
X170577200Y-105887114D01*
X170572419Y-105911147D01*
X170572419Y-105935652D01*
X170577199Y-105959685D01*
X170586576Y-105982324D01*
X170600189Y-106002698D01*
X170617516Y-106020026D01*
X170637891Y-106033640D01*
X170660529Y-106043017D01*
X170684562Y-106047798D01*
X170696816Y-106048400D01*
X170891600Y-106048400D01*
X170891600Y-107301600D01*
X169608400Y-107301600D01*
X169608400Y-106048400D01*
X170003184Y-106048400D01*
X170027570Y-106045998D01*
X170051019Y-106038885D01*
X170072630Y-106027334D01*
X170091572Y-106011789D01*
X170107117Y-105992847D01*
X170118668Y-105971236D01*
X170125781Y-105947787D01*
X170128183Y-105923401D01*
X170125781Y-105899015D01*
X170118668Y-105875566D01*
X170107117Y-105853955D01*
X170091572Y-105835013D01*
X170072630Y-105819468D01*
X170062107Y-105813161D01*
X170049555Y-105806452D01*
X170032524Y-105792476D01*
X170018548Y-105775445D01*
X170008160Y-105756009D01*
X170001764Y-105734928D01*
X169999000Y-105706860D01*
X169999000Y-104293140D01*
X170001764Y-104265072D01*
X170008160Y-104243991D01*
X170018548Y-104224555D01*
X170032524Y-104207524D01*
X170049555Y-104193548D01*
X170068991Y-104183160D01*
X170090072Y-104176764D01*
X170118140Y-104174000D01*
X170581860Y-104174000D01*
X170609928Y-104176764D01*
X170609928Y-104176764D01*
G37*
G36*
X169282700Y-107000200D02*
G01*
X167999500Y-107000200D01*
X167999500Y-105747000D01*
X169282700Y-105747000D01*
X169282700Y-107000200D01*
X169282700Y-107000200D01*
G37*
G36*
X193251600Y-106945200D02*
G01*
X192148400Y-106945200D01*
X192148400Y-106042000D01*
X193251600Y-106042000D01*
X193251600Y-106945200D01*
X193251600Y-106945200D01*
G37*
G36*
X194712700Y-106605200D02*
G01*
X193509500Y-106605200D01*
X193509500Y-105302000D01*
X194712700Y-105302000D01*
X194712700Y-106605200D01*
X194712700Y-106605200D01*
G37*
G36*
X177609928Y-104176764D02*
G01*
X177631009Y-104183160D01*
X177650445Y-104193548D01*
X177667476Y-104207524D01*
X177681452Y-104224555D01*
X177691840Y-104243991D01*
X177698236Y-104265072D01*
X177701000Y-104293140D01*
X177701000Y-105706860D01*
X177698236Y-105734928D01*
X177691840Y-105756009D01*
X177681452Y-105775445D01*
X177667476Y-105792476D01*
X177650445Y-105806452D01*
X177631009Y-105816840D01*
X177609928Y-105823236D01*
X177581860Y-105826000D01*
X177118140Y-105826000D01*
X177090072Y-105823236D01*
X177068991Y-105816840D01*
X177049555Y-105806452D01*
X177032524Y-105792476D01*
X177018548Y-105775445D01*
X177008160Y-105756009D01*
X177001764Y-105734928D01*
X176999000Y-105706860D01*
X176999000Y-104293140D01*
X177001764Y-104265072D01*
X177008160Y-104243991D01*
X177018548Y-104224555D01*
X177032524Y-104207524D01*
X177049555Y-104193548D01*
X177068991Y-104183160D01*
X177090072Y-104176764D01*
X177118140Y-104174000D01*
X177581860Y-104174000D01*
X177609928Y-104176764D01*
X177609928Y-104176764D01*
G37*
G36*
X176609928Y-104176764D02*
G01*
X176631009Y-104183160D01*
X176650445Y-104193548D01*
X176667476Y-104207524D01*
X176681452Y-104224555D01*
X176691840Y-104243991D01*
X176698236Y-104265072D01*
X176701000Y-104293140D01*
X176701000Y-105706860D01*
X176698236Y-105734928D01*
X176691840Y-105756009D01*
X176681452Y-105775445D01*
X176667476Y-105792476D01*
X176650445Y-105806452D01*
X176631009Y-105816840D01*
X176609928Y-105823236D01*
X176581860Y-105826000D01*
X176118140Y-105826000D01*
X176090072Y-105823236D01*
X176068991Y-105816840D01*
X176049555Y-105806452D01*
X176032524Y-105792476D01*
X176018548Y-105775445D01*
X176008160Y-105756009D01*
X176001764Y-105734928D01*
X175999000Y-105706860D01*
X175999000Y-104293140D01*
X176001764Y-104265072D01*
X176008160Y-104243991D01*
X176018548Y-104224555D01*
X176032524Y-104207524D01*
X176049555Y-104193548D01*
X176068991Y-104183160D01*
X176090072Y-104176764D01*
X176118140Y-104174000D01*
X176581860Y-104174000D01*
X176609928Y-104176764D01*
X176609928Y-104176764D01*
G37*
G36*
X175609928Y-104176764D02*
G01*
X175631009Y-104183160D01*
X175650445Y-104193548D01*
X175667476Y-104207524D01*
X175681452Y-104224555D01*
X175691840Y-104243991D01*
X175698236Y-104265072D01*
X175701000Y-104293140D01*
X175701000Y-105706860D01*
X175698236Y-105734928D01*
X175691840Y-105756009D01*
X175681452Y-105775445D01*
X175667476Y-105792476D01*
X175650445Y-105806452D01*
X175631009Y-105816840D01*
X175609928Y-105823236D01*
X175581860Y-105826000D01*
X175118140Y-105826000D01*
X175090072Y-105823236D01*
X175068991Y-105816840D01*
X175049555Y-105806452D01*
X175032524Y-105792476D01*
X175018548Y-105775445D01*
X175008160Y-105756009D01*
X175001764Y-105734928D01*
X174999000Y-105706860D01*
X174999000Y-104293140D01*
X175001764Y-104265072D01*
X175008160Y-104243991D01*
X175018548Y-104224555D01*
X175032524Y-104207524D01*
X175049555Y-104193548D01*
X175068991Y-104183160D01*
X175090072Y-104176764D01*
X175118140Y-104174000D01*
X175581860Y-104174000D01*
X175609928Y-104176764D01*
X175609928Y-104176764D01*
G37*
G36*
X174609928Y-104176764D02*
G01*
X174631009Y-104183160D01*
X174650445Y-104193548D01*
X174667476Y-104207524D01*
X174681452Y-104224555D01*
X174691840Y-104243991D01*
X174698236Y-104265072D01*
X174701000Y-104293140D01*
X174701000Y-105706860D01*
X174698236Y-105734928D01*
X174691840Y-105756009D01*
X174681452Y-105775445D01*
X174667476Y-105792476D01*
X174650445Y-105806452D01*
X174631009Y-105816840D01*
X174609928Y-105823236D01*
X174581860Y-105826000D01*
X174118140Y-105826000D01*
X174090072Y-105823236D01*
X174068991Y-105816840D01*
X174049555Y-105806452D01*
X174032524Y-105792476D01*
X174018548Y-105775445D01*
X174008160Y-105756009D01*
X174001764Y-105734928D01*
X173999000Y-105706860D01*
X173999000Y-104293140D01*
X174001764Y-104265072D01*
X174008160Y-104243991D01*
X174018548Y-104224555D01*
X174032524Y-104207524D01*
X174049555Y-104193548D01*
X174068991Y-104183160D01*
X174090072Y-104176764D01*
X174118140Y-104174000D01*
X174581860Y-104174000D01*
X174609928Y-104176764D01*
X174609928Y-104176764D01*
G37*
G36*
X173609928Y-104176764D02*
G01*
X173631009Y-104183160D01*
X173650445Y-104193548D01*
X173667476Y-104207524D01*
X173681452Y-104224555D01*
X173691840Y-104243991D01*
X173698236Y-104265072D01*
X173701000Y-104293140D01*
X173701000Y-105706860D01*
X173698236Y-105734928D01*
X173691840Y-105756009D01*
X173681452Y-105775445D01*
X173667476Y-105792476D01*
X173650445Y-105806452D01*
X173631009Y-105816840D01*
X173609928Y-105823236D01*
X173581860Y-105826000D01*
X173118140Y-105826000D01*
X173090072Y-105823236D01*
X173068991Y-105816840D01*
X173049555Y-105806452D01*
X173032524Y-105792476D01*
X173018548Y-105775445D01*
X173008160Y-105756009D01*
X173001764Y-105734928D01*
X172999000Y-105706860D01*
X172999000Y-104293140D01*
X173001764Y-104265072D01*
X173008160Y-104243991D01*
X173018548Y-104224555D01*
X173032524Y-104207524D01*
X173049555Y-104193548D01*
X173068991Y-104183160D01*
X173090072Y-104176764D01*
X173118140Y-104174000D01*
X173581860Y-104174000D01*
X173609928Y-104176764D01*
X173609928Y-104176764D01*
G37*
G36*
X172609928Y-104176764D02*
G01*
X172631009Y-104183160D01*
X172650445Y-104193548D01*
X172667476Y-104207524D01*
X172681452Y-104224555D01*
X172691840Y-104243991D01*
X172698236Y-104265072D01*
X172701000Y-104293140D01*
X172701000Y-105706860D01*
X172698236Y-105734928D01*
X172691840Y-105756009D01*
X172681452Y-105775445D01*
X172667476Y-105792476D01*
X172650445Y-105806452D01*
X172631009Y-105816840D01*
X172609928Y-105823236D01*
X172581860Y-105826000D01*
X172118140Y-105826000D01*
X172090072Y-105823236D01*
X172068991Y-105816840D01*
X172049555Y-105806452D01*
X172032524Y-105792476D01*
X172018548Y-105775445D01*
X172008160Y-105756009D01*
X172001764Y-105734928D01*
X171999000Y-105706860D01*
X171999000Y-104293140D01*
X172001764Y-104265072D01*
X172008160Y-104243991D01*
X172018548Y-104224555D01*
X172032524Y-104207524D01*
X172049555Y-104193548D01*
X172068991Y-104183160D01*
X172090072Y-104176764D01*
X172118140Y-104174000D01*
X172581860Y-104174000D01*
X172609928Y-104176764D01*
X172609928Y-104176764D01*
G37*
G36*
X171609928Y-104176764D02*
G01*
X171631009Y-104183160D01*
X171650445Y-104193548D01*
X171667476Y-104207524D01*
X171681452Y-104224555D01*
X171691840Y-104243991D01*
X171698236Y-104265072D01*
X171701000Y-104293140D01*
X171701000Y-105706860D01*
X171698236Y-105734928D01*
X171691840Y-105756009D01*
X171681452Y-105775445D01*
X171667476Y-105792476D01*
X171650445Y-105806452D01*
X171631009Y-105816840D01*
X171609928Y-105823236D01*
X171581860Y-105826000D01*
X171118140Y-105826000D01*
X171090072Y-105823236D01*
X171067483Y-105816383D01*
X171062107Y-105813161D01*
X171049555Y-105806452D01*
X171032524Y-105792476D01*
X171018548Y-105775445D01*
X171008160Y-105756009D01*
X171001764Y-105734928D01*
X170999000Y-105706860D01*
X170999000Y-104293140D01*
X171001764Y-104265072D01*
X171008160Y-104243991D01*
X171018548Y-104224555D01*
X171032524Y-104207524D01*
X171049555Y-104193548D01*
X171068991Y-104183160D01*
X171090072Y-104176764D01*
X171118140Y-104174000D01*
X171581860Y-104174000D01*
X171609928Y-104176764D01*
X171609928Y-104176764D01*
G37*
G36*
X160639100Y-105721600D02*
G01*
X158310900Y-105721600D01*
X158310900Y-104778400D01*
X160639100Y-104778400D01*
X160639100Y-105721600D01*
X160639100Y-105721600D01*
G37*
G36*
X188692700Y-105090200D02*
G01*
X180769500Y-105090200D01*
X180769500Y-103887000D01*
X188692700Y-103887000D01*
X188692700Y-105090200D01*
X188692700Y-105090200D01*
G37*
G36*
X182945200Y-103200200D02*
G01*
X180617000Y-103200200D01*
X180617000Y-102257000D01*
X182945200Y-102257000D01*
X182945200Y-103200200D01*
X182945200Y-103200200D01*
G37*
G36*
X187280739Y-100799379D02*
G01*
X187298071Y-100804637D01*
X187314039Y-100813172D01*
X187328039Y-100824661D01*
X187339528Y-100838661D01*
X187348063Y-100854629D01*
X187353321Y-100871961D01*
X187355700Y-100896118D01*
X187355700Y-101901082D01*
X187353321Y-101925239D01*
X187348063Y-101942571D01*
X187339528Y-101958539D01*
X187328039Y-101972539D01*
X187314039Y-101984028D01*
X187297529Y-101992853D01*
X187276020Y-102001763D01*
X187255646Y-102015377D01*
X187238319Y-102032704D01*
X187224706Y-102053079D01*
X187215329Y-102075718D01*
X187210549Y-102099751D01*
X187210549Y-102124256D01*
X187215330Y-102148289D01*
X187224708Y-102170927D01*
X187238322Y-102191301D01*
X187255649Y-102208628D01*
X187276024Y-102222241D01*
X187298663Y-102231618D01*
X187334946Y-102237000D01*
X187927254Y-102237000D01*
X187951640Y-102234598D01*
X187975089Y-102227485D01*
X187996700Y-102215934D01*
X188015642Y-102200389D01*
X188031187Y-102181447D01*
X188042738Y-102159836D01*
X188049851Y-102136387D01*
X188052253Y-102112001D01*
X188049851Y-102087615D01*
X188042738Y-102064166D01*
X188031187Y-102042555D01*
X188015642Y-102023613D01*
X187996700Y-102008068D01*
X187965749Y-101993429D01*
X187948161Y-101984028D01*
X187934161Y-101972539D01*
X187922672Y-101958539D01*
X187914137Y-101942571D01*
X187908879Y-101925239D01*
X187906500Y-101901082D01*
X187906500Y-100896118D01*
X187908879Y-100871961D01*
X187914137Y-100854629D01*
X187922672Y-100838661D01*
X187934161Y-100824661D01*
X187948161Y-100813172D01*
X187964129Y-100804637D01*
X187981461Y-100799379D01*
X188005618Y-100797000D01*
X189010582Y-100797000D01*
X189034739Y-100799379D01*
X189052071Y-100804637D01*
X189068039Y-100813172D01*
X189082039Y-100824661D01*
X189093528Y-100838661D01*
X189102063Y-100854629D01*
X189107321Y-100871961D01*
X189109700Y-100896118D01*
X189109700Y-101901082D01*
X189107321Y-101925239D01*
X189102063Y-101942571D01*
X189093528Y-101958539D01*
X189082039Y-101972539D01*
X189068039Y-101984028D01*
X189052071Y-101992563D01*
X189034739Y-101997821D01*
X189010582Y-102000200D01*
X188820199Y-102000200D01*
X188795813Y-102002602D01*
X188772364Y-102009715D01*
X188750753Y-102021266D01*
X188731811Y-102036811D01*
X188716266Y-102055753D01*
X188704715Y-102077364D01*
X188697602Y-102100813D01*
X188695200Y-102125199D01*
X188695200Y-103180200D01*
X186367000Y-103180200D01*
X186367000Y-102124856D01*
X186364598Y-102100470D01*
X186357485Y-102077021D01*
X186345934Y-102055410D01*
X186330389Y-102036468D01*
X186311447Y-102020923D01*
X186289836Y-102009372D01*
X186266387Y-102002259D01*
X186254251Y-102000459D01*
X186227461Y-101997821D01*
X186210129Y-101992563D01*
X186194161Y-101984028D01*
X186180161Y-101972539D01*
X186168672Y-101958539D01*
X186160137Y-101942571D01*
X186154879Y-101925239D01*
X186152500Y-101901082D01*
X186152500Y-100896118D01*
X186154879Y-100871961D01*
X186160137Y-100854629D01*
X186168672Y-100838661D01*
X186180161Y-100824661D01*
X186194161Y-100813172D01*
X186210129Y-100804637D01*
X186227461Y-100799379D01*
X186251618Y-100797000D01*
X187256582Y-100797000D01*
X187280739Y-100799379D01*
X187280739Y-100799379D01*
G37*
G36*
X169541242Y-100178404D02*
G01*
X169578337Y-100189657D01*
X169612515Y-100207925D01*
X169642481Y-100232519D01*
X169667075Y-100262485D01*
X169685343Y-100296663D01*
X169696596Y-100333758D01*
X169701000Y-100378474D01*
X169701000Y-101871526D01*
X169696596Y-101916242D01*
X169685343Y-101953337D01*
X169667075Y-101987515D01*
X169642481Y-102017481D01*
X169612515Y-102042075D01*
X169578337Y-102060343D01*
X169541242Y-102071596D01*
X169496526Y-102076000D01*
X168603474Y-102076000D01*
X168558758Y-102071596D01*
X168521663Y-102060343D01*
X168487485Y-102042075D01*
X168457519Y-102017481D01*
X168432925Y-101987515D01*
X168414657Y-101953337D01*
X168403404Y-101916242D01*
X168399000Y-101871526D01*
X168399000Y-100378474D01*
X168403404Y-100333758D01*
X168414657Y-100296663D01*
X168432925Y-100262485D01*
X168457519Y-100232519D01*
X168487485Y-100207925D01*
X168521663Y-100189657D01*
X168558758Y-100178404D01*
X168603474Y-100174000D01*
X169496526Y-100174000D01*
X169541242Y-100178404D01*
X169541242Y-100178404D01*
G37*
G36*
X179141242Y-100178404D02*
G01*
X179178337Y-100189657D01*
X179212515Y-100207925D01*
X179242481Y-100232519D01*
X179267075Y-100262485D01*
X179285343Y-100296663D01*
X179296596Y-100333758D01*
X179301000Y-100378474D01*
X179301000Y-101871526D01*
X179296596Y-101916242D01*
X179285343Y-101953337D01*
X179267075Y-101987515D01*
X179242481Y-102017481D01*
X179212515Y-102042075D01*
X179178337Y-102060343D01*
X179141242Y-102071596D01*
X179096526Y-102076000D01*
X178203474Y-102076000D01*
X178158758Y-102071596D01*
X178121663Y-102060343D01*
X178087485Y-102042075D01*
X178057519Y-102017481D01*
X178032925Y-101987515D01*
X178014657Y-101953337D01*
X178003404Y-101916242D01*
X177999000Y-101871526D01*
X177999000Y-100378474D01*
X178003404Y-100333758D01*
X178014657Y-100296663D01*
X178032925Y-100262485D01*
X178057519Y-100232519D01*
X178087485Y-100207925D01*
X178121663Y-100189657D01*
X178158758Y-100178404D01*
X178203474Y-100174000D01*
X179096526Y-100174000D01*
X179141242Y-100178404D01*
X179141242Y-100178404D01*
G37*
G36*
X184512700Y-101980200D02*
G01*
X183609500Y-101980200D01*
X183609500Y-100877000D01*
X184512700Y-100877000D01*
X184512700Y-101980200D01*
X184512700Y-101980200D01*
G37*
G36*
X185812700Y-101980200D02*
G01*
X184909500Y-101980200D01*
X184909500Y-100877000D01*
X185812700Y-100877000D01*
X185812700Y-101980200D01*
X185812700Y-101980200D01*
G37*
M02*
