G04 #@! TF.GenerationSoftware,KiCad,Pcbnew,(5.1.2-1)-1*
G04 #@! TF.CreationDate,2019-08-23T13:21:54-04:00*
G04 #@! TF.ProjectId,PCB_V1.2,5043425f-5631-42e3-922e-6b696361645f,rev?*
G04 #@! TF.SameCoordinates,Original*
G04 #@! TF.FileFunction,Paste,Top*
G04 #@! TF.FilePolarity,Positive*
%FSLAX46Y46*%
G04 Gerber Fmt 4.6, Leading zero omitted, Abs format (unit mm)*
G04 Created by KiCad (PCBNEW (5.1.2-1)-1) date 2019-08-23 13:21:54*
%MOMM*%
%LPD*%
G04 APERTURE LIST*
%ADD10C,0.100000*%
%ADD11C,0.371482*%
%ADD12C,0.342366*%
%ADD13C,0.250000*%
%ADD14C,0.806226*%
%ADD15R,1.080000X1.050000*%
%ADD16R,0.530000X1.330000*%
%ADD17R,0.530000X1.130000*%
%ADD18C,1.200000*%
%ADD19C,0.500000*%
%ADD20C,1.400000*%
%ADD21R,1.050000X1.080000*%
%ADD22R,0.700000X0.900000*%
%ADD23R,0.740000X0.925000*%
%ADD24R,0.925000X0.740000*%
%ADD25R,0.900000X0.700000*%
%ADD26R,0.220000X1.000000*%
%ADD27R,1.000000X0.220000*%
%ADD28R,1.000000X1.100000*%
%ADD29C,1.000000*%
%ADD30R,1.600000X0.600000*%
%ADD31R,2.700000X1.600000*%
%ADD32R,2.000000X1.500000*%
%ADD33R,1.500000X2.000000*%
%ADD34R,0.700000X0.650000*%
%ADD35R,1.800000X0.700000*%
%ADD36O,0.850000X0.250000*%
%ADD37C,0.600000*%
%ADD38R,1.400000X1.400000*%
G04 APERTURE END LIST*
D10*
G36*
X190729934Y-128361675D02*
G01*
X187767475Y-128361675D01*
X187767475Y-130735865D01*
X190729934Y-130735865D01*
X190729934Y-128361675D01*
G37*
G36*
X182121166Y-131106925D02*
G01*
X185083625Y-131106925D01*
X185083625Y-128732735D01*
X182121166Y-128732735D01*
X182121166Y-131106925D01*
G37*
G36*
X176571166Y-130606925D02*
G01*
X179533625Y-130606925D01*
X179533625Y-128232735D01*
X176571166Y-128232735D01*
X176571166Y-130606925D01*
G37*
G36*
X173981034Y-129980275D02*
G01*
X171018575Y-129980275D01*
X171018575Y-132354465D01*
X173981034Y-132354465D01*
X173981034Y-129980275D01*
G37*
G36*
X168281034Y-129980275D02*
G01*
X165318575Y-129980275D01*
X165318575Y-132354465D01*
X168281034Y-132354465D01*
X168281034Y-129980275D01*
G37*
G36*
X159921166Y-130206925D02*
G01*
X162883625Y-130206925D01*
X162883625Y-127832735D01*
X159921166Y-127832735D01*
X159921166Y-130206925D01*
G37*
G36*
X167651100Y-107378600D02*
G01*
X166851100Y-107378600D01*
X166851100Y-107778600D01*
X167651100Y-107778600D01*
X167651100Y-107378600D01*
G37*
G36*
X167651100Y-108378600D02*
G01*
X166851100Y-108378600D01*
X166851100Y-108778600D01*
X167651100Y-108778600D01*
X167651100Y-108378600D01*
G37*
G36*
X167651100Y-109378600D02*
G01*
X166851100Y-109378600D01*
X166851100Y-109778600D01*
X167651100Y-109778600D01*
X167651100Y-109378600D01*
G37*
G36*
X164751100Y-107378600D02*
G01*
X163951100Y-107378600D01*
X163951100Y-107778600D01*
X164751100Y-107778600D01*
X164751100Y-107378600D01*
G37*
G36*
X164751100Y-108378600D02*
G01*
X163951100Y-108378600D01*
X163951100Y-108778600D01*
X164751100Y-108778600D01*
X164751100Y-108378600D01*
G37*
G36*
X164751100Y-109378600D02*
G01*
X163951100Y-109378600D01*
X163951100Y-109778600D01*
X164751100Y-109778600D01*
X164751100Y-109378600D01*
G37*
G36*
X166401100Y-107528600D02*
G01*
X165201100Y-107528600D01*
X165201100Y-109628600D01*
X166401100Y-109628600D01*
X166401100Y-107528600D01*
G37*
D11*
X166662933Y-116335447D03*
D10*
G36*
X166436674Y-115994123D02*
G01*
X166452596Y-115985612D01*
X166469872Y-115980371D01*
X166487840Y-115978602D01*
X166595739Y-115978602D01*
X166613706Y-115980371D01*
X166630983Y-115985612D01*
X166646905Y-115994123D01*
X166660861Y-116005576D01*
X166992804Y-116337519D01*
X167004257Y-116351475D01*
X167012768Y-116367397D01*
X167018009Y-116384674D01*
X167019778Y-116402641D01*
X167019778Y-116510540D01*
X167018009Y-116528508D01*
X167012768Y-116545784D01*
X167004257Y-116561706D01*
X166992804Y-116575662D01*
X166849199Y-116719267D01*
X166835243Y-116730720D01*
X166819321Y-116739232D01*
X166802044Y-116744472D01*
X166784077Y-116746241D01*
X166766109Y-116744472D01*
X166748832Y-116739232D01*
X166732910Y-116730720D01*
X166718954Y-116719267D01*
X166279113Y-116279426D01*
X166267660Y-116265470D01*
X166259148Y-116249548D01*
X166253908Y-116232271D01*
X166252139Y-116214303D01*
X166253908Y-116196336D01*
X166259148Y-116179059D01*
X166267660Y-116163137D01*
X166279113Y-116149181D01*
X166422718Y-116005576D01*
X166436674Y-115994123D01*
X166436674Y-115994123D01*
G37*
D11*
X167370040Y-117042553D03*
D10*
G36*
X167143781Y-116701229D02*
G01*
X167159703Y-116692718D01*
X167176979Y-116687477D01*
X167194947Y-116685708D01*
X167302846Y-116685708D01*
X167320813Y-116687477D01*
X167338090Y-116692718D01*
X167354012Y-116701229D01*
X167367968Y-116712682D01*
X167699911Y-117044625D01*
X167711364Y-117058581D01*
X167719875Y-117074503D01*
X167725116Y-117091780D01*
X167726885Y-117109747D01*
X167726885Y-117217646D01*
X167725116Y-117235614D01*
X167719875Y-117252890D01*
X167711364Y-117268812D01*
X167699911Y-117282768D01*
X167556306Y-117426373D01*
X167542350Y-117437826D01*
X167526428Y-117446338D01*
X167509151Y-117451578D01*
X167491184Y-117453347D01*
X167473216Y-117451578D01*
X167455939Y-117446338D01*
X167440017Y-117437826D01*
X167426061Y-117426373D01*
X166986220Y-116986532D01*
X166974767Y-116972576D01*
X166966255Y-116956654D01*
X166961015Y-116939377D01*
X166959246Y-116921409D01*
X166961015Y-116903442D01*
X166966255Y-116886165D01*
X166974767Y-116870243D01*
X166986220Y-116856287D01*
X167129825Y-116712682D01*
X167143781Y-116701229D01*
X167143781Y-116701229D01*
G37*
D11*
X168077147Y-117749660D03*
D10*
G36*
X167850888Y-117408336D02*
G01*
X167866810Y-117399825D01*
X167884086Y-117394584D01*
X167902054Y-117392815D01*
X168009953Y-117392815D01*
X168027920Y-117394584D01*
X168045197Y-117399825D01*
X168061119Y-117408336D01*
X168075075Y-117419789D01*
X168407018Y-117751732D01*
X168418471Y-117765688D01*
X168426982Y-117781610D01*
X168432223Y-117798887D01*
X168433992Y-117816854D01*
X168433992Y-117924753D01*
X168432223Y-117942721D01*
X168426982Y-117959997D01*
X168418471Y-117975919D01*
X168407018Y-117989875D01*
X168263413Y-118133480D01*
X168249457Y-118144933D01*
X168233535Y-118153445D01*
X168216258Y-118158685D01*
X168198291Y-118160454D01*
X168180323Y-118158685D01*
X168163046Y-118153445D01*
X168147124Y-118144933D01*
X168133168Y-118133480D01*
X167693327Y-117693639D01*
X167681874Y-117679683D01*
X167673362Y-117663761D01*
X167668122Y-117646484D01*
X167666353Y-117628516D01*
X167668122Y-117610549D01*
X167673362Y-117593272D01*
X167681874Y-117577350D01*
X167693327Y-117563394D01*
X167836932Y-117419789D01*
X167850888Y-117408336D01*
X167850888Y-117408336D01*
G37*
D11*
X168784253Y-118456767D03*
D10*
G36*
X168557994Y-118115443D02*
G01*
X168573916Y-118106932D01*
X168591192Y-118101691D01*
X168609160Y-118099922D01*
X168717059Y-118099922D01*
X168735026Y-118101691D01*
X168752303Y-118106932D01*
X168768225Y-118115443D01*
X168782181Y-118126896D01*
X169114124Y-118458839D01*
X169125577Y-118472795D01*
X169134088Y-118488717D01*
X169139329Y-118505994D01*
X169141098Y-118523961D01*
X169141098Y-118631860D01*
X169139329Y-118649828D01*
X169134088Y-118667104D01*
X169125577Y-118683026D01*
X169114124Y-118696982D01*
X168970519Y-118840587D01*
X168956563Y-118852040D01*
X168940641Y-118860552D01*
X168923364Y-118865792D01*
X168905397Y-118867561D01*
X168887429Y-118865792D01*
X168870152Y-118860552D01*
X168854230Y-118852040D01*
X168840274Y-118840587D01*
X168400433Y-118400746D01*
X168388980Y-118386790D01*
X168380468Y-118370868D01*
X168375228Y-118353591D01*
X168373459Y-118335623D01*
X168375228Y-118317656D01*
X168380468Y-118300379D01*
X168388980Y-118284457D01*
X168400433Y-118270501D01*
X168544038Y-118126896D01*
X168557994Y-118115443D01*
X168557994Y-118115443D01*
G37*
D11*
X169897947Y-113100433D03*
D10*
G36*
X169725637Y-112705160D02*
G01*
X169741559Y-112696648D01*
X169758836Y-112691408D01*
X169776803Y-112689639D01*
X169794771Y-112691408D01*
X169812048Y-112696648D01*
X169827970Y-112705160D01*
X169841926Y-112716613D01*
X170281767Y-113156454D01*
X170293220Y-113170410D01*
X170301732Y-113186332D01*
X170306972Y-113203609D01*
X170308741Y-113221577D01*
X170306972Y-113239544D01*
X170301732Y-113256821D01*
X170293220Y-113272743D01*
X170281767Y-113286699D01*
X170138162Y-113430304D01*
X170124206Y-113441757D01*
X170108284Y-113450268D01*
X170091008Y-113455509D01*
X170073040Y-113457278D01*
X169965141Y-113457278D01*
X169947174Y-113455509D01*
X169929897Y-113450268D01*
X169913975Y-113441757D01*
X169900019Y-113430304D01*
X169568076Y-113098361D01*
X169556623Y-113084405D01*
X169548112Y-113068483D01*
X169542871Y-113051206D01*
X169541102Y-113033239D01*
X169541102Y-112925340D01*
X169542871Y-112907372D01*
X169548112Y-112890096D01*
X169556623Y-112874174D01*
X169568076Y-112860218D01*
X169711681Y-112716613D01*
X169725637Y-112705160D01*
X169725637Y-112705160D01*
G37*
D11*
X170605053Y-113807540D03*
D10*
G36*
X170432743Y-113412267D02*
G01*
X170448665Y-113403755D01*
X170465942Y-113398515D01*
X170483909Y-113396746D01*
X170501877Y-113398515D01*
X170519154Y-113403755D01*
X170535076Y-113412267D01*
X170549032Y-113423720D01*
X170988873Y-113863561D01*
X171000326Y-113877517D01*
X171008838Y-113893439D01*
X171014078Y-113910716D01*
X171015847Y-113928684D01*
X171014078Y-113946651D01*
X171008838Y-113963928D01*
X171000326Y-113979850D01*
X170988873Y-113993806D01*
X170845268Y-114137411D01*
X170831312Y-114148864D01*
X170815390Y-114157375D01*
X170798114Y-114162616D01*
X170780146Y-114164385D01*
X170672247Y-114164385D01*
X170654280Y-114162616D01*
X170637003Y-114157375D01*
X170621081Y-114148864D01*
X170607125Y-114137411D01*
X170275182Y-113805468D01*
X170263729Y-113791512D01*
X170255218Y-113775590D01*
X170249977Y-113758313D01*
X170248208Y-113740346D01*
X170248208Y-113632447D01*
X170249977Y-113614479D01*
X170255218Y-113597203D01*
X170263729Y-113581281D01*
X170275182Y-113567325D01*
X170418787Y-113423720D01*
X170432743Y-113412267D01*
X170432743Y-113412267D01*
G37*
D11*
X171312160Y-114514647D03*
D10*
G36*
X171139850Y-114119374D02*
G01*
X171155772Y-114110862D01*
X171173049Y-114105622D01*
X171191016Y-114103853D01*
X171208984Y-114105622D01*
X171226261Y-114110862D01*
X171242183Y-114119374D01*
X171256139Y-114130827D01*
X171695980Y-114570668D01*
X171707433Y-114584624D01*
X171715945Y-114600546D01*
X171721185Y-114617823D01*
X171722954Y-114635791D01*
X171721185Y-114653758D01*
X171715945Y-114671035D01*
X171707433Y-114686957D01*
X171695980Y-114700913D01*
X171552375Y-114844518D01*
X171538419Y-114855971D01*
X171522497Y-114864482D01*
X171505221Y-114869723D01*
X171487253Y-114871492D01*
X171379354Y-114871492D01*
X171361387Y-114869723D01*
X171344110Y-114864482D01*
X171328188Y-114855971D01*
X171314232Y-114844518D01*
X170982289Y-114512575D01*
X170970836Y-114498619D01*
X170962325Y-114482697D01*
X170957084Y-114465420D01*
X170955315Y-114447453D01*
X170955315Y-114339554D01*
X170957084Y-114321586D01*
X170962325Y-114304310D01*
X170970836Y-114288388D01*
X170982289Y-114274432D01*
X171125894Y-114130827D01*
X171139850Y-114119374D01*
X171139850Y-114119374D01*
G37*
D11*
X172019267Y-115221753D03*
D10*
G36*
X171846957Y-114826480D02*
G01*
X171862879Y-114817968D01*
X171880156Y-114812728D01*
X171898123Y-114810959D01*
X171916091Y-114812728D01*
X171933368Y-114817968D01*
X171949290Y-114826480D01*
X171963246Y-114837933D01*
X172403087Y-115277774D01*
X172414540Y-115291730D01*
X172423052Y-115307652D01*
X172428292Y-115324929D01*
X172430061Y-115342897D01*
X172428292Y-115360864D01*
X172423052Y-115378141D01*
X172414540Y-115394063D01*
X172403087Y-115408019D01*
X172259482Y-115551624D01*
X172245526Y-115563077D01*
X172229604Y-115571588D01*
X172212328Y-115576829D01*
X172194360Y-115578598D01*
X172086461Y-115578598D01*
X172068494Y-115576829D01*
X172051217Y-115571588D01*
X172035295Y-115563077D01*
X172021339Y-115551624D01*
X171689396Y-115219681D01*
X171677943Y-115205725D01*
X171669432Y-115189803D01*
X171664191Y-115172526D01*
X171662422Y-115154559D01*
X171662422Y-115046660D01*
X171664191Y-115028692D01*
X171669432Y-115011416D01*
X171677943Y-114995494D01*
X171689396Y-114981538D01*
X171833001Y-114837933D01*
X171846957Y-114826480D01*
X171846957Y-114826480D01*
G37*
D11*
X166662933Y-115221753D03*
D10*
G36*
X166732910Y-114826480D02*
G01*
X166748832Y-114817968D01*
X166766109Y-114812728D01*
X166784077Y-114810959D01*
X166802044Y-114812728D01*
X166819321Y-114817968D01*
X166835243Y-114826480D01*
X166849199Y-114837933D01*
X166992804Y-114981538D01*
X167004257Y-114995494D01*
X167012768Y-115011416D01*
X167018009Y-115028692D01*
X167019778Y-115046660D01*
X167019778Y-115154559D01*
X167018009Y-115172526D01*
X167012768Y-115189803D01*
X167004257Y-115205725D01*
X166992804Y-115219681D01*
X166660861Y-115551624D01*
X166646905Y-115563077D01*
X166630983Y-115571588D01*
X166613706Y-115576829D01*
X166595739Y-115578598D01*
X166487840Y-115578598D01*
X166469872Y-115576829D01*
X166452596Y-115571588D01*
X166436674Y-115563077D01*
X166422718Y-115551624D01*
X166279113Y-115408019D01*
X166267660Y-115394063D01*
X166259148Y-115378141D01*
X166253908Y-115360864D01*
X166252139Y-115342897D01*
X166253908Y-115324929D01*
X166259148Y-115307652D01*
X166267660Y-115291730D01*
X166279113Y-115277774D01*
X166718954Y-114837933D01*
X166732910Y-114826480D01*
X166732910Y-114826480D01*
G37*
D11*
X167370040Y-114514647D03*
D10*
G36*
X167440017Y-114119374D02*
G01*
X167455939Y-114110862D01*
X167473216Y-114105622D01*
X167491184Y-114103853D01*
X167509151Y-114105622D01*
X167526428Y-114110862D01*
X167542350Y-114119374D01*
X167556306Y-114130827D01*
X167699911Y-114274432D01*
X167711364Y-114288388D01*
X167719875Y-114304310D01*
X167725116Y-114321586D01*
X167726885Y-114339554D01*
X167726885Y-114447453D01*
X167725116Y-114465420D01*
X167719875Y-114482697D01*
X167711364Y-114498619D01*
X167699911Y-114512575D01*
X167367968Y-114844518D01*
X167354012Y-114855971D01*
X167338090Y-114864482D01*
X167320813Y-114869723D01*
X167302846Y-114871492D01*
X167194947Y-114871492D01*
X167176979Y-114869723D01*
X167159703Y-114864482D01*
X167143781Y-114855971D01*
X167129825Y-114844518D01*
X166986220Y-114700913D01*
X166974767Y-114686957D01*
X166966255Y-114671035D01*
X166961015Y-114653758D01*
X166959246Y-114635791D01*
X166961015Y-114617823D01*
X166966255Y-114600546D01*
X166974767Y-114584624D01*
X166986220Y-114570668D01*
X167426061Y-114130827D01*
X167440017Y-114119374D01*
X167440017Y-114119374D01*
G37*
D11*
X168077147Y-113807540D03*
D10*
G36*
X168147124Y-113412267D02*
G01*
X168163046Y-113403755D01*
X168180323Y-113398515D01*
X168198291Y-113396746D01*
X168216258Y-113398515D01*
X168233535Y-113403755D01*
X168249457Y-113412267D01*
X168263413Y-113423720D01*
X168407018Y-113567325D01*
X168418471Y-113581281D01*
X168426982Y-113597203D01*
X168432223Y-113614479D01*
X168433992Y-113632447D01*
X168433992Y-113740346D01*
X168432223Y-113758313D01*
X168426982Y-113775590D01*
X168418471Y-113791512D01*
X168407018Y-113805468D01*
X168075075Y-114137411D01*
X168061119Y-114148864D01*
X168045197Y-114157375D01*
X168027920Y-114162616D01*
X168009953Y-114164385D01*
X167902054Y-114164385D01*
X167884086Y-114162616D01*
X167866810Y-114157375D01*
X167850888Y-114148864D01*
X167836932Y-114137411D01*
X167693327Y-113993806D01*
X167681874Y-113979850D01*
X167673362Y-113963928D01*
X167668122Y-113946651D01*
X167666353Y-113928684D01*
X167668122Y-113910716D01*
X167673362Y-113893439D01*
X167681874Y-113877517D01*
X167693327Y-113863561D01*
X168133168Y-113423720D01*
X168147124Y-113412267D01*
X168147124Y-113412267D01*
G37*
D11*
X168784253Y-113100433D03*
D10*
G36*
X168854230Y-112705160D02*
G01*
X168870152Y-112696648D01*
X168887429Y-112691408D01*
X168905397Y-112689639D01*
X168923364Y-112691408D01*
X168940641Y-112696648D01*
X168956563Y-112705160D01*
X168970519Y-112716613D01*
X169114124Y-112860218D01*
X169125577Y-112874174D01*
X169134088Y-112890096D01*
X169139329Y-112907372D01*
X169141098Y-112925340D01*
X169141098Y-113033239D01*
X169139329Y-113051206D01*
X169134088Y-113068483D01*
X169125577Y-113084405D01*
X169114124Y-113098361D01*
X168782181Y-113430304D01*
X168768225Y-113441757D01*
X168752303Y-113450268D01*
X168735026Y-113455509D01*
X168717059Y-113457278D01*
X168609160Y-113457278D01*
X168591192Y-113455509D01*
X168573916Y-113450268D01*
X168557994Y-113441757D01*
X168544038Y-113430304D01*
X168400433Y-113286699D01*
X168388980Y-113272743D01*
X168380468Y-113256821D01*
X168375228Y-113239544D01*
X168373459Y-113221577D01*
X168375228Y-113203609D01*
X168380468Y-113186332D01*
X168388980Y-113170410D01*
X168400433Y-113156454D01*
X168840274Y-112716613D01*
X168854230Y-112705160D01*
X168854230Y-112705160D01*
G37*
D11*
X169897947Y-118456767D03*
D10*
G36*
X169913975Y-118115443D02*
G01*
X169929897Y-118106932D01*
X169947174Y-118101691D01*
X169965141Y-118099922D01*
X170073040Y-118099922D01*
X170091008Y-118101691D01*
X170108284Y-118106932D01*
X170124206Y-118115443D01*
X170138162Y-118126896D01*
X170281767Y-118270501D01*
X170293220Y-118284457D01*
X170301732Y-118300379D01*
X170306972Y-118317656D01*
X170308741Y-118335623D01*
X170306972Y-118353591D01*
X170301732Y-118370868D01*
X170293220Y-118386790D01*
X170281767Y-118400746D01*
X169841926Y-118840587D01*
X169827970Y-118852040D01*
X169812048Y-118860552D01*
X169794771Y-118865792D01*
X169776803Y-118867561D01*
X169758836Y-118865792D01*
X169741559Y-118860552D01*
X169725637Y-118852040D01*
X169711681Y-118840587D01*
X169568076Y-118696982D01*
X169556623Y-118683026D01*
X169548112Y-118667104D01*
X169542871Y-118649828D01*
X169541102Y-118631860D01*
X169541102Y-118523961D01*
X169542871Y-118505994D01*
X169548112Y-118488717D01*
X169556623Y-118472795D01*
X169568076Y-118458839D01*
X169900019Y-118126896D01*
X169913975Y-118115443D01*
X169913975Y-118115443D01*
G37*
D11*
X170605053Y-117749660D03*
D10*
G36*
X170621081Y-117408336D02*
G01*
X170637003Y-117399825D01*
X170654280Y-117394584D01*
X170672247Y-117392815D01*
X170780146Y-117392815D01*
X170798114Y-117394584D01*
X170815390Y-117399825D01*
X170831312Y-117408336D01*
X170845268Y-117419789D01*
X170988873Y-117563394D01*
X171000326Y-117577350D01*
X171008838Y-117593272D01*
X171014078Y-117610549D01*
X171015847Y-117628516D01*
X171014078Y-117646484D01*
X171008838Y-117663761D01*
X171000326Y-117679683D01*
X170988873Y-117693639D01*
X170549032Y-118133480D01*
X170535076Y-118144933D01*
X170519154Y-118153445D01*
X170501877Y-118158685D01*
X170483909Y-118160454D01*
X170465942Y-118158685D01*
X170448665Y-118153445D01*
X170432743Y-118144933D01*
X170418787Y-118133480D01*
X170275182Y-117989875D01*
X170263729Y-117975919D01*
X170255218Y-117959997D01*
X170249977Y-117942721D01*
X170248208Y-117924753D01*
X170248208Y-117816854D01*
X170249977Y-117798887D01*
X170255218Y-117781610D01*
X170263729Y-117765688D01*
X170275182Y-117751732D01*
X170607125Y-117419789D01*
X170621081Y-117408336D01*
X170621081Y-117408336D01*
G37*
D11*
X171312160Y-117042553D03*
D10*
G36*
X171328188Y-116701229D02*
G01*
X171344110Y-116692718D01*
X171361387Y-116687477D01*
X171379354Y-116685708D01*
X171487253Y-116685708D01*
X171505221Y-116687477D01*
X171522497Y-116692718D01*
X171538419Y-116701229D01*
X171552375Y-116712682D01*
X171695980Y-116856287D01*
X171707433Y-116870243D01*
X171715945Y-116886165D01*
X171721185Y-116903442D01*
X171722954Y-116921409D01*
X171721185Y-116939377D01*
X171715945Y-116956654D01*
X171707433Y-116972576D01*
X171695980Y-116986532D01*
X171256139Y-117426373D01*
X171242183Y-117437826D01*
X171226261Y-117446338D01*
X171208984Y-117451578D01*
X171191016Y-117453347D01*
X171173049Y-117451578D01*
X171155772Y-117446338D01*
X171139850Y-117437826D01*
X171125894Y-117426373D01*
X170982289Y-117282768D01*
X170970836Y-117268812D01*
X170962325Y-117252890D01*
X170957084Y-117235614D01*
X170955315Y-117217646D01*
X170955315Y-117109747D01*
X170957084Y-117091780D01*
X170962325Y-117074503D01*
X170970836Y-117058581D01*
X170982289Y-117044625D01*
X171314232Y-116712682D01*
X171328188Y-116701229D01*
X171328188Y-116701229D01*
G37*
D11*
X172019267Y-116335447D03*
D10*
G36*
X172035295Y-115994123D02*
G01*
X172051217Y-115985612D01*
X172068494Y-115980371D01*
X172086461Y-115978602D01*
X172194360Y-115978602D01*
X172212328Y-115980371D01*
X172229604Y-115985612D01*
X172245526Y-115994123D01*
X172259482Y-116005576D01*
X172403087Y-116149181D01*
X172414540Y-116163137D01*
X172423052Y-116179059D01*
X172428292Y-116196336D01*
X172430061Y-116214303D01*
X172428292Y-116232271D01*
X172423052Y-116249548D01*
X172414540Y-116265470D01*
X172403087Y-116279426D01*
X171963246Y-116719267D01*
X171949290Y-116730720D01*
X171933368Y-116739232D01*
X171916091Y-116744472D01*
X171898123Y-116746241D01*
X171880156Y-116744472D01*
X171862879Y-116739232D01*
X171846957Y-116730720D01*
X171833001Y-116719267D01*
X171689396Y-116575662D01*
X171677943Y-116561706D01*
X171669432Y-116545784D01*
X171664191Y-116528508D01*
X171662422Y-116510540D01*
X171662422Y-116402641D01*
X171664191Y-116384674D01*
X171669432Y-116367397D01*
X171677943Y-116351475D01*
X171689396Y-116337519D01*
X172021339Y-116005576D01*
X172035295Y-115994123D01*
X172035295Y-115994123D01*
G37*
D12*
X166106086Y-115778600D03*
D10*
G36*
X166041698Y-115518337D02*
G01*
X166061735Y-115507627D01*
X166083476Y-115501032D01*
X166106086Y-115498805D01*
X166128696Y-115501032D01*
X166150437Y-115507627D01*
X166170474Y-115518337D01*
X166188036Y-115532750D01*
X166278728Y-115623441D01*
X166293140Y-115641003D01*
X166303850Y-115661040D01*
X166310446Y-115682781D01*
X166312672Y-115705391D01*
X166312672Y-115851809D01*
X166310446Y-115874419D01*
X166303850Y-115896160D01*
X166293140Y-115916197D01*
X166278728Y-115933759D01*
X166188036Y-116024450D01*
X166170474Y-116038863D01*
X166150437Y-116049573D01*
X166128696Y-116056168D01*
X166106086Y-116058395D01*
X166083476Y-116056168D01*
X166061735Y-116049573D01*
X166041698Y-116038863D01*
X166024136Y-116024450D01*
X165860236Y-115860550D01*
X165845823Y-115842988D01*
X165835113Y-115822951D01*
X165828518Y-115801210D01*
X165826291Y-115778600D01*
X165828518Y-115755990D01*
X165835113Y-115734249D01*
X165845823Y-115714212D01*
X165860236Y-115696650D01*
X166024136Y-115532750D01*
X166041698Y-115518337D01*
X166041698Y-115518337D01*
G37*
D12*
X169341100Y-119013614D03*
D10*
G36*
X169203503Y-118826560D02*
G01*
X169223540Y-118815850D01*
X169245281Y-118809254D01*
X169267891Y-118807028D01*
X169414309Y-118807028D01*
X169436919Y-118809254D01*
X169458660Y-118815850D01*
X169478697Y-118826560D01*
X169496259Y-118840972D01*
X169586950Y-118931664D01*
X169601363Y-118949226D01*
X169612073Y-118969263D01*
X169618668Y-118991004D01*
X169620895Y-119013614D01*
X169618668Y-119036224D01*
X169612073Y-119057965D01*
X169601363Y-119078002D01*
X169586950Y-119095564D01*
X169423050Y-119259464D01*
X169405488Y-119273877D01*
X169385451Y-119284587D01*
X169363710Y-119291182D01*
X169341100Y-119293409D01*
X169318490Y-119291182D01*
X169296749Y-119284587D01*
X169276712Y-119273877D01*
X169259150Y-119259464D01*
X169095250Y-119095564D01*
X169080837Y-119078002D01*
X169070127Y-119057965D01*
X169063532Y-119036224D01*
X169061305Y-119013614D01*
X169063532Y-118991004D01*
X169070127Y-118969263D01*
X169080837Y-118949226D01*
X169095250Y-118931664D01*
X169185941Y-118840972D01*
X169203503Y-118826560D01*
X169203503Y-118826560D01*
G37*
D12*
X169341100Y-112543586D03*
D10*
G36*
X169276712Y-112283323D02*
G01*
X169296749Y-112272613D01*
X169318490Y-112266018D01*
X169341100Y-112263791D01*
X169363710Y-112266018D01*
X169385451Y-112272613D01*
X169405488Y-112283323D01*
X169423050Y-112297736D01*
X169586950Y-112461636D01*
X169601363Y-112479198D01*
X169612073Y-112499235D01*
X169618668Y-112520976D01*
X169620895Y-112543586D01*
X169618668Y-112566196D01*
X169612073Y-112587937D01*
X169601363Y-112607974D01*
X169586950Y-112625536D01*
X169496259Y-112716228D01*
X169478697Y-112730640D01*
X169458660Y-112741350D01*
X169436919Y-112747946D01*
X169414309Y-112750172D01*
X169267891Y-112750172D01*
X169245281Y-112747946D01*
X169223540Y-112741350D01*
X169203503Y-112730640D01*
X169185941Y-112716228D01*
X169095250Y-112625536D01*
X169080837Y-112607974D01*
X169070127Y-112587937D01*
X169063532Y-112566196D01*
X169061305Y-112543586D01*
X169063532Y-112520976D01*
X169070127Y-112499235D01*
X169080837Y-112479198D01*
X169095250Y-112461636D01*
X169259150Y-112297736D01*
X169276712Y-112283323D01*
X169276712Y-112283323D01*
G37*
D12*
X172576114Y-115778600D03*
D10*
G36*
X172511726Y-115518337D02*
G01*
X172531763Y-115507627D01*
X172553504Y-115501032D01*
X172576114Y-115498805D01*
X172598724Y-115501032D01*
X172620465Y-115507627D01*
X172640502Y-115518337D01*
X172658064Y-115532750D01*
X172821964Y-115696650D01*
X172836377Y-115714212D01*
X172847087Y-115734249D01*
X172853682Y-115755990D01*
X172855909Y-115778600D01*
X172853682Y-115801210D01*
X172847087Y-115822951D01*
X172836377Y-115842988D01*
X172821964Y-115860550D01*
X172658064Y-116024450D01*
X172640502Y-116038863D01*
X172620465Y-116049573D01*
X172598724Y-116056168D01*
X172576114Y-116058395D01*
X172553504Y-116056168D01*
X172531763Y-116049573D01*
X172511726Y-116038863D01*
X172494164Y-116024450D01*
X172403472Y-115933759D01*
X172389060Y-115916197D01*
X172378350Y-115896160D01*
X172371754Y-115874419D01*
X172369528Y-115851809D01*
X172369528Y-115705391D01*
X172371754Y-115682781D01*
X172378350Y-115661040D01*
X172389060Y-115641003D01*
X172403472Y-115623441D01*
X172494164Y-115532750D01*
X172511726Y-115518337D01*
X172511726Y-115518337D01*
G37*
G36*
X165192974Y-115893178D02*
G01*
X165199041Y-115894078D01*
X165204991Y-115895568D01*
X165210766Y-115897635D01*
X165216310Y-115900257D01*
X165221571Y-115903410D01*
X165226498Y-115907064D01*
X165231042Y-115911183D01*
X165319430Y-115999571D01*
X165323549Y-116004115D01*
X165327203Y-116009042D01*
X165330356Y-116014303D01*
X165332978Y-116019847D01*
X165335045Y-116025622D01*
X165336535Y-116031572D01*
X165337435Y-116037639D01*
X165337736Y-116043765D01*
X165337435Y-116049891D01*
X165336535Y-116055958D01*
X165335045Y-116061908D01*
X165332978Y-116067683D01*
X165330356Y-116073227D01*
X165327203Y-116078488D01*
X165323549Y-116083415D01*
X165319430Y-116087959D01*
X164789100Y-116618289D01*
X164784556Y-116622408D01*
X164779629Y-116626062D01*
X164774368Y-116629215D01*
X164768824Y-116631837D01*
X164763049Y-116633904D01*
X164757099Y-116635394D01*
X164751032Y-116636294D01*
X164744906Y-116636595D01*
X164738780Y-116636294D01*
X164732713Y-116635394D01*
X164726763Y-116633904D01*
X164720988Y-116631837D01*
X164715444Y-116629215D01*
X164710183Y-116626062D01*
X164705256Y-116622408D01*
X164700712Y-116618289D01*
X164612324Y-116529901D01*
X164608205Y-116525357D01*
X164604551Y-116520430D01*
X164601398Y-116515169D01*
X164598776Y-116509625D01*
X164596709Y-116503850D01*
X164595219Y-116497900D01*
X164594319Y-116491833D01*
X164594018Y-116485707D01*
X164594319Y-116479581D01*
X164595219Y-116473514D01*
X164596709Y-116467564D01*
X164598776Y-116461789D01*
X164601398Y-116456245D01*
X164604551Y-116450984D01*
X164608205Y-116446057D01*
X164612324Y-116441513D01*
X165142654Y-115911183D01*
X165147198Y-115907064D01*
X165152125Y-115903410D01*
X165157386Y-115900257D01*
X165162930Y-115897635D01*
X165168705Y-115895568D01*
X165174655Y-115894078D01*
X165180722Y-115893178D01*
X165186848Y-115892877D01*
X165192974Y-115893178D01*
X165192974Y-115893178D01*
G37*
D13*
X164965877Y-116264736D03*
D10*
G36*
X165546527Y-116246731D02*
G01*
X165552594Y-116247631D01*
X165558544Y-116249121D01*
X165564319Y-116251188D01*
X165569863Y-116253810D01*
X165575124Y-116256963D01*
X165580051Y-116260617D01*
X165584595Y-116264736D01*
X165672983Y-116353124D01*
X165677102Y-116357668D01*
X165680756Y-116362595D01*
X165683909Y-116367856D01*
X165686531Y-116373400D01*
X165688598Y-116379175D01*
X165690088Y-116385125D01*
X165690988Y-116391192D01*
X165691289Y-116397318D01*
X165690988Y-116403444D01*
X165690088Y-116409511D01*
X165688598Y-116415461D01*
X165686531Y-116421236D01*
X165683909Y-116426780D01*
X165680756Y-116432041D01*
X165677102Y-116436968D01*
X165672983Y-116441512D01*
X165142653Y-116971842D01*
X165138109Y-116975961D01*
X165133182Y-116979615D01*
X165127921Y-116982768D01*
X165122377Y-116985390D01*
X165116602Y-116987457D01*
X165110652Y-116988947D01*
X165104585Y-116989847D01*
X165098459Y-116990148D01*
X165092333Y-116989847D01*
X165086266Y-116988947D01*
X165080316Y-116987457D01*
X165074541Y-116985390D01*
X165068997Y-116982768D01*
X165063736Y-116979615D01*
X165058809Y-116975961D01*
X165054265Y-116971842D01*
X164965877Y-116883454D01*
X164961758Y-116878910D01*
X164958104Y-116873983D01*
X164954951Y-116868722D01*
X164952329Y-116863178D01*
X164950262Y-116857403D01*
X164948772Y-116851453D01*
X164947872Y-116845386D01*
X164947571Y-116839260D01*
X164947872Y-116833134D01*
X164948772Y-116827067D01*
X164950262Y-116821117D01*
X164952329Y-116815342D01*
X164954951Y-116809798D01*
X164958104Y-116804537D01*
X164961758Y-116799610D01*
X164965877Y-116795066D01*
X165496207Y-116264736D01*
X165500751Y-116260617D01*
X165505678Y-116256963D01*
X165510939Y-116253810D01*
X165516483Y-116251188D01*
X165522258Y-116249121D01*
X165528208Y-116247631D01*
X165534275Y-116246731D01*
X165540401Y-116246430D01*
X165546527Y-116246731D01*
X165546527Y-116246731D01*
G37*
D13*
X165319430Y-116618289D03*
D10*
G36*
X165900081Y-116600285D02*
G01*
X165906148Y-116601185D01*
X165912098Y-116602675D01*
X165917873Y-116604742D01*
X165923417Y-116607364D01*
X165928678Y-116610517D01*
X165933605Y-116614171D01*
X165938149Y-116618290D01*
X166026537Y-116706678D01*
X166030656Y-116711222D01*
X166034310Y-116716149D01*
X166037463Y-116721410D01*
X166040085Y-116726954D01*
X166042152Y-116732729D01*
X166043642Y-116738679D01*
X166044542Y-116744746D01*
X166044843Y-116750872D01*
X166044542Y-116756998D01*
X166043642Y-116763065D01*
X166042152Y-116769015D01*
X166040085Y-116774790D01*
X166037463Y-116780334D01*
X166034310Y-116785595D01*
X166030656Y-116790522D01*
X166026537Y-116795066D01*
X165496207Y-117325396D01*
X165491663Y-117329515D01*
X165486736Y-117333169D01*
X165481475Y-117336322D01*
X165475931Y-117338944D01*
X165470156Y-117341011D01*
X165464206Y-117342501D01*
X165458139Y-117343401D01*
X165452013Y-117343702D01*
X165445887Y-117343401D01*
X165439820Y-117342501D01*
X165433870Y-117341011D01*
X165428095Y-117338944D01*
X165422551Y-117336322D01*
X165417290Y-117333169D01*
X165412363Y-117329515D01*
X165407819Y-117325396D01*
X165319431Y-117237008D01*
X165315312Y-117232464D01*
X165311658Y-117227537D01*
X165308505Y-117222276D01*
X165305883Y-117216732D01*
X165303816Y-117210957D01*
X165302326Y-117205007D01*
X165301426Y-117198940D01*
X165301125Y-117192814D01*
X165301426Y-117186688D01*
X165302326Y-117180621D01*
X165303816Y-117174671D01*
X165305883Y-117168896D01*
X165308505Y-117163352D01*
X165311658Y-117158091D01*
X165315312Y-117153164D01*
X165319431Y-117148620D01*
X165849761Y-116618290D01*
X165854305Y-116614171D01*
X165859232Y-116610517D01*
X165864493Y-116607364D01*
X165870037Y-116604742D01*
X165875812Y-116602675D01*
X165881762Y-116601185D01*
X165887829Y-116600285D01*
X165893955Y-116599984D01*
X165900081Y-116600285D01*
X165900081Y-116600285D01*
G37*
D13*
X165672984Y-116971843D03*
D10*
G36*
X166253634Y-116953838D02*
G01*
X166259701Y-116954738D01*
X166265651Y-116956228D01*
X166271426Y-116958295D01*
X166276970Y-116960917D01*
X166282231Y-116964070D01*
X166287158Y-116967724D01*
X166291702Y-116971843D01*
X166380090Y-117060231D01*
X166384209Y-117064775D01*
X166387863Y-117069702D01*
X166391016Y-117074963D01*
X166393638Y-117080507D01*
X166395705Y-117086282D01*
X166397195Y-117092232D01*
X166398095Y-117098299D01*
X166398396Y-117104425D01*
X166398095Y-117110551D01*
X166397195Y-117116618D01*
X166395705Y-117122568D01*
X166393638Y-117128343D01*
X166391016Y-117133887D01*
X166387863Y-117139148D01*
X166384209Y-117144075D01*
X166380090Y-117148619D01*
X165849760Y-117678949D01*
X165845216Y-117683068D01*
X165840289Y-117686722D01*
X165835028Y-117689875D01*
X165829484Y-117692497D01*
X165823709Y-117694564D01*
X165817759Y-117696054D01*
X165811692Y-117696954D01*
X165805566Y-117697255D01*
X165799440Y-117696954D01*
X165793373Y-117696054D01*
X165787423Y-117694564D01*
X165781648Y-117692497D01*
X165776104Y-117689875D01*
X165770843Y-117686722D01*
X165765916Y-117683068D01*
X165761372Y-117678949D01*
X165672984Y-117590561D01*
X165668865Y-117586017D01*
X165665211Y-117581090D01*
X165662058Y-117575829D01*
X165659436Y-117570285D01*
X165657369Y-117564510D01*
X165655879Y-117558560D01*
X165654979Y-117552493D01*
X165654678Y-117546367D01*
X165654979Y-117540241D01*
X165655879Y-117534174D01*
X165657369Y-117528224D01*
X165659436Y-117522449D01*
X165662058Y-117516905D01*
X165665211Y-117511644D01*
X165668865Y-117506717D01*
X165672984Y-117502173D01*
X166203314Y-116971843D01*
X166207858Y-116967724D01*
X166212785Y-116964070D01*
X166218046Y-116960917D01*
X166223590Y-116958295D01*
X166229365Y-116956228D01*
X166235315Y-116954738D01*
X166241382Y-116953838D01*
X166247508Y-116953537D01*
X166253634Y-116953838D01*
X166253634Y-116953838D01*
G37*
D13*
X166026537Y-117325396D03*
D10*
G36*
X166607187Y-117307391D02*
G01*
X166613254Y-117308291D01*
X166619204Y-117309781D01*
X166624979Y-117311848D01*
X166630523Y-117314470D01*
X166635784Y-117317623D01*
X166640711Y-117321277D01*
X166645255Y-117325396D01*
X166733643Y-117413784D01*
X166737762Y-117418328D01*
X166741416Y-117423255D01*
X166744569Y-117428516D01*
X166747191Y-117434060D01*
X166749258Y-117439835D01*
X166750748Y-117445785D01*
X166751648Y-117451852D01*
X166751949Y-117457978D01*
X166751648Y-117464104D01*
X166750748Y-117470171D01*
X166749258Y-117476121D01*
X166747191Y-117481896D01*
X166744569Y-117487440D01*
X166741416Y-117492701D01*
X166737762Y-117497628D01*
X166733643Y-117502172D01*
X166203313Y-118032502D01*
X166198769Y-118036621D01*
X166193842Y-118040275D01*
X166188581Y-118043428D01*
X166183037Y-118046050D01*
X166177262Y-118048117D01*
X166171312Y-118049607D01*
X166165245Y-118050507D01*
X166159119Y-118050808D01*
X166152993Y-118050507D01*
X166146926Y-118049607D01*
X166140976Y-118048117D01*
X166135201Y-118046050D01*
X166129657Y-118043428D01*
X166124396Y-118040275D01*
X166119469Y-118036621D01*
X166114925Y-118032502D01*
X166026537Y-117944114D01*
X166022418Y-117939570D01*
X166018764Y-117934643D01*
X166015611Y-117929382D01*
X166012989Y-117923838D01*
X166010922Y-117918063D01*
X166009432Y-117912113D01*
X166008532Y-117906046D01*
X166008231Y-117899920D01*
X166008532Y-117893794D01*
X166009432Y-117887727D01*
X166010922Y-117881777D01*
X166012989Y-117876002D01*
X166015611Y-117870458D01*
X166018764Y-117865197D01*
X166022418Y-117860270D01*
X166026537Y-117855726D01*
X166556867Y-117325396D01*
X166561411Y-117321277D01*
X166566338Y-117317623D01*
X166571599Y-117314470D01*
X166577143Y-117311848D01*
X166582918Y-117309781D01*
X166588868Y-117308291D01*
X166594935Y-117307391D01*
X166601061Y-117307090D01*
X166607187Y-117307391D01*
X166607187Y-117307391D01*
G37*
D13*
X166380090Y-117678949D03*
D10*
G36*
X166960741Y-117660945D02*
G01*
X166966808Y-117661845D01*
X166972758Y-117663335D01*
X166978533Y-117665402D01*
X166984077Y-117668024D01*
X166989338Y-117671177D01*
X166994265Y-117674831D01*
X166998809Y-117678950D01*
X167087197Y-117767338D01*
X167091316Y-117771882D01*
X167094970Y-117776809D01*
X167098123Y-117782070D01*
X167100745Y-117787614D01*
X167102812Y-117793389D01*
X167104302Y-117799339D01*
X167105202Y-117805406D01*
X167105503Y-117811532D01*
X167105202Y-117817658D01*
X167104302Y-117823725D01*
X167102812Y-117829675D01*
X167100745Y-117835450D01*
X167098123Y-117840994D01*
X167094970Y-117846255D01*
X167091316Y-117851182D01*
X167087197Y-117855726D01*
X166556867Y-118386056D01*
X166552323Y-118390175D01*
X166547396Y-118393829D01*
X166542135Y-118396982D01*
X166536591Y-118399604D01*
X166530816Y-118401671D01*
X166524866Y-118403161D01*
X166518799Y-118404061D01*
X166512673Y-118404362D01*
X166506547Y-118404061D01*
X166500480Y-118403161D01*
X166494530Y-118401671D01*
X166488755Y-118399604D01*
X166483211Y-118396982D01*
X166477950Y-118393829D01*
X166473023Y-118390175D01*
X166468479Y-118386056D01*
X166380091Y-118297668D01*
X166375972Y-118293124D01*
X166372318Y-118288197D01*
X166369165Y-118282936D01*
X166366543Y-118277392D01*
X166364476Y-118271617D01*
X166362986Y-118265667D01*
X166362086Y-118259600D01*
X166361785Y-118253474D01*
X166362086Y-118247348D01*
X166362986Y-118241281D01*
X166364476Y-118235331D01*
X166366543Y-118229556D01*
X166369165Y-118224012D01*
X166372318Y-118218751D01*
X166375972Y-118213824D01*
X166380091Y-118209280D01*
X166910421Y-117678950D01*
X166914965Y-117674831D01*
X166919892Y-117671177D01*
X166925153Y-117668024D01*
X166930697Y-117665402D01*
X166936472Y-117663335D01*
X166942422Y-117661845D01*
X166948489Y-117660945D01*
X166954615Y-117660644D01*
X166960741Y-117660945D01*
X166960741Y-117660945D01*
G37*
D13*
X166733644Y-118032503D03*
D10*
G36*
X167314294Y-118014498D02*
G01*
X167320361Y-118015398D01*
X167326311Y-118016888D01*
X167332086Y-118018955D01*
X167337630Y-118021577D01*
X167342891Y-118024730D01*
X167347818Y-118028384D01*
X167352362Y-118032503D01*
X167440750Y-118120891D01*
X167444869Y-118125435D01*
X167448523Y-118130362D01*
X167451676Y-118135623D01*
X167454298Y-118141167D01*
X167456365Y-118146942D01*
X167457855Y-118152892D01*
X167458755Y-118158959D01*
X167459056Y-118165085D01*
X167458755Y-118171211D01*
X167457855Y-118177278D01*
X167456365Y-118183228D01*
X167454298Y-118189003D01*
X167451676Y-118194547D01*
X167448523Y-118199808D01*
X167444869Y-118204735D01*
X167440750Y-118209279D01*
X166910420Y-118739609D01*
X166905876Y-118743728D01*
X166900949Y-118747382D01*
X166895688Y-118750535D01*
X166890144Y-118753157D01*
X166884369Y-118755224D01*
X166878419Y-118756714D01*
X166872352Y-118757614D01*
X166866226Y-118757915D01*
X166860100Y-118757614D01*
X166854033Y-118756714D01*
X166848083Y-118755224D01*
X166842308Y-118753157D01*
X166836764Y-118750535D01*
X166831503Y-118747382D01*
X166826576Y-118743728D01*
X166822032Y-118739609D01*
X166733644Y-118651221D01*
X166729525Y-118646677D01*
X166725871Y-118641750D01*
X166722718Y-118636489D01*
X166720096Y-118630945D01*
X166718029Y-118625170D01*
X166716539Y-118619220D01*
X166715639Y-118613153D01*
X166715338Y-118607027D01*
X166715639Y-118600901D01*
X166716539Y-118594834D01*
X166718029Y-118588884D01*
X166720096Y-118583109D01*
X166722718Y-118577565D01*
X166725871Y-118572304D01*
X166729525Y-118567377D01*
X166733644Y-118562833D01*
X167263974Y-118032503D01*
X167268518Y-118028384D01*
X167273445Y-118024730D01*
X167278706Y-118021577D01*
X167284250Y-118018955D01*
X167290025Y-118016888D01*
X167295975Y-118015398D01*
X167302042Y-118014498D01*
X167308168Y-118014197D01*
X167314294Y-118014498D01*
X167314294Y-118014498D01*
G37*
D13*
X167087197Y-118386056D03*
D10*
G36*
X167667848Y-118368052D02*
G01*
X167673915Y-118368952D01*
X167679865Y-118370442D01*
X167685640Y-118372509D01*
X167691184Y-118375131D01*
X167696445Y-118378284D01*
X167701372Y-118381938D01*
X167705916Y-118386057D01*
X167794304Y-118474445D01*
X167798423Y-118478989D01*
X167802077Y-118483916D01*
X167805230Y-118489177D01*
X167807852Y-118494721D01*
X167809919Y-118500496D01*
X167811409Y-118506446D01*
X167812309Y-118512513D01*
X167812610Y-118518639D01*
X167812309Y-118524765D01*
X167811409Y-118530832D01*
X167809919Y-118536782D01*
X167807852Y-118542557D01*
X167805230Y-118548101D01*
X167802077Y-118553362D01*
X167798423Y-118558289D01*
X167794304Y-118562833D01*
X167263974Y-119093163D01*
X167259430Y-119097282D01*
X167254503Y-119100936D01*
X167249242Y-119104089D01*
X167243698Y-119106711D01*
X167237923Y-119108778D01*
X167231973Y-119110268D01*
X167225906Y-119111168D01*
X167219780Y-119111469D01*
X167213654Y-119111168D01*
X167207587Y-119110268D01*
X167201637Y-119108778D01*
X167195862Y-119106711D01*
X167190318Y-119104089D01*
X167185057Y-119100936D01*
X167180130Y-119097282D01*
X167175586Y-119093163D01*
X167087198Y-119004775D01*
X167083079Y-119000231D01*
X167079425Y-118995304D01*
X167076272Y-118990043D01*
X167073650Y-118984499D01*
X167071583Y-118978724D01*
X167070093Y-118972774D01*
X167069193Y-118966707D01*
X167068892Y-118960581D01*
X167069193Y-118954455D01*
X167070093Y-118948388D01*
X167071583Y-118942438D01*
X167073650Y-118936663D01*
X167076272Y-118931119D01*
X167079425Y-118925858D01*
X167083079Y-118920931D01*
X167087198Y-118916387D01*
X167617528Y-118386057D01*
X167622072Y-118381938D01*
X167626999Y-118378284D01*
X167632260Y-118375131D01*
X167637804Y-118372509D01*
X167643579Y-118370442D01*
X167649529Y-118368952D01*
X167655596Y-118368052D01*
X167661722Y-118367751D01*
X167667848Y-118368052D01*
X167667848Y-118368052D01*
G37*
D13*
X167440751Y-118739610D03*
D10*
G36*
X168021401Y-118721605D02*
G01*
X168027468Y-118722505D01*
X168033418Y-118723995D01*
X168039193Y-118726062D01*
X168044737Y-118728684D01*
X168049998Y-118731837D01*
X168054925Y-118735491D01*
X168059469Y-118739610D01*
X168147857Y-118827998D01*
X168151976Y-118832542D01*
X168155630Y-118837469D01*
X168158783Y-118842730D01*
X168161405Y-118848274D01*
X168163472Y-118854049D01*
X168164962Y-118859999D01*
X168165862Y-118866066D01*
X168166163Y-118872192D01*
X168165862Y-118878318D01*
X168164962Y-118884385D01*
X168163472Y-118890335D01*
X168161405Y-118896110D01*
X168158783Y-118901654D01*
X168155630Y-118906915D01*
X168151976Y-118911842D01*
X168147857Y-118916386D01*
X167617527Y-119446716D01*
X167612983Y-119450835D01*
X167608056Y-119454489D01*
X167602795Y-119457642D01*
X167597251Y-119460264D01*
X167591476Y-119462331D01*
X167585526Y-119463821D01*
X167579459Y-119464721D01*
X167573333Y-119465022D01*
X167567207Y-119464721D01*
X167561140Y-119463821D01*
X167555190Y-119462331D01*
X167549415Y-119460264D01*
X167543871Y-119457642D01*
X167538610Y-119454489D01*
X167533683Y-119450835D01*
X167529139Y-119446716D01*
X167440751Y-119358328D01*
X167436632Y-119353784D01*
X167432978Y-119348857D01*
X167429825Y-119343596D01*
X167427203Y-119338052D01*
X167425136Y-119332277D01*
X167423646Y-119326327D01*
X167422746Y-119320260D01*
X167422445Y-119314134D01*
X167422746Y-119308008D01*
X167423646Y-119301941D01*
X167425136Y-119295991D01*
X167427203Y-119290216D01*
X167429825Y-119284672D01*
X167432978Y-119279411D01*
X167436632Y-119274484D01*
X167440751Y-119269940D01*
X167971081Y-118739610D01*
X167975625Y-118735491D01*
X167980552Y-118731837D01*
X167985813Y-118728684D01*
X167991357Y-118726062D01*
X167997132Y-118723995D01*
X168003082Y-118722505D01*
X168009149Y-118721605D01*
X168015275Y-118721304D01*
X168021401Y-118721605D01*
X168021401Y-118721605D01*
G37*
D13*
X167794304Y-119093163D03*
D10*
G36*
X168374954Y-119075158D02*
G01*
X168381021Y-119076058D01*
X168386971Y-119077548D01*
X168392746Y-119079615D01*
X168398290Y-119082237D01*
X168403551Y-119085390D01*
X168408478Y-119089044D01*
X168413022Y-119093163D01*
X168501410Y-119181551D01*
X168505529Y-119186095D01*
X168509183Y-119191022D01*
X168512336Y-119196283D01*
X168514958Y-119201827D01*
X168517025Y-119207602D01*
X168518515Y-119213552D01*
X168519415Y-119219619D01*
X168519716Y-119225745D01*
X168519415Y-119231871D01*
X168518515Y-119237938D01*
X168517025Y-119243888D01*
X168514958Y-119249663D01*
X168512336Y-119255207D01*
X168509183Y-119260468D01*
X168505529Y-119265395D01*
X168501410Y-119269939D01*
X167971080Y-119800269D01*
X167966536Y-119804388D01*
X167961609Y-119808042D01*
X167956348Y-119811195D01*
X167950804Y-119813817D01*
X167945029Y-119815884D01*
X167939079Y-119817374D01*
X167933012Y-119818274D01*
X167926886Y-119818575D01*
X167920760Y-119818274D01*
X167914693Y-119817374D01*
X167908743Y-119815884D01*
X167902968Y-119813817D01*
X167897424Y-119811195D01*
X167892163Y-119808042D01*
X167887236Y-119804388D01*
X167882692Y-119800269D01*
X167794304Y-119711881D01*
X167790185Y-119707337D01*
X167786531Y-119702410D01*
X167783378Y-119697149D01*
X167780756Y-119691605D01*
X167778689Y-119685830D01*
X167777199Y-119679880D01*
X167776299Y-119673813D01*
X167775998Y-119667687D01*
X167776299Y-119661561D01*
X167777199Y-119655494D01*
X167778689Y-119649544D01*
X167780756Y-119643769D01*
X167783378Y-119638225D01*
X167786531Y-119632964D01*
X167790185Y-119628037D01*
X167794304Y-119623493D01*
X168324634Y-119093163D01*
X168329178Y-119089044D01*
X168334105Y-119085390D01*
X168339366Y-119082237D01*
X168344910Y-119079615D01*
X168350685Y-119077548D01*
X168356635Y-119076058D01*
X168362702Y-119075158D01*
X168368828Y-119074857D01*
X168374954Y-119075158D01*
X168374954Y-119075158D01*
G37*
D13*
X168147857Y-119446716D03*
D10*
G36*
X168728508Y-119428712D02*
G01*
X168734575Y-119429612D01*
X168740525Y-119431102D01*
X168746300Y-119433169D01*
X168751844Y-119435791D01*
X168757105Y-119438944D01*
X168762032Y-119442598D01*
X168766576Y-119446717D01*
X168854964Y-119535105D01*
X168859083Y-119539649D01*
X168862737Y-119544576D01*
X168865890Y-119549837D01*
X168868512Y-119555381D01*
X168870579Y-119561156D01*
X168872069Y-119567106D01*
X168872969Y-119573173D01*
X168873270Y-119579299D01*
X168872969Y-119585425D01*
X168872069Y-119591492D01*
X168870579Y-119597442D01*
X168868512Y-119603217D01*
X168865890Y-119608761D01*
X168862737Y-119614022D01*
X168859083Y-119618949D01*
X168854964Y-119623493D01*
X168324634Y-120153823D01*
X168320090Y-120157942D01*
X168315163Y-120161596D01*
X168309902Y-120164749D01*
X168304358Y-120167371D01*
X168298583Y-120169438D01*
X168292633Y-120170928D01*
X168286566Y-120171828D01*
X168280440Y-120172129D01*
X168274314Y-120171828D01*
X168268247Y-120170928D01*
X168262297Y-120169438D01*
X168256522Y-120167371D01*
X168250978Y-120164749D01*
X168245717Y-120161596D01*
X168240790Y-120157942D01*
X168236246Y-120153823D01*
X168147858Y-120065435D01*
X168143739Y-120060891D01*
X168140085Y-120055964D01*
X168136932Y-120050703D01*
X168134310Y-120045159D01*
X168132243Y-120039384D01*
X168130753Y-120033434D01*
X168129853Y-120027367D01*
X168129552Y-120021241D01*
X168129853Y-120015115D01*
X168130753Y-120009048D01*
X168132243Y-120003098D01*
X168134310Y-119997323D01*
X168136932Y-119991779D01*
X168140085Y-119986518D01*
X168143739Y-119981591D01*
X168147858Y-119977047D01*
X168678188Y-119446717D01*
X168682732Y-119442598D01*
X168687659Y-119438944D01*
X168692920Y-119435791D01*
X168698464Y-119433169D01*
X168704239Y-119431102D01*
X168710189Y-119429612D01*
X168716256Y-119428712D01*
X168722382Y-119428411D01*
X168728508Y-119428712D01*
X168728508Y-119428712D01*
G37*
D13*
X168501411Y-119800270D03*
D10*
G36*
X169082061Y-119782265D02*
G01*
X169088128Y-119783165D01*
X169094078Y-119784655D01*
X169099853Y-119786722D01*
X169105397Y-119789344D01*
X169110658Y-119792497D01*
X169115585Y-119796151D01*
X169120129Y-119800270D01*
X169208517Y-119888658D01*
X169212636Y-119893202D01*
X169216290Y-119898129D01*
X169219443Y-119903390D01*
X169222065Y-119908934D01*
X169224132Y-119914709D01*
X169225622Y-119920659D01*
X169226522Y-119926726D01*
X169226823Y-119932852D01*
X169226522Y-119938978D01*
X169225622Y-119945045D01*
X169224132Y-119950995D01*
X169222065Y-119956770D01*
X169219443Y-119962314D01*
X169216290Y-119967575D01*
X169212636Y-119972502D01*
X169208517Y-119977046D01*
X168678187Y-120507376D01*
X168673643Y-120511495D01*
X168668716Y-120515149D01*
X168663455Y-120518302D01*
X168657911Y-120520924D01*
X168652136Y-120522991D01*
X168646186Y-120524481D01*
X168640119Y-120525381D01*
X168633993Y-120525682D01*
X168627867Y-120525381D01*
X168621800Y-120524481D01*
X168615850Y-120522991D01*
X168610075Y-120520924D01*
X168604531Y-120518302D01*
X168599270Y-120515149D01*
X168594343Y-120511495D01*
X168589799Y-120507376D01*
X168501411Y-120418988D01*
X168497292Y-120414444D01*
X168493638Y-120409517D01*
X168490485Y-120404256D01*
X168487863Y-120398712D01*
X168485796Y-120392937D01*
X168484306Y-120386987D01*
X168483406Y-120380920D01*
X168483105Y-120374794D01*
X168483406Y-120368668D01*
X168484306Y-120362601D01*
X168485796Y-120356651D01*
X168487863Y-120350876D01*
X168490485Y-120345332D01*
X168493638Y-120340071D01*
X168497292Y-120335144D01*
X168501411Y-120330600D01*
X169031741Y-119800270D01*
X169036285Y-119796151D01*
X169041212Y-119792497D01*
X169046473Y-119789344D01*
X169052017Y-119786722D01*
X169057792Y-119784655D01*
X169063742Y-119783165D01*
X169069809Y-119782265D01*
X169075935Y-119781964D01*
X169082061Y-119782265D01*
X169082061Y-119782265D01*
G37*
D13*
X168854964Y-120153823D03*
D10*
G36*
X169612391Y-119782265D02*
G01*
X169618458Y-119783165D01*
X169624408Y-119784655D01*
X169630183Y-119786722D01*
X169635727Y-119789344D01*
X169640988Y-119792497D01*
X169645915Y-119796151D01*
X169650459Y-119800270D01*
X170180789Y-120330600D01*
X170184908Y-120335144D01*
X170188562Y-120340071D01*
X170191715Y-120345332D01*
X170194337Y-120350876D01*
X170196404Y-120356651D01*
X170197894Y-120362601D01*
X170198794Y-120368668D01*
X170199095Y-120374794D01*
X170198794Y-120380920D01*
X170197894Y-120386987D01*
X170196404Y-120392937D01*
X170194337Y-120398712D01*
X170191715Y-120404256D01*
X170188562Y-120409517D01*
X170184908Y-120414444D01*
X170180789Y-120418988D01*
X170092401Y-120507376D01*
X170087857Y-120511495D01*
X170082930Y-120515149D01*
X170077669Y-120518302D01*
X170072125Y-120520924D01*
X170066350Y-120522991D01*
X170060400Y-120524481D01*
X170054333Y-120525381D01*
X170048207Y-120525682D01*
X170042081Y-120525381D01*
X170036014Y-120524481D01*
X170030064Y-120522991D01*
X170024289Y-120520924D01*
X170018745Y-120518302D01*
X170013484Y-120515149D01*
X170008557Y-120511495D01*
X170004013Y-120507376D01*
X169473683Y-119977046D01*
X169469564Y-119972502D01*
X169465910Y-119967575D01*
X169462757Y-119962314D01*
X169460135Y-119956770D01*
X169458068Y-119950995D01*
X169456578Y-119945045D01*
X169455678Y-119938978D01*
X169455377Y-119932852D01*
X169455678Y-119926726D01*
X169456578Y-119920659D01*
X169458068Y-119914709D01*
X169460135Y-119908934D01*
X169462757Y-119903390D01*
X169465910Y-119898129D01*
X169469564Y-119893202D01*
X169473683Y-119888658D01*
X169562071Y-119800270D01*
X169566615Y-119796151D01*
X169571542Y-119792497D01*
X169576803Y-119789344D01*
X169582347Y-119786722D01*
X169588122Y-119784655D01*
X169594072Y-119783165D01*
X169600139Y-119782265D01*
X169606265Y-119781964D01*
X169612391Y-119782265D01*
X169612391Y-119782265D01*
G37*
D13*
X169827236Y-120153823D03*
D10*
G36*
X169965944Y-119428712D02*
G01*
X169972011Y-119429612D01*
X169977961Y-119431102D01*
X169983736Y-119433169D01*
X169989280Y-119435791D01*
X169994541Y-119438944D01*
X169999468Y-119442598D01*
X170004012Y-119446717D01*
X170534342Y-119977047D01*
X170538461Y-119981591D01*
X170542115Y-119986518D01*
X170545268Y-119991779D01*
X170547890Y-119997323D01*
X170549957Y-120003098D01*
X170551447Y-120009048D01*
X170552347Y-120015115D01*
X170552648Y-120021241D01*
X170552347Y-120027367D01*
X170551447Y-120033434D01*
X170549957Y-120039384D01*
X170547890Y-120045159D01*
X170545268Y-120050703D01*
X170542115Y-120055964D01*
X170538461Y-120060891D01*
X170534342Y-120065435D01*
X170445954Y-120153823D01*
X170441410Y-120157942D01*
X170436483Y-120161596D01*
X170431222Y-120164749D01*
X170425678Y-120167371D01*
X170419903Y-120169438D01*
X170413953Y-120170928D01*
X170407886Y-120171828D01*
X170401760Y-120172129D01*
X170395634Y-120171828D01*
X170389567Y-120170928D01*
X170383617Y-120169438D01*
X170377842Y-120167371D01*
X170372298Y-120164749D01*
X170367037Y-120161596D01*
X170362110Y-120157942D01*
X170357566Y-120153823D01*
X169827236Y-119623493D01*
X169823117Y-119618949D01*
X169819463Y-119614022D01*
X169816310Y-119608761D01*
X169813688Y-119603217D01*
X169811621Y-119597442D01*
X169810131Y-119591492D01*
X169809231Y-119585425D01*
X169808930Y-119579299D01*
X169809231Y-119573173D01*
X169810131Y-119567106D01*
X169811621Y-119561156D01*
X169813688Y-119555381D01*
X169816310Y-119549837D01*
X169819463Y-119544576D01*
X169823117Y-119539649D01*
X169827236Y-119535105D01*
X169915624Y-119446717D01*
X169920168Y-119442598D01*
X169925095Y-119438944D01*
X169930356Y-119435791D01*
X169935900Y-119433169D01*
X169941675Y-119431102D01*
X169947625Y-119429612D01*
X169953692Y-119428712D01*
X169959818Y-119428411D01*
X169965944Y-119428712D01*
X169965944Y-119428712D01*
G37*
D13*
X170180789Y-119800270D03*
D10*
G36*
X170319498Y-119075158D02*
G01*
X170325565Y-119076058D01*
X170331515Y-119077548D01*
X170337290Y-119079615D01*
X170342834Y-119082237D01*
X170348095Y-119085390D01*
X170353022Y-119089044D01*
X170357566Y-119093163D01*
X170887896Y-119623493D01*
X170892015Y-119628037D01*
X170895669Y-119632964D01*
X170898822Y-119638225D01*
X170901444Y-119643769D01*
X170903511Y-119649544D01*
X170905001Y-119655494D01*
X170905901Y-119661561D01*
X170906202Y-119667687D01*
X170905901Y-119673813D01*
X170905001Y-119679880D01*
X170903511Y-119685830D01*
X170901444Y-119691605D01*
X170898822Y-119697149D01*
X170895669Y-119702410D01*
X170892015Y-119707337D01*
X170887896Y-119711881D01*
X170799508Y-119800269D01*
X170794964Y-119804388D01*
X170790037Y-119808042D01*
X170784776Y-119811195D01*
X170779232Y-119813817D01*
X170773457Y-119815884D01*
X170767507Y-119817374D01*
X170761440Y-119818274D01*
X170755314Y-119818575D01*
X170749188Y-119818274D01*
X170743121Y-119817374D01*
X170737171Y-119815884D01*
X170731396Y-119813817D01*
X170725852Y-119811195D01*
X170720591Y-119808042D01*
X170715664Y-119804388D01*
X170711120Y-119800269D01*
X170180790Y-119269939D01*
X170176671Y-119265395D01*
X170173017Y-119260468D01*
X170169864Y-119255207D01*
X170167242Y-119249663D01*
X170165175Y-119243888D01*
X170163685Y-119237938D01*
X170162785Y-119231871D01*
X170162484Y-119225745D01*
X170162785Y-119219619D01*
X170163685Y-119213552D01*
X170165175Y-119207602D01*
X170167242Y-119201827D01*
X170169864Y-119196283D01*
X170173017Y-119191022D01*
X170176671Y-119186095D01*
X170180790Y-119181551D01*
X170269178Y-119093163D01*
X170273722Y-119089044D01*
X170278649Y-119085390D01*
X170283910Y-119082237D01*
X170289454Y-119079615D01*
X170295229Y-119077548D01*
X170301179Y-119076058D01*
X170307246Y-119075158D01*
X170313372Y-119074857D01*
X170319498Y-119075158D01*
X170319498Y-119075158D01*
G37*
D13*
X170534343Y-119446716D03*
D10*
G36*
X170673051Y-118721605D02*
G01*
X170679118Y-118722505D01*
X170685068Y-118723995D01*
X170690843Y-118726062D01*
X170696387Y-118728684D01*
X170701648Y-118731837D01*
X170706575Y-118735491D01*
X170711119Y-118739610D01*
X171241449Y-119269940D01*
X171245568Y-119274484D01*
X171249222Y-119279411D01*
X171252375Y-119284672D01*
X171254997Y-119290216D01*
X171257064Y-119295991D01*
X171258554Y-119301941D01*
X171259454Y-119308008D01*
X171259755Y-119314134D01*
X171259454Y-119320260D01*
X171258554Y-119326327D01*
X171257064Y-119332277D01*
X171254997Y-119338052D01*
X171252375Y-119343596D01*
X171249222Y-119348857D01*
X171245568Y-119353784D01*
X171241449Y-119358328D01*
X171153061Y-119446716D01*
X171148517Y-119450835D01*
X171143590Y-119454489D01*
X171138329Y-119457642D01*
X171132785Y-119460264D01*
X171127010Y-119462331D01*
X171121060Y-119463821D01*
X171114993Y-119464721D01*
X171108867Y-119465022D01*
X171102741Y-119464721D01*
X171096674Y-119463821D01*
X171090724Y-119462331D01*
X171084949Y-119460264D01*
X171079405Y-119457642D01*
X171074144Y-119454489D01*
X171069217Y-119450835D01*
X171064673Y-119446716D01*
X170534343Y-118916386D01*
X170530224Y-118911842D01*
X170526570Y-118906915D01*
X170523417Y-118901654D01*
X170520795Y-118896110D01*
X170518728Y-118890335D01*
X170517238Y-118884385D01*
X170516338Y-118878318D01*
X170516037Y-118872192D01*
X170516338Y-118866066D01*
X170517238Y-118859999D01*
X170518728Y-118854049D01*
X170520795Y-118848274D01*
X170523417Y-118842730D01*
X170526570Y-118837469D01*
X170530224Y-118832542D01*
X170534343Y-118827998D01*
X170622731Y-118739610D01*
X170627275Y-118735491D01*
X170632202Y-118731837D01*
X170637463Y-118728684D01*
X170643007Y-118726062D01*
X170648782Y-118723995D01*
X170654732Y-118722505D01*
X170660799Y-118721605D01*
X170666925Y-118721304D01*
X170673051Y-118721605D01*
X170673051Y-118721605D01*
G37*
D13*
X170887896Y-119093163D03*
D10*
G36*
X171026604Y-118368052D02*
G01*
X171032671Y-118368952D01*
X171038621Y-118370442D01*
X171044396Y-118372509D01*
X171049940Y-118375131D01*
X171055201Y-118378284D01*
X171060128Y-118381938D01*
X171064672Y-118386057D01*
X171595002Y-118916387D01*
X171599121Y-118920931D01*
X171602775Y-118925858D01*
X171605928Y-118931119D01*
X171608550Y-118936663D01*
X171610617Y-118942438D01*
X171612107Y-118948388D01*
X171613007Y-118954455D01*
X171613308Y-118960581D01*
X171613007Y-118966707D01*
X171612107Y-118972774D01*
X171610617Y-118978724D01*
X171608550Y-118984499D01*
X171605928Y-118990043D01*
X171602775Y-118995304D01*
X171599121Y-119000231D01*
X171595002Y-119004775D01*
X171506614Y-119093163D01*
X171502070Y-119097282D01*
X171497143Y-119100936D01*
X171491882Y-119104089D01*
X171486338Y-119106711D01*
X171480563Y-119108778D01*
X171474613Y-119110268D01*
X171468546Y-119111168D01*
X171462420Y-119111469D01*
X171456294Y-119111168D01*
X171450227Y-119110268D01*
X171444277Y-119108778D01*
X171438502Y-119106711D01*
X171432958Y-119104089D01*
X171427697Y-119100936D01*
X171422770Y-119097282D01*
X171418226Y-119093163D01*
X170887896Y-118562833D01*
X170883777Y-118558289D01*
X170880123Y-118553362D01*
X170876970Y-118548101D01*
X170874348Y-118542557D01*
X170872281Y-118536782D01*
X170870791Y-118530832D01*
X170869891Y-118524765D01*
X170869590Y-118518639D01*
X170869891Y-118512513D01*
X170870791Y-118506446D01*
X170872281Y-118500496D01*
X170874348Y-118494721D01*
X170876970Y-118489177D01*
X170880123Y-118483916D01*
X170883777Y-118478989D01*
X170887896Y-118474445D01*
X170976284Y-118386057D01*
X170980828Y-118381938D01*
X170985755Y-118378284D01*
X170991016Y-118375131D01*
X170996560Y-118372509D01*
X171002335Y-118370442D01*
X171008285Y-118368952D01*
X171014352Y-118368052D01*
X171020478Y-118367751D01*
X171026604Y-118368052D01*
X171026604Y-118368052D01*
G37*
D13*
X171241449Y-118739610D03*
D10*
G36*
X171380158Y-118014498D02*
G01*
X171386225Y-118015398D01*
X171392175Y-118016888D01*
X171397950Y-118018955D01*
X171403494Y-118021577D01*
X171408755Y-118024730D01*
X171413682Y-118028384D01*
X171418226Y-118032503D01*
X171948556Y-118562833D01*
X171952675Y-118567377D01*
X171956329Y-118572304D01*
X171959482Y-118577565D01*
X171962104Y-118583109D01*
X171964171Y-118588884D01*
X171965661Y-118594834D01*
X171966561Y-118600901D01*
X171966862Y-118607027D01*
X171966561Y-118613153D01*
X171965661Y-118619220D01*
X171964171Y-118625170D01*
X171962104Y-118630945D01*
X171959482Y-118636489D01*
X171956329Y-118641750D01*
X171952675Y-118646677D01*
X171948556Y-118651221D01*
X171860168Y-118739609D01*
X171855624Y-118743728D01*
X171850697Y-118747382D01*
X171845436Y-118750535D01*
X171839892Y-118753157D01*
X171834117Y-118755224D01*
X171828167Y-118756714D01*
X171822100Y-118757614D01*
X171815974Y-118757915D01*
X171809848Y-118757614D01*
X171803781Y-118756714D01*
X171797831Y-118755224D01*
X171792056Y-118753157D01*
X171786512Y-118750535D01*
X171781251Y-118747382D01*
X171776324Y-118743728D01*
X171771780Y-118739609D01*
X171241450Y-118209279D01*
X171237331Y-118204735D01*
X171233677Y-118199808D01*
X171230524Y-118194547D01*
X171227902Y-118189003D01*
X171225835Y-118183228D01*
X171224345Y-118177278D01*
X171223445Y-118171211D01*
X171223144Y-118165085D01*
X171223445Y-118158959D01*
X171224345Y-118152892D01*
X171225835Y-118146942D01*
X171227902Y-118141167D01*
X171230524Y-118135623D01*
X171233677Y-118130362D01*
X171237331Y-118125435D01*
X171241450Y-118120891D01*
X171329838Y-118032503D01*
X171334382Y-118028384D01*
X171339309Y-118024730D01*
X171344570Y-118021577D01*
X171350114Y-118018955D01*
X171355889Y-118016888D01*
X171361839Y-118015398D01*
X171367906Y-118014498D01*
X171374032Y-118014197D01*
X171380158Y-118014498D01*
X171380158Y-118014498D01*
G37*
D13*
X171595003Y-118386056D03*
D10*
G36*
X171733711Y-117660945D02*
G01*
X171739778Y-117661845D01*
X171745728Y-117663335D01*
X171751503Y-117665402D01*
X171757047Y-117668024D01*
X171762308Y-117671177D01*
X171767235Y-117674831D01*
X171771779Y-117678950D01*
X172302109Y-118209280D01*
X172306228Y-118213824D01*
X172309882Y-118218751D01*
X172313035Y-118224012D01*
X172315657Y-118229556D01*
X172317724Y-118235331D01*
X172319214Y-118241281D01*
X172320114Y-118247348D01*
X172320415Y-118253474D01*
X172320114Y-118259600D01*
X172319214Y-118265667D01*
X172317724Y-118271617D01*
X172315657Y-118277392D01*
X172313035Y-118282936D01*
X172309882Y-118288197D01*
X172306228Y-118293124D01*
X172302109Y-118297668D01*
X172213721Y-118386056D01*
X172209177Y-118390175D01*
X172204250Y-118393829D01*
X172198989Y-118396982D01*
X172193445Y-118399604D01*
X172187670Y-118401671D01*
X172181720Y-118403161D01*
X172175653Y-118404061D01*
X172169527Y-118404362D01*
X172163401Y-118404061D01*
X172157334Y-118403161D01*
X172151384Y-118401671D01*
X172145609Y-118399604D01*
X172140065Y-118396982D01*
X172134804Y-118393829D01*
X172129877Y-118390175D01*
X172125333Y-118386056D01*
X171595003Y-117855726D01*
X171590884Y-117851182D01*
X171587230Y-117846255D01*
X171584077Y-117840994D01*
X171581455Y-117835450D01*
X171579388Y-117829675D01*
X171577898Y-117823725D01*
X171576998Y-117817658D01*
X171576697Y-117811532D01*
X171576998Y-117805406D01*
X171577898Y-117799339D01*
X171579388Y-117793389D01*
X171581455Y-117787614D01*
X171584077Y-117782070D01*
X171587230Y-117776809D01*
X171590884Y-117771882D01*
X171595003Y-117767338D01*
X171683391Y-117678950D01*
X171687935Y-117674831D01*
X171692862Y-117671177D01*
X171698123Y-117668024D01*
X171703667Y-117665402D01*
X171709442Y-117663335D01*
X171715392Y-117661845D01*
X171721459Y-117660945D01*
X171727585Y-117660644D01*
X171733711Y-117660945D01*
X171733711Y-117660945D01*
G37*
D13*
X171948556Y-118032503D03*
D10*
G36*
X172087265Y-117307391D02*
G01*
X172093332Y-117308291D01*
X172099282Y-117309781D01*
X172105057Y-117311848D01*
X172110601Y-117314470D01*
X172115862Y-117317623D01*
X172120789Y-117321277D01*
X172125333Y-117325396D01*
X172655663Y-117855726D01*
X172659782Y-117860270D01*
X172663436Y-117865197D01*
X172666589Y-117870458D01*
X172669211Y-117876002D01*
X172671278Y-117881777D01*
X172672768Y-117887727D01*
X172673668Y-117893794D01*
X172673969Y-117899920D01*
X172673668Y-117906046D01*
X172672768Y-117912113D01*
X172671278Y-117918063D01*
X172669211Y-117923838D01*
X172666589Y-117929382D01*
X172663436Y-117934643D01*
X172659782Y-117939570D01*
X172655663Y-117944114D01*
X172567275Y-118032502D01*
X172562731Y-118036621D01*
X172557804Y-118040275D01*
X172552543Y-118043428D01*
X172546999Y-118046050D01*
X172541224Y-118048117D01*
X172535274Y-118049607D01*
X172529207Y-118050507D01*
X172523081Y-118050808D01*
X172516955Y-118050507D01*
X172510888Y-118049607D01*
X172504938Y-118048117D01*
X172499163Y-118046050D01*
X172493619Y-118043428D01*
X172488358Y-118040275D01*
X172483431Y-118036621D01*
X172478887Y-118032502D01*
X171948557Y-117502172D01*
X171944438Y-117497628D01*
X171940784Y-117492701D01*
X171937631Y-117487440D01*
X171935009Y-117481896D01*
X171932942Y-117476121D01*
X171931452Y-117470171D01*
X171930552Y-117464104D01*
X171930251Y-117457978D01*
X171930552Y-117451852D01*
X171931452Y-117445785D01*
X171932942Y-117439835D01*
X171935009Y-117434060D01*
X171937631Y-117428516D01*
X171940784Y-117423255D01*
X171944438Y-117418328D01*
X171948557Y-117413784D01*
X172036945Y-117325396D01*
X172041489Y-117321277D01*
X172046416Y-117317623D01*
X172051677Y-117314470D01*
X172057221Y-117311848D01*
X172062996Y-117309781D01*
X172068946Y-117308291D01*
X172075013Y-117307391D01*
X172081139Y-117307090D01*
X172087265Y-117307391D01*
X172087265Y-117307391D01*
G37*
D13*
X172302110Y-117678949D03*
D10*
G36*
X172440818Y-116953838D02*
G01*
X172446885Y-116954738D01*
X172452835Y-116956228D01*
X172458610Y-116958295D01*
X172464154Y-116960917D01*
X172469415Y-116964070D01*
X172474342Y-116967724D01*
X172478886Y-116971843D01*
X173009216Y-117502173D01*
X173013335Y-117506717D01*
X173016989Y-117511644D01*
X173020142Y-117516905D01*
X173022764Y-117522449D01*
X173024831Y-117528224D01*
X173026321Y-117534174D01*
X173027221Y-117540241D01*
X173027522Y-117546367D01*
X173027221Y-117552493D01*
X173026321Y-117558560D01*
X173024831Y-117564510D01*
X173022764Y-117570285D01*
X173020142Y-117575829D01*
X173016989Y-117581090D01*
X173013335Y-117586017D01*
X173009216Y-117590561D01*
X172920828Y-117678949D01*
X172916284Y-117683068D01*
X172911357Y-117686722D01*
X172906096Y-117689875D01*
X172900552Y-117692497D01*
X172894777Y-117694564D01*
X172888827Y-117696054D01*
X172882760Y-117696954D01*
X172876634Y-117697255D01*
X172870508Y-117696954D01*
X172864441Y-117696054D01*
X172858491Y-117694564D01*
X172852716Y-117692497D01*
X172847172Y-117689875D01*
X172841911Y-117686722D01*
X172836984Y-117683068D01*
X172832440Y-117678949D01*
X172302110Y-117148619D01*
X172297991Y-117144075D01*
X172294337Y-117139148D01*
X172291184Y-117133887D01*
X172288562Y-117128343D01*
X172286495Y-117122568D01*
X172285005Y-117116618D01*
X172284105Y-117110551D01*
X172283804Y-117104425D01*
X172284105Y-117098299D01*
X172285005Y-117092232D01*
X172286495Y-117086282D01*
X172288562Y-117080507D01*
X172291184Y-117074963D01*
X172294337Y-117069702D01*
X172297991Y-117064775D01*
X172302110Y-117060231D01*
X172390498Y-116971843D01*
X172395042Y-116967724D01*
X172399969Y-116964070D01*
X172405230Y-116960917D01*
X172410774Y-116958295D01*
X172416549Y-116956228D01*
X172422499Y-116954738D01*
X172428566Y-116953838D01*
X172434692Y-116953537D01*
X172440818Y-116953838D01*
X172440818Y-116953838D01*
G37*
D13*
X172655663Y-117325396D03*
D10*
G36*
X172794371Y-116600285D02*
G01*
X172800438Y-116601185D01*
X172806388Y-116602675D01*
X172812163Y-116604742D01*
X172817707Y-116607364D01*
X172822968Y-116610517D01*
X172827895Y-116614171D01*
X172832439Y-116618290D01*
X173362769Y-117148620D01*
X173366888Y-117153164D01*
X173370542Y-117158091D01*
X173373695Y-117163352D01*
X173376317Y-117168896D01*
X173378384Y-117174671D01*
X173379874Y-117180621D01*
X173380774Y-117186688D01*
X173381075Y-117192814D01*
X173380774Y-117198940D01*
X173379874Y-117205007D01*
X173378384Y-117210957D01*
X173376317Y-117216732D01*
X173373695Y-117222276D01*
X173370542Y-117227537D01*
X173366888Y-117232464D01*
X173362769Y-117237008D01*
X173274381Y-117325396D01*
X173269837Y-117329515D01*
X173264910Y-117333169D01*
X173259649Y-117336322D01*
X173254105Y-117338944D01*
X173248330Y-117341011D01*
X173242380Y-117342501D01*
X173236313Y-117343401D01*
X173230187Y-117343702D01*
X173224061Y-117343401D01*
X173217994Y-117342501D01*
X173212044Y-117341011D01*
X173206269Y-117338944D01*
X173200725Y-117336322D01*
X173195464Y-117333169D01*
X173190537Y-117329515D01*
X173185993Y-117325396D01*
X172655663Y-116795066D01*
X172651544Y-116790522D01*
X172647890Y-116785595D01*
X172644737Y-116780334D01*
X172642115Y-116774790D01*
X172640048Y-116769015D01*
X172638558Y-116763065D01*
X172637658Y-116756998D01*
X172637357Y-116750872D01*
X172637658Y-116744746D01*
X172638558Y-116738679D01*
X172640048Y-116732729D01*
X172642115Y-116726954D01*
X172644737Y-116721410D01*
X172647890Y-116716149D01*
X172651544Y-116711222D01*
X172655663Y-116706678D01*
X172744051Y-116618290D01*
X172748595Y-116614171D01*
X172753522Y-116610517D01*
X172758783Y-116607364D01*
X172764327Y-116604742D01*
X172770102Y-116602675D01*
X172776052Y-116601185D01*
X172782119Y-116600285D01*
X172788245Y-116599984D01*
X172794371Y-116600285D01*
X172794371Y-116600285D01*
G37*
D13*
X173009216Y-116971843D03*
D10*
G36*
X173147925Y-116246731D02*
G01*
X173153992Y-116247631D01*
X173159942Y-116249121D01*
X173165717Y-116251188D01*
X173171261Y-116253810D01*
X173176522Y-116256963D01*
X173181449Y-116260617D01*
X173185993Y-116264736D01*
X173716323Y-116795066D01*
X173720442Y-116799610D01*
X173724096Y-116804537D01*
X173727249Y-116809798D01*
X173729871Y-116815342D01*
X173731938Y-116821117D01*
X173733428Y-116827067D01*
X173734328Y-116833134D01*
X173734629Y-116839260D01*
X173734328Y-116845386D01*
X173733428Y-116851453D01*
X173731938Y-116857403D01*
X173729871Y-116863178D01*
X173727249Y-116868722D01*
X173724096Y-116873983D01*
X173720442Y-116878910D01*
X173716323Y-116883454D01*
X173627935Y-116971842D01*
X173623391Y-116975961D01*
X173618464Y-116979615D01*
X173613203Y-116982768D01*
X173607659Y-116985390D01*
X173601884Y-116987457D01*
X173595934Y-116988947D01*
X173589867Y-116989847D01*
X173583741Y-116990148D01*
X173577615Y-116989847D01*
X173571548Y-116988947D01*
X173565598Y-116987457D01*
X173559823Y-116985390D01*
X173554279Y-116982768D01*
X173549018Y-116979615D01*
X173544091Y-116975961D01*
X173539547Y-116971842D01*
X173009217Y-116441512D01*
X173005098Y-116436968D01*
X173001444Y-116432041D01*
X172998291Y-116426780D01*
X172995669Y-116421236D01*
X172993602Y-116415461D01*
X172992112Y-116409511D01*
X172991212Y-116403444D01*
X172990911Y-116397318D01*
X172991212Y-116391192D01*
X172992112Y-116385125D01*
X172993602Y-116379175D01*
X172995669Y-116373400D01*
X172998291Y-116367856D01*
X173001444Y-116362595D01*
X173005098Y-116357668D01*
X173009217Y-116353124D01*
X173097605Y-116264736D01*
X173102149Y-116260617D01*
X173107076Y-116256963D01*
X173112337Y-116253810D01*
X173117881Y-116251188D01*
X173123656Y-116249121D01*
X173129606Y-116247631D01*
X173135673Y-116246731D01*
X173141799Y-116246430D01*
X173147925Y-116246731D01*
X173147925Y-116246731D01*
G37*
D13*
X173362770Y-116618289D03*
D10*
G36*
X173501478Y-115893178D02*
G01*
X173507545Y-115894078D01*
X173513495Y-115895568D01*
X173519270Y-115897635D01*
X173524814Y-115900257D01*
X173530075Y-115903410D01*
X173535002Y-115907064D01*
X173539546Y-115911183D01*
X174069876Y-116441513D01*
X174073995Y-116446057D01*
X174077649Y-116450984D01*
X174080802Y-116456245D01*
X174083424Y-116461789D01*
X174085491Y-116467564D01*
X174086981Y-116473514D01*
X174087881Y-116479581D01*
X174088182Y-116485707D01*
X174087881Y-116491833D01*
X174086981Y-116497900D01*
X174085491Y-116503850D01*
X174083424Y-116509625D01*
X174080802Y-116515169D01*
X174077649Y-116520430D01*
X174073995Y-116525357D01*
X174069876Y-116529901D01*
X173981488Y-116618289D01*
X173976944Y-116622408D01*
X173972017Y-116626062D01*
X173966756Y-116629215D01*
X173961212Y-116631837D01*
X173955437Y-116633904D01*
X173949487Y-116635394D01*
X173943420Y-116636294D01*
X173937294Y-116636595D01*
X173931168Y-116636294D01*
X173925101Y-116635394D01*
X173919151Y-116633904D01*
X173913376Y-116631837D01*
X173907832Y-116629215D01*
X173902571Y-116626062D01*
X173897644Y-116622408D01*
X173893100Y-116618289D01*
X173362770Y-116087959D01*
X173358651Y-116083415D01*
X173354997Y-116078488D01*
X173351844Y-116073227D01*
X173349222Y-116067683D01*
X173347155Y-116061908D01*
X173345665Y-116055958D01*
X173344765Y-116049891D01*
X173344464Y-116043765D01*
X173344765Y-116037639D01*
X173345665Y-116031572D01*
X173347155Y-116025622D01*
X173349222Y-116019847D01*
X173351844Y-116014303D01*
X173354997Y-116009042D01*
X173358651Y-116004115D01*
X173362770Y-115999571D01*
X173451158Y-115911183D01*
X173455702Y-115907064D01*
X173460629Y-115903410D01*
X173465890Y-115900257D01*
X173471434Y-115897635D01*
X173477209Y-115895568D01*
X173483159Y-115894078D01*
X173489226Y-115893178D01*
X173495352Y-115892877D01*
X173501478Y-115893178D01*
X173501478Y-115893178D01*
G37*
D13*
X173716323Y-116264736D03*
D10*
G36*
X173943420Y-114920906D02*
G01*
X173949487Y-114921806D01*
X173955437Y-114923296D01*
X173961212Y-114925363D01*
X173966756Y-114927985D01*
X173972017Y-114931138D01*
X173976944Y-114934792D01*
X173981488Y-114938911D01*
X174069876Y-115027299D01*
X174073995Y-115031843D01*
X174077649Y-115036770D01*
X174080802Y-115042031D01*
X174083424Y-115047575D01*
X174085491Y-115053350D01*
X174086981Y-115059300D01*
X174087881Y-115065367D01*
X174088182Y-115071493D01*
X174087881Y-115077619D01*
X174086981Y-115083686D01*
X174085491Y-115089636D01*
X174083424Y-115095411D01*
X174080802Y-115100955D01*
X174077649Y-115106216D01*
X174073995Y-115111143D01*
X174069876Y-115115687D01*
X173539546Y-115646017D01*
X173535002Y-115650136D01*
X173530075Y-115653790D01*
X173524814Y-115656943D01*
X173519270Y-115659565D01*
X173513495Y-115661632D01*
X173507545Y-115663122D01*
X173501478Y-115664022D01*
X173495352Y-115664323D01*
X173489226Y-115664022D01*
X173483159Y-115663122D01*
X173477209Y-115661632D01*
X173471434Y-115659565D01*
X173465890Y-115656943D01*
X173460629Y-115653790D01*
X173455702Y-115650136D01*
X173451158Y-115646017D01*
X173362770Y-115557629D01*
X173358651Y-115553085D01*
X173354997Y-115548158D01*
X173351844Y-115542897D01*
X173349222Y-115537353D01*
X173347155Y-115531578D01*
X173345665Y-115525628D01*
X173344765Y-115519561D01*
X173344464Y-115513435D01*
X173344765Y-115507309D01*
X173345665Y-115501242D01*
X173347155Y-115495292D01*
X173349222Y-115489517D01*
X173351844Y-115483973D01*
X173354997Y-115478712D01*
X173358651Y-115473785D01*
X173362770Y-115469241D01*
X173893100Y-114938911D01*
X173897644Y-114934792D01*
X173902571Y-114931138D01*
X173907832Y-114927985D01*
X173913376Y-114925363D01*
X173919151Y-114923296D01*
X173925101Y-114921806D01*
X173931168Y-114920906D01*
X173937294Y-114920605D01*
X173943420Y-114920906D01*
X173943420Y-114920906D01*
G37*
D13*
X173716323Y-115292464D03*
D10*
G36*
X173589867Y-114567353D02*
G01*
X173595934Y-114568253D01*
X173601884Y-114569743D01*
X173607659Y-114571810D01*
X173613203Y-114574432D01*
X173618464Y-114577585D01*
X173623391Y-114581239D01*
X173627935Y-114585358D01*
X173716323Y-114673746D01*
X173720442Y-114678290D01*
X173724096Y-114683217D01*
X173727249Y-114688478D01*
X173729871Y-114694022D01*
X173731938Y-114699797D01*
X173733428Y-114705747D01*
X173734328Y-114711814D01*
X173734629Y-114717940D01*
X173734328Y-114724066D01*
X173733428Y-114730133D01*
X173731938Y-114736083D01*
X173729871Y-114741858D01*
X173727249Y-114747402D01*
X173724096Y-114752663D01*
X173720442Y-114757590D01*
X173716323Y-114762134D01*
X173185993Y-115292464D01*
X173181449Y-115296583D01*
X173176522Y-115300237D01*
X173171261Y-115303390D01*
X173165717Y-115306012D01*
X173159942Y-115308079D01*
X173153992Y-115309569D01*
X173147925Y-115310469D01*
X173141799Y-115310770D01*
X173135673Y-115310469D01*
X173129606Y-115309569D01*
X173123656Y-115308079D01*
X173117881Y-115306012D01*
X173112337Y-115303390D01*
X173107076Y-115300237D01*
X173102149Y-115296583D01*
X173097605Y-115292464D01*
X173009217Y-115204076D01*
X173005098Y-115199532D01*
X173001444Y-115194605D01*
X172998291Y-115189344D01*
X172995669Y-115183800D01*
X172993602Y-115178025D01*
X172992112Y-115172075D01*
X172991212Y-115166008D01*
X172990911Y-115159882D01*
X172991212Y-115153756D01*
X172992112Y-115147689D01*
X172993602Y-115141739D01*
X172995669Y-115135964D01*
X172998291Y-115130420D01*
X173001444Y-115125159D01*
X173005098Y-115120232D01*
X173009217Y-115115688D01*
X173539547Y-114585358D01*
X173544091Y-114581239D01*
X173549018Y-114577585D01*
X173554279Y-114574432D01*
X173559823Y-114571810D01*
X173565598Y-114569743D01*
X173571548Y-114568253D01*
X173577615Y-114567353D01*
X173583741Y-114567052D01*
X173589867Y-114567353D01*
X173589867Y-114567353D01*
G37*
D13*
X173362770Y-114938911D03*
D10*
G36*
X173236313Y-114213799D02*
G01*
X173242380Y-114214699D01*
X173248330Y-114216189D01*
X173254105Y-114218256D01*
X173259649Y-114220878D01*
X173264910Y-114224031D01*
X173269837Y-114227685D01*
X173274381Y-114231804D01*
X173362769Y-114320192D01*
X173366888Y-114324736D01*
X173370542Y-114329663D01*
X173373695Y-114334924D01*
X173376317Y-114340468D01*
X173378384Y-114346243D01*
X173379874Y-114352193D01*
X173380774Y-114358260D01*
X173381075Y-114364386D01*
X173380774Y-114370512D01*
X173379874Y-114376579D01*
X173378384Y-114382529D01*
X173376317Y-114388304D01*
X173373695Y-114393848D01*
X173370542Y-114399109D01*
X173366888Y-114404036D01*
X173362769Y-114408580D01*
X172832439Y-114938910D01*
X172827895Y-114943029D01*
X172822968Y-114946683D01*
X172817707Y-114949836D01*
X172812163Y-114952458D01*
X172806388Y-114954525D01*
X172800438Y-114956015D01*
X172794371Y-114956915D01*
X172788245Y-114957216D01*
X172782119Y-114956915D01*
X172776052Y-114956015D01*
X172770102Y-114954525D01*
X172764327Y-114952458D01*
X172758783Y-114949836D01*
X172753522Y-114946683D01*
X172748595Y-114943029D01*
X172744051Y-114938910D01*
X172655663Y-114850522D01*
X172651544Y-114845978D01*
X172647890Y-114841051D01*
X172644737Y-114835790D01*
X172642115Y-114830246D01*
X172640048Y-114824471D01*
X172638558Y-114818521D01*
X172637658Y-114812454D01*
X172637357Y-114806328D01*
X172637658Y-114800202D01*
X172638558Y-114794135D01*
X172640048Y-114788185D01*
X172642115Y-114782410D01*
X172644737Y-114776866D01*
X172647890Y-114771605D01*
X172651544Y-114766678D01*
X172655663Y-114762134D01*
X173185993Y-114231804D01*
X173190537Y-114227685D01*
X173195464Y-114224031D01*
X173200725Y-114220878D01*
X173206269Y-114218256D01*
X173212044Y-114216189D01*
X173217994Y-114214699D01*
X173224061Y-114213799D01*
X173230187Y-114213498D01*
X173236313Y-114213799D01*
X173236313Y-114213799D01*
G37*
D13*
X173009216Y-114585357D03*
D10*
G36*
X172882760Y-113860246D02*
G01*
X172888827Y-113861146D01*
X172894777Y-113862636D01*
X172900552Y-113864703D01*
X172906096Y-113867325D01*
X172911357Y-113870478D01*
X172916284Y-113874132D01*
X172920828Y-113878251D01*
X173009216Y-113966639D01*
X173013335Y-113971183D01*
X173016989Y-113976110D01*
X173020142Y-113981371D01*
X173022764Y-113986915D01*
X173024831Y-113992690D01*
X173026321Y-113998640D01*
X173027221Y-114004707D01*
X173027522Y-114010833D01*
X173027221Y-114016959D01*
X173026321Y-114023026D01*
X173024831Y-114028976D01*
X173022764Y-114034751D01*
X173020142Y-114040295D01*
X173016989Y-114045556D01*
X173013335Y-114050483D01*
X173009216Y-114055027D01*
X172478886Y-114585357D01*
X172474342Y-114589476D01*
X172469415Y-114593130D01*
X172464154Y-114596283D01*
X172458610Y-114598905D01*
X172452835Y-114600972D01*
X172446885Y-114602462D01*
X172440818Y-114603362D01*
X172434692Y-114603663D01*
X172428566Y-114603362D01*
X172422499Y-114602462D01*
X172416549Y-114600972D01*
X172410774Y-114598905D01*
X172405230Y-114596283D01*
X172399969Y-114593130D01*
X172395042Y-114589476D01*
X172390498Y-114585357D01*
X172302110Y-114496969D01*
X172297991Y-114492425D01*
X172294337Y-114487498D01*
X172291184Y-114482237D01*
X172288562Y-114476693D01*
X172286495Y-114470918D01*
X172285005Y-114464968D01*
X172284105Y-114458901D01*
X172283804Y-114452775D01*
X172284105Y-114446649D01*
X172285005Y-114440582D01*
X172286495Y-114434632D01*
X172288562Y-114428857D01*
X172291184Y-114423313D01*
X172294337Y-114418052D01*
X172297991Y-114413125D01*
X172302110Y-114408581D01*
X172832440Y-113878251D01*
X172836984Y-113874132D01*
X172841911Y-113870478D01*
X172847172Y-113867325D01*
X172852716Y-113864703D01*
X172858491Y-113862636D01*
X172864441Y-113861146D01*
X172870508Y-113860246D01*
X172876634Y-113859945D01*
X172882760Y-113860246D01*
X172882760Y-113860246D01*
G37*
D13*
X172655663Y-114231804D03*
D10*
G36*
X172529207Y-113506693D02*
G01*
X172535274Y-113507593D01*
X172541224Y-113509083D01*
X172546999Y-113511150D01*
X172552543Y-113513772D01*
X172557804Y-113516925D01*
X172562731Y-113520579D01*
X172567275Y-113524698D01*
X172655663Y-113613086D01*
X172659782Y-113617630D01*
X172663436Y-113622557D01*
X172666589Y-113627818D01*
X172669211Y-113633362D01*
X172671278Y-113639137D01*
X172672768Y-113645087D01*
X172673668Y-113651154D01*
X172673969Y-113657280D01*
X172673668Y-113663406D01*
X172672768Y-113669473D01*
X172671278Y-113675423D01*
X172669211Y-113681198D01*
X172666589Y-113686742D01*
X172663436Y-113692003D01*
X172659782Y-113696930D01*
X172655663Y-113701474D01*
X172125333Y-114231804D01*
X172120789Y-114235923D01*
X172115862Y-114239577D01*
X172110601Y-114242730D01*
X172105057Y-114245352D01*
X172099282Y-114247419D01*
X172093332Y-114248909D01*
X172087265Y-114249809D01*
X172081139Y-114250110D01*
X172075013Y-114249809D01*
X172068946Y-114248909D01*
X172062996Y-114247419D01*
X172057221Y-114245352D01*
X172051677Y-114242730D01*
X172046416Y-114239577D01*
X172041489Y-114235923D01*
X172036945Y-114231804D01*
X171948557Y-114143416D01*
X171944438Y-114138872D01*
X171940784Y-114133945D01*
X171937631Y-114128684D01*
X171935009Y-114123140D01*
X171932942Y-114117365D01*
X171931452Y-114111415D01*
X171930552Y-114105348D01*
X171930251Y-114099222D01*
X171930552Y-114093096D01*
X171931452Y-114087029D01*
X171932942Y-114081079D01*
X171935009Y-114075304D01*
X171937631Y-114069760D01*
X171940784Y-114064499D01*
X171944438Y-114059572D01*
X171948557Y-114055028D01*
X172478887Y-113524698D01*
X172483431Y-113520579D01*
X172488358Y-113516925D01*
X172493619Y-113513772D01*
X172499163Y-113511150D01*
X172504938Y-113509083D01*
X172510888Y-113507593D01*
X172516955Y-113506693D01*
X172523081Y-113506392D01*
X172529207Y-113506693D01*
X172529207Y-113506693D01*
G37*
D13*
X172302110Y-113878251D03*
D10*
G36*
X172175653Y-113153139D02*
G01*
X172181720Y-113154039D01*
X172187670Y-113155529D01*
X172193445Y-113157596D01*
X172198989Y-113160218D01*
X172204250Y-113163371D01*
X172209177Y-113167025D01*
X172213721Y-113171144D01*
X172302109Y-113259532D01*
X172306228Y-113264076D01*
X172309882Y-113269003D01*
X172313035Y-113274264D01*
X172315657Y-113279808D01*
X172317724Y-113285583D01*
X172319214Y-113291533D01*
X172320114Y-113297600D01*
X172320415Y-113303726D01*
X172320114Y-113309852D01*
X172319214Y-113315919D01*
X172317724Y-113321869D01*
X172315657Y-113327644D01*
X172313035Y-113333188D01*
X172309882Y-113338449D01*
X172306228Y-113343376D01*
X172302109Y-113347920D01*
X171771779Y-113878250D01*
X171767235Y-113882369D01*
X171762308Y-113886023D01*
X171757047Y-113889176D01*
X171751503Y-113891798D01*
X171745728Y-113893865D01*
X171739778Y-113895355D01*
X171733711Y-113896255D01*
X171727585Y-113896556D01*
X171721459Y-113896255D01*
X171715392Y-113895355D01*
X171709442Y-113893865D01*
X171703667Y-113891798D01*
X171698123Y-113889176D01*
X171692862Y-113886023D01*
X171687935Y-113882369D01*
X171683391Y-113878250D01*
X171595003Y-113789862D01*
X171590884Y-113785318D01*
X171587230Y-113780391D01*
X171584077Y-113775130D01*
X171581455Y-113769586D01*
X171579388Y-113763811D01*
X171577898Y-113757861D01*
X171576998Y-113751794D01*
X171576697Y-113745668D01*
X171576998Y-113739542D01*
X171577898Y-113733475D01*
X171579388Y-113727525D01*
X171581455Y-113721750D01*
X171584077Y-113716206D01*
X171587230Y-113710945D01*
X171590884Y-113706018D01*
X171595003Y-113701474D01*
X172125333Y-113171144D01*
X172129877Y-113167025D01*
X172134804Y-113163371D01*
X172140065Y-113160218D01*
X172145609Y-113157596D01*
X172151384Y-113155529D01*
X172157334Y-113154039D01*
X172163401Y-113153139D01*
X172169527Y-113152838D01*
X172175653Y-113153139D01*
X172175653Y-113153139D01*
G37*
D13*
X171948556Y-113524697D03*
D10*
G36*
X171822100Y-112799586D02*
G01*
X171828167Y-112800486D01*
X171834117Y-112801976D01*
X171839892Y-112804043D01*
X171845436Y-112806665D01*
X171850697Y-112809818D01*
X171855624Y-112813472D01*
X171860168Y-112817591D01*
X171948556Y-112905979D01*
X171952675Y-112910523D01*
X171956329Y-112915450D01*
X171959482Y-112920711D01*
X171962104Y-112926255D01*
X171964171Y-112932030D01*
X171965661Y-112937980D01*
X171966561Y-112944047D01*
X171966862Y-112950173D01*
X171966561Y-112956299D01*
X171965661Y-112962366D01*
X171964171Y-112968316D01*
X171962104Y-112974091D01*
X171959482Y-112979635D01*
X171956329Y-112984896D01*
X171952675Y-112989823D01*
X171948556Y-112994367D01*
X171418226Y-113524697D01*
X171413682Y-113528816D01*
X171408755Y-113532470D01*
X171403494Y-113535623D01*
X171397950Y-113538245D01*
X171392175Y-113540312D01*
X171386225Y-113541802D01*
X171380158Y-113542702D01*
X171374032Y-113543003D01*
X171367906Y-113542702D01*
X171361839Y-113541802D01*
X171355889Y-113540312D01*
X171350114Y-113538245D01*
X171344570Y-113535623D01*
X171339309Y-113532470D01*
X171334382Y-113528816D01*
X171329838Y-113524697D01*
X171241450Y-113436309D01*
X171237331Y-113431765D01*
X171233677Y-113426838D01*
X171230524Y-113421577D01*
X171227902Y-113416033D01*
X171225835Y-113410258D01*
X171224345Y-113404308D01*
X171223445Y-113398241D01*
X171223144Y-113392115D01*
X171223445Y-113385989D01*
X171224345Y-113379922D01*
X171225835Y-113373972D01*
X171227902Y-113368197D01*
X171230524Y-113362653D01*
X171233677Y-113357392D01*
X171237331Y-113352465D01*
X171241450Y-113347921D01*
X171771780Y-112817591D01*
X171776324Y-112813472D01*
X171781251Y-112809818D01*
X171786512Y-112806665D01*
X171792056Y-112804043D01*
X171797831Y-112801976D01*
X171803781Y-112800486D01*
X171809848Y-112799586D01*
X171815974Y-112799285D01*
X171822100Y-112799586D01*
X171822100Y-112799586D01*
G37*
D13*
X171595003Y-113171144D03*
D10*
G36*
X171468546Y-112446032D02*
G01*
X171474613Y-112446932D01*
X171480563Y-112448422D01*
X171486338Y-112450489D01*
X171491882Y-112453111D01*
X171497143Y-112456264D01*
X171502070Y-112459918D01*
X171506614Y-112464037D01*
X171595002Y-112552425D01*
X171599121Y-112556969D01*
X171602775Y-112561896D01*
X171605928Y-112567157D01*
X171608550Y-112572701D01*
X171610617Y-112578476D01*
X171612107Y-112584426D01*
X171613007Y-112590493D01*
X171613308Y-112596619D01*
X171613007Y-112602745D01*
X171612107Y-112608812D01*
X171610617Y-112614762D01*
X171608550Y-112620537D01*
X171605928Y-112626081D01*
X171602775Y-112631342D01*
X171599121Y-112636269D01*
X171595002Y-112640813D01*
X171064672Y-113171143D01*
X171060128Y-113175262D01*
X171055201Y-113178916D01*
X171049940Y-113182069D01*
X171044396Y-113184691D01*
X171038621Y-113186758D01*
X171032671Y-113188248D01*
X171026604Y-113189148D01*
X171020478Y-113189449D01*
X171014352Y-113189148D01*
X171008285Y-113188248D01*
X171002335Y-113186758D01*
X170996560Y-113184691D01*
X170991016Y-113182069D01*
X170985755Y-113178916D01*
X170980828Y-113175262D01*
X170976284Y-113171143D01*
X170887896Y-113082755D01*
X170883777Y-113078211D01*
X170880123Y-113073284D01*
X170876970Y-113068023D01*
X170874348Y-113062479D01*
X170872281Y-113056704D01*
X170870791Y-113050754D01*
X170869891Y-113044687D01*
X170869590Y-113038561D01*
X170869891Y-113032435D01*
X170870791Y-113026368D01*
X170872281Y-113020418D01*
X170874348Y-113014643D01*
X170876970Y-113009099D01*
X170880123Y-113003838D01*
X170883777Y-112998911D01*
X170887896Y-112994367D01*
X171418226Y-112464037D01*
X171422770Y-112459918D01*
X171427697Y-112456264D01*
X171432958Y-112453111D01*
X171438502Y-112450489D01*
X171444277Y-112448422D01*
X171450227Y-112446932D01*
X171456294Y-112446032D01*
X171462420Y-112445731D01*
X171468546Y-112446032D01*
X171468546Y-112446032D01*
G37*
D13*
X171241449Y-112817590D03*
D10*
G36*
X171114993Y-112092479D02*
G01*
X171121060Y-112093379D01*
X171127010Y-112094869D01*
X171132785Y-112096936D01*
X171138329Y-112099558D01*
X171143590Y-112102711D01*
X171148517Y-112106365D01*
X171153061Y-112110484D01*
X171241449Y-112198872D01*
X171245568Y-112203416D01*
X171249222Y-112208343D01*
X171252375Y-112213604D01*
X171254997Y-112219148D01*
X171257064Y-112224923D01*
X171258554Y-112230873D01*
X171259454Y-112236940D01*
X171259755Y-112243066D01*
X171259454Y-112249192D01*
X171258554Y-112255259D01*
X171257064Y-112261209D01*
X171254997Y-112266984D01*
X171252375Y-112272528D01*
X171249222Y-112277789D01*
X171245568Y-112282716D01*
X171241449Y-112287260D01*
X170711119Y-112817590D01*
X170706575Y-112821709D01*
X170701648Y-112825363D01*
X170696387Y-112828516D01*
X170690843Y-112831138D01*
X170685068Y-112833205D01*
X170679118Y-112834695D01*
X170673051Y-112835595D01*
X170666925Y-112835896D01*
X170660799Y-112835595D01*
X170654732Y-112834695D01*
X170648782Y-112833205D01*
X170643007Y-112831138D01*
X170637463Y-112828516D01*
X170632202Y-112825363D01*
X170627275Y-112821709D01*
X170622731Y-112817590D01*
X170534343Y-112729202D01*
X170530224Y-112724658D01*
X170526570Y-112719731D01*
X170523417Y-112714470D01*
X170520795Y-112708926D01*
X170518728Y-112703151D01*
X170517238Y-112697201D01*
X170516338Y-112691134D01*
X170516037Y-112685008D01*
X170516338Y-112678882D01*
X170517238Y-112672815D01*
X170518728Y-112666865D01*
X170520795Y-112661090D01*
X170523417Y-112655546D01*
X170526570Y-112650285D01*
X170530224Y-112645358D01*
X170534343Y-112640814D01*
X171064673Y-112110484D01*
X171069217Y-112106365D01*
X171074144Y-112102711D01*
X171079405Y-112099558D01*
X171084949Y-112096936D01*
X171090724Y-112094869D01*
X171096674Y-112093379D01*
X171102741Y-112092479D01*
X171108867Y-112092178D01*
X171114993Y-112092479D01*
X171114993Y-112092479D01*
G37*
D13*
X170887896Y-112464037D03*
D10*
G36*
X170761440Y-111738926D02*
G01*
X170767507Y-111739826D01*
X170773457Y-111741316D01*
X170779232Y-111743383D01*
X170784776Y-111746005D01*
X170790037Y-111749158D01*
X170794964Y-111752812D01*
X170799508Y-111756931D01*
X170887896Y-111845319D01*
X170892015Y-111849863D01*
X170895669Y-111854790D01*
X170898822Y-111860051D01*
X170901444Y-111865595D01*
X170903511Y-111871370D01*
X170905001Y-111877320D01*
X170905901Y-111883387D01*
X170906202Y-111889513D01*
X170905901Y-111895639D01*
X170905001Y-111901706D01*
X170903511Y-111907656D01*
X170901444Y-111913431D01*
X170898822Y-111918975D01*
X170895669Y-111924236D01*
X170892015Y-111929163D01*
X170887896Y-111933707D01*
X170357566Y-112464037D01*
X170353022Y-112468156D01*
X170348095Y-112471810D01*
X170342834Y-112474963D01*
X170337290Y-112477585D01*
X170331515Y-112479652D01*
X170325565Y-112481142D01*
X170319498Y-112482042D01*
X170313372Y-112482343D01*
X170307246Y-112482042D01*
X170301179Y-112481142D01*
X170295229Y-112479652D01*
X170289454Y-112477585D01*
X170283910Y-112474963D01*
X170278649Y-112471810D01*
X170273722Y-112468156D01*
X170269178Y-112464037D01*
X170180790Y-112375649D01*
X170176671Y-112371105D01*
X170173017Y-112366178D01*
X170169864Y-112360917D01*
X170167242Y-112355373D01*
X170165175Y-112349598D01*
X170163685Y-112343648D01*
X170162785Y-112337581D01*
X170162484Y-112331455D01*
X170162785Y-112325329D01*
X170163685Y-112319262D01*
X170165175Y-112313312D01*
X170167242Y-112307537D01*
X170169864Y-112301993D01*
X170173017Y-112296732D01*
X170176671Y-112291805D01*
X170180790Y-112287261D01*
X170711120Y-111756931D01*
X170715664Y-111752812D01*
X170720591Y-111749158D01*
X170725852Y-111746005D01*
X170731396Y-111743383D01*
X170737171Y-111741316D01*
X170743121Y-111739826D01*
X170749188Y-111738926D01*
X170755314Y-111738625D01*
X170761440Y-111738926D01*
X170761440Y-111738926D01*
G37*
D13*
X170534343Y-112110484D03*
D10*
G36*
X170407886Y-111385372D02*
G01*
X170413953Y-111386272D01*
X170419903Y-111387762D01*
X170425678Y-111389829D01*
X170431222Y-111392451D01*
X170436483Y-111395604D01*
X170441410Y-111399258D01*
X170445954Y-111403377D01*
X170534342Y-111491765D01*
X170538461Y-111496309D01*
X170542115Y-111501236D01*
X170545268Y-111506497D01*
X170547890Y-111512041D01*
X170549957Y-111517816D01*
X170551447Y-111523766D01*
X170552347Y-111529833D01*
X170552648Y-111535959D01*
X170552347Y-111542085D01*
X170551447Y-111548152D01*
X170549957Y-111554102D01*
X170547890Y-111559877D01*
X170545268Y-111565421D01*
X170542115Y-111570682D01*
X170538461Y-111575609D01*
X170534342Y-111580153D01*
X170004012Y-112110483D01*
X169999468Y-112114602D01*
X169994541Y-112118256D01*
X169989280Y-112121409D01*
X169983736Y-112124031D01*
X169977961Y-112126098D01*
X169972011Y-112127588D01*
X169965944Y-112128488D01*
X169959818Y-112128789D01*
X169953692Y-112128488D01*
X169947625Y-112127588D01*
X169941675Y-112126098D01*
X169935900Y-112124031D01*
X169930356Y-112121409D01*
X169925095Y-112118256D01*
X169920168Y-112114602D01*
X169915624Y-112110483D01*
X169827236Y-112022095D01*
X169823117Y-112017551D01*
X169819463Y-112012624D01*
X169816310Y-112007363D01*
X169813688Y-112001819D01*
X169811621Y-111996044D01*
X169810131Y-111990094D01*
X169809231Y-111984027D01*
X169808930Y-111977901D01*
X169809231Y-111971775D01*
X169810131Y-111965708D01*
X169811621Y-111959758D01*
X169813688Y-111953983D01*
X169816310Y-111948439D01*
X169819463Y-111943178D01*
X169823117Y-111938251D01*
X169827236Y-111933707D01*
X170357566Y-111403377D01*
X170362110Y-111399258D01*
X170367037Y-111395604D01*
X170372298Y-111392451D01*
X170377842Y-111389829D01*
X170383617Y-111387762D01*
X170389567Y-111386272D01*
X170395634Y-111385372D01*
X170401760Y-111385071D01*
X170407886Y-111385372D01*
X170407886Y-111385372D01*
G37*
D13*
X170180789Y-111756930D03*
D10*
G36*
X170054333Y-111031819D02*
G01*
X170060400Y-111032719D01*
X170066350Y-111034209D01*
X170072125Y-111036276D01*
X170077669Y-111038898D01*
X170082930Y-111042051D01*
X170087857Y-111045705D01*
X170092401Y-111049824D01*
X170180789Y-111138212D01*
X170184908Y-111142756D01*
X170188562Y-111147683D01*
X170191715Y-111152944D01*
X170194337Y-111158488D01*
X170196404Y-111164263D01*
X170197894Y-111170213D01*
X170198794Y-111176280D01*
X170199095Y-111182406D01*
X170198794Y-111188532D01*
X170197894Y-111194599D01*
X170196404Y-111200549D01*
X170194337Y-111206324D01*
X170191715Y-111211868D01*
X170188562Y-111217129D01*
X170184908Y-111222056D01*
X170180789Y-111226600D01*
X169650459Y-111756930D01*
X169645915Y-111761049D01*
X169640988Y-111764703D01*
X169635727Y-111767856D01*
X169630183Y-111770478D01*
X169624408Y-111772545D01*
X169618458Y-111774035D01*
X169612391Y-111774935D01*
X169606265Y-111775236D01*
X169600139Y-111774935D01*
X169594072Y-111774035D01*
X169588122Y-111772545D01*
X169582347Y-111770478D01*
X169576803Y-111767856D01*
X169571542Y-111764703D01*
X169566615Y-111761049D01*
X169562071Y-111756930D01*
X169473683Y-111668542D01*
X169469564Y-111663998D01*
X169465910Y-111659071D01*
X169462757Y-111653810D01*
X169460135Y-111648266D01*
X169458068Y-111642491D01*
X169456578Y-111636541D01*
X169455678Y-111630474D01*
X169455377Y-111624348D01*
X169455678Y-111618222D01*
X169456578Y-111612155D01*
X169458068Y-111606205D01*
X169460135Y-111600430D01*
X169462757Y-111594886D01*
X169465910Y-111589625D01*
X169469564Y-111584698D01*
X169473683Y-111580154D01*
X170004013Y-111049824D01*
X170008557Y-111045705D01*
X170013484Y-111042051D01*
X170018745Y-111038898D01*
X170024289Y-111036276D01*
X170030064Y-111034209D01*
X170036014Y-111032719D01*
X170042081Y-111031819D01*
X170048207Y-111031518D01*
X170054333Y-111031819D01*
X170054333Y-111031819D01*
G37*
D13*
X169827236Y-111403377D03*
D10*
G36*
X168640119Y-111031819D02*
G01*
X168646186Y-111032719D01*
X168652136Y-111034209D01*
X168657911Y-111036276D01*
X168663455Y-111038898D01*
X168668716Y-111042051D01*
X168673643Y-111045705D01*
X168678187Y-111049824D01*
X169208517Y-111580154D01*
X169212636Y-111584698D01*
X169216290Y-111589625D01*
X169219443Y-111594886D01*
X169222065Y-111600430D01*
X169224132Y-111606205D01*
X169225622Y-111612155D01*
X169226522Y-111618222D01*
X169226823Y-111624348D01*
X169226522Y-111630474D01*
X169225622Y-111636541D01*
X169224132Y-111642491D01*
X169222065Y-111648266D01*
X169219443Y-111653810D01*
X169216290Y-111659071D01*
X169212636Y-111663998D01*
X169208517Y-111668542D01*
X169120129Y-111756930D01*
X169115585Y-111761049D01*
X169110658Y-111764703D01*
X169105397Y-111767856D01*
X169099853Y-111770478D01*
X169094078Y-111772545D01*
X169088128Y-111774035D01*
X169082061Y-111774935D01*
X169075935Y-111775236D01*
X169069809Y-111774935D01*
X169063742Y-111774035D01*
X169057792Y-111772545D01*
X169052017Y-111770478D01*
X169046473Y-111767856D01*
X169041212Y-111764703D01*
X169036285Y-111761049D01*
X169031741Y-111756930D01*
X168501411Y-111226600D01*
X168497292Y-111222056D01*
X168493638Y-111217129D01*
X168490485Y-111211868D01*
X168487863Y-111206324D01*
X168485796Y-111200549D01*
X168484306Y-111194599D01*
X168483406Y-111188532D01*
X168483105Y-111182406D01*
X168483406Y-111176280D01*
X168484306Y-111170213D01*
X168485796Y-111164263D01*
X168487863Y-111158488D01*
X168490485Y-111152944D01*
X168493638Y-111147683D01*
X168497292Y-111142756D01*
X168501411Y-111138212D01*
X168589799Y-111049824D01*
X168594343Y-111045705D01*
X168599270Y-111042051D01*
X168604531Y-111038898D01*
X168610075Y-111036276D01*
X168615850Y-111034209D01*
X168621800Y-111032719D01*
X168627867Y-111031819D01*
X168633993Y-111031518D01*
X168640119Y-111031819D01*
X168640119Y-111031819D01*
G37*
D13*
X168854964Y-111403377D03*
D10*
G36*
X168286566Y-111385372D02*
G01*
X168292633Y-111386272D01*
X168298583Y-111387762D01*
X168304358Y-111389829D01*
X168309902Y-111392451D01*
X168315163Y-111395604D01*
X168320090Y-111399258D01*
X168324634Y-111403377D01*
X168854964Y-111933707D01*
X168859083Y-111938251D01*
X168862737Y-111943178D01*
X168865890Y-111948439D01*
X168868512Y-111953983D01*
X168870579Y-111959758D01*
X168872069Y-111965708D01*
X168872969Y-111971775D01*
X168873270Y-111977901D01*
X168872969Y-111984027D01*
X168872069Y-111990094D01*
X168870579Y-111996044D01*
X168868512Y-112001819D01*
X168865890Y-112007363D01*
X168862737Y-112012624D01*
X168859083Y-112017551D01*
X168854964Y-112022095D01*
X168766576Y-112110483D01*
X168762032Y-112114602D01*
X168757105Y-112118256D01*
X168751844Y-112121409D01*
X168746300Y-112124031D01*
X168740525Y-112126098D01*
X168734575Y-112127588D01*
X168728508Y-112128488D01*
X168722382Y-112128789D01*
X168716256Y-112128488D01*
X168710189Y-112127588D01*
X168704239Y-112126098D01*
X168698464Y-112124031D01*
X168692920Y-112121409D01*
X168687659Y-112118256D01*
X168682732Y-112114602D01*
X168678188Y-112110483D01*
X168147858Y-111580153D01*
X168143739Y-111575609D01*
X168140085Y-111570682D01*
X168136932Y-111565421D01*
X168134310Y-111559877D01*
X168132243Y-111554102D01*
X168130753Y-111548152D01*
X168129853Y-111542085D01*
X168129552Y-111535959D01*
X168129853Y-111529833D01*
X168130753Y-111523766D01*
X168132243Y-111517816D01*
X168134310Y-111512041D01*
X168136932Y-111506497D01*
X168140085Y-111501236D01*
X168143739Y-111496309D01*
X168147858Y-111491765D01*
X168236246Y-111403377D01*
X168240790Y-111399258D01*
X168245717Y-111395604D01*
X168250978Y-111392451D01*
X168256522Y-111389829D01*
X168262297Y-111387762D01*
X168268247Y-111386272D01*
X168274314Y-111385372D01*
X168280440Y-111385071D01*
X168286566Y-111385372D01*
X168286566Y-111385372D01*
G37*
D13*
X168501411Y-111756930D03*
D10*
G36*
X167933012Y-111738926D02*
G01*
X167939079Y-111739826D01*
X167945029Y-111741316D01*
X167950804Y-111743383D01*
X167956348Y-111746005D01*
X167961609Y-111749158D01*
X167966536Y-111752812D01*
X167971080Y-111756931D01*
X168501410Y-112287261D01*
X168505529Y-112291805D01*
X168509183Y-112296732D01*
X168512336Y-112301993D01*
X168514958Y-112307537D01*
X168517025Y-112313312D01*
X168518515Y-112319262D01*
X168519415Y-112325329D01*
X168519716Y-112331455D01*
X168519415Y-112337581D01*
X168518515Y-112343648D01*
X168517025Y-112349598D01*
X168514958Y-112355373D01*
X168512336Y-112360917D01*
X168509183Y-112366178D01*
X168505529Y-112371105D01*
X168501410Y-112375649D01*
X168413022Y-112464037D01*
X168408478Y-112468156D01*
X168403551Y-112471810D01*
X168398290Y-112474963D01*
X168392746Y-112477585D01*
X168386971Y-112479652D01*
X168381021Y-112481142D01*
X168374954Y-112482042D01*
X168368828Y-112482343D01*
X168362702Y-112482042D01*
X168356635Y-112481142D01*
X168350685Y-112479652D01*
X168344910Y-112477585D01*
X168339366Y-112474963D01*
X168334105Y-112471810D01*
X168329178Y-112468156D01*
X168324634Y-112464037D01*
X167794304Y-111933707D01*
X167790185Y-111929163D01*
X167786531Y-111924236D01*
X167783378Y-111918975D01*
X167780756Y-111913431D01*
X167778689Y-111907656D01*
X167777199Y-111901706D01*
X167776299Y-111895639D01*
X167775998Y-111889513D01*
X167776299Y-111883387D01*
X167777199Y-111877320D01*
X167778689Y-111871370D01*
X167780756Y-111865595D01*
X167783378Y-111860051D01*
X167786531Y-111854790D01*
X167790185Y-111849863D01*
X167794304Y-111845319D01*
X167882692Y-111756931D01*
X167887236Y-111752812D01*
X167892163Y-111749158D01*
X167897424Y-111746005D01*
X167902968Y-111743383D01*
X167908743Y-111741316D01*
X167914693Y-111739826D01*
X167920760Y-111738926D01*
X167926886Y-111738625D01*
X167933012Y-111738926D01*
X167933012Y-111738926D01*
G37*
D13*
X168147857Y-112110484D03*
D10*
G36*
X167579459Y-112092479D02*
G01*
X167585526Y-112093379D01*
X167591476Y-112094869D01*
X167597251Y-112096936D01*
X167602795Y-112099558D01*
X167608056Y-112102711D01*
X167612983Y-112106365D01*
X167617527Y-112110484D01*
X168147857Y-112640814D01*
X168151976Y-112645358D01*
X168155630Y-112650285D01*
X168158783Y-112655546D01*
X168161405Y-112661090D01*
X168163472Y-112666865D01*
X168164962Y-112672815D01*
X168165862Y-112678882D01*
X168166163Y-112685008D01*
X168165862Y-112691134D01*
X168164962Y-112697201D01*
X168163472Y-112703151D01*
X168161405Y-112708926D01*
X168158783Y-112714470D01*
X168155630Y-112719731D01*
X168151976Y-112724658D01*
X168147857Y-112729202D01*
X168059469Y-112817590D01*
X168054925Y-112821709D01*
X168049998Y-112825363D01*
X168044737Y-112828516D01*
X168039193Y-112831138D01*
X168033418Y-112833205D01*
X168027468Y-112834695D01*
X168021401Y-112835595D01*
X168015275Y-112835896D01*
X168009149Y-112835595D01*
X168003082Y-112834695D01*
X167997132Y-112833205D01*
X167991357Y-112831138D01*
X167985813Y-112828516D01*
X167980552Y-112825363D01*
X167975625Y-112821709D01*
X167971081Y-112817590D01*
X167440751Y-112287260D01*
X167436632Y-112282716D01*
X167432978Y-112277789D01*
X167429825Y-112272528D01*
X167427203Y-112266984D01*
X167425136Y-112261209D01*
X167423646Y-112255259D01*
X167422746Y-112249192D01*
X167422445Y-112243066D01*
X167422746Y-112236940D01*
X167423646Y-112230873D01*
X167425136Y-112224923D01*
X167427203Y-112219148D01*
X167429825Y-112213604D01*
X167432978Y-112208343D01*
X167436632Y-112203416D01*
X167440751Y-112198872D01*
X167529139Y-112110484D01*
X167533683Y-112106365D01*
X167538610Y-112102711D01*
X167543871Y-112099558D01*
X167549415Y-112096936D01*
X167555190Y-112094869D01*
X167561140Y-112093379D01*
X167567207Y-112092479D01*
X167573333Y-112092178D01*
X167579459Y-112092479D01*
X167579459Y-112092479D01*
G37*
D13*
X167794304Y-112464037D03*
D10*
G36*
X167225906Y-112446032D02*
G01*
X167231973Y-112446932D01*
X167237923Y-112448422D01*
X167243698Y-112450489D01*
X167249242Y-112453111D01*
X167254503Y-112456264D01*
X167259430Y-112459918D01*
X167263974Y-112464037D01*
X167794304Y-112994367D01*
X167798423Y-112998911D01*
X167802077Y-113003838D01*
X167805230Y-113009099D01*
X167807852Y-113014643D01*
X167809919Y-113020418D01*
X167811409Y-113026368D01*
X167812309Y-113032435D01*
X167812610Y-113038561D01*
X167812309Y-113044687D01*
X167811409Y-113050754D01*
X167809919Y-113056704D01*
X167807852Y-113062479D01*
X167805230Y-113068023D01*
X167802077Y-113073284D01*
X167798423Y-113078211D01*
X167794304Y-113082755D01*
X167705916Y-113171143D01*
X167701372Y-113175262D01*
X167696445Y-113178916D01*
X167691184Y-113182069D01*
X167685640Y-113184691D01*
X167679865Y-113186758D01*
X167673915Y-113188248D01*
X167667848Y-113189148D01*
X167661722Y-113189449D01*
X167655596Y-113189148D01*
X167649529Y-113188248D01*
X167643579Y-113186758D01*
X167637804Y-113184691D01*
X167632260Y-113182069D01*
X167626999Y-113178916D01*
X167622072Y-113175262D01*
X167617528Y-113171143D01*
X167087198Y-112640813D01*
X167083079Y-112636269D01*
X167079425Y-112631342D01*
X167076272Y-112626081D01*
X167073650Y-112620537D01*
X167071583Y-112614762D01*
X167070093Y-112608812D01*
X167069193Y-112602745D01*
X167068892Y-112596619D01*
X167069193Y-112590493D01*
X167070093Y-112584426D01*
X167071583Y-112578476D01*
X167073650Y-112572701D01*
X167076272Y-112567157D01*
X167079425Y-112561896D01*
X167083079Y-112556969D01*
X167087198Y-112552425D01*
X167175586Y-112464037D01*
X167180130Y-112459918D01*
X167185057Y-112456264D01*
X167190318Y-112453111D01*
X167195862Y-112450489D01*
X167201637Y-112448422D01*
X167207587Y-112446932D01*
X167213654Y-112446032D01*
X167219780Y-112445731D01*
X167225906Y-112446032D01*
X167225906Y-112446032D01*
G37*
D13*
X167440751Y-112817590D03*
D10*
G36*
X166872352Y-112799586D02*
G01*
X166878419Y-112800486D01*
X166884369Y-112801976D01*
X166890144Y-112804043D01*
X166895688Y-112806665D01*
X166900949Y-112809818D01*
X166905876Y-112813472D01*
X166910420Y-112817591D01*
X167440750Y-113347921D01*
X167444869Y-113352465D01*
X167448523Y-113357392D01*
X167451676Y-113362653D01*
X167454298Y-113368197D01*
X167456365Y-113373972D01*
X167457855Y-113379922D01*
X167458755Y-113385989D01*
X167459056Y-113392115D01*
X167458755Y-113398241D01*
X167457855Y-113404308D01*
X167456365Y-113410258D01*
X167454298Y-113416033D01*
X167451676Y-113421577D01*
X167448523Y-113426838D01*
X167444869Y-113431765D01*
X167440750Y-113436309D01*
X167352362Y-113524697D01*
X167347818Y-113528816D01*
X167342891Y-113532470D01*
X167337630Y-113535623D01*
X167332086Y-113538245D01*
X167326311Y-113540312D01*
X167320361Y-113541802D01*
X167314294Y-113542702D01*
X167308168Y-113543003D01*
X167302042Y-113542702D01*
X167295975Y-113541802D01*
X167290025Y-113540312D01*
X167284250Y-113538245D01*
X167278706Y-113535623D01*
X167273445Y-113532470D01*
X167268518Y-113528816D01*
X167263974Y-113524697D01*
X166733644Y-112994367D01*
X166729525Y-112989823D01*
X166725871Y-112984896D01*
X166722718Y-112979635D01*
X166720096Y-112974091D01*
X166718029Y-112968316D01*
X166716539Y-112962366D01*
X166715639Y-112956299D01*
X166715338Y-112950173D01*
X166715639Y-112944047D01*
X166716539Y-112937980D01*
X166718029Y-112932030D01*
X166720096Y-112926255D01*
X166722718Y-112920711D01*
X166725871Y-112915450D01*
X166729525Y-112910523D01*
X166733644Y-112905979D01*
X166822032Y-112817591D01*
X166826576Y-112813472D01*
X166831503Y-112809818D01*
X166836764Y-112806665D01*
X166842308Y-112804043D01*
X166848083Y-112801976D01*
X166854033Y-112800486D01*
X166860100Y-112799586D01*
X166866226Y-112799285D01*
X166872352Y-112799586D01*
X166872352Y-112799586D01*
G37*
D13*
X167087197Y-113171144D03*
D10*
G36*
X166518799Y-113153139D02*
G01*
X166524866Y-113154039D01*
X166530816Y-113155529D01*
X166536591Y-113157596D01*
X166542135Y-113160218D01*
X166547396Y-113163371D01*
X166552323Y-113167025D01*
X166556867Y-113171144D01*
X167087197Y-113701474D01*
X167091316Y-113706018D01*
X167094970Y-113710945D01*
X167098123Y-113716206D01*
X167100745Y-113721750D01*
X167102812Y-113727525D01*
X167104302Y-113733475D01*
X167105202Y-113739542D01*
X167105503Y-113745668D01*
X167105202Y-113751794D01*
X167104302Y-113757861D01*
X167102812Y-113763811D01*
X167100745Y-113769586D01*
X167098123Y-113775130D01*
X167094970Y-113780391D01*
X167091316Y-113785318D01*
X167087197Y-113789862D01*
X166998809Y-113878250D01*
X166994265Y-113882369D01*
X166989338Y-113886023D01*
X166984077Y-113889176D01*
X166978533Y-113891798D01*
X166972758Y-113893865D01*
X166966808Y-113895355D01*
X166960741Y-113896255D01*
X166954615Y-113896556D01*
X166948489Y-113896255D01*
X166942422Y-113895355D01*
X166936472Y-113893865D01*
X166930697Y-113891798D01*
X166925153Y-113889176D01*
X166919892Y-113886023D01*
X166914965Y-113882369D01*
X166910421Y-113878250D01*
X166380091Y-113347920D01*
X166375972Y-113343376D01*
X166372318Y-113338449D01*
X166369165Y-113333188D01*
X166366543Y-113327644D01*
X166364476Y-113321869D01*
X166362986Y-113315919D01*
X166362086Y-113309852D01*
X166361785Y-113303726D01*
X166362086Y-113297600D01*
X166362986Y-113291533D01*
X166364476Y-113285583D01*
X166366543Y-113279808D01*
X166369165Y-113274264D01*
X166372318Y-113269003D01*
X166375972Y-113264076D01*
X166380091Y-113259532D01*
X166468479Y-113171144D01*
X166473023Y-113167025D01*
X166477950Y-113163371D01*
X166483211Y-113160218D01*
X166488755Y-113157596D01*
X166494530Y-113155529D01*
X166500480Y-113154039D01*
X166506547Y-113153139D01*
X166512673Y-113152838D01*
X166518799Y-113153139D01*
X166518799Y-113153139D01*
G37*
D13*
X166733644Y-113524697D03*
D10*
G36*
X166165245Y-113506693D02*
G01*
X166171312Y-113507593D01*
X166177262Y-113509083D01*
X166183037Y-113511150D01*
X166188581Y-113513772D01*
X166193842Y-113516925D01*
X166198769Y-113520579D01*
X166203313Y-113524698D01*
X166733643Y-114055028D01*
X166737762Y-114059572D01*
X166741416Y-114064499D01*
X166744569Y-114069760D01*
X166747191Y-114075304D01*
X166749258Y-114081079D01*
X166750748Y-114087029D01*
X166751648Y-114093096D01*
X166751949Y-114099222D01*
X166751648Y-114105348D01*
X166750748Y-114111415D01*
X166749258Y-114117365D01*
X166747191Y-114123140D01*
X166744569Y-114128684D01*
X166741416Y-114133945D01*
X166737762Y-114138872D01*
X166733643Y-114143416D01*
X166645255Y-114231804D01*
X166640711Y-114235923D01*
X166635784Y-114239577D01*
X166630523Y-114242730D01*
X166624979Y-114245352D01*
X166619204Y-114247419D01*
X166613254Y-114248909D01*
X166607187Y-114249809D01*
X166601061Y-114250110D01*
X166594935Y-114249809D01*
X166588868Y-114248909D01*
X166582918Y-114247419D01*
X166577143Y-114245352D01*
X166571599Y-114242730D01*
X166566338Y-114239577D01*
X166561411Y-114235923D01*
X166556867Y-114231804D01*
X166026537Y-113701474D01*
X166022418Y-113696930D01*
X166018764Y-113692003D01*
X166015611Y-113686742D01*
X166012989Y-113681198D01*
X166010922Y-113675423D01*
X166009432Y-113669473D01*
X166008532Y-113663406D01*
X166008231Y-113657280D01*
X166008532Y-113651154D01*
X166009432Y-113645087D01*
X166010922Y-113639137D01*
X166012989Y-113633362D01*
X166015611Y-113627818D01*
X166018764Y-113622557D01*
X166022418Y-113617630D01*
X166026537Y-113613086D01*
X166114925Y-113524698D01*
X166119469Y-113520579D01*
X166124396Y-113516925D01*
X166129657Y-113513772D01*
X166135201Y-113511150D01*
X166140976Y-113509083D01*
X166146926Y-113507593D01*
X166152993Y-113506693D01*
X166159119Y-113506392D01*
X166165245Y-113506693D01*
X166165245Y-113506693D01*
G37*
D13*
X166380090Y-113878251D03*
D10*
G36*
X165811692Y-113860246D02*
G01*
X165817759Y-113861146D01*
X165823709Y-113862636D01*
X165829484Y-113864703D01*
X165835028Y-113867325D01*
X165840289Y-113870478D01*
X165845216Y-113874132D01*
X165849760Y-113878251D01*
X166380090Y-114408581D01*
X166384209Y-114413125D01*
X166387863Y-114418052D01*
X166391016Y-114423313D01*
X166393638Y-114428857D01*
X166395705Y-114434632D01*
X166397195Y-114440582D01*
X166398095Y-114446649D01*
X166398396Y-114452775D01*
X166398095Y-114458901D01*
X166397195Y-114464968D01*
X166395705Y-114470918D01*
X166393638Y-114476693D01*
X166391016Y-114482237D01*
X166387863Y-114487498D01*
X166384209Y-114492425D01*
X166380090Y-114496969D01*
X166291702Y-114585357D01*
X166287158Y-114589476D01*
X166282231Y-114593130D01*
X166276970Y-114596283D01*
X166271426Y-114598905D01*
X166265651Y-114600972D01*
X166259701Y-114602462D01*
X166253634Y-114603362D01*
X166247508Y-114603663D01*
X166241382Y-114603362D01*
X166235315Y-114602462D01*
X166229365Y-114600972D01*
X166223590Y-114598905D01*
X166218046Y-114596283D01*
X166212785Y-114593130D01*
X166207858Y-114589476D01*
X166203314Y-114585357D01*
X165672984Y-114055027D01*
X165668865Y-114050483D01*
X165665211Y-114045556D01*
X165662058Y-114040295D01*
X165659436Y-114034751D01*
X165657369Y-114028976D01*
X165655879Y-114023026D01*
X165654979Y-114016959D01*
X165654678Y-114010833D01*
X165654979Y-114004707D01*
X165655879Y-113998640D01*
X165657369Y-113992690D01*
X165659436Y-113986915D01*
X165662058Y-113981371D01*
X165665211Y-113976110D01*
X165668865Y-113971183D01*
X165672984Y-113966639D01*
X165761372Y-113878251D01*
X165765916Y-113874132D01*
X165770843Y-113870478D01*
X165776104Y-113867325D01*
X165781648Y-113864703D01*
X165787423Y-113862636D01*
X165793373Y-113861146D01*
X165799440Y-113860246D01*
X165805566Y-113859945D01*
X165811692Y-113860246D01*
X165811692Y-113860246D01*
G37*
D13*
X166026537Y-114231804D03*
D10*
G36*
X165458139Y-114213799D02*
G01*
X165464206Y-114214699D01*
X165470156Y-114216189D01*
X165475931Y-114218256D01*
X165481475Y-114220878D01*
X165486736Y-114224031D01*
X165491663Y-114227685D01*
X165496207Y-114231804D01*
X166026537Y-114762134D01*
X166030656Y-114766678D01*
X166034310Y-114771605D01*
X166037463Y-114776866D01*
X166040085Y-114782410D01*
X166042152Y-114788185D01*
X166043642Y-114794135D01*
X166044542Y-114800202D01*
X166044843Y-114806328D01*
X166044542Y-114812454D01*
X166043642Y-114818521D01*
X166042152Y-114824471D01*
X166040085Y-114830246D01*
X166037463Y-114835790D01*
X166034310Y-114841051D01*
X166030656Y-114845978D01*
X166026537Y-114850522D01*
X165938149Y-114938910D01*
X165933605Y-114943029D01*
X165928678Y-114946683D01*
X165923417Y-114949836D01*
X165917873Y-114952458D01*
X165912098Y-114954525D01*
X165906148Y-114956015D01*
X165900081Y-114956915D01*
X165893955Y-114957216D01*
X165887829Y-114956915D01*
X165881762Y-114956015D01*
X165875812Y-114954525D01*
X165870037Y-114952458D01*
X165864493Y-114949836D01*
X165859232Y-114946683D01*
X165854305Y-114943029D01*
X165849761Y-114938910D01*
X165319431Y-114408580D01*
X165315312Y-114404036D01*
X165311658Y-114399109D01*
X165308505Y-114393848D01*
X165305883Y-114388304D01*
X165303816Y-114382529D01*
X165302326Y-114376579D01*
X165301426Y-114370512D01*
X165301125Y-114364386D01*
X165301426Y-114358260D01*
X165302326Y-114352193D01*
X165303816Y-114346243D01*
X165305883Y-114340468D01*
X165308505Y-114334924D01*
X165311658Y-114329663D01*
X165315312Y-114324736D01*
X165319431Y-114320192D01*
X165407819Y-114231804D01*
X165412363Y-114227685D01*
X165417290Y-114224031D01*
X165422551Y-114220878D01*
X165428095Y-114218256D01*
X165433870Y-114216189D01*
X165439820Y-114214699D01*
X165445887Y-114213799D01*
X165452013Y-114213498D01*
X165458139Y-114213799D01*
X165458139Y-114213799D01*
G37*
D13*
X165672984Y-114585357D03*
D10*
G36*
X165104585Y-114567353D02*
G01*
X165110652Y-114568253D01*
X165116602Y-114569743D01*
X165122377Y-114571810D01*
X165127921Y-114574432D01*
X165133182Y-114577585D01*
X165138109Y-114581239D01*
X165142653Y-114585358D01*
X165672983Y-115115688D01*
X165677102Y-115120232D01*
X165680756Y-115125159D01*
X165683909Y-115130420D01*
X165686531Y-115135964D01*
X165688598Y-115141739D01*
X165690088Y-115147689D01*
X165690988Y-115153756D01*
X165691289Y-115159882D01*
X165690988Y-115166008D01*
X165690088Y-115172075D01*
X165688598Y-115178025D01*
X165686531Y-115183800D01*
X165683909Y-115189344D01*
X165680756Y-115194605D01*
X165677102Y-115199532D01*
X165672983Y-115204076D01*
X165584595Y-115292464D01*
X165580051Y-115296583D01*
X165575124Y-115300237D01*
X165569863Y-115303390D01*
X165564319Y-115306012D01*
X165558544Y-115308079D01*
X165552594Y-115309569D01*
X165546527Y-115310469D01*
X165540401Y-115310770D01*
X165534275Y-115310469D01*
X165528208Y-115309569D01*
X165522258Y-115308079D01*
X165516483Y-115306012D01*
X165510939Y-115303390D01*
X165505678Y-115300237D01*
X165500751Y-115296583D01*
X165496207Y-115292464D01*
X164965877Y-114762134D01*
X164961758Y-114757590D01*
X164958104Y-114752663D01*
X164954951Y-114747402D01*
X164952329Y-114741858D01*
X164950262Y-114736083D01*
X164948772Y-114730133D01*
X164947872Y-114724066D01*
X164947571Y-114717940D01*
X164947872Y-114711814D01*
X164948772Y-114705747D01*
X164950262Y-114699797D01*
X164952329Y-114694022D01*
X164954951Y-114688478D01*
X164958104Y-114683217D01*
X164961758Y-114678290D01*
X164965877Y-114673746D01*
X165054265Y-114585358D01*
X165058809Y-114581239D01*
X165063736Y-114577585D01*
X165068997Y-114574432D01*
X165074541Y-114571810D01*
X165080316Y-114569743D01*
X165086266Y-114568253D01*
X165092333Y-114567353D01*
X165098459Y-114567052D01*
X165104585Y-114567353D01*
X165104585Y-114567353D01*
G37*
D13*
X165319430Y-114938911D03*
D10*
G36*
X164751032Y-114920906D02*
G01*
X164757099Y-114921806D01*
X164763049Y-114923296D01*
X164768824Y-114925363D01*
X164774368Y-114927985D01*
X164779629Y-114931138D01*
X164784556Y-114934792D01*
X164789100Y-114938911D01*
X165319430Y-115469241D01*
X165323549Y-115473785D01*
X165327203Y-115478712D01*
X165330356Y-115483973D01*
X165332978Y-115489517D01*
X165335045Y-115495292D01*
X165336535Y-115501242D01*
X165337435Y-115507309D01*
X165337736Y-115513435D01*
X165337435Y-115519561D01*
X165336535Y-115525628D01*
X165335045Y-115531578D01*
X165332978Y-115537353D01*
X165330356Y-115542897D01*
X165327203Y-115548158D01*
X165323549Y-115553085D01*
X165319430Y-115557629D01*
X165231042Y-115646017D01*
X165226498Y-115650136D01*
X165221571Y-115653790D01*
X165216310Y-115656943D01*
X165210766Y-115659565D01*
X165204991Y-115661632D01*
X165199041Y-115663122D01*
X165192974Y-115664022D01*
X165186848Y-115664323D01*
X165180722Y-115664022D01*
X165174655Y-115663122D01*
X165168705Y-115661632D01*
X165162930Y-115659565D01*
X165157386Y-115656943D01*
X165152125Y-115653790D01*
X165147198Y-115650136D01*
X165142654Y-115646017D01*
X164612324Y-115115687D01*
X164608205Y-115111143D01*
X164604551Y-115106216D01*
X164601398Y-115100955D01*
X164598776Y-115095411D01*
X164596709Y-115089636D01*
X164595219Y-115083686D01*
X164594319Y-115077619D01*
X164594018Y-115071493D01*
X164594319Y-115065367D01*
X164595219Y-115059300D01*
X164596709Y-115053350D01*
X164598776Y-115047575D01*
X164601398Y-115042031D01*
X164604551Y-115036770D01*
X164608205Y-115031843D01*
X164612324Y-115027299D01*
X164700712Y-114938911D01*
X164705256Y-114934792D01*
X164710183Y-114931138D01*
X164715444Y-114927985D01*
X164720988Y-114925363D01*
X164726763Y-114923296D01*
X164732713Y-114921806D01*
X164738780Y-114920906D01*
X164744906Y-114920605D01*
X164751032Y-114920906D01*
X164751032Y-114920906D01*
G37*
D13*
X164965877Y-115292464D03*
D10*
G36*
X167239536Y-115292970D02*
G01*
X167259102Y-115295872D01*
X167278289Y-115300678D01*
X167296912Y-115307342D01*
X167314793Y-115315798D01*
X167331759Y-115325967D01*
X167347646Y-115337750D01*
X167362302Y-115351033D01*
X167647347Y-115636078D01*
X167660630Y-115650734D01*
X167672413Y-115666621D01*
X167682582Y-115683587D01*
X167691038Y-115701468D01*
X167697702Y-115720091D01*
X167702508Y-115739278D01*
X167705410Y-115758844D01*
X167706381Y-115778600D01*
X167705410Y-115798356D01*
X167702508Y-115817922D01*
X167697702Y-115837109D01*
X167691038Y-115855732D01*
X167682582Y-115873613D01*
X167672413Y-115890579D01*
X167660630Y-115906466D01*
X167647347Y-115921122D01*
X167362302Y-116206167D01*
X167347646Y-116219450D01*
X167331759Y-116231233D01*
X167314793Y-116241402D01*
X167296912Y-116249858D01*
X167278289Y-116256522D01*
X167259102Y-116261328D01*
X167239536Y-116264230D01*
X167219780Y-116265201D01*
X167200024Y-116264230D01*
X167180458Y-116261328D01*
X167161271Y-116256522D01*
X167142648Y-116249858D01*
X167124767Y-116241402D01*
X167107801Y-116231233D01*
X167091914Y-116219450D01*
X167077258Y-116206167D01*
X166792213Y-115921122D01*
X166778930Y-115906466D01*
X166767147Y-115890579D01*
X166756978Y-115873613D01*
X166748522Y-115855732D01*
X166741858Y-115837109D01*
X166737052Y-115817922D01*
X166734150Y-115798356D01*
X166733179Y-115778600D01*
X166734150Y-115758844D01*
X166737052Y-115739278D01*
X166741858Y-115720091D01*
X166748522Y-115701468D01*
X166756978Y-115683587D01*
X166767147Y-115666621D01*
X166778930Y-115650734D01*
X166792213Y-115636078D01*
X167077258Y-115351033D01*
X167091914Y-115337750D01*
X167107801Y-115325967D01*
X167124767Y-115315798D01*
X167142648Y-115307342D01*
X167161271Y-115300678D01*
X167180458Y-115295872D01*
X167200024Y-115292970D01*
X167219780Y-115291999D01*
X167239536Y-115292970D01*
X167239536Y-115292970D01*
G37*
D14*
X167219780Y-115778600D03*
D10*
G36*
X167946642Y-114585863D02*
G01*
X167966208Y-114588765D01*
X167985395Y-114593571D01*
X168004018Y-114600235D01*
X168021899Y-114608691D01*
X168038865Y-114618860D01*
X168054752Y-114630643D01*
X168069408Y-114643926D01*
X168354453Y-114928971D01*
X168367736Y-114943627D01*
X168379519Y-114959514D01*
X168389688Y-114976480D01*
X168398144Y-114994361D01*
X168404808Y-115012984D01*
X168409614Y-115032171D01*
X168412516Y-115051737D01*
X168413487Y-115071493D01*
X168412516Y-115091249D01*
X168409614Y-115110815D01*
X168404808Y-115130002D01*
X168398144Y-115148625D01*
X168389688Y-115166506D01*
X168379519Y-115183472D01*
X168367736Y-115199359D01*
X168354453Y-115214015D01*
X168069408Y-115499060D01*
X168054752Y-115512343D01*
X168038865Y-115524126D01*
X168021899Y-115534295D01*
X168004018Y-115542751D01*
X167985395Y-115549415D01*
X167966208Y-115554221D01*
X167946642Y-115557123D01*
X167926886Y-115558094D01*
X167907130Y-115557123D01*
X167887564Y-115554221D01*
X167868377Y-115549415D01*
X167849754Y-115542751D01*
X167831873Y-115534295D01*
X167814907Y-115524126D01*
X167799020Y-115512343D01*
X167784364Y-115499060D01*
X167499319Y-115214015D01*
X167486036Y-115199359D01*
X167474253Y-115183472D01*
X167464084Y-115166506D01*
X167455628Y-115148625D01*
X167448964Y-115130002D01*
X167444158Y-115110815D01*
X167441256Y-115091249D01*
X167440285Y-115071493D01*
X167441256Y-115051737D01*
X167444158Y-115032171D01*
X167448964Y-115012984D01*
X167455628Y-114994361D01*
X167464084Y-114976480D01*
X167474253Y-114959514D01*
X167486036Y-114943627D01*
X167499319Y-114928971D01*
X167784364Y-114643926D01*
X167799020Y-114630643D01*
X167814907Y-114618860D01*
X167831873Y-114608691D01*
X167849754Y-114600235D01*
X167868377Y-114593571D01*
X167887564Y-114588765D01*
X167907130Y-114585863D01*
X167926886Y-114584892D01*
X167946642Y-114585863D01*
X167946642Y-114585863D01*
G37*
D14*
X167926886Y-115071493D03*
D10*
G36*
X168653749Y-113878756D02*
G01*
X168673315Y-113881658D01*
X168692502Y-113886464D01*
X168711125Y-113893128D01*
X168729006Y-113901584D01*
X168745972Y-113911753D01*
X168761859Y-113923536D01*
X168776515Y-113936819D01*
X169061560Y-114221864D01*
X169074843Y-114236520D01*
X169086626Y-114252407D01*
X169096795Y-114269373D01*
X169105251Y-114287254D01*
X169111915Y-114305877D01*
X169116721Y-114325064D01*
X169119623Y-114344630D01*
X169120594Y-114364386D01*
X169119623Y-114384142D01*
X169116721Y-114403708D01*
X169111915Y-114422895D01*
X169105251Y-114441518D01*
X169096795Y-114459399D01*
X169086626Y-114476365D01*
X169074843Y-114492252D01*
X169061560Y-114506908D01*
X168776515Y-114791953D01*
X168761859Y-114805236D01*
X168745972Y-114817019D01*
X168729006Y-114827188D01*
X168711125Y-114835644D01*
X168692502Y-114842308D01*
X168673315Y-114847114D01*
X168653749Y-114850016D01*
X168633993Y-114850987D01*
X168614237Y-114850016D01*
X168594671Y-114847114D01*
X168575484Y-114842308D01*
X168556861Y-114835644D01*
X168538980Y-114827188D01*
X168522014Y-114817019D01*
X168506127Y-114805236D01*
X168491471Y-114791953D01*
X168206426Y-114506908D01*
X168193143Y-114492252D01*
X168181360Y-114476365D01*
X168171191Y-114459399D01*
X168162735Y-114441518D01*
X168156071Y-114422895D01*
X168151265Y-114403708D01*
X168148363Y-114384142D01*
X168147392Y-114364386D01*
X168148363Y-114344630D01*
X168151265Y-114325064D01*
X168156071Y-114305877D01*
X168162735Y-114287254D01*
X168171191Y-114269373D01*
X168181360Y-114252407D01*
X168193143Y-114236520D01*
X168206426Y-114221864D01*
X168491471Y-113936819D01*
X168506127Y-113923536D01*
X168522014Y-113911753D01*
X168538980Y-113901584D01*
X168556861Y-113893128D01*
X168575484Y-113886464D01*
X168594671Y-113881658D01*
X168614237Y-113878756D01*
X168633993Y-113877785D01*
X168653749Y-113878756D01*
X168653749Y-113878756D01*
G37*
D14*
X168633993Y-114364386D03*
D10*
G36*
X169360856Y-113171650D02*
G01*
X169380422Y-113174552D01*
X169399609Y-113179358D01*
X169418232Y-113186022D01*
X169436113Y-113194478D01*
X169453079Y-113204647D01*
X169468966Y-113216430D01*
X169483622Y-113229713D01*
X169768667Y-113514758D01*
X169781950Y-113529414D01*
X169793733Y-113545301D01*
X169803902Y-113562267D01*
X169812358Y-113580148D01*
X169819022Y-113598771D01*
X169823828Y-113617958D01*
X169826730Y-113637524D01*
X169827701Y-113657280D01*
X169826730Y-113677036D01*
X169823828Y-113696602D01*
X169819022Y-113715789D01*
X169812358Y-113734412D01*
X169803902Y-113752293D01*
X169793733Y-113769259D01*
X169781950Y-113785146D01*
X169768667Y-113799802D01*
X169483622Y-114084847D01*
X169468966Y-114098130D01*
X169453079Y-114109913D01*
X169436113Y-114120082D01*
X169418232Y-114128538D01*
X169399609Y-114135202D01*
X169380422Y-114140008D01*
X169360856Y-114142910D01*
X169341100Y-114143881D01*
X169321344Y-114142910D01*
X169301778Y-114140008D01*
X169282591Y-114135202D01*
X169263968Y-114128538D01*
X169246087Y-114120082D01*
X169229121Y-114109913D01*
X169213234Y-114098130D01*
X169198578Y-114084847D01*
X168913533Y-113799802D01*
X168900250Y-113785146D01*
X168888467Y-113769259D01*
X168878298Y-113752293D01*
X168869842Y-113734412D01*
X168863178Y-113715789D01*
X168858372Y-113696602D01*
X168855470Y-113677036D01*
X168854499Y-113657280D01*
X168855470Y-113637524D01*
X168858372Y-113617958D01*
X168863178Y-113598771D01*
X168869842Y-113580148D01*
X168878298Y-113562267D01*
X168888467Y-113545301D01*
X168900250Y-113529414D01*
X168913533Y-113514758D01*
X169198578Y-113229713D01*
X169213234Y-113216430D01*
X169229121Y-113204647D01*
X169246087Y-113194478D01*
X169263968Y-113186022D01*
X169282591Y-113179358D01*
X169301778Y-113174552D01*
X169321344Y-113171650D01*
X169341100Y-113170679D01*
X169360856Y-113171650D01*
X169360856Y-113171650D01*
G37*
D14*
X169341100Y-113657280D03*
D10*
G36*
X167946642Y-116000077D02*
G01*
X167966208Y-116002979D01*
X167985395Y-116007785D01*
X168004018Y-116014449D01*
X168021899Y-116022905D01*
X168038865Y-116033074D01*
X168054752Y-116044857D01*
X168069408Y-116058140D01*
X168354453Y-116343185D01*
X168367736Y-116357841D01*
X168379519Y-116373728D01*
X168389688Y-116390694D01*
X168398144Y-116408575D01*
X168404808Y-116427198D01*
X168409614Y-116446385D01*
X168412516Y-116465951D01*
X168413487Y-116485707D01*
X168412516Y-116505463D01*
X168409614Y-116525029D01*
X168404808Y-116544216D01*
X168398144Y-116562839D01*
X168389688Y-116580720D01*
X168379519Y-116597686D01*
X168367736Y-116613573D01*
X168354453Y-116628229D01*
X168069408Y-116913274D01*
X168054752Y-116926557D01*
X168038865Y-116938340D01*
X168021899Y-116948509D01*
X168004018Y-116956965D01*
X167985395Y-116963629D01*
X167966208Y-116968435D01*
X167946642Y-116971337D01*
X167926886Y-116972308D01*
X167907130Y-116971337D01*
X167887564Y-116968435D01*
X167868377Y-116963629D01*
X167849754Y-116956965D01*
X167831873Y-116948509D01*
X167814907Y-116938340D01*
X167799020Y-116926557D01*
X167784364Y-116913274D01*
X167499319Y-116628229D01*
X167486036Y-116613573D01*
X167474253Y-116597686D01*
X167464084Y-116580720D01*
X167455628Y-116562839D01*
X167448964Y-116544216D01*
X167444158Y-116525029D01*
X167441256Y-116505463D01*
X167440285Y-116485707D01*
X167441256Y-116465951D01*
X167444158Y-116446385D01*
X167448964Y-116427198D01*
X167455628Y-116408575D01*
X167464084Y-116390694D01*
X167474253Y-116373728D01*
X167486036Y-116357841D01*
X167499319Y-116343185D01*
X167784364Y-116058140D01*
X167799020Y-116044857D01*
X167814907Y-116033074D01*
X167831873Y-116022905D01*
X167849754Y-116014449D01*
X167868377Y-116007785D01*
X167887564Y-116002979D01*
X167907130Y-116000077D01*
X167926886Y-115999106D01*
X167946642Y-116000077D01*
X167946642Y-116000077D01*
G37*
D14*
X167926886Y-116485707D03*
D10*
G36*
X168653749Y-115292970D02*
G01*
X168673315Y-115295872D01*
X168692502Y-115300678D01*
X168711125Y-115307342D01*
X168729006Y-115315798D01*
X168745972Y-115325967D01*
X168761859Y-115337750D01*
X168776515Y-115351033D01*
X169061560Y-115636078D01*
X169074843Y-115650734D01*
X169086626Y-115666621D01*
X169096795Y-115683587D01*
X169105251Y-115701468D01*
X169111915Y-115720091D01*
X169116721Y-115739278D01*
X169119623Y-115758844D01*
X169120594Y-115778600D01*
X169119623Y-115798356D01*
X169116721Y-115817922D01*
X169111915Y-115837109D01*
X169105251Y-115855732D01*
X169096795Y-115873613D01*
X169086626Y-115890579D01*
X169074843Y-115906466D01*
X169061560Y-115921122D01*
X168776515Y-116206167D01*
X168761859Y-116219450D01*
X168745972Y-116231233D01*
X168729006Y-116241402D01*
X168711125Y-116249858D01*
X168692502Y-116256522D01*
X168673315Y-116261328D01*
X168653749Y-116264230D01*
X168633993Y-116265201D01*
X168614237Y-116264230D01*
X168594671Y-116261328D01*
X168575484Y-116256522D01*
X168556861Y-116249858D01*
X168538980Y-116241402D01*
X168522014Y-116231233D01*
X168506127Y-116219450D01*
X168491471Y-116206167D01*
X168206426Y-115921122D01*
X168193143Y-115906466D01*
X168181360Y-115890579D01*
X168171191Y-115873613D01*
X168162735Y-115855732D01*
X168156071Y-115837109D01*
X168151265Y-115817922D01*
X168148363Y-115798356D01*
X168147392Y-115778600D01*
X168148363Y-115758844D01*
X168151265Y-115739278D01*
X168156071Y-115720091D01*
X168162735Y-115701468D01*
X168171191Y-115683587D01*
X168181360Y-115666621D01*
X168193143Y-115650734D01*
X168206426Y-115636078D01*
X168491471Y-115351033D01*
X168506127Y-115337750D01*
X168522014Y-115325967D01*
X168538980Y-115315798D01*
X168556861Y-115307342D01*
X168575484Y-115300678D01*
X168594671Y-115295872D01*
X168614237Y-115292970D01*
X168633993Y-115291999D01*
X168653749Y-115292970D01*
X168653749Y-115292970D01*
G37*
D14*
X168633993Y-115778600D03*
D10*
G36*
X169360856Y-114585863D02*
G01*
X169380422Y-114588765D01*
X169399609Y-114593571D01*
X169418232Y-114600235D01*
X169436113Y-114608691D01*
X169453079Y-114618860D01*
X169468966Y-114630643D01*
X169483622Y-114643926D01*
X169768667Y-114928971D01*
X169781950Y-114943627D01*
X169793733Y-114959514D01*
X169803902Y-114976480D01*
X169812358Y-114994361D01*
X169819022Y-115012984D01*
X169823828Y-115032171D01*
X169826730Y-115051737D01*
X169827701Y-115071493D01*
X169826730Y-115091249D01*
X169823828Y-115110815D01*
X169819022Y-115130002D01*
X169812358Y-115148625D01*
X169803902Y-115166506D01*
X169793733Y-115183472D01*
X169781950Y-115199359D01*
X169768667Y-115214015D01*
X169483622Y-115499060D01*
X169468966Y-115512343D01*
X169453079Y-115524126D01*
X169436113Y-115534295D01*
X169418232Y-115542751D01*
X169399609Y-115549415D01*
X169380422Y-115554221D01*
X169360856Y-115557123D01*
X169341100Y-115558094D01*
X169321344Y-115557123D01*
X169301778Y-115554221D01*
X169282591Y-115549415D01*
X169263968Y-115542751D01*
X169246087Y-115534295D01*
X169229121Y-115524126D01*
X169213234Y-115512343D01*
X169198578Y-115499060D01*
X168913533Y-115214015D01*
X168900250Y-115199359D01*
X168888467Y-115183472D01*
X168878298Y-115166506D01*
X168869842Y-115148625D01*
X168863178Y-115130002D01*
X168858372Y-115110815D01*
X168855470Y-115091249D01*
X168854499Y-115071493D01*
X168855470Y-115051737D01*
X168858372Y-115032171D01*
X168863178Y-115012984D01*
X168869842Y-114994361D01*
X168878298Y-114976480D01*
X168888467Y-114959514D01*
X168900250Y-114943627D01*
X168913533Y-114928971D01*
X169198578Y-114643926D01*
X169213234Y-114630643D01*
X169229121Y-114618860D01*
X169246087Y-114608691D01*
X169263968Y-114600235D01*
X169282591Y-114593571D01*
X169301778Y-114588765D01*
X169321344Y-114585863D01*
X169341100Y-114584892D01*
X169360856Y-114585863D01*
X169360856Y-114585863D01*
G37*
D14*
X169341100Y-115071493D03*
D10*
G36*
X170067963Y-113878756D02*
G01*
X170087529Y-113881658D01*
X170106716Y-113886464D01*
X170125339Y-113893128D01*
X170143220Y-113901584D01*
X170160186Y-113911753D01*
X170176073Y-113923536D01*
X170190729Y-113936819D01*
X170475774Y-114221864D01*
X170489057Y-114236520D01*
X170500840Y-114252407D01*
X170511009Y-114269373D01*
X170519465Y-114287254D01*
X170526129Y-114305877D01*
X170530935Y-114325064D01*
X170533837Y-114344630D01*
X170534808Y-114364386D01*
X170533837Y-114384142D01*
X170530935Y-114403708D01*
X170526129Y-114422895D01*
X170519465Y-114441518D01*
X170511009Y-114459399D01*
X170500840Y-114476365D01*
X170489057Y-114492252D01*
X170475774Y-114506908D01*
X170190729Y-114791953D01*
X170176073Y-114805236D01*
X170160186Y-114817019D01*
X170143220Y-114827188D01*
X170125339Y-114835644D01*
X170106716Y-114842308D01*
X170087529Y-114847114D01*
X170067963Y-114850016D01*
X170048207Y-114850987D01*
X170028451Y-114850016D01*
X170008885Y-114847114D01*
X169989698Y-114842308D01*
X169971075Y-114835644D01*
X169953194Y-114827188D01*
X169936228Y-114817019D01*
X169920341Y-114805236D01*
X169905685Y-114791953D01*
X169620640Y-114506908D01*
X169607357Y-114492252D01*
X169595574Y-114476365D01*
X169585405Y-114459399D01*
X169576949Y-114441518D01*
X169570285Y-114422895D01*
X169565479Y-114403708D01*
X169562577Y-114384142D01*
X169561606Y-114364386D01*
X169562577Y-114344630D01*
X169565479Y-114325064D01*
X169570285Y-114305877D01*
X169576949Y-114287254D01*
X169585405Y-114269373D01*
X169595574Y-114252407D01*
X169607357Y-114236520D01*
X169620640Y-114221864D01*
X169905685Y-113936819D01*
X169920341Y-113923536D01*
X169936228Y-113911753D01*
X169953194Y-113901584D01*
X169971075Y-113893128D01*
X169989698Y-113886464D01*
X170008885Y-113881658D01*
X170028451Y-113878756D01*
X170048207Y-113877785D01*
X170067963Y-113878756D01*
X170067963Y-113878756D01*
G37*
D14*
X170048207Y-114364386D03*
D10*
G36*
X168653749Y-116707184D02*
G01*
X168673315Y-116710086D01*
X168692502Y-116714892D01*
X168711125Y-116721556D01*
X168729006Y-116730012D01*
X168745972Y-116740181D01*
X168761859Y-116751964D01*
X168776515Y-116765247D01*
X169061560Y-117050292D01*
X169074843Y-117064948D01*
X169086626Y-117080835D01*
X169096795Y-117097801D01*
X169105251Y-117115682D01*
X169111915Y-117134305D01*
X169116721Y-117153492D01*
X169119623Y-117173058D01*
X169120594Y-117192814D01*
X169119623Y-117212570D01*
X169116721Y-117232136D01*
X169111915Y-117251323D01*
X169105251Y-117269946D01*
X169096795Y-117287827D01*
X169086626Y-117304793D01*
X169074843Y-117320680D01*
X169061560Y-117335336D01*
X168776515Y-117620381D01*
X168761859Y-117633664D01*
X168745972Y-117645447D01*
X168729006Y-117655616D01*
X168711125Y-117664072D01*
X168692502Y-117670736D01*
X168673315Y-117675542D01*
X168653749Y-117678444D01*
X168633993Y-117679415D01*
X168614237Y-117678444D01*
X168594671Y-117675542D01*
X168575484Y-117670736D01*
X168556861Y-117664072D01*
X168538980Y-117655616D01*
X168522014Y-117645447D01*
X168506127Y-117633664D01*
X168491471Y-117620381D01*
X168206426Y-117335336D01*
X168193143Y-117320680D01*
X168181360Y-117304793D01*
X168171191Y-117287827D01*
X168162735Y-117269946D01*
X168156071Y-117251323D01*
X168151265Y-117232136D01*
X168148363Y-117212570D01*
X168147392Y-117192814D01*
X168148363Y-117173058D01*
X168151265Y-117153492D01*
X168156071Y-117134305D01*
X168162735Y-117115682D01*
X168171191Y-117097801D01*
X168181360Y-117080835D01*
X168193143Y-117064948D01*
X168206426Y-117050292D01*
X168491471Y-116765247D01*
X168506127Y-116751964D01*
X168522014Y-116740181D01*
X168538980Y-116730012D01*
X168556861Y-116721556D01*
X168575484Y-116714892D01*
X168594671Y-116710086D01*
X168614237Y-116707184D01*
X168633993Y-116706213D01*
X168653749Y-116707184D01*
X168653749Y-116707184D01*
G37*
D14*
X168633993Y-117192814D03*
D10*
G36*
X169360856Y-116000077D02*
G01*
X169380422Y-116002979D01*
X169399609Y-116007785D01*
X169418232Y-116014449D01*
X169436113Y-116022905D01*
X169453079Y-116033074D01*
X169468966Y-116044857D01*
X169483622Y-116058140D01*
X169768667Y-116343185D01*
X169781950Y-116357841D01*
X169793733Y-116373728D01*
X169803902Y-116390694D01*
X169812358Y-116408575D01*
X169819022Y-116427198D01*
X169823828Y-116446385D01*
X169826730Y-116465951D01*
X169827701Y-116485707D01*
X169826730Y-116505463D01*
X169823828Y-116525029D01*
X169819022Y-116544216D01*
X169812358Y-116562839D01*
X169803902Y-116580720D01*
X169793733Y-116597686D01*
X169781950Y-116613573D01*
X169768667Y-116628229D01*
X169483622Y-116913274D01*
X169468966Y-116926557D01*
X169453079Y-116938340D01*
X169436113Y-116948509D01*
X169418232Y-116956965D01*
X169399609Y-116963629D01*
X169380422Y-116968435D01*
X169360856Y-116971337D01*
X169341100Y-116972308D01*
X169321344Y-116971337D01*
X169301778Y-116968435D01*
X169282591Y-116963629D01*
X169263968Y-116956965D01*
X169246087Y-116948509D01*
X169229121Y-116938340D01*
X169213234Y-116926557D01*
X169198578Y-116913274D01*
X168913533Y-116628229D01*
X168900250Y-116613573D01*
X168888467Y-116597686D01*
X168878298Y-116580720D01*
X168869842Y-116562839D01*
X168863178Y-116544216D01*
X168858372Y-116525029D01*
X168855470Y-116505463D01*
X168854499Y-116485707D01*
X168855470Y-116465951D01*
X168858372Y-116446385D01*
X168863178Y-116427198D01*
X168869842Y-116408575D01*
X168878298Y-116390694D01*
X168888467Y-116373728D01*
X168900250Y-116357841D01*
X168913533Y-116343185D01*
X169198578Y-116058140D01*
X169213234Y-116044857D01*
X169229121Y-116033074D01*
X169246087Y-116022905D01*
X169263968Y-116014449D01*
X169282591Y-116007785D01*
X169301778Y-116002979D01*
X169321344Y-116000077D01*
X169341100Y-115999106D01*
X169360856Y-116000077D01*
X169360856Y-116000077D01*
G37*
D14*
X169341100Y-116485707D03*
D10*
G36*
X170067963Y-115292970D02*
G01*
X170087529Y-115295872D01*
X170106716Y-115300678D01*
X170125339Y-115307342D01*
X170143220Y-115315798D01*
X170160186Y-115325967D01*
X170176073Y-115337750D01*
X170190729Y-115351033D01*
X170475774Y-115636078D01*
X170489057Y-115650734D01*
X170500840Y-115666621D01*
X170511009Y-115683587D01*
X170519465Y-115701468D01*
X170526129Y-115720091D01*
X170530935Y-115739278D01*
X170533837Y-115758844D01*
X170534808Y-115778600D01*
X170533837Y-115798356D01*
X170530935Y-115817922D01*
X170526129Y-115837109D01*
X170519465Y-115855732D01*
X170511009Y-115873613D01*
X170500840Y-115890579D01*
X170489057Y-115906466D01*
X170475774Y-115921122D01*
X170190729Y-116206167D01*
X170176073Y-116219450D01*
X170160186Y-116231233D01*
X170143220Y-116241402D01*
X170125339Y-116249858D01*
X170106716Y-116256522D01*
X170087529Y-116261328D01*
X170067963Y-116264230D01*
X170048207Y-116265201D01*
X170028451Y-116264230D01*
X170008885Y-116261328D01*
X169989698Y-116256522D01*
X169971075Y-116249858D01*
X169953194Y-116241402D01*
X169936228Y-116231233D01*
X169920341Y-116219450D01*
X169905685Y-116206167D01*
X169620640Y-115921122D01*
X169607357Y-115906466D01*
X169595574Y-115890579D01*
X169585405Y-115873613D01*
X169576949Y-115855732D01*
X169570285Y-115837109D01*
X169565479Y-115817922D01*
X169562577Y-115798356D01*
X169561606Y-115778600D01*
X169562577Y-115758844D01*
X169565479Y-115739278D01*
X169570285Y-115720091D01*
X169576949Y-115701468D01*
X169585405Y-115683587D01*
X169595574Y-115666621D01*
X169607357Y-115650734D01*
X169620640Y-115636078D01*
X169905685Y-115351033D01*
X169920341Y-115337750D01*
X169936228Y-115325967D01*
X169953194Y-115315798D01*
X169971075Y-115307342D01*
X169989698Y-115300678D01*
X170008885Y-115295872D01*
X170028451Y-115292970D01*
X170048207Y-115291999D01*
X170067963Y-115292970D01*
X170067963Y-115292970D01*
G37*
D14*
X170048207Y-115778600D03*
D10*
G36*
X170775070Y-114585863D02*
G01*
X170794636Y-114588765D01*
X170813823Y-114593571D01*
X170832446Y-114600235D01*
X170850327Y-114608691D01*
X170867293Y-114618860D01*
X170883180Y-114630643D01*
X170897836Y-114643926D01*
X171182881Y-114928971D01*
X171196164Y-114943627D01*
X171207947Y-114959514D01*
X171218116Y-114976480D01*
X171226572Y-114994361D01*
X171233236Y-115012984D01*
X171238042Y-115032171D01*
X171240944Y-115051737D01*
X171241915Y-115071493D01*
X171240944Y-115091249D01*
X171238042Y-115110815D01*
X171233236Y-115130002D01*
X171226572Y-115148625D01*
X171218116Y-115166506D01*
X171207947Y-115183472D01*
X171196164Y-115199359D01*
X171182881Y-115214015D01*
X170897836Y-115499060D01*
X170883180Y-115512343D01*
X170867293Y-115524126D01*
X170850327Y-115534295D01*
X170832446Y-115542751D01*
X170813823Y-115549415D01*
X170794636Y-115554221D01*
X170775070Y-115557123D01*
X170755314Y-115558094D01*
X170735558Y-115557123D01*
X170715992Y-115554221D01*
X170696805Y-115549415D01*
X170678182Y-115542751D01*
X170660301Y-115534295D01*
X170643335Y-115524126D01*
X170627448Y-115512343D01*
X170612792Y-115499060D01*
X170327747Y-115214015D01*
X170314464Y-115199359D01*
X170302681Y-115183472D01*
X170292512Y-115166506D01*
X170284056Y-115148625D01*
X170277392Y-115130002D01*
X170272586Y-115110815D01*
X170269684Y-115091249D01*
X170268713Y-115071493D01*
X170269684Y-115051737D01*
X170272586Y-115032171D01*
X170277392Y-115012984D01*
X170284056Y-114994361D01*
X170292512Y-114976480D01*
X170302681Y-114959514D01*
X170314464Y-114943627D01*
X170327747Y-114928971D01*
X170612792Y-114643926D01*
X170627448Y-114630643D01*
X170643335Y-114618860D01*
X170660301Y-114608691D01*
X170678182Y-114600235D01*
X170696805Y-114593571D01*
X170715992Y-114588765D01*
X170735558Y-114585863D01*
X170755314Y-114584892D01*
X170775070Y-114585863D01*
X170775070Y-114585863D01*
G37*
D14*
X170755314Y-115071493D03*
D10*
G36*
X169360856Y-117414290D02*
G01*
X169380422Y-117417192D01*
X169399609Y-117421998D01*
X169418232Y-117428662D01*
X169436113Y-117437118D01*
X169453079Y-117447287D01*
X169468966Y-117459070D01*
X169483622Y-117472353D01*
X169768667Y-117757398D01*
X169781950Y-117772054D01*
X169793733Y-117787941D01*
X169803902Y-117804907D01*
X169812358Y-117822788D01*
X169819022Y-117841411D01*
X169823828Y-117860598D01*
X169826730Y-117880164D01*
X169827701Y-117899920D01*
X169826730Y-117919676D01*
X169823828Y-117939242D01*
X169819022Y-117958429D01*
X169812358Y-117977052D01*
X169803902Y-117994933D01*
X169793733Y-118011899D01*
X169781950Y-118027786D01*
X169768667Y-118042442D01*
X169483622Y-118327487D01*
X169468966Y-118340770D01*
X169453079Y-118352553D01*
X169436113Y-118362722D01*
X169418232Y-118371178D01*
X169399609Y-118377842D01*
X169380422Y-118382648D01*
X169360856Y-118385550D01*
X169341100Y-118386521D01*
X169321344Y-118385550D01*
X169301778Y-118382648D01*
X169282591Y-118377842D01*
X169263968Y-118371178D01*
X169246087Y-118362722D01*
X169229121Y-118352553D01*
X169213234Y-118340770D01*
X169198578Y-118327487D01*
X168913533Y-118042442D01*
X168900250Y-118027786D01*
X168888467Y-118011899D01*
X168878298Y-117994933D01*
X168869842Y-117977052D01*
X168863178Y-117958429D01*
X168858372Y-117939242D01*
X168855470Y-117919676D01*
X168854499Y-117899920D01*
X168855470Y-117880164D01*
X168858372Y-117860598D01*
X168863178Y-117841411D01*
X168869842Y-117822788D01*
X168878298Y-117804907D01*
X168888467Y-117787941D01*
X168900250Y-117772054D01*
X168913533Y-117757398D01*
X169198578Y-117472353D01*
X169213234Y-117459070D01*
X169229121Y-117447287D01*
X169246087Y-117437118D01*
X169263968Y-117428662D01*
X169282591Y-117421998D01*
X169301778Y-117417192D01*
X169321344Y-117414290D01*
X169341100Y-117413319D01*
X169360856Y-117414290D01*
X169360856Y-117414290D01*
G37*
D14*
X169341100Y-117899920D03*
D10*
G36*
X170067963Y-116707184D02*
G01*
X170087529Y-116710086D01*
X170106716Y-116714892D01*
X170125339Y-116721556D01*
X170143220Y-116730012D01*
X170160186Y-116740181D01*
X170176073Y-116751964D01*
X170190729Y-116765247D01*
X170475774Y-117050292D01*
X170489057Y-117064948D01*
X170500840Y-117080835D01*
X170511009Y-117097801D01*
X170519465Y-117115682D01*
X170526129Y-117134305D01*
X170530935Y-117153492D01*
X170533837Y-117173058D01*
X170534808Y-117192814D01*
X170533837Y-117212570D01*
X170530935Y-117232136D01*
X170526129Y-117251323D01*
X170519465Y-117269946D01*
X170511009Y-117287827D01*
X170500840Y-117304793D01*
X170489057Y-117320680D01*
X170475774Y-117335336D01*
X170190729Y-117620381D01*
X170176073Y-117633664D01*
X170160186Y-117645447D01*
X170143220Y-117655616D01*
X170125339Y-117664072D01*
X170106716Y-117670736D01*
X170087529Y-117675542D01*
X170067963Y-117678444D01*
X170048207Y-117679415D01*
X170028451Y-117678444D01*
X170008885Y-117675542D01*
X169989698Y-117670736D01*
X169971075Y-117664072D01*
X169953194Y-117655616D01*
X169936228Y-117645447D01*
X169920341Y-117633664D01*
X169905685Y-117620381D01*
X169620640Y-117335336D01*
X169607357Y-117320680D01*
X169595574Y-117304793D01*
X169585405Y-117287827D01*
X169576949Y-117269946D01*
X169570285Y-117251323D01*
X169565479Y-117232136D01*
X169562577Y-117212570D01*
X169561606Y-117192814D01*
X169562577Y-117173058D01*
X169565479Y-117153492D01*
X169570285Y-117134305D01*
X169576949Y-117115682D01*
X169585405Y-117097801D01*
X169595574Y-117080835D01*
X169607357Y-117064948D01*
X169620640Y-117050292D01*
X169905685Y-116765247D01*
X169920341Y-116751964D01*
X169936228Y-116740181D01*
X169953194Y-116730012D01*
X169971075Y-116721556D01*
X169989698Y-116714892D01*
X170008885Y-116710086D01*
X170028451Y-116707184D01*
X170048207Y-116706213D01*
X170067963Y-116707184D01*
X170067963Y-116707184D01*
G37*
D14*
X170048207Y-117192814D03*
D10*
G36*
X170775070Y-116000077D02*
G01*
X170794636Y-116002979D01*
X170813823Y-116007785D01*
X170832446Y-116014449D01*
X170850327Y-116022905D01*
X170867293Y-116033074D01*
X170883180Y-116044857D01*
X170897836Y-116058140D01*
X171182881Y-116343185D01*
X171196164Y-116357841D01*
X171207947Y-116373728D01*
X171218116Y-116390694D01*
X171226572Y-116408575D01*
X171233236Y-116427198D01*
X171238042Y-116446385D01*
X171240944Y-116465951D01*
X171241915Y-116485707D01*
X171240944Y-116505463D01*
X171238042Y-116525029D01*
X171233236Y-116544216D01*
X171226572Y-116562839D01*
X171218116Y-116580720D01*
X171207947Y-116597686D01*
X171196164Y-116613573D01*
X171182881Y-116628229D01*
X170897836Y-116913274D01*
X170883180Y-116926557D01*
X170867293Y-116938340D01*
X170850327Y-116948509D01*
X170832446Y-116956965D01*
X170813823Y-116963629D01*
X170794636Y-116968435D01*
X170775070Y-116971337D01*
X170755314Y-116972308D01*
X170735558Y-116971337D01*
X170715992Y-116968435D01*
X170696805Y-116963629D01*
X170678182Y-116956965D01*
X170660301Y-116948509D01*
X170643335Y-116938340D01*
X170627448Y-116926557D01*
X170612792Y-116913274D01*
X170327747Y-116628229D01*
X170314464Y-116613573D01*
X170302681Y-116597686D01*
X170292512Y-116580720D01*
X170284056Y-116562839D01*
X170277392Y-116544216D01*
X170272586Y-116525029D01*
X170269684Y-116505463D01*
X170268713Y-116485707D01*
X170269684Y-116465951D01*
X170272586Y-116446385D01*
X170277392Y-116427198D01*
X170284056Y-116408575D01*
X170292512Y-116390694D01*
X170302681Y-116373728D01*
X170314464Y-116357841D01*
X170327747Y-116343185D01*
X170612792Y-116058140D01*
X170627448Y-116044857D01*
X170643335Y-116033074D01*
X170660301Y-116022905D01*
X170678182Y-116014449D01*
X170696805Y-116007785D01*
X170715992Y-116002979D01*
X170735558Y-116000077D01*
X170755314Y-115999106D01*
X170775070Y-116000077D01*
X170775070Y-116000077D01*
G37*
D14*
X170755314Y-116485707D03*
D10*
G36*
X171482176Y-115292970D02*
G01*
X171501742Y-115295872D01*
X171520929Y-115300678D01*
X171539552Y-115307342D01*
X171557433Y-115315798D01*
X171574399Y-115325967D01*
X171590286Y-115337750D01*
X171604942Y-115351033D01*
X171889987Y-115636078D01*
X171903270Y-115650734D01*
X171915053Y-115666621D01*
X171925222Y-115683587D01*
X171933678Y-115701468D01*
X171940342Y-115720091D01*
X171945148Y-115739278D01*
X171948050Y-115758844D01*
X171949021Y-115778600D01*
X171948050Y-115798356D01*
X171945148Y-115817922D01*
X171940342Y-115837109D01*
X171933678Y-115855732D01*
X171925222Y-115873613D01*
X171915053Y-115890579D01*
X171903270Y-115906466D01*
X171889987Y-115921122D01*
X171604942Y-116206167D01*
X171590286Y-116219450D01*
X171574399Y-116231233D01*
X171557433Y-116241402D01*
X171539552Y-116249858D01*
X171520929Y-116256522D01*
X171501742Y-116261328D01*
X171482176Y-116264230D01*
X171462420Y-116265201D01*
X171442664Y-116264230D01*
X171423098Y-116261328D01*
X171403911Y-116256522D01*
X171385288Y-116249858D01*
X171367407Y-116241402D01*
X171350441Y-116231233D01*
X171334554Y-116219450D01*
X171319898Y-116206167D01*
X171034853Y-115921122D01*
X171021570Y-115906466D01*
X171009787Y-115890579D01*
X170999618Y-115873613D01*
X170991162Y-115855732D01*
X170984498Y-115837109D01*
X170979692Y-115817922D01*
X170976790Y-115798356D01*
X170975819Y-115778600D01*
X170976790Y-115758844D01*
X170979692Y-115739278D01*
X170984498Y-115720091D01*
X170991162Y-115701468D01*
X170999618Y-115683587D01*
X171009787Y-115666621D01*
X171021570Y-115650734D01*
X171034853Y-115636078D01*
X171319898Y-115351033D01*
X171334554Y-115337750D01*
X171350441Y-115325967D01*
X171367407Y-115315798D01*
X171385288Y-115307342D01*
X171403911Y-115300678D01*
X171423098Y-115295872D01*
X171442664Y-115292970D01*
X171462420Y-115291999D01*
X171482176Y-115292970D01*
X171482176Y-115292970D01*
G37*
D14*
X171462420Y-115778600D03*
D15*
X170250000Y-106675000D03*
X170250000Y-108425000D03*
D16*
X191155000Y-131890000D03*
X189885000Y-131890000D03*
X188615000Y-131890000D03*
X187345000Y-131890000D03*
D17*
X187345000Y-126410000D03*
X188615000Y-126410000D03*
X189885000Y-126410000D03*
X191155000Y-126410000D03*
D16*
X181696100Y-127578600D03*
X182966100Y-127578600D03*
X184236100Y-127578600D03*
X185506100Y-127578600D03*
D17*
X185506100Y-133058600D03*
X184236100Y-133058600D03*
X182966100Y-133058600D03*
X181696100Y-133058600D03*
D16*
X176146100Y-127078600D03*
X177416100Y-127078600D03*
X178686100Y-127078600D03*
X179956100Y-127078600D03*
D17*
X179956100Y-132558600D03*
X178686100Y-132558600D03*
X177416100Y-132558600D03*
X176146100Y-132558600D03*
D16*
X174406100Y-133508600D03*
X173136100Y-133508600D03*
X171866100Y-133508600D03*
X170596100Y-133508600D03*
D17*
X170596100Y-128028600D03*
X171866100Y-128028600D03*
X173136100Y-128028600D03*
X174406100Y-128028600D03*
D16*
X168706100Y-133508600D03*
X167436100Y-133508600D03*
X166166100Y-133508600D03*
X164896100Y-133508600D03*
D17*
X164896100Y-128028600D03*
X166166100Y-128028600D03*
X167436100Y-128028600D03*
X168706100Y-128028600D03*
D16*
X159496100Y-126678600D03*
X160766100Y-126678600D03*
X162036100Y-126678600D03*
X163306100Y-126678600D03*
D17*
X163306100Y-132158600D03*
X162036100Y-132158600D03*
X160766100Y-132158600D03*
X159496100Y-132158600D03*
D10*
G36*
X190724505Y-116101204D02*
G01*
X190748773Y-116104804D01*
X190772572Y-116110765D01*
X190795671Y-116119030D01*
X190817850Y-116129520D01*
X190838893Y-116142132D01*
X190858599Y-116156747D01*
X190876777Y-116173223D01*
X190893253Y-116191401D01*
X190907868Y-116211107D01*
X190920480Y-116232150D01*
X190930970Y-116254329D01*
X190939235Y-116277428D01*
X190945196Y-116301227D01*
X190948796Y-116325495D01*
X190950000Y-116349999D01*
X190950000Y-117050001D01*
X190948796Y-117074505D01*
X190945196Y-117098773D01*
X190939235Y-117122572D01*
X190930970Y-117145671D01*
X190920480Y-117167850D01*
X190907868Y-117188893D01*
X190893253Y-117208599D01*
X190876777Y-117226777D01*
X190858599Y-117243253D01*
X190838893Y-117257868D01*
X190817850Y-117270480D01*
X190795671Y-117280970D01*
X190772572Y-117289235D01*
X190748773Y-117295196D01*
X190724505Y-117298796D01*
X190700001Y-117300000D01*
X189499999Y-117300000D01*
X189475495Y-117298796D01*
X189451227Y-117295196D01*
X189427428Y-117289235D01*
X189404329Y-117280970D01*
X189382150Y-117270480D01*
X189361107Y-117257868D01*
X189341401Y-117243253D01*
X189323223Y-117226777D01*
X189306747Y-117208599D01*
X189292132Y-117188893D01*
X189279520Y-117167850D01*
X189269030Y-117145671D01*
X189260765Y-117122572D01*
X189254804Y-117098773D01*
X189251204Y-117074505D01*
X189250000Y-117050001D01*
X189250000Y-116349999D01*
X189251204Y-116325495D01*
X189254804Y-116301227D01*
X189260765Y-116277428D01*
X189269030Y-116254329D01*
X189279520Y-116232150D01*
X189292132Y-116211107D01*
X189306747Y-116191401D01*
X189323223Y-116173223D01*
X189341401Y-116156747D01*
X189361107Y-116142132D01*
X189382150Y-116129520D01*
X189404329Y-116119030D01*
X189427428Y-116110765D01*
X189451227Y-116104804D01*
X189475495Y-116101204D01*
X189499999Y-116100000D01*
X190700001Y-116100000D01*
X190724505Y-116101204D01*
X190724505Y-116101204D01*
G37*
D18*
X190100000Y-116700000D03*
D10*
G36*
X190724505Y-120301204D02*
G01*
X190748773Y-120304804D01*
X190772572Y-120310765D01*
X190795671Y-120319030D01*
X190817850Y-120329520D01*
X190838893Y-120342132D01*
X190858599Y-120356747D01*
X190876777Y-120373223D01*
X190893253Y-120391401D01*
X190907868Y-120411107D01*
X190920480Y-120432150D01*
X190930970Y-120454329D01*
X190939235Y-120477428D01*
X190945196Y-120501227D01*
X190948796Y-120525495D01*
X190950000Y-120549999D01*
X190950000Y-121250001D01*
X190948796Y-121274505D01*
X190945196Y-121298773D01*
X190939235Y-121322572D01*
X190930970Y-121345671D01*
X190920480Y-121367850D01*
X190907868Y-121388893D01*
X190893253Y-121408599D01*
X190876777Y-121426777D01*
X190858599Y-121443253D01*
X190838893Y-121457868D01*
X190817850Y-121470480D01*
X190795671Y-121480970D01*
X190772572Y-121489235D01*
X190748773Y-121495196D01*
X190724505Y-121498796D01*
X190700001Y-121500000D01*
X189499999Y-121500000D01*
X189475495Y-121498796D01*
X189451227Y-121495196D01*
X189427428Y-121489235D01*
X189404329Y-121480970D01*
X189382150Y-121470480D01*
X189361107Y-121457868D01*
X189341401Y-121443253D01*
X189323223Y-121426777D01*
X189306747Y-121408599D01*
X189292132Y-121388893D01*
X189279520Y-121367850D01*
X189269030Y-121345671D01*
X189260765Y-121322572D01*
X189254804Y-121298773D01*
X189251204Y-121274505D01*
X189250000Y-121250001D01*
X189250000Y-120549999D01*
X189251204Y-120525495D01*
X189254804Y-120501227D01*
X189260765Y-120477428D01*
X189269030Y-120454329D01*
X189279520Y-120432150D01*
X189292132Y-120411107D01*
X189306747Y-120391401D01*
X189323223Y-120373223D01*
X189341401Y-120356747D01*
X189361107Y-120342132D01*
X189382150Y-120329520D01*
X189404329Y-120319030D01*
X189427428Y-120310765D01*
X189451227Y-120304804D01*
X189475495Y-120301204D01*
X189499999Y-120300000D01*
X190700001Y-120300000D01*
X190724505Y-120301204D01*
X190724505Y-120301204D01*
G37*
D18*
X190100000Y-120900000D03*
D10*
G36*
X191937252Y-117750602D02*
G01*
X191949386Y-117752402D01*
X191961286Y-117755382D01*
X191972835Y-117759515D01*
X191983925Y-117764760D01*
X191994446Y-117771066D01*
X192004299Y-117778374D01*
X192013388Y-117786612D01*
X192021626Y-117795701D01*
X192028934Y-117805554D01*
X192035240Y-117816075D01*
X192040485Y-117827165D01*
X192044618Y-117838714D01*
X192047598Y-117850614D01*
X192049398Y-117862748D01*
X192050000Y-117875000D01*
X192050000Y-118125000D01*
X192049398Y-118137252D01*
X192047598Y-118149386D01*
X192044618Y-118161286D01*
X192040485Y-118172835D01*
X192035240Y-118183925D01*
X192028934Y-118194446D01*
X192021626Y-118204299D01*
X192013388Y-118213388D01*
X192004299Y-118221626D01*
X191994446Y-118228934D01*
X191983925Y-118235240D01*
X191972835Y-118240485D01*
X191961286Y-118244618D01*
X191949386Y-118247598D01*
X191937252Y-118249398D01*
X191925000Y-118250000D01*
X191075000Y-118250000D01*
X191062748Y-118249398D01*
X191050614Y-118247598D01*
X191038714Y-118244618D01*
X191027165Y-118240485D01*
X191016075Y-118235240D01*
X191005554Y-118228934D01*
X190995701Y-118221626D01*
X190986612Y-118213388D01*
X190978374Y-118204299D01*
X190971066Y-118194446D01*
X190964760Y-118183925D01*
X190959515Y-118172835D01*
X190955382Y-118161286D01*
X190952402Y-118149386D01*
X190950602Y-118137252D01*
X190950000Y-118125000D01*
X190950000Y-117875000D01*
X190950602Y-117862748D01*
X190952402Y-117850614D01*
X190955382Y-117838714D01*
X190959515Y-117827165D01*
X190964760Y-117816075D01*
X190971066Y-117805554D01*
X190978374Y-117795701D01*
X190986612Y-117786612D01*
X190995701Y-117778374D01*
X191005554Y-117771066D01*
X191016075Y-117764760D01*
X191027165Y-117759515D01*
X191038714Y-117755382D01*
X191050614Y-117752402D01*
X191062748Y-117750602D01*
X191075000Y-117750000D01*
X191925000Y-117750000D01*
X191937252Y-117750602D01*
X191937252Y-117750602D01*
G37*
D19*
X191500000Y-118000000D03*
D10*
G36*
X191937252Y-118550602D02*
G01*
X191949386Y-118552402D01*
X191961286Y-118555382D01*
X191972835Y-118559515D01*
X191983925Y-118564760D01*
X191994446Y-118571066D01*
X192004299Y-118578374D01*
X192013388Y-118586612D01*
X192021626Y-118595701D01*
X192028934Y-118605554D01*
X192035240Y-118616075D01*
X192040485Y-118627165D01*
X192044618Y-118638714D01*
X192047598Y-118650614D01*
X192049398Y-118662748D01*
X192050000Y-118675000D01*
X192050000Y-118925000D01*
X192049398Y-118937252D01*
X192047598Y-118949386D01*
X192044618Y-118961286D01*
X192040485Y-118972835D01*
X192035240Y-118983925D01*
X192028934Y-118994446D01*
X192021626Y-119004299D01*
X192013388Y-119013388D01*
X192004299Y-119021626D01*
X191994446Y-119028934D01*
X191983925Y-119035240D01*
X191972835Y-119040485D01*
X191961286Y-119044618D01*
X191949386Y-119047598D01*
X191937252Y-119049398D01*
X191925000Y-119050000D01*
X191075000Y-119050000D01*
X191062748Y-119049398D01*
X191050614Y-119047598D01*
X191038714Y-119044618D01*
X191027165Y-119040485D01*
X191016075Y-119035240D01*
X191005554Y-119028934D01*
X190995701Y-119021626D01*
X190986612Y-119013388D01*
X190978374Y-119004299D01*
X190971066Y-118994446D01*
X190964760Y-118983925D01*
X190959515Y-118972835D01*
X190955382Y-118961286D01*
X190952402Y-118949386D01*
X190950602Y-118937252D01*
X190950000Y-118925000D01*
X190950000Y-118675000D01*
X190950602Y-118662748D01*
X190952402Y-118650614D01*
X190955382Y-118638714D01*
X190959515Y-118627165D01*
X190964760Y-118616075D01*
X190971066Y-118605554D01*
X190978374Y-118595701D01*
X190986612Y-118586612D01*
X190995701Y-118578374D01*
X191005554Y-118571066D01*
X191016075Y-118564760D01*
X191027165Y-118559515D01*
X191038714Y-118555382D01*
X191050614Y-118552402D01*
X191062748Y-118550602D01*
X191075000Y-118550000D01*
X191925000Y-118550000D01*
X191937252Y-118550602D01*
X191937252Y-118550602D01*
G37*
D19*
X191500000Y-118800000D03*
D10*
G36*
X191937252Y-119350602D02*
G01*
X191949386Y-119352402D01*
X191961286Y-119355382D01*
X191972835Y-119359515D01*
X191983925Y-119364760D01*
X191994446Y-119371066D01*
X192004299Y-119378374D01*
X192013388Y-119386612D01*
X192021626Y-119395701D01*
X192028934Y-119405554D01*
X192035240Y-119416075D01*
X192040485Y-119427165D01*
X192044618Y-119438714D01*
X192047598Y-119450614D01*
X192049398Y-119462748D01*
X192050000Y-119475000D01*
X192050000Y-119725000D01*
X192049398Y-119737252D01*
X192047598Y-119749386D01*
X192044618Y-119761286D01*
X192040485Y-119772835D01*
X192035240Y-119783925D01*
X192028934Y-119794446D01*
X192021626Y-119804299D01*
X192013388Y-119813388D01*
X192004299Y-119821626D01*
X191994446Y-119828934D01*
X191983925Y-119835240D01*
X191972835Y-119840485D01*
X191961286Y-119844618D01*
X191949386Y-119847598D01*
X191937252Y-119849398D01*
X191925000Y-119850000D01*
X191075000Y-119850000D01*
X191062748Y-119849398D01*
X191050614Y-119847598D01*
X191038714Y-119844618D01*
X191027165Y-119840485D01*
X191016075Y-119835240D01*
X191005554Y-119828934D01*
X190995701Y-119821626D01*
X190986612Y-119813388D01*
X190978374Y-119804299D01*
X190971066Y-119794446D01*
X190964760Y-119783925D01*
X190959515Y-119772835D01*
X190955382Y-119761286D01*
X190952402Y-119749386D01*
X190950602Y-119737252D01*
X190950000Y-119725000D01*
X190950000Y-119475000D01*
X190950602Y-119462748D01*
X190952402Y-119450614D01*
X190955382Y-119438714D01*
X190959515Y-119427165D01*
X190964760Y-119416075D01*
X190971066Y-119405554D01*
X190978374Y-119395701D01*
X190986612Y-119386612D01*
X190995701Y-119378374D01*
X191005554Y-119371066D01*
X191016075Y-119364760D01*
X191027165Y-119359515D01*
X191038714Y-119355382D01*
X191050614Y-119352402D01*
X191062748Y-119350602D01*
X191075000Y-119350000D01*
X191925000Y-119350000D01*
X191937252Y-119350602D01*
X191937252Y-119350602D01*
G37*
D19*
X191500000Y-119600000D03*
D10*
G36*
X194449505Y-116101204D02*
G01*
X194473773Y-116104804D01*
X194497572Y-116110765D01*
X194520671Y-116119030D01*
X194542850Y-116129520D01*
X194563893Y-116142132D01*
X194583599Y-116156747D01*
X194601777Y-116173223D01*
X194618253Y-116191401D01*
X194632868Y-116211107D01*
X194645480Y-116232150D01*
X194655970Y-116254329D01*
X194664235Y-116277428D01*
X194670196Y-116301227D01*
X194673796Y-116325495D01*
X194675000Y-116349999D01*
X194675000Y-117050001D01*
X194673796Y-117074505D01*
X194670196Y-117098773D01*
X194664235Y-117122572D01*
X194655970Y-117145671D01*
X194645480Y-117167850D01*
X194632868Y-117188893D01*
X194618253Y-117208599D01*
X194601777Y-117226777D01*
X194583599Y-117243253D01*
X194563893Y-117257868D01*
X194542850Y-117270480D01*
X194520671Y-117280970D01*
X194497572Y-117289235D01*
X194473773Y-117295196D01*
X194449505Y-117298796D01*
X194425001Y-117300000D01*
X193224999Y-117300000D01*
X193200495Y-117298796D01*
X193176227Y-117295196D01*
X193152428Y-117289235D01*
X193129329Y-117280970D01*
X193107150Y-117270480D01*
X193086107Y-117257868D01*
X193066401Y-117243253D01*
X193048223Y-117226777D01*
X193031747Y-117208599D01*
X193017132Y-117188893D01*
X193004520Y-117167850D01*
X192994030Y-117145671D01*
X192985765Y-117122572D01*
X192979804Y-117098773D01*
X192976204Y-117074505D01*
X192975000Y-117050001D01*
X192975000Y-116349999D01*
X192976204Y-116325495D01*
X192979804Y-116301227D01*
X192985765Y-116277428D01*
X192994030Y-116254329D01*
X193004520Y-116232150D01*
X193017132Y-116211107D01*
X193031747Y-116191401D01*
X193048223Y-116173223D01*
X193066401Y-116156747D01*
X193086107Y-116142132D01*
X193107150Y-116129520D01*
X193129329Y-116119030D01*
X193152428Y-116110765D01*
X193176227Y-116104804D01*
X193200495Y-116101204D01*
X193224999Y-116100000D01*
X194425001Y-116100000D01*
X194449505Y-116101204D01*
X194449505Y-116101204D01*
G37*
D18*
X193825000Y-116700000D03*
D10*
G36*
X194449505Y-120301204D02*
G01*
X194473773Y-120304804D01*
X194497572Y-120310765D01*
X194520671Y-120319030D01*
X194542850Y-120329520D01*
X194563893Y-120342132D01*
X194583599Y-120356747D01*
X194601777Y-120373223D01*
X194618253Y-120391401D01*
X194632868Y-120411107D01*
X194645480Y-120432150D01*
X194655970Y-120454329D01*
X194664235Y-120477428D01*
X194670196Y-120501227D01*
X194673796Y-120525495D01*
X194675000Y-120549999D01*
X194675000Y-121250001D01*
X194673796Y-121274505D01*
X194670196Y-121298773D01*
X194664235Y-121322572D01*
X194655970Y-121345671D01*
X194645480Y-121367850D01*
X194632868Y-121388893D01*
X194618253Y-121408599D01*
X194601777Y-121426777D01*
X194583599Y-121443253D01*
X194563893Y-121457868D01*
X194542850Y-121470480D01*
X194520671Y-121480970D01*
X194497572Y-121489235D01*
X194473773Y-121495196D01*
X194449505Y-121498796D01*
X194425001Y-121500000D01*
X193224999Y-121500000D01*
X193200495Y-121498796D01*
X193176227Y-121495196D01*
X193152428Y-121489235D01*
X193129329Y-121480970D01*
X193107150Y-121470480D01*
X193086107Y-121457868D01*
X193066401Y-121443253D01*
X193048223Y-121426777D01*
X193031747Y-121408599D01*
X193017132Y-121388893D01*
X193004520Y-121367850D01*
X192994030Y-121345671D01*
X192985765Y-121322572D01*
X192979804Y-121298773D01*
X192976204Y-121274505D01*
X192975000Y-121250001D01*
X192975000Y-120549999D01*
X192976204Y-120525495D01*
X192979804Y-120501227D01*
X192985765Y-120477428D01*
X192994030Y-120454329D01*
X193004520Y-120432150D01*
X193017132Y-120411107D01*
X193031747Y-120391401D01*
X193048223Y-120373223D01*
X193066401Y-120356747D01*
X193086107Y-120342132D01*
X193107150Y-120329520D01*
X193129329Y-120319030D01*
X193152428Y-120310765D01*
X193176227Y-120304804D01*
X193200495Y-120301204D01*
X193224999Y-120300000D01*
X194425001Y-120300000D01*
X194449505Y-120301204D01*
X194449505Y-120301204D01*
G37*
D18*
X193825000Y-120900000D03*
D10*
G36*
X195662252Y-117750602D02*
G01*
X195674386Y-117752402D01*
X195686286Y-117755382D01*
X195697835Y-117759515D01*
X195708925Y-117764760D01*
X195719446Y-117771066D01*
X195729299Y-117778374D01*
X195738388Y-117786612D01*
X195746626Y-117795701D01*
X195753934Y-117805554D01*
X195760240Y-117816075D01*
X195765485Y-117827165D01*
X195769618Y-117838714D01*
X195772598Y-117850614D01*
X195774398Y-117862748D01*
X195775000Y-117875000D01*
X195775000Y-118125000D01*
X195774398Y-118137252D01*
X195772598Y-118149386D01*
X195769618Y-118161286D01*
X195765485Y-118172835D01*
X195760240Y-118183925D01*
X195753934Y-118194446D01*
X195746626Y-118204299D01*
X195738388Y-118213388D01*
X195729299Y-118221626D01*
X195719446Y-118228934D01*
X195708925Y-118235240D01*
X195697835Y-118240485D01*
X195686286Y-118244618D01*
X195674386Y-118247598D01*
X195662252Y-118249398D01*
X195650000Y-118250000D01*
X194800000Y-118250000D01*
X194787748Y-118249398D01*
X194775614Y-118247598D01*
X194763714Y-118244618D01*
X194752165Y-118240485D01*
X194741075Y-118235240D01*
X194730554Y-118228934D01*
X194720701Y-118221626D01*
X194711612Y-118213388D01*
X194703374Y-118204299D01*
X194696066Y-118194446D01*
X194689760Y-118183925D01*
X194684515Y-118172835D01*
X194680382Y-118161286D01*
X194677402Y-118149386D01*
X194675602Y-118137252D01*
X194675000Y-118125000D01*
X194675000Y-117875000D01*
X194675602Y-117862748D01*
X194677402Y-117850614D01*
X194680382Y-117838714D01*
X194684515Y-117827165D01*
X194689760Y-117816075D01*
X194696066Y-117805554D01*
X194703374Y-117795701D01*
X194711612Y-117786612D01*
X194720701Y-117778374D01*
X194730554Y-117771066D01*
X194741075Y-117764760D01*
X194752165Y-117759515D01*
X194763714Y-117755382D01*
X194775614Y-117752402D01*
X194787748Y-117750602D01*
X194800000Y-117750000D01*
X195650000Y-117750000D01*
X195662252Y-117750602D01*
X195662252Y-117750602D01*
G37*
D19*
X195225000Y-118000000D03*
D10*
G36*
X195662252Y-118550602D02*
G01*
X195674386Y-118552402D01*
X195686286Y-118555382D01*
X195697835Y-118559515D01*
X195708925Y-118564760D01*
X195719446Y-118571066D01*
X195729299Y-118578374D01*
X195738388Y-118586612D01*
X195746626Y-118595701D01*
X195753934Y-118605554D01*
X195760240Y-118616075D01*
X195765485Y-118627165D01*
X195769618Y-118638714D01*
X195772598Y-118650614D01*
X195774398Y-118662748D01*
X195775000Y-118675000D01*
X195775000Y-118925000D01*
X195774398Y-118937252D01*
X195772598Y-118949386D01*
X195769618Y-118961286D01*
X195765485Y-118972835D01*
X195760240Y-118983925D01*
X195753934Y-118994446D01*
X195746626Y-119004299D01*
X195738388Y-119013388D01*
X195729299Y-119021626D01*
X195719446Y-119028934D01*
X195708925Y-119035240D01*
X195697835Y-119040485D01*
X195686286Y-119044618D01*
X195674386Y-119047598D01*
X195662252Y-119049398D01*
X195650000Y-119050000D01*
X194800000Y-119050000D01*
X194787748Y-119049398D01*
X194775614Y-119047598D01*
X194763714Y-119044618D01*
X194752165Y-119040485D01*
X194741075Y-119035240D01*
X194730554Y-119028934D01*
X194720701Y-119021626D01*
X194711612Y-119013388D01*
X194703374Y-119004299D01*
X194696066Y-118994446D01*
X194689760Y-118983925D01*
X194684515Y-118972835D01*
X194680382Y-118961286D01*
X194677402Y-118949386D01*
X194675602Y-118937252D01*
X194675000Y-118925000D01*
X194675000Y-118675000D01*
X194675602Y-118662748D01*
X194677402Y-118650614D01*
X194680382Y-118638714D01*
X194684515Y-118627165D01*
X194689760Y-118616075D01*
X194696066Y-118605554D01*
X194703374Y-118595701D01*
X194711612Y-118586612D01*
X194720701Y-118578374D01*
X194730554Y-118571066D01*
X194741075Y-118564760D01*
X194752165Y-118559515D01*
X194763714Y-118555382D01*
X194775614Y-118552402D01*
X194787748Y-118550602D01*
X194800000Y-118550000D01*
X195650000Y-118550000D01*
X195662252Y-118550602D01*
X195662252Y-118550602D01*
G37*
D19*
X195225000Y-118800000D03*
D10*
G36*
X195662252Y-119350602D02*
G01*
X195674386Y-119352402D01*
X195686286Y-119355382D01*
X195697835Y-119359515D01*
X195708925Y-119364760D01*
X195719446Y-119371066D01*
X195729299Y-119378374D01*
X195738388Y-119386612D01*
X195746626Y-119395701D01*
X195753934Y-119405554D01*
X195760240Y-119416075D01*
X195765485Y-119427165D01*
X195769618Y-119438714D01*
X195772598Y-119450614D01*
X195774398Y-119462748D01*
X195775000Y-119475000D01*
X195775000Y-119725000D01*
X195774398Y-119737252D01*
X195772598Y-119749386D01*
X195769618Y-119761286D01*
X195765485Y-119772835D01*
X195760240Y-119783925D01*
X195753934Y-119794446D01*
X195746626Y-119804299D01*
X195738388Y-119813388D01*
X195729299Y-119821626D01*
X195719446Y-119828934D01*
X195708925Y-119835240D01*
X195697835Y-119840485D01*
X195686286Y-119844618D01*
X195674386Y-119847598D01*
X195662252Y-119849398D01*
X195650000Y-119850000D01*
X194800000Y-119850000D01*
X194787748Y-119849398D01*
X194775614Y-119847598D01*
X194763714Y-119844618D01*
X194752165Y-119840485D01*
X194741075Y-119835240D01*
X194730554Y-119828934D01*
X194720701Y-119821626D01*
X194711612Y-119813388D01*
X194703374Y-119804299D01*
X194696066Y-119794446D01*
X194689760Y-119783925D01*
X194684515Y-119772835D01*
X194680382Y-119761286D01*
X194677402Y-119749386D01*
X194675602Y-119737252D01*
X194675000Y-119725000D01*
X194675000Y-119475000D01*
X194675602Y-119462748D01*
X194677402Y-119450614D01*
X194680382Y-119438714D01*
X194684515Y-119427165D01*
X194689760Y-119416075D01*
X194696066Y-119405554D01*
X194703374Y-119395701D01*
X194711612Y-119386612D01*
X194720701Y-119378374D01*
X194730554Y-119371066D01*
X194741075Y-119364760D01*
X194752165Y-119359515D01*
X194763714Y-119355382D01*
X194775614Y-119352402D01*
X194787748Y-119350602D01*
X194800000Y-119350000D01*
X195650000Y-119350000D01*
X195662252Y-119350602D01*
X195662252Y-119350602D01*
G37*
D19*
X195225000Y-119600000D03*
D10*
G36*
X161713253Y-110279443D02*
G01*
X161730241Y-110281963D01*
X161746900Y-110286135D01*
X161763070Y-110291921D01*
X161778594Y-110299264D01*
X161793325Y-110308093D01*
X161807119Y-110318323D01*
X161819844Y-110329856D01*
X161831377Y-110342581D01*
X161841607Y-110356375D01*
X161850436Y-110371106D01*
X161857779Y-110386630D01*
X161863565Y-110402800D01*
X161867737Y-110419459D01*
X161870257Y-110436447D01*
X161871100Y-110453600D01*
X161871100Y-111503600D01*
X161870257Y-111520753D01*
X161867737Y-111537741D01*
X161863565Y-111554400D01*
X161857779Y-111570570D01*
X161850436Y-111586094D01*
X161841607Y-111600825D01*
X161831377Y-111614619D01*
X161819844Y-111627344D01*
X161807119Y-111638877D01*
X161793325Y-111649107D01*
X161778594Y-111657936D01*
X161763070Y-111665279D01*
X161746900Y-111671065D01*
X161730241Y-111675237D01*
X161713253Y-111677757D01*
X161696100Y-111678600D01*
X159046100Y-111678600D01*
X159028947Y-111677757D01*
X159011959Y-111675237D01*
X158995300Y-111671065D01*
X158979130Y-111665279D01*
X158963606Y-111657936D01*
X158948875Y-111649107D01*
X158935081Y-111638877D01*
X158922356Y-111627344D01*
X158910823Y-111614619D01*
X158900593Y-111600825D01*
X158891764Y-111586094D01*
X158884421Y-111570570D01*
X158878635Y-111554400D01*
X158874463Y-111537741D01*
X158871943Y-111520753D01*
X158871100Y-111503600D01*
X158871100Y-110453600D01*
X158871943Y-110436447D01*
X158874463Y-110419459D01*
X158878635Y-110402800D01*
X158884421Y-110386630D01*
X158891764Y-110371106D01*
X158900593Y-110356375D01*
X158910823Y-110342581D01*
X158922356Y-110329856D01*
X158935081Y-110318323D01*
X158948875Y-110308093D01*
X158963606Y-110299264D01*
X158979130Y-110291921D01*
X158995300Y-110286135D01*
X159011959Y-110281963D01*
X159028947Y-110279443D01*
X159046100Y-110278600D01*
X161696100Y-110278600D01*
X161713253Y-110279443D01*
X161713253Y-110279443D01*
G37*
D20*
X160371100Y-110978600D03*
D10*
G36*
X161713253Y-108079443D02*
G01*
X161730241Y-108081963D01*
X161746900Y-108086135D01*
X161763070Y-108091921D01*
X161778594Y-108099264D01*
X161793325Y-108108093D01*
X161807119Y-108118323D01*
X161819844Y-108129856D01*
X161831377Y-108142581D01*
X161841607Y-108156375D01*
X161850436Y-108171106D01*
X161857779Y-108186630D01*
X161863565Y-108202800D01*
X161867737Y-108219459D01*
X161870257Y-108236447D01*
X161871100Y-108253600D01*
X161871100Y-109303600D01*
X161870257Y-109320753D01*
X161867737Y-109337741D01*
X161863565Y-109354400D01*
X161857779Y-109370570D01*
X161850436Y-109386094D01*
X161841607Y-109400825D01*
X161831377Y-109414619D01*
X161819844Y-109427344D01*
X161807119Y-109438877D01*
X161793325Y-109449107D01*
X161778594Y-109457936D01*
X161763070Y-109465279D01*
X161746900Y-109471065D01*
X161730241Y-109475237D01*
X161713253Y-109477757D01*
X161696100Y-109478600D01*
X159046100Y-109478600D01*
X159028947Y-109477757D01*
X159011959Y-109475237D01*
X158995300Y-109471065D01*
X158979130Y-109465279D01*
X158963606Y-109457936D01*
X158948875Y-109449107D01*
X158935081Y-109438877D01*
X158922356Y-109427344D01*
X158910823Y-109414619D01*
X158900593Y-109400825D01*
X158891764Y-109386094D01*
X158884421Y-109370570D01*
X158878635Y-109354400D01*
X158874463Y-109337741D01*
X158871943Y-109320753D01*
X158871100Y-109303600D01*
X158871100Y-108253600D01*
X158871943Y-108236447D01*
X158874463Y-108219459D01*
X158878635Y-108202800D01*
X158884421Y-108186630D01*
X158891764Y-108171106D01*
X158900593Y-108156375D01*
X158910823Y-108142581D01*
X158922356Y-108129856D01*
X158935081Y-108118323D01*
X158948875Y-108108093D01*
X158963606Y-108099264D01*
X158979130Y-108091921D01*
X158995300Y-108086135D01*
X159011959Y-108081963D01*
X159028947Y-108079443D01*
X159046100Y-108078600D01*
X161696100Y-108078600D01*
X161713253Y-108079443D01*
X161713253Y-108079443D01*
G37*
D20*
X160371100Y-108778600D03*
D21*
X159906100Y-114818600D03*
X161656100Y-114818600D03*
X159056100Y-106688600D03*
X160806100Y-106688600D03*
D22*
X159175000Y-119050000D03*
X160475000Y-119050000D03*
X160475000Y-120525000D03*
X159175000Y-120525000D03*
D21*
X164916100Y-111298600D03*
X163166100Y-111298600D03*
D23*
X162731100Y-119438600D03*
X162731100Y-120638600D03*
D15*
X164391100Y-119103600D03*
X164391100Y-120853600D03*
D24*
X171081100Y-110378600D03*
X169881100Y-110378600D03*
D25*
X175771100Y-111448600D03*
X175771100Y-110148600D03*
X177081100Y-110148600D03*
X177081100Y-111448600D03*
D23*
X175531100Y-114988600D03*
X175531100Y-113788600D03*
D26*
X185481100Y-115988600D03*
X186481100Y-115988600D03*
X187481100Y-115988600D03*
X188481100Y-115988600D03*
X187981100Y-115988600D03*
X186981100Y-115988600D03*
X185981100Y-115988600D03*
X180981100Y-115988600D03*
X181981100Y-115988600D03*
X182981100Y-115988600D03*
X183981100Y-115988600D03*
X181481100Y-115988600D03*
X182481100Y-115988600D03*
X183481100Y-115988600D03*
X184981100Y-115988600D03*
X184481100Y-115988600D03*
D27*
X178981100Y-110988600D03*
X178981100Y-111988600D03*
X178981100Y-112988600D03*
X178981100Y-113988600D03*
X178981100Y-113488600D03*
X178981100Y-112488600D03*
X178981100Y-111488600D03*
X178981100Y-106488600D03*
X178981100Y-107488600D03*
X178981100Y-108488600D03*
X178981100Y-109488600D03*
X178981100Y-106988600D03*
X178981100Y-107988600D03*
X178981100Y-108988600D03*
X178981100Y-110488600D03*
X178981100Y-109988600D03*
D26*
X183981100Y-104488600D03*
X182981100Y-104488600D03*
X181981100Y-104488600D03*
X180981100Y-104488600D03*
X181481100Y-104488600D03*
X182481100Y-104488600D03*
X183481100Y-104488600D03*
X188481100Y-104488600D03*
X187481100Y-104488600D03*
X186481100Y-104488600D03*
X185481100Y-104488600D03*
X187981100Y-104488600D03*
X186981100Y-104488600D03*
X185981100Y-104488600D03*
X184481100Y-104488600D03*
X184981100Y-104488600D03*
D27*
X190481100Y-109488600D03*
X190481100Y-108488600D03*
X190481100Y-107488600D03*
X190481100Y-106488600D03*
X190481100Y-106988600D03*
X190481100Y-107988600D03*
X190481100Y-108988600D03*
X190481100Y-113988600D03*
X190481100Y-112988600D03*
X190481100Y-111988600D03*
X190481100Y-110988600D03*
X190481100Y-113488600D03*
X190481100Y-112488600D03*
X190481100Y-111488600D03*
X190481100Y-109988600D03*
X190481100Y-110488600D03*
D22*
X172951100Y-110098600D03*
X174251100Y-110098600D03*
D25*
X173500000Y-108650000D03*
X173500000Y-107350000D03*
D28*
X194111100Y-107653600D03*
X194111100Y-105953600D03*
D24*
X182381100Y-102728600D03*
X181181100Y-102728600D03*
D23*
X193500000Y-114700000D03*
X193500000Y-113500000D03*
D24*
X188131100Y-102708600D03*
X186931100Y-102708600D03*
D23*
X192200000Y-114700000D03*
X192200000Y-113500000D03*
X177201100Y-112798600D03*
X177201100Y-113998600D03*
D10*
G36*
X177432803Y-106869322D02*
G01*
X177447364Y-106871482D01*
X177461643Y-106875059D01*
X177475503Y-106880018D01*
X177488810Y-106886312D01*
X177501436Y-106893880D01*
X177513259Y-106902648D01*
X177524166Y-106912534D01*
X177534052Y-106923441D01*
X177542820Y-106935264D01*
X177550388Y-106947890D01*
X177556682Y-106961197D01*
X177561641Y-106975057D01*
X177565218Y-106989336D01*
X177567378Y-107003897D01*
X177568100Y-107018600D01*
X177568100Y-107718600D01*
X177567378Y-107733303D01*
X177565218Y-107747864D01*
X177561641Y-107762143D01*
X177556682Y-107776003D01*
X177550388Y-107789310D01*
X177542820Y-107801936D01*
X177534052Y-107813759D01*
X177524166Y-107824666D01*
X177513259Y-107834552D01*
X177501436Y-107843320D01*
X177488810Y-107850888D01*
X177475503Y-107857182D01*
X177461643Y-107862141D01*
X177447364Y-107865718D01*
X177432803Y-107867878D01*
X177418100Y-107868600D01*
X176718100Y-107868600D01*
X176703397Y-107867878D01*
X176688836Y-107865718D01*
X176674557Y-107862141D01*
X176660697Y-107857182D01*
X176647390Y-107850888D01*
X176634764Y-107843320D01*
X176622941Y-107834552D01*
X176612034Y-107824666D01*
X176602148Y-107813759D01*
X176593380Y-107801936D01*
X176585812Y-107789310D01*
X176579518Y-107776003D01*
X176574559Y-107762143D01*
X176570982Y-107747864D01*
X176568822Y-107733303D01*
X176568100Y-107718600D01*
X176568100Y-107018600D01*
X176568822Y-107003897D01*
X176570982Y-106989336D01*
X176574559Y-106975057D01*
X176579518Y-106961197D01*
X176585812Y-106947890D01*
X176593380Y-106935264D01*
X176602148Y-106923441D01*
X176612034Y-106912534D01*
X176622941Y-106902648D01*
X176634764Y-106893880D01*
X176647390Y-106886312D01*
X176660697Y-106880018D01*
X176674557Y-106875059D01*
X176688836Y-106871482D01*
X176703397Y-106869322D01*
X176718100Y-106868600D01*
X177418100Y-106868600D01*
X177432803Y-106869322D01*
X177432803Y-106869322D01*
G37*
D29*
X177068100Y-107368600D03*
D10*
G36*
X175678803Y-106869322D02*
G01*
X175693364Y-106871482D01*
X175707643Y-106875059D01*
X175721503Y-106880018D01*
X175734810Y-106886312D01*
X175747436Y-106893880D01*
X175759259Y-106902648D01*
X175770166Y-106912534D01*
X175780052Y-106923441D01*
X175788820Y-106935264D01*
X175796388Y-106947890D01*
X175802682Y-106961197D01*
X175807641Y-106975057D01*
X175811218Y-106989336D01*
X175813378Y-107003897D01*
X175814100Y-107018600D01*
X175814100Y-107718600D01*
X175813378Y-107733303D01*
X175811218Y-107747864D01*
X175807641Y-107762143D01*
X175802682Y-107776003D01*
X175796388Y-107789310D01*
X175788820Y-107801936D01*
X175780052Y-107813759D01*
X175770166Y-107824666D01*
X175759259Y-107834552D01*
X175747436Y-107843320D01*
X175734810Y-107850888D01*
X175721503Y-107857182D01*
X175707643Y-107862141D01*
X175693364Y-107865718D01*
X175678803Y-107867878D01*
X175664100Y-107868600D01*
X174964100Y-107868600D01*
X174949397Y-107867878D01*
X174934836Y-107865718D01*
X174920557Y-107862141D01*
X174906697Y-107857182D01*
X174893390Y-107850888D01*
X174880764Y-107843320D01*
X174868941Y-107834552D01*
X174858034Y-107824666D01*
X174848148Y-107813759D01*
X174839380Y-107801936D01*
X174831812Y-107789310D01*
X174825518Y-107776003D01*
X174820559Y-107762143D01*
X174816982Y-107747864D01*
X174814822Y-107733303D01*
X174814100Y-107718600D01*
X174814100Y-107018600D01*
X174814822Y-107003897D01*
X174816982Y-106989336D01*
X174820559Y-106975057D01*
X174825518Y-106961197D01*
X174831812Y-106947890D01*
X174839380Y-106935264D01*
X174848148Y-106923441D01*
X174858034Y-106912534D01*
X174868941Y-106902648D01*
X174880764Y-106893880D01*
X174893390Y-106886312D01*
X174906697Y-106880018D01*
X174920557Y-106875059D01*
X174934836Y-106871482D01*
X174949397Y-106869322D01*
X174964100Y-106868600D01*
X175664100Y-106868600D01*
X175678803Y-106869322D01*
X175678803Y-106869322D01*
G37*
D29*
X175314100Y-107368600D03*
D22*
X175541100Y-108738600D03*
X176841100Y-108738600D03*
D10*
G36*
X187118803Y-100899322D02*
G01*
X187133364Y-100901482D01*
X187147643Y-100905059D01*
X187161503Y-100910018D01*
X187174810Y-100916312D01*
X187187436Y-100923880D01*
X187199259Y-100932648D01*
X187210166Y-100942534D01*
X187220052Y-100953441D01*
X187228820Y-100965264D01*
X187236388Y-100977890D01*
X187242682Y-100991197D01*
X187247641Y-101005057D01*
X187251218Y-101019336D01*
X187253378Y-101033897D01*
X187254100Y-101048600D01*
X187254100Y-101748600D01*
X187253378Y-101763303D01*
X187251218Y-101777864D01*
X187247641Y-101792143D01*
X187242682Y-101806003D01*
X187236388Y-101819310D01*
X187228820Y-101831936D01*
X187220052Y-101843759D01*
X187210166Y-101854666D01*
X187199259Y-101864552D01*
X187187436Y-101873320D01*
X187174810Y-101880888D01*
X187161503Y-101887182D01*
X187147643Y-101892141D01*
X187133364Y-101895718D01*
X187118803Y-101897878D01*
X187104100Y-101898600D01*
X186404100Y-101898600D01*
X186389397Y-101897878D01*
X186374836Y-101895718D01*
X186360557Y-101892141D01*
X186346697Y-101887182D01*
X186333390Y-101880888D01*
X186320764Y-101873320D01*
X186308941Y-101864552D01*
X186298034Y-101854666D01*
X186288148Y-101843759D01*
X186279380Y-101831936D01*
X186271812Y-101819310D01*
X186265518Y-101806003D01*
X186260559Y-101792143D01*
X186256982Y-101777864D01*
X186254822Y-101763303D01*
X186254100Y-101748600D01*
X186254100Y-101048600D01*
X186254822Y-101033897D01*
X186256982Y-101019336D01*
X186260559Y-101005057D01*
X186265518Y-100991197D01*
X186271812Y-100977890D01*
X186279380Y-100965264D01*
X186288148Y-100953441D01*
X186298034Y-100942534D01*
X186308941Y-100932648D01*
X186320764Y-100923880D01*
X186333390Y-100916312D01*
X186346697Y-100910018D01*
X186360557Y-100905059D01*
X186374836Y-100901482D01*
X186389397Y-100899322D01*
X186404100Y-100898600D01*
X187104100Y-100898600D01*
X187118803Y-100899322D01*
X187118803Y-100899322D01*
G37*
D29*
X186754100Y-101398600D03*
D10*
G36*
X188872803Y-100899322D02*
G01*
X188887364Y-100901482D01*
X188901643Y-100905059D01*
X188915503Y-100910018D01*
X188928810Y-100916312D01*
X188941436Y-100923880D01*
X188953259Y-100932648D01*
X188964166Y-100942534D01*
X188974052Y-100953441D01*
X188982820Y-100965264D01*
X188990388Y-100977890D01*
X188996682Y-100991197D01*
X189001641Y-101005057D01*
X189005218Y-101019336D01*
X189007378Y-101033897D01*
X189008100Y-101048600D01*
X189008100Y-101748600D01*
X189007378Y-101763303D01*
X189005218Y-101777864D01*
X189001641Y-101792143D01*
X188996682Y-101806003D01*
X188990388Y-101819310D01*
X188982820Y-101831936D01*
X188974052Y-101843759D01*
X188964166Y-101854666D01*
X188953259Y-101864552D01*
X188941436Y-101873320D01*
X188928810Y-101880888D01*
X188915503Y-101887182D01*
X188901643Y-101892141D01*
X188887364Y-101895718D01*
X188872803Y-101897878D01*
X188858100Y-101898600D01*
X188158100Y-101898600D01*
X188143397Y-101897878D01*
X188128836Y-101895718D01*
X188114557Y-101892141D01*
X188100697Y-101887182D01*
X188087390Y-101880888D01*
X188074764Y-101873320D01*
X188062941Y-101864552D01*
X188052034Y-101854666D01*
X188042148Y-101843759D01*
X188033380Y-101831936D01*
X188025812Y-101819310D01*
X188019518Y-101806003D01*
X188014559Y-101792143D01*
X188010982Y-101777864D01*
X188008822Y-101763303D01*
X188008100Y-101748600D01*
X188008100Y-101048600D01*
X188008822Y-101033897D01*
X188010982Y-101019336D01*
X188014559Y-101005057D01*
X188019518Y-100991197D01*
X188025812Y-100977890D01*
X188033380Y-100965264D01*
X188042148Y-100953441D01*
X188052034Y-100942534D01*
X188062941Y-100932648D01*
X188074764Y-100923880D01*
X188087390Y-100916312D01*
X188100697Y-100910018D01*
X188114557Y-100905059D01*
X188128836Y-100901482D01*
X188143397Y-100899322D01*
X188158100Y-100898600D01*
X188858100Y-100898600D01*
X188872803Y-100899322D01*
X188872803Y-100899322D01*
G37*
D29*
X188508100Y-101398600D03*
D22*
X184061100Y-101428600D03*
X185361100Y-101428600D03*
D30*
X193361100Y-109228600D03*
X193361100Y-110428600D03*
X193361100Y-111628600D03*
D25*
X192700000Y-106493600D03*
X192700000Y-107793600D03*
D31*
X173261100Y-126208600D03*
X173261100Y-123408600D03*
D24*
X188000000Y-117575000D03*
X186800000Y-117575000D03*
D23*
X181261100Y-118728600D03*
X181261100Y-119928600D03*
D25*
X163181100Y-107938600D03*
X163181100Y-109238600D03*
D15*
X168641100Y-106373600D03*
X168641100Y-108123600D03*
D31*
X168661100Y-126228600D03*
X168661100Y-123428600D03*
D32*
X176831100Y-123128600D03*
X176831100Y-126128600D03*
X163075000Y-122875000D03*
X163075000Y-125875000D03*
X161050000Y-122850000D03*
X161050000Y-125850000D03*
X184891100Y-123278600D03*
X184891100Y-126278600D03*
X182791100Y-123278600D03*
X182791100Y-126278600D03*
X178771100Y-123128600D03*
X178771100Y-126128600D03*
X158950000Y-122825000D03*
X158950000Y-125825000D03*
D33*
X188550000Y-123225000D03*
X191550000Y-123225000D03*
X158875000Y-116825000D03*
X161875000Y-116825000D03*
D24*
X176300000Y-119700000D03*
X177500000Y-119700000D03*
X158875000Y-105250000D03*
X160075000Y-105250000D03*
D23*
X192675000Y-132975000D03*
X192675000Y-131775000D03*
X195050000Y-132875000D03*
X195050000Y-131675000D03*
D34*
X184250000Y-119575000D03*
X184250000Y-118575000D03*
D35*
X184250000Y-119075000D03*
D36*
X185700000Y-119825000D03*
X185700000Y-119325000D03*
X185700000Y-118825000D03*
X185700000Y-118325000D03*
X182800000Y-119825000D03*
X182800000Y-119325000D03*
X182800000Y-118825000D03*
X182800000Y-118325000D03*
D10*
G36*
X169424505Y-100226204D02*
G01*
X169448773Y-100229804D01*
X169472572Y-100235765D01*
X169495671Y-100244030D01*
X169517850Y-100254520D01*
X169538893Y-100267132D01*
X169558599Y-100281747D01*
X169576777Y-100298223D01*
X169593253Y-100316401D01*
X169607868Y-100336107D01*
X169620480Y-100357150D01*
X169630970Y-100379329D01*
X169639235Y-100402428D01*
X169645196Y-100426227D01*
X169648796Y-100450495D01*
X169650000Y-100474999D01*
X169650000Y-101775001D01*
X169648796Y-101799505D01*
X169645196Y-101823773D01*
X169639235Y-101847572D01*
X169630970Y-101870671D01*
X169620480Y-101892850D01*
X169607868Y-101913893D01*
X169593253Y-101933599D01*
X169576777Y-101951777D01*
X169558599Y-101968253D01*
X169538893Y-101982868D01*
X169517850Y-101995480D01*
X169495671Y-102005970D01*
X169472572Y-102014235D01*
X169448773Y-102020196D01*
X169424505Y-102023796D01*
X169400001Y-102025000D01*
X168699999Y-102025000D01*
X168675495Y-102023796D01*
X168651227Y-102020196D01*
X168627428Y-102014235D01*
X168604329Y-102005970D01*
X168582150Y-101995480D01*
X168561107Y-101982868D01*
X168541401Y-101968253D01*
X168523223Y-101951777D01*
X168506747Y-101933599D01*
X168492132Y-101913893D01*
X168479520Y-101892850D01*
X168469030Y-101870671D01*
X168460765Y-101847572D01*
X168454804Y-101823773D01*
X168451204Y-101799505D01*
X168450000Y-101775001D01*
X168450000Y-100474999D01*
X168451204Y-100450495D01*
X168454804Y-100426227D01*
X168460765Y-100402428D01*
X168469030Y-100379329D01*
X168479520Y-100357150D01*
X168492132Y-100336107D01*
X168506747Y-100316401D01*
X168523223Y-100298223D01*
X168541401Y-100281747D01*
X168561107Y-100267132D01*
X168582150Y-100254520D01*
X168604329Y-100244030D01*
X168627428Y-100235765D01*
X168651227Y-100229804D01*
X168675495Y-100226204D01*
X168699999Y-100225000D01*
X169400001Y-100225000D01*
X169424505Y-100226204D01*
X169424505Y-100226204D01*
G37*
D18*
X169050000Y-101125000D03*
D10*
G36*
X179024505Y-100226204D02*
G01*
X179048773Y-100229804D01*
X179072572Y-100235765D01*
X179095671Y-100244030D01*
X179117850Y-100254520D01*
X179138893Y-100267132D01*
X179158599Y-100281747D01*
X179176777Y-100298223D01*
X179193253Y-100316401D01*
X179207868Y-100336107D01*
X179220480Y-100357150D01*
X179230970Y-100379329D01*
X179239235Y-100402428D01*
X179245196Y-100426227D01*
X179248796Y-100450495D01*
X179250000Y-100474999D01*
X179250000Y-101775001D01*
X179248796Y-101799505D01*
X179245196Y-101823773D01*
X179239235Y-101847572D01*
X179230970Y-101870671D01*
X179220480Y-101892850D01*
X179207868Y-101913893D01*
X179193253Y-101933599D01*
X179176777Y-101951777D01*
X179158599Y-101968253D01*
X179138893Y-101982868D01*
X179117850Y-101995480D01*
X179095671Y-102005970D01*
X179072572Y-102014235D01*
X179048773Y-102020196D01*
X179024505Y-102023796D01*
X179000001Y-102025000D01*
X178299999Y-102025000D01*
X178275495Y-102023796D01*
X178251227Y-102020196D01*
X178227428Y-102014235D01*
X178204329Y-102005970D01*
X178182150Y-101995480D01*
X178161107Y-101982868D01*
X178141401Y-101968253D01*
X178123223Y-101951777D01*
X178106747Y-101933599D01*
X178092132Y-101913893D01*
X178079520Y-101892850D01*
X178069030Y-101870671D01*
X178060765Y-101847572D01*
X178054804Y-101823773D01*
X178051204Y-101799505D01*
X178050000Y-101775001D01*
X178050000Y-100474999D01*
X178051204Y-100450495D01*
X178054804Y-100426227D01*
X178060765Y-100402428D01*
X178069030Y-100379329D01*
X178079520Y-100357150D01*
X178092132Y-100336107D01*
X178106747Y-100316401D01*
X178123223Y-100298223D01*
X178141401Y-100281747D01*
X178161107Y-100267132D01*
X178182150Y-100254520D01*
X178204329Y-100244030D01*
X178227428Y-100235765D01*
X178251227Y-100229804D01*
X178275495Y-100226204D01*
X178299999Y-100225000D01*
X179000001Y-100225000D01*
X179024505Y-100226204D01*
X179024505Y-100226204D01*
G37*
D18*
X178650000Y-101125000D03*
D10*
G36*
X170514703Y-104225722D02*
G01*
X170529264Y-104227882D01*
X170543543Y-104231459D01*
X170557403Y-104236418D01*
X170570710Y-104242712D01*
X170583336Y-104250280D01*
X170595159Y-104259048D01*
X170606066Y-104268934D01*
X170615952Y-104279841D01*
X170624720Y-104291664D01*
X170632288Y-104304290D01*
X170638582Y-104317597D01*
X170643541Y-104331457D01*
X170647118Y-104345736D01*
X170649278Y-104360297D01*
X170650000Y-104375000D01*
X170650000Y-105625000D01*
X170649278Y-105639703D01*
X170647118Y-105654264D01*
X170643541Y-105668543D01*
X170638582Y-105682403D01*
X170632288Y-105695710D01*
X170624720Y-105708336D01*
X170615952Y-105720159D01*
X170606066Y-105731066D01*
X170595159Y-105740952D01*
X170583336Y-105749720D01*
X170570710Y-105757288D01*
X170557403Y-105763582D01*
X170543543Y-105768541D01*
X170529264Y-105772118D01*
X170514703Y-105774278D01*
X170500000Y-105775000D01*
X170200000Y-105775000D01*
X170185297Y-105774278D01*
X170170736Y-105772118D01*
X170156457Y-105768541D01*
X170142597Y-105763582D01*
X170129290Y-105757288D01*
X170116664Y-105749720D01*
X170104841Y-105740952D01*
X170093934Y-105731066D01*
X170084048Y-105720159D01*
X170075280Y-105708336D01*
X170067712Y-105695710D01*
X170061418Y-105682403D01*
X170056459Y-105668543D01*
X170052882Y-105654264D01*
X170050722Y-105639703D01*
X170050000Y-105625000D01*
X170050000Y-104375000D01*
X170050722Y-104360297D01*
X170052882Y-104345736D01*
X170056459Y-104331457D01*
X170061418Y-104317597D01*
X170067712Y-104304290D01*
X170075280Y-104291664D01*
X170084048Y-104279841D01*
X170093934Y-104268934D01*
X170104841Y-104259048D01*
X170116664Y-104250280D01*
X170129290Y-104242712D01*
X170142597Y-104236418D01*
X170156457Y-104231459D01*
X170170736Y-104227882D01*
X170185297Y-104225722D01*
X170200000Y-104225000D01*
X170500000Y-104225000D01*
X170514703Y-104225722D01*
X170514703Y-104225722D01*
G37*
D37*
X170350000Y-105000000D03*
D10*
G36*
X171514703Y-104225722D02*
G01*
X171529264Y-104227882D01*
X171543543Y-104231459D01*
X171557403Y-104236418D01*
X171570710Y-104242712D01*
X171583336Y-104250280D01*
X171595159Y-104259048D01*
X171606066Y-104268934D01*
X171615952Y-104279841D01*
X171624720Y-104291664D01*
X171632288Y-104304290D01*
X171638582Y-104317597D01*
X171643541Y-104331457D01*
X171647118Y-104345736D01*
X171649278Y-104360297D01*
X171650000Y-104375000D01*
X171650000Y-105625000D01*
X171649278Y-105639703D01*
X171647118Y-105654264D01*
X171643541Y-105668543D01*
X171638582Y-105682403D01*
X171632288Y-105695710D01*
X171624720Y-105708336D01*
X171615952Y-105720159D01*
X171606066Y-105731066D01*
X171595159Y-105740952D01*
X171583336Y-105749720D01*
X171570710Y-105757288D01*
X171557403Y-105763582D01*
X171543543Y-105768541D01*
X171529264Y-105772118D01*
X171514703Y-105774278D01*
X171500000Y-105775000D01*
X171200000Y-105775000D01*
X171185297Y-105774278D01*
X171170736Y-105772118D01*
X171156457Y-105768541D01*
X171142597Y-105763582D01*
X171129290Y-105757288D01*
X171116664Y-105749720D01*
X171104841Y-105740952D01*
X171093934Y-105731066D01*
X171084048Y-105720159D01*
X171075280Y-105708336D01*
X171067712Y-105695710D01*
X171061418Y-105682403D01*
X171056459Y-105668543D01*
X171052882Y-105654264D01*
X171050722Y-105639703D01*
X171050000Y-105625000D01*
X171050000Y-104375000D01*
X171050722Y-104360297D01*
X171052882Y-104345736D01*
X171056459Y-104331457D01*
X171061418Y-104317597D01*
X171067712Y-104304290D01*
X171075280Y-104291664D01*
X171084048Y-104279841D01*
X171093934Y-104268934D01*
X171104841Y-104259048D01*
X171116664Y-104250280D01*
X171129290Y-104242712D01*
X171142597Y-104236418D01*
X171156457Y-104231459D01*
X171170736Y-104227882D01*
X171185297Y-104225722D01*
X171200000Y-104225000D01*
X171500000Y-104225000D01*
X171514703Y-104225722D01*
X171514703Y-104225722D01*
G37*
D37*
X171350000Y-105000000D03*
D10*
G36*
X172514703Y-104225722D02*
G01*
X172529264Y-104227882D01*
X172543543Y-104231459D01*
X172557403Y-104236418D01*
X172570710Y-104242712D01*
X172583336Y-104250280D01*
X172595159Y-104259048D01*
X172606066Y-104268934D01*
X172615952Y-104279841D01*
X172624720Y-104291664D01*
X172632288Y-104304290D01*
X172638582Y-104317597D01*
X172643541Y-104331457D01*
X172647118Y-104345736D01*
X172649278Y-104360297D01*
X172650000Y-104375000D01*
X172650000Y-105625000D01*
X172649278Y-105639703D01*
X172647118Y-105654264D01*
X172643541Y-105668543D01*
X172638582Y-105682403D01*
X172632288Y-105695710D01*
X172624720Y-105708336D01*
X172615952Y-105720159D01*
X172606066Y-105731066D01*
X172595159Y-105740952D01*
X172583336Y-105749720D01*
X172570710Y-105757288D01*
X172557403Y-105763582D01*
X172543543Y-105768541D01*
X172529264Y-105772118D01*
X172514703Y-105774278D01*
X172500000Y-105775000D01*
X172200000Y-105775000D01*
X172185297Y-105774278D01*
X172170736Y-105772118D01*
X172156457Y-105768541D01*
X172142597Y-105763582D01*
X172129290Y-105757288D01*
X172116664Y-105749720D01*
X172104841Y-105740952D01*
X172093934Y-105731066D01*
X172084048Y-105720159D01*
X172075280Y-105708336D01*
X172067712Y-105695710D01*
X172061418Y-105682403D01*
X172056459Y-105668543D01*
X172052882Y-105654264D01*
X172050722Y-105639703D01*
X172050000Y-105625000D01*
X172050000Y-104375000D01*
X172050722Y-104360297D01*
X172052882Y-104345736D01*
X172056459Y-104331457D01*
X172061418Y-104317597D01*
X172067712Y-104304290D01*
X172075280Y-104291664D01*
X172084048Y-104279841D01*
X172093934Y-104268934D01*
X172104841Y-104259048D01*
X172116664Y-104250280D01*
X172129290Y-104242712D01*
X172142597Y-104236418D01*
X172156457Y-104231459D01*
X172170736Y-104227882D01*
X172185297Y-104225722D01*
X172200000Y-104225000D01*
X172500000Y-104225000D01*
X172514703Y-104225722D01*
X172514703Y-104225722D01*
G37*
D37*
X172350000Y-105000000D03*
D10*
G36*
X173514703Y-104225722D02*
G01*
X173529264Y-104227882D01*
X173543543Y-104231459D01*
X173557403Y-104236418D01*
X173570710Y-104242712D01*
X173583336Y-104250280D01*
X173595159Y-104259048D01*
X173606066Y-104268934D01*
X173615952Y-104279841D01*
X173624720Y-104291664D01*
X173632288Y-104304290D01*
X173638582Y-104317597D01*
X173643541Y-104331457D01*
X173647118Y-104345736D01*
X173649278Y-104360297D01*
X173650000Y-104375000D01*
X173650000Y-105625000D01*
X173649278Y-105639703D01*
X173647118Y-105654264D01*
X173643541Y-105668543D01*
X173638582Y-105682403D01*
X173632288Y-105695710D01*
X173624720Y-105708336D01*
X173615952Y-105720159D01*
X173606066Y-105731066D01*
X173595159Y-105740952D01*
X173583336Y-105749720D01*
X173570710Y-105757288D01*
X173557403Y-105763582D01*
X173543543Y-105768541D01*
X173529264Y-105772118D01*
X173514703Y-105774278D01*
X173500000Y-105775000D01*
X173200000Y-105775000D01*
X173185297Y-105774278D01*
X173170736Y-105772118D01*
X173156457Y-105768541D01*
X173142597Y-105763582D01*
X173129290Y-105757288D01*
X173116664Y-105749720D01*
X173104841Y-105740952D01*
X173093934Y-105731066D01*
X173084048Y-105720159D01*
X173075280Y-105708336D01*
X173067712Y-105695710D01*
X173061418Y-105682403D01*
X173056459Y-105668543D01*
X173052882Y-105654264D01*
X173050722Y-105639703D01*
X173050000Y-105625000D01*
X173050000Y-104375000D01*
X173050722Y-104360297D01*
X173052882Y-104345736D01*
X173056459Y-104331457D01*
X173061418Y-104317597D01*
X173067712Y-104304290D01*
X173075280Y-104291664D01*
X173084048Y-104279841D01*
X173093934Y-104268934D01*
X173104841Y-104259048D01*
X173116664Y-104250280D01*
X173129290Y-104242712D01*
X173142597Y-104236418D01*
X173156457Y-104231459D01*
X173170736Y-104227882D01*
X173185297Y-104225722D01*
X173200000Y-104225000D01*
X173500000Y-104225000D01*
X173514703Y-104225722D01*
X173514703Y-104225722D01*
G37*
D37*
X173350000Y-105000000D03*
D10*
G36*
X174514703Y-104225722D02*
G01*
X174529264Y-104227882D01*
X174543543Y-104231459D01*
X174557403Y-104236418D01*
X174570710Y-104242712D01*
X174583336Y-104250280D01*
X174595159Y-104259048D01*
X174606066Y-104268934D01*
X174615952Y-104279841D01*
X174624720Y-104291664D01*
X174632288Y-104304290D01*
X174638582Y-104317597D01*
X174643541Y-104331457D01*
X174647118Y-104345736D01*
X174649278Y-104360297D01*
X174650000Y-104375000D01*
X174650000Y-105625000D01*
X174649278Y-105639703D01*
X174647118Y-105654264D01*
X174643541Y-105668543D01*
X174638582Y-105682403D01*
X174632288Y-105695710D01*
X174624720Y-105708336D01*
X174615952Y-105720159D01*
X174606066Y-105731066D01*
X174595159Y-105740952D01*
X174583336Y-105749720D01*
X174570710Y-105757288D01*
X174557403Y-105763582D01*
X174543543Y-105768541D01*
X174529264Y-105772118D01*
X174514703Y-105774278D01*
X174500000Y-105775000D01*
X174200000Y-105775000D01*
X174185297Y-105774278D01*
X174170736Y-105772118D01*
X174156457Y-105768541D01*
X174142597Y-105763582D01*
X174129290Y-105757288D01*
X174116664Y-105749720D01*
X174104841Y-105740952D01*
X174093934Y-105731066D01*
X174084048Y-105720159D01*
X174075280Y-105708336D01*
X174067712Y-105695710D01*
X174061418Y-105682403D01*
X174056459Y-105668543D01*
X174052882Y-105654264D01*
X174050722Y-105639703D01*
X174050000Y-105625000D01*
X174050000Y-104375000D01*
X174050722Y-104360297D01*
X174052882Y-104345736D01*
X174056459Y-104331457D01*
X174061418Y-104317597D01*
X174067712Y-104304290D01*
X174075280Y-104291664D01*
X174084048Y-104279841D01*
X174093934Y-104268934D01*
X174104841Y-104259048D01*
X174116664Y-104250280D01*
X174129290Y-104242712D01*
X174142597Y-104236418D01*
X174156457Y-104231459D01*
X174170736Y-104227882D01*
X174185297Y-104225722D01*
X174200000Y-104225000D01*
X174500000Y-104225000D01*
X174514703Y-104225722D01*
X174514703Y-104225722D01*
G37*
D37*
X174350000Y-105000000D03*
D10*
G36*
X175514703Y-104225722D02*
G01*
X175529264Y-104227882D01*
X175543543Y-104231459D01*
X175557403Y-104236418D01*
X175570710Y-104242712D01*
X175583336Y-104250280D01*
X175595159Y-104259048D01*
X175606066Y-104268934D01*
X175615952Y-104279841D01*
X175624720Y-104291664D01*
X175632288Y-104304290D01*
X175638582Y-104317597D01*
X175643541Y-104331457D01*
X175647118Y-104345736D01*
X175649278Y-104360297D01*
X175650000Y-104375000D01*
X175650000Y-105625000D01*
X175649278Y-105639703D01*
X175647118Y-105654264D01*
X175643541Y-105668543D01*
X175638582Y-105682403D01*
X175632288Y-105695710D01*
X175624720Y-105708336D01*
X175615952Y-105720159D01*
X175606066Y-105731066D01*
X175595159Y-105740952D01*
X175583336Y-105749720D01*
X175570710Y-105757288D01*
X175557403Y-105763582D01*
X175543543Y-105768541D01*
X175529264Y-105772118D01*
X175514703Y-105774278D01*
X175500000Y-105775000D01*
X175200000Y-105775000D01*
X175185297Y-105774278D01*
X175170736Y-105772118D01*
X175156457Y-105768541D01*
X175142597Y-105763582D01*
X175129290Y-105757288D01*
X175116664Y-105749720D01*
X175104841Y-105740952D01*
X175093934Y-105731066D01*
X175084048Y-105720159D01*
X175075280Y-105708336D01*
X175067712Y-105695710D01*
X175061418Y-105682403D01*
X175056459Y-105668543D01*
X175052882Y-105654264D01*
X175050722Y-105639703D01*
X175050000Y-105625000D01*
X175050000Y-104375000D01*
X175050722Y-104360297D01*
X175052882Y-104345736D01*
X175056459Y-104331457D01*
X175061418Y-104317597D01*
X175067712Y-104304290D01*
X175075280Y-104291664D01*
X175084048Y-104279841D01*
X175093934Y-104268934D01*
X175104841Y-104259048D01*
X175116664Y-104250280D01*
X175129290Y-104242712D01*
X175142597Y-104236418D01*
X175156457Y-104231459D01*
X175170736Y-104227882D01*
X175185297Y-104225722D01*
X175200000Y-104225000D01*
X175500000Y-104225000D01*
X175514703Y-104225722D01*
X175514703Y-104225722D01*
G37*
D37*
X175350000Y-105000000D03*
D10*
G36*
X176514703Y-104225722D02*
G01*
X176529264Y-104227882D01*
X176543543Y-104231459D01*
X176557403Y-104236418D01*
X176570710Y-104242712D01*
X176583336Y-104250280D01*
X176595159Y-104259048D01*
X176606066Y-104268934D01*
X176615952Y-104279841D01*
X176624720Y-104291664D01*
X176632288Y-104304290D01*
X176638582Y-104317597D01*
X176643541Y-104331457D01*
X176647118Y-104345736D01*
X176649278Y-104360297D01*
X176650000Y-104375000D01*
X176650000Y-105625000D01*
X176649278Y-105639703D01*
X176647118Y-105654264D01*
X176643541Y-105668543D01*
X176638582Y-105682403D01*
X176632288Y-105695710D01*
X176624720Y-105708336D01*
X176615952Y-105720159D01*
X176606066Y-105731066D01*
X176595159Y-105740952D01*
X176583336Y-105749720D01*
X176570710Y-105757288D01*
X176557403Y-105763582D01*
X176543543Y-105768541D01*
X176529264Y-105772118D01*
X176514703Y-105774278D01*
X176500000Y-105775000D01*
X176200000Y-105775000D01*
X176185297Y-105774278D01*
X176170736Y-105772118D01*
X176156457Y-105768541D01*
X176142597Y-105763582D01*
X176129290Y-105757288D01*
X176116664Y-105749720D01*
X176104841Y-105740952D01*
X176093934Y-105731066D01*
X176084048Y-105720159D01*
X176075280Y-105708336D01*
X176067712Y-105695710D01*
X176061418Y-105682403D01*
X176056459Y-105668543D01*
X176052882Y-105654264D01*
X176050722Y-105639703D01*
X176050000Y-105625000D01*
X176050000Y-104375000D01*
X176050722Y-104360297D01*
X176052882Y-104345736D01*
X176056459Y-104331457D01*
X176061418Y-104317597D01*
X176067712Y-104304290D01*
X176075280Y-104291664D01*
X176084048Y-104279841D01*
X176093934Y-104268934D01*
X176104841Y-104259048D01*
X176116664Y-104250280D01*
X176129290Y-104242712D01*
X176142597Y-104236418D01*
X176156457Y-104231459D01*
X176170736Y-104227882D01*
X176185297Y-104225722D01*
X176200000Y-104225000D01*
X176500000Y-104225000D01*
X176514703Y-104225722D01*
X176514703Y-104225722D01*
G37*
D37*
X176350000Y-105000000D03*
D10*
G36*
X177514703Y-104225722D02*
G01*
X177529264Y-104227882D01*
X177543543Y-104231459D01*
X177557403Y-104236418D01*
X177570710Y-104242712D01*
X177583336Y-104250280D01*
X177595159Y-104259048D01*
X177606066Y-104268934D01*
X177615952Y-104279841D01*
X177624720Y-104291664D01*
X177632288Y-104304290D01*
X177638582Y-104317597D01*
X177643541Y-104331457D01*
X177647118Y-104345736D01*
X177649278Y-104360297D01*
X177650000Y-104375000D01*
X177650000Y-105625000D01*
X177649278Y-105639703D01*
X177647118Y-105654264D01*
X177643541Y-105668543D01*
X177638582Y-105682403D01*
X177632288Y-105695710D01*
X177624720Y-105708336D01*
X177615952Y-105720159D01*
X177606066Y-105731066D01*
X177595159Y-105740952D01*
X177583336Y-105749720D01*
X177570710Y-105757288D01*
X177557403Y-105763582D01*
X177543543Y-105768541D01*
X177529264Y-105772118D01*
X177514703Y-105774278D01*
X177500000Y-105775000D01*
X177200000Y-105775000D01*
X177185297Y-105774278D01*
X177170736Y-105772118D01*
X177156457Y-105768541D01*
X177142597Y-105763582D01*
X177129290Y-105757288D01*
X177116664Y-105749720D01*
X177104841Y-105740952D01*
X177093934Y-105731066D01*
X177084048Y-105720159D01*
X177075280Y-105708336D01*
X177067712Y-105695710D01*
X177061418Y-105682403D01*
X177056459Y-105668543D01*
X177052882Y-105654264D01*
X177050722Y-105639703D01*
X177050000Y-105625000D01*
X177050000Y-104375000D01*
X177050722Y-104360297D01*
X177052882Y-104345736D01*
X177056459Y-104331457D01*
X177061418Y-104317597D01*
X177067712Y-104304290D01*
X177075280Y-104291664D01*
X177084048Y-104279841D01*
X177093934Y-104268934D01*
X177104841Y-104259048D01*
X177116664Y-104250280D01*
X177129290Y-104242712D01*
X177142597Y-104236418D01*
X177156457Y-104231459D01*
X177170736Y-104227882D01*
X177185297Y-104225722D01*
X177200000Y-104225000D01*
X177500000Y-104225000D01*
X177514703Y-104225722D01*
X177514703Y-104225722D01*
G37*
D37*
X177350000Y-105000000D03*
D38*
X160121100Y-113198600D03*
X163921100Y-113198600D03*
M02*
