G04 #@! TF.GenerationSoftware,KiCad,Pcbnew,(5.1.2-1)-1*
G04 #@! TF.CreationDate,2019-08-23T13:21:54-04:00*
G04 #@! TF.ProjectId,PCB_V1.2,5043425f-5631-42e3-922e-6b696361645f,rev?*
G04 #@! TF.SameCoordinates,Original*
G04 #@! TF.FileFunction,Legend,Bot*
G04 #@! TF.FilePolarity,Positive*
%FSLAX46Y46*%
G04 Gerber Fmt 4.6, Leading zero omitted, Abs format (unit mm)*
G04 Created by KiCad (PCBNEW (5.1.2-1)-1) date 2019-08-23 13:21:54*
%MOMM*%
%LPD*%
G04 APERTURE LIST*
%ADD10C,0.120000*%
%ADD11C,0.150000*%
%ADD12C,0.060000*%
%ADD13C,0.142240*%
%ADD14C,0.152400*%
%ADD15C,0.050800*%
G04 APERTURE END LIST*
D10*
X192200000Y-116400000D02*
X192200000Y-121400000D01*
X192200000Y-121400000D02*
X189800000Y-121400000D01*
X189800000Y-121400000D02*
X189800000Y-116400000D01*
X189800000Y-116400000D02*
X192200000Y-116400000D01*
D11*
X191357142Y-118157142D02*
X191404761Y-118109523D01*
X191452380Y-117966666D01*
X191452380Y-117871428D01*
X191404761Y-117728571D01*
X191309523Y-117633333D01*
X191214285Y-117585714D01*
X191023809Y-117538095D01*
X190880952Y-117538095D01*
X190690476Y-117585714D01*
X190595238Y-117633333D01*
X190500000Y-117728571D01*
X190452380Y-117871428D01*
X190452380Y-117966666D01*
X190500000Y-118109523D01*
X190547619Y-118157142D01*
X191166666Y-118538095D02*
X191166666Y-119014285D01*
X191452380Y-118442857D02*
X190452380Y-118776190D01*
X191452380Y-119109523D01*
X191452380Y-119442857D02*
X190452380Y-119442857D01*
X191452380Y-120014285D01*
X190452380Y-120014285D01*
X194957142Y-118157142D02*
X195004761Y-118109523D01*
X195052380Y-117966666D01*
X195052380Y-117871428D01*
X195004761Y-117728571D01*
X194909523Y-117633333D01*
X194814285Y-117585714D01*
X194623809Y-117538095D01*
X194480952Y-117538095D01*
X194290476Y-117585714D01*
X194195238Y-117633333D01*
X194100000Y-117728571D01*
X194052380Y-117871428D01*
X194052380Y-117966666D01*
X194100000Y-118109523D01*
X194147619Y-118157142D01*
X194766666Y-118538095D02*
X194766666Y-119014285D01*
X195052380Y-118442857D02*
X194052380Y-118776190D01*
X195052380Y-119109523D01*
X195052380Y-119442857D02*
X194052380Y-119442857D01*
X195052380Y-120014285D01*
X194052380Y-120014285D01*
D10*
X193400000Y-116400000D02*
X195800000Y-116400000D01*
X193400000Y-121400000D02*
X193400000Y-116400000D01*
X195800000Y-121400000D02*
X193400000Y-121400000D01*
X195800000Y-116400000D02*
X195800000Y-121400000D01*
D11*
X168096428Y-101635595D02*
X168096428Y-102397500D01*
X168191666Y-103587976D02*
X168191666Y-104064166D01*
X168477380Y-103492738D02*
X167477380Y-103826071D01*
X168477380Y-104159404D01*
X168477380Y-104492738D02*
X167477380Y-104492738D01*
X168477380Y-105064166D01*
X167477380Y-105064166D01*
X168191666Y-105492738D02*
X168191666Y-105968928D01*
X168477380Y-105397500D02*
X167477380Y-105730833D01*
X168477380Y-106064166D01*
X168477380Y-106873690D02*
X168477380Y-106397500D01*
X167477380Y-106397500D01*
X167477380Y-107397500D02*
X167477380Y-107587976D01*
X167525000Y-107683214D01*
X167620238Y-107778452D01*
X167810714Y-107826071D01*
X168144047Y-107826071D01*
X168334523Y-107778452D01*
X168429761Y-107683214D01*
X168477380Y-107587976D01*
X168477380Y-107397500D01*
X168429761Y-107302261D01*
X168334523Y-107207023D01*
X168144047Y-107159404D01*
X167810714Y-107159404D01*
X167620238Y-107207023D01*
X167525000Y-107302261D01*
X167477380Y-107397500D01*
X167525000Y-108778452D02*
X167477380Y-108683214D01*
X167477380Y-108540357D01*
X167525000Y-108397500D01*
X167620238Y-108302261D01*
X167715476Y-108254642D01*
X167905952Y-108207023D01*
X168048809Y-108207023D01*
X168239285Y-108254642D01*
X168334523Y-108302261D01*
X168429761Y-108397500D01*
X168477380Y-108540357D01*
X168477380Y-108635595D01*
X168429761Y-108778452D01*
X168382142Y-108826071D01*
X168048809Y-108826071D01*
X168048809Y-108635595D01*
X168572619Y-109016547D02*
X168572619Y-109778452D01*
X168477380Y-110016547D02*
X167477380Y-110016547D01*
X168477380Y-110492738D02*
X167477380Y-110492738D01*
X168477380Y-111064166D01*
X167477380Y-111064166D01*
X169746428Y-101635595D02*
X169746428Y-102397500D01*
X169127380Y-103635595D02*
X169936904Y-103635595D01*
X170032142Y-103683214D01*
X170079761Y-103730833D01*
X170127380Y-103826071D01*
X170127380Y-104016547D01*
X170079761Y-104111785D01*
X170032142Y-104159404D01*
X169936904Y-104207023D01*
X169127380Y-104207023D01*
X169841666Y-104635595D02*
X169841666Y-105111785D01*
X170127380Y-104540357D02*
X169127380Y-104873690D01*
X170127380Y-105207023D01*
X170127380Y-106111785D02*
X169651190Y-105778452D01*
X170127380Y-105540357D02*
X169127380Y-105540357D01*
X169127380Y-105921309D01*
X169175000Y-106016547D01*
X169222619Y-106064166D01*
X169317857Y-106111785D01*
X169460714Y-106111785D01*
X169555952Y-106064166D01*
X169603571Y-106016547D01*
X169651190Y-105921309D01*
X169651190Y-105540357D01*
X169127380Y-106397500D02*
X169127380Y-106968928D01*
X170127380Y-106683214D02*
X169127380Y-106683214D01*
X170222619Y-107064166D02*
X170222619Y-107826071D01*
X170127380Y-108635595D02*
X169651190Y-108302261D01*
X170127380Y-108064166D02*
X169127380Y-108064166D01*
X169127380Y-108445119D01*
X169175000Y-108540357D01*
X169222619Y-108587976D01*
X169317857Y-108635595D01*
X169460714Y-108635595D01*
X169555952Y-108587976D01*
X169603571Y-108540357D01*
X169651190Y-108445119D01*
X169651190Y-108064166D01*
X169127380Y-108968928D02*
X170127380Y-109635595D01*
X169127380Y-109635595D02*
X170127380Y-108968928D01*
X171396428Y-101635595D02*
X171396428Y-102397500D01*
X170777380Y-103635595D02*
X171586904Y-103635595D01*
X171682142Y-103683214D01*
X171729761Y-103730833D01*
X171777380Y-103826071D01*
X171777380Y-104016547D01*
X171729761Y-104111785D01*
X171682142Y-104159404D01*
X171586904Y-104207023D01*
X170777380Y-104207023D01*
X171491666Y-104635595D02*
X171491666Y-105111785D01*
X171777380Y-104540357D02*
X170777380Y-104873690D01*
X171777380Y-105207023D01*
X171777380Y-106111785D02*
X171301190Y-105778452D01*
X171777380Y-105540357D02*
X170777380Y-105540357D01*
X170777380Y-105921309D01*
X170825000Y-106016547D01*
X170872619Y-106064166D01*
X170967857Y-106111785D01*
X171110714Y-106111785D01*
X171205952Y-106064166D01*
X171253571Y-106016547D01*
X171301190Y-105921309D01*
X171301190Y-105540357D01*
X170777380Y-106397500D02*
X170777380Y-106968928D01*
X171777380Y-106683214D02*
X170777380Y-106683214D01*
X171872619Y-107064166D02*
X171872619Y-107826071D01*
X170777380Y-107921309D02*
X170777380Y-108492738D01*
X171777380Y-108207023D02*
X170777380Y-108207023D01*
X170777380Y-108730833D02*
X171777380Y-109397500D01*
X170777380Y-109397500D02*
X171777380Y-108730833D01*
X173046428Y-101635595D02*
X173046428Y-102397500D01*
X173427380Y-103635595D02*
X172427380Y-103635595D01*
X173427380Y-104207023D01*
X172427380Y-104207023D01*
X173427380Y-105254642D02*
X172951190Y-104921309D01*
X173427380Y-104683214D02*
X172427380Y-104683214D01*
X172427380Y-105064166D01*
X172475000Y-105159404D01*
X172522619Y-105207023D01*
X172617857Y-105254642D01*
X172760714Y-105254642D01*
X172855952Y-105207023D01*
X172903571Y-105159404D01*
X172951190Y-105064166D01*
X172951190Y-104683214D01*
X173379761Y-105635595D02*
X173427380Y-105778452D01*
X173427380Y-106016547D01*
X173379761Y-106111785D01*
X173332142Y-106159404D01*
X173236904Y-106207023D01*
X173141666Y-106207023D01*
X173046428Y-106159404D01*
X172998809Y-106111785D01*
X172951190Y-106016547D01*
X172903571Y-105826071D01*
X172855952Y-105730833D01*
X172808333Y-105683214D01*
X172713095Y-105635595D01*
X172617857Y-105635595D01*
X172522619Y-105683214D01*
X172475000Y-105730833D01*
X172427380Y-105826071D01*
X172427380Y-106064166D01*
X172475000Y-106207023D01*
X172427380Y-106492738D02*
X172427380Y-107064166D01*
X173427380Y-106778452D02*
X172427380Y-106778452D01*
X174696428Y-101635595D02*
X174696428Y-102397500D01*
X174077380Y-103492738D02*
X174077380Y-104064166D01*
X175077380Y-103778452D02*
X174077380Y-103778452D01*
X175077380Y-104397500D02*
X174077380Y-104397500D01*
X174791666Y-104730833D01*
X174077380Y-105064166D01*
X175077380Y-105064166D01*
X175029761Y-105492738D02*
X175077380Y-105635595D01*
X175077380Y-105873690D01*
X175029761Y-105968928D01*
X174982142Y-106016547D01*
X174886904Y-106064166D01*
X174791666Y-106064166D01*
X174696428Y-106016547D01*
X174648809Y-105968928D01*
X174601190Y-105873690D01*
X174553571Y-105683214D01*
X174505952Y-105587976D01*
X174458333Y-105540357D01*
X174363095Y-105492738D01*
X174267857Y-105492738D01*
X174172619Y-105540357D01*
X174125000Y-105587976D01*
X174077380Y-105683214D01*
X174077380Y-105921309D01*
X174125000Y-106064166D01*
X176346428Y-101635595D02*
X176346428Y-102397500D01*
X175775000Y-104159404D02*
X175727380Y-104064166D01*
X175727380Y-103921309D01*
X175775000Y-103778452D01*
X175870238Y-103683214D01*
X175965476Y-103635595D01*
X176155952Y-103587976D01*
X176298809Y-103587976D01*
X176489285Y-103635595D01*
X176584523Y-103683214D01*
X176679761Y-103778452D01*
X176727380Y-103921309D01*
X176727380Y-104016547D01*
X176679761Y-104159404D01*
X176632142Y-104207023D01*
X176298809Y-104207023D01*
X176298809Y-104016547D01*
X176727380Y-104635595D02*
X175727380Y-104635595D01*
X176727380Y-105207023D01*
X175727380Y-105207023D01*
X176727380Y-105683214D02*
X175727380Y-105683214D01*
X175727380Y-105921309D01*
X175775000Y-106064166D01*
X175870238Y-106159404D01*
X175965476Y-106207023D01*
X176155952Y-106254642D01*
X176298809Y-106254642D01*
X176489285Y-106207023D01*
X176584523Y-106159404D01*
X176679761Y-106064166D01*
X176727380Y-105921309D01*
X176727380Y-105683214D01*
X177996428Y-101635595D02*
X177996428Y-102397500D01*
X177377380Y-103492738D02*
X177377380Y-104064166D01*
X178377380Y-103778452D02*
X177377380Y-103778452D01*
X178282142Y-104968928D02*
X178329761Y-104921309D01*
X178377380Y-104778452D01*
X178377380Y-104683214D01*
X178329761Y-104540357D01*
X178234523Y-104445119D01*
X178139285Y-104397500D01*
X177948809Y-104349880D01*
X177805952Y-104349880D01*
X177615476Y-104397500D01*
X177520238Y-104445119D01*
X177425000Y-104540357D01*
X177377380Y-104683214D01*
X177377380Y-104778452D01*
X177425000Y-104921309D01*
X177472619Y-104968928D01*
X178377380Y-105397500D02*
X177377380Y-105397500D01*
X178377380Y-105968928D02*
X177805952Y-105540357D01*
X177377380Y-105968928D02*
X177948809Y-105397500D01*
X179646428Y-101635595D02*
X179646428Y-102397500D01*
X179027380Y-103540357D02*
X179027380Y-104159404D01*
X179408333Y-103826071D01*
X179408333Y-103968928D01*
X179455952Y-104064166D01*
X179503571Y-104111785D01*
X179598809Y-104159404D01*
X179836904Y-104159404D01*
X179932142Y-104111785D01*
X179979761Y-104064166D01*
X180027380Y-103968928D01*
X180027380Y-103683214D01*
X179979761Y-103587976D01*
X179932142Y-103540357D01*
X179027380Y-104445119D02*
X180027380Y-104778452D01*
X179027380Y-105111785D01*
X179027380Y-105349880D02*
X179027380Y-105968928D01*
X179408333Y-105635595D01*
X179408333Y-105778452D01*
X179455952Y-105873690D01*
X179503571Y-105921309D01*
X179598809Y-105968928D01*
X179836904Y-105968928D01*
X179932142Y-105921309D01*
X179979761Y-105873690D01*
X180027380Y-105778452D01*
X180027380Y-105492738D01*
X179979761Y-105397500D01*
X179932142Y-105349880D01*
D12*
X179387666Y-132976428D02*
X179387666Y-132376428D01*
X179101952Y-132976428D01*
X179101952Y-132376428D01*
X178792428Y-132976428D02*
X178840047Y-132947857D01*
X178863856Y-132919285D01*
X178887666Y-132862142D01*
X178887666Y-132690714D01*
X178863856Y-132633571D01*
X178840047Y-132605000D01*
X178792428Y-132576428D01*
X178720999Y-132576428D01*
X178673380Y-132605000D01*
X178649571Y-132633571D01*
X178625761Y-132690714D01*
X178625761Y-132862142D01*
X178649571Y-132919285D01*
X178673380Y-132947857D01*
X178720999Y-132976428D01*
X178792428Y-132976428D01*
X178411475Y-132976428D02*
X178411475Y-132576428D01*
X178411475Y-132633571D02*
X178387666Y-132605000D01*
X178340047Y-132576428D01*
X178268618Y-132576428D01*
X178220999Y-132605000D01*
X178197190Y-132662142D01*
X178197190Y-132976428D01*
X178197190Y-132662142D02*
X178173380Y-132605000D01*
X178125761Y-132576428D01*
X178054333Y-132576428D01*
X178006714Y-132605000D01*
X177982904Y-132662142D01*
X177982904Y-132976428D01*
X177530523Y-132976428D02*
X177530523Y-132662142D01*
X177554333Y-132605000D01*
X177601952Y-132576428D01*
X177697190Y-132576428D01*
X177744809Y-132605000D01*
X177530523Y-132947857D02*
X177578142Y-132976428D01*
X177697190Y-132976428D01*
X177744809Y-132947857D01*
X177768618Y-132890714D01*
X177768618Y-132833571D01*
X177744809Y-132776428D01*
X177697190Y-132747857D01*
X177578142Y-132747857D01*
X177530523Y-132719285D01*
X177078142Y-132976428D02*
X177078142Y-132376428D01*
X177078142Y-132947857D02*
X177125761Y-132976428D01*
X177220999Y-132976428D01*
X177268618Y-132947857D01*
X177292428Y-132919285D01*
X177316237Y-132862142D01*
X177316237Y-132690714D01*
X177292428Y-132633571D01*
X177268618Y-132605000D01*
X177220999Y-132576428D01*
X177125761Y-132576428D01*
X177078142Y-132605000D01*
X176292428Y-132662142D02*
X176220999Y-132690714D01*
X176197190Y-132719285D01*
X176173380Y-132776428D01*
X176173380Y-132862142D01*
X176197190Y-132919285D01*
X176220999Y-132947857D01*
X176268618Y-132976428D01*
X176459094Y-132976428D01*
X176459094Y-132376428D01*
X176292428Y-132376428D01*
X176244809Y-132405000D01*
X176220999Y-132433571D01*
X176197190Y-132490714D01*
X176197190Y-132547857D01*
X176220999Y-132605000D01*
X176244809Y-132633571D01*
X176292428Y-132662142D01*
X176459094Y-132662142D01*
X175720999Y-132976428D02*
X175959094Y-132976428D01*
X175959094Y-132376428D01*
X175554333Y-132976428D02*
X175554333Y-132376428D01*
X175435285Y-132376428D01*
X175363856Y-132405000D01*
X175316237Y-132462142D01*
X175292428Y-132519285D01*
X175268618Y-132633571D01*
X175268618Y-132719285D01*
X175292428Y-132833571D01*
X175316237Y-132890714D01*
X175363856Y-132947857D01*
X175435285Y-132976428D01*
X175554333Y-132976428D01*
X174768618Y-132919285D02*
X174792428Y-132947857D01*
X174863856Y-132976428D01*
X174911475Y-132976428D01*
X174982904Y-132947857D01*
X175030523Y-132890714D01*
X175054333Y-132833571D01*
X175078142Y-132719285D01*
X175078142Y-132633571D01*
X175054333Y-132519285D01*
X175030523Y-132462142D01*
X174982904Y-132405000D01*
X174911475Y-132376428D01*
X174863856Y-132376428D01*
X174792428Y-132405000D01*
X174768618Y-132433571D01*
X179220999Y-133622142D02*
X179149571Y-133650714D01*
X179125761Y-133679285D01*
X179101952Y-133736428D01*
X179101952Y-133822142D01*
X179125761Y-133879285D01*
X179149571Y-133907857D01*
X179197190Y-133936428D01*
X179387666Y-133936428D01*
X179387666Y-133336428D01*
X179220999Y-133336428D01*
X179173380Y-133365000D01*
X179149571Y-133393571D01*
X179125761Y-133450714D01*
X179125761Y-133507857D01*
X179149571Y-133565000D01*
X179173380Y-133593571D01*
X179220999Y-133622142D01*
X179387666Y-133622142D01*
X178697190Y-133907857D02*
X178744809Y-133936428D01*
X178840047Y-133936428D01*
X178887666Y-133907857D01*
X178911475Y-133850714D01*
X178911475Y-133622142D01*
X178887666Y-133565000D01*
X178840047Y-133536428D01*
X178744809Y-133536428D01*
X178697190Y-133565000D01*
X178673380Y-133622142D01*
X178673380Y-133679285D01*
X178911475Y-133736428D01*
X178459094Y-133536428D02*
X178459094Y-133936428D01*
X178459094Y-133593571D02*
X178435285Y-133565000D01*
X178387666Y-133536428D01*
X178316237Y-133536428D01*
X178268618Y-133565000D01*
X178244809Y-133622142D01*
X178244809Y-133936428D01*
X177625761Y-133936428D02*
X177625761Y-133336428D01*
X177340047Y-133936428D02*
X177554333Y-133593571D01*
X177340047Y-133336428D02*
X177625761Y-133679285D01*
X176911475Y-133936428D02*
X176911475Y-133622142D01*
X176935285Y-133565000D01*
X176982904Y-133536428D01*
X177078142Y-133536428D01*
X177125761Y-133565000D01*
X176911475Y-133907857D02*
X176959094Y-133936428D01*
X177078142Y-133936428D01*
X177125761Y-133907857D01*
X177149571Y-133850714D01*
X177149571Y-133793571D01*
X177125761Y-133736428D01*
X177078142Y-133707857D01*
X176959094Y-133707857D01*
X176911475Y-133679285D01*
X176744809Y-133536428D02*
X176554333Y-133536428D01*
X176673380Y-133336428D02*
X176673380Y-133850714D01*
X176649571Y-133907857D01*
X176601952Y-133936428D01*
X176554333Y-133936428D01*
X176435285Y-133536428D02*
X176173380Y-133536428D01*
X176435285Y-133936428D01*
X176173380Y-133936428D01*
X179292428Y-134296428D02*
X179197190Y-134296428D01*
X179149571Y-134325000D01*
X179101952Y-134382142D01*
X179078142Y-134496428D01*
X179078142Y-134696428D01*
X179101952Y-134810714D01*
X179149571Y-134867857D01*
X179197190Y-134896428D01*
X179292428Y-134896428D01*
X179340047Y-134867857D01*
X179387666Y-134810714D01*
X179411475Y-134696428D01*
X179411475Y-134496428D01*
X179387666Y-134382142D01*
X179340047Y-134325000D01*
X179292428Y-134296428D01*
X178863856Y-134896428D02*
X178863856Y-134496428D01*
X178863856Y-134610714D02*
X178840047Y-134553571D01*
X178816237Y-134525000D01*
X178768618Y-134496428D01*
X178720999Y-134496428D01*
X178554333Y-134896428D02*
X178554333Y-134496428D01*
X178554333Y-134296428D02*
X178578142Y-134325000D01*
X178554333Y-134353571D01*
X178530523Y-134325000D01*
X178554333Y-134296428D01*
X178554333Y-134353571D01*
X178101952Y-134496428D02*
X178101952Y-134982142D01*
X178125761Y-135039285D01*
X178149571Y-135067857D01*
X178197190Y-135096428D01*
X178268618Y-135096428D01*
X178316237Y-135067857D01*
X178101952Y-134867857D02*
X178149571Y-134896428D01*
X178244809Y-134896428D01*
X178292428Y-134867857D01*
X178316237Y-134839285D01*
X178340047Y-134782142D01*
X178340047Y-134610714D01*
X178316237Y-134553571D01*
X178292428Y-134525000D01*
X178244809Y-134496428D01*
X178149571Y-134496428D01*
X178101952Y-134525000D01*
X177863856Y-134896428D02*
X177863856Y-134496428D01*
X177863856Y-134296428D02*
X177887666Y-134325000D01*
X177863856Y-134353571D01*
X177840047Y-134325000D01*
X177863856Y-134296428D01*
X177863856Y-134353571D01*
X177625761Y-134496428D02*
X177625761Y-134896428D01*
X177625761Y-134553571D02*
X177601952Y-134525000D01*
X177554333Y-134496428D01*
X177482904Y-134496428D01*
X177435285Y-134525000D01*
X177411475Y-134582142D01*
X177411475Y-134896428D01*
X176959094Y-134896428D02*
X176959094Y-134582142D01*
X176982904Y-134525000D01*
X177030523Y-134496428D01*
X177125761Y-134496428D01*
X177173380Y-134525000D01*
X176959094Y-134867857D02*
X177006714Y-134896428D01*
X177125761Y-134896428D01*
X177173380Y-134867857D01*
X177197190Y-134810714D01*
X177197190Y-134753571D01*
X177173380Y-134696428D01*
X177125761Y-134667857D01*
X177006714Y-134667857D01*
X176959094Y-134639285D01*
X176649571Y-134896428D02*
X176697190Y-134867857D01*
X176720999Y-134810714D01*
X176720999Y-134296428D01*
X176078142Y-134896428D02*
X176078142Y-134296428D01*
X175959094Y-134296428D01*
X175887666Y-134325000D01*
X175840047Y-134382142D01*
X175816237Y-134439285D01*
X175792428Y-134553571D01*
X175792428Y-134639285D01*
X175816237Y-134753571D01*
X175840047Y-134810714D01*
X175887666Y-134867857D01*
X175959094Y-134896428D01*
X176078142Y-134896428D01*
X175387666Y-134867857D02*
X175435285Y-134896428D01*
X175530523Y-134896428D01*
X175578142Y-134867857D01*
X175601952Y-134810714D01*
X175601952Y-134582142D01*
X175578142Y-134525000D01*
X175530523Y-134496428D01*
X175435285Y-134496428D01*
X175387666Y-134525000D01*
X175363856Y-134582142D01*
X175363856Y-134639285D01*
X175601952Y-134696428D01*
X175173380Y-134867857D02*
X175125761Y-134896428D01*
X175030523Y-134896428D01*
X174982904Y-134867857D01*
X174959094Y-134810714D01*
X174959094Y-134782142D01*
X174982904Y-134725000D01*
X175030523Y-134696428D01*
X175101952Y-134696428D01*
X175149571Y-134667857D01*
X175173380Y-134610714D01*
X175173380Y-134582142D01*
X175149571Y-134525000D01*
X175101952Y-134496428D01*
X175030523Y-134496428D01*
X174982904Y-134525000D01*
X174744809Y-134896428D02*
X174744809Y-134496428D01*
X174744809Y-134296428D02*
X174768618Y-134325000D01*
X174744809Y-134353571D01*
X174720999Y-134325000D01*
X174744809Y-134296428D01*
X174744809Y-134353571D01*
X174292428Y-134496428D02*
X174292428Y-134982142D01*
X174316237Y-135039285D01*
X174340047Y-135067857D01*
X174387666Y-135096428D01*
X174459094Y-135096428D01*
X174506714Y-135067857D01*
X174292428Y-134867857D02*
X174340047Y-134896428D01*
X174435285Y-134896428D01*
X174482904Y-134867857D01*
X174506714Y-134839285D01*
X174530523Y-134782142D01*
X174530523Y-134610714D01*
X174506714Y-134553571D01*
X174482904Y-134525000D01*
X174435285Y-134496428D01*
X174340047Y-134496428D01*
X174292428Y-134525000D01*
X174054333Y-134496428D02*
X174054333Y-134896428D01*
X174054333Y-134553571D02*
X174030523Y-134525000D01*
X173982904Y-134496428D01*
X173911475Y-134496428D01*
X173863856Y-134525000D01*
X173840047Y-134582142D01*
X173840047Y-134896428D01*
X179366666Y-135380952D02*
X179233333Y-135780952D01*
X179100000Y-135380952D01*
X178757142Y-135780952D02*
X178985714Y-135780952D01*
X178871428Y-135780952D02*
X178871428Y-135380952D01*
X178909523Y-135438095D01*
X178947619Y-135476190D01*
X178985714Y-135495238D01*
X178585714Y-135742857D02*
X178566666Y-135761904D01*
X178585714Y-135780952D01*
X178604761Y-135761904D01*
X178585714Y-135742857D01*
X178585714Y-135780952D01*
X178414285Y-135419047D02*
X178395238Y-135400000D01*
X178357142Y-135380952D01*
X178261904Y-135380952D01*
X178223809Y-135400000D01*
X178204761Y-135419047D01*
X178185714Y-135457142D01*
X178185714Y-135495238D01*
X178204761Y-135552380D01*
X178433333Y-135780952D01*
X178185714Y-135780952D01*
X178014285Y-135742857D02*
X177995238Y-135761904D01*
X178014285Y-135780952D01*
X178033333Y-135761904D01*
X178014285Y-135742857D01*
X178014285Y-135780952D01*
X178014285Y-135533333D02*
X177995238Y-135552380D01*
X178014285Y-135571428D01*
X178033333Y-135552380D01*
X178014285Y-135533333D01*
X178014285Y-135571428D01*
X177252380Y-135819047D02*
X177290476Y-135800000D01*
X177328571Y-135761904D01*
X177385714Y-135704761D01*
X177423809Y-135685714D01*
X177461904Y-135685714D01*
X177442857Y-135780952D02*
X177480952Y-135761904D01*
X177519047Y-135723809D01*
X177538095Y-135647619D01*
X177538095Y-135514285D01*
X177519047Y-135438095D01*
X177480952Y-135400000D01*
X177442857Y-135380952D01*
X177366666Y-135380952D01*
X177328571Y-135400000D01*
X177290476Y-135438095D01*
X177271428Y-135514285D01*
X177271428Y-135647619D01*
X177290476Y-135723809D01*
X177328571Y-135761904D01*
X177366666Y-135780952D01*
X177442857Y-135780952D01*
X176985714Y-135380952D02*
X176985714Y-135666666D01*
X177004761Y-135723809D01*
X177042857Y-135761904D01*
X177100000Y-135780952D01*
X177138095Y-135780952D01*
X176509523Y-135361904D02*
X176852380Y-135876190D01*
X176300000Y-135380952D02*
X176223809Y-135380952D01*
X176185714Y-135400000D01*
X176147619Y-135438095D01*
X176128571Y-135514285D01*
X176128571Y-135647619D01*
X176147619Y-135723809D01*
X176185714Y-135761904D01*
X176223809Y-135780952D01*
X176300000Y-135780952D01*
X176338095Y-135761904D01*
X176376190Y-135723809D01*
X176395238Y-135647619D01*
X176395238Y-135514285D01*
X176376190Y-135438095D01*
X176338095Y-135400000D01*
X176300000Y-135380952D01*
X175995238Y-135380952D02*
X175900000Y-135780952D01*
X175823809Y-135495238D01*
X175747619Y-135780952D01*
X175652380Y-135380952D01*
D13*
X194292857Y-129581353D02*
X194292857Y-128057544D01*
X195054761Y-128819448D02*
X193530952Y-128819448D01*
X195583333Y-125619448D02*
X195507142Y-125695639D01*
X195278571Y-125848020D01*
X195126190Y-125924210D01*
X194897619Y-126000401D01*
X194516666Y-126076591D01*
X194211904Y-126076591D01*
X193830952Y-126000401D01*
X193602380Y-125924210D01*
X193450000Y-125848020D01*
X193221428Y-125695639D01*
X193145238Y-125619448D01*
X194364285Y-125009924D02*
X194364285Y-123790877D01*
X195583333Y-123181353D02*
X195507142Y-123105163D01*
X195278571Y-122952782D01*
X195126190Y-122876591D01*
X194897619Y-122800401D01*
X194516666Y-122724210D01*
X194211904Y-122724210D01*
X193830952Y-122800401D01*
X193602380Y-122876591D01*
X193450000Y-122952782D01*
X193221428Y-123105163D01*
X193145238Y-123181353D01*
D14*
X178376400Y-117153000D02*
G75*
G03X178376400Y-117153000I-457200J0D01*
G01*
D15*
X178754200Y-116492600D02*
X174645800Y-116492600D01*
X174645800Y-121064600D02*
X174645800Y-116492600D01*
X174645800Y-121064600D02*
X178754200Y-121064600D01*
X178754200Y-116492600D02*
X178754200Y-121064600D01*
D14*
X178982800Y-116264000D02*
X174417200Y-116264000D01*
X174417200Y-121293200D02*
X174417200Y-116264000D01*
X174417200Y-121293200D02*
X178982800Y-121293200D01*
X178982800Y-116264000D02*
X178982800Y-121293200D01*
M02*
