M48
INCH,TZ
T1C0.0079
T2C0.0118
T3C0.0138
T4C0.0827
%
G90
G05
T1
X65556Y-45582
X65835Y-45304
X65835Y-45861
X66113Y-45025
X66113Y-45582
X66113Y-46139
X66391Y-44747
X66391Y-45304
X66391Y-45861
X66391Y-46417
X66670Y-44469
X66670Y-45025
X66670Y-45582
X66670Y-46139
X66670Y-46696
X66948Y-44747
X66948Y-45304
X66948Y-45861
X66948Y-46417
X67227Y-45025
X67227Y-45582
X67227Y-46139
X67505Y-45304
X67505Y-45861
X67783Y-45582
T2
X62218Y-47410
X62257Y-46961
X62264Y-42001
X62323Y-48220
X62323Y-48810
X62678Y-48220
X62678Y-48810
X62815Y-50188
X62815Y-50425
X62815Y-50661
X62815Y-50897
X62815Y-51133
X62815Y-51370
X62874Y-51956
X62945Y-42795
X63032Y-48220
X63032Y-48810
X63052Y-50188
X63052Y-50425
X63052Y-50661
X63052Y-50897
X63052Y-51133
X63052Y-51370
X63111Y-51956
X63288Y-50188
X63288Y-50425
X63288Y-50661
X63288Y-50897
X63288Y-51133
X63288Y-51370
X63347Y-51956
X63347Y-52192
X63386Y-48220
X63386Y-48810
X63449Y-41472
X63524Y-50188
X63524Y-50425
X63524Y-50661
X63524Y-50897
X63524Y-51133
X63524Y-51370
X63583Y-51956
X63583Y-52192
X63741Y-48220
X63741Y-48810
X63760Y-50188
X63760Y-50425
X63760Y-50661
X63760Y-50897
X63760Y-51133
X63760Y-51370
X63819Y-51956
X63819Y-52192
X63996Y-50188
X63996Y-50425
X63996Y-50661
X63996Y-50897
X63996Y-51133
X63996Y-51370
X64095Y-48220
X64095Y-48810
X64233Y-50188
X64233Y-50425
X64233Y-50661
X64233Y-50897
X64233Y-51133
X64233Y-51370
X64449Y-48220
X64449Y-48810
X64520Y-45881
X64563Y-45129
X64945Y-51015
X64945Y-51251
X64945Y-51488
X64945Y-51724
X64945Y-51960
X64945Y-52196
X65182Y-51015
X65182Y-51251
X65182Y-51488
X65182Y-51724
X65182Y-51960
X65182Y-52196
X65276Y-47141
X65315Y-42468
X65390Y-43988
X65418Y-51015
X65418Y-51251
X65418Y-51488
X65418Y-51724
X65418Y-51960
X65418Y-52196
X65449Y-44283
X65626Y-43751
X65654Y-51015
X65654Y-51251
X65654Y-51488
X65654Y-51724
X65654Y-51960
X65654Y-52196
X65768Y-49716
X65768Y-49952
X65890Y-51015
X65890Y-51251
X65890Y-51488
X65890Y-51724
X65890Y-51960
X65890Y-52196
X65941Y-43810
X65989Y-48279
X65989Y-48515
X65989Y-48751
X66004Y-49716
X66004Y-49952
X66122Y-43078
X66126Y-51015
X66126Y-51251
X66126Y-51488
X66126Y-51724
X66126Y-51960
X66126Y-52196
X66158Y-43574
X66225Y-48279
X66225Y-48515
X66241Y-49716
X66241Y-49952
X66363Y-51015
X66363Y-51251
X66363Y-51488
X66363Y-51724
X66363Y-51960
X66363Y-52196
X66453Y-43456
X66461Y-48279
X66461Y-48515
X66477Y-49716
X66477Y-49952
X66535Y-43071
X66604Y-47657
X66697Y-48279
X66697Y-48515
X66697Y-48751
X66713Y-49716
X66713Y-49952
X66978Y-47657
X67087Y-40807
X67185Y-51074
X67185Y-51310
X67185Y-51547
X67185Y-51783
X67185Y-52019
X67185Y-52255
X67422Y-51074
X67422Y-51310
X67422Y-51547
X67422Y-51783
X67422Y-52019
X67422Y-52255
X67480Y-41988
X67493Y-40736
X67646Y-43870
X67658Y-51074
X67658Y-51310
X67658Y-51547
X67658Y-51783
X67658Y-52019
X67658Y-52255
X67776Y-49716
X67776Y-49952
X67804Y-47621
X67854Y-42795
X67874Y-40807
X67886Y-48279
X67886Y-48515
X67886Y-48751
X67894Y-51074
X67894Y-51310
X67894Y-51547
X67894Y-51783
X67894Y-52019
X67894Y-52255
X67945Y-43980
X68012Y-49716
X68012Y-49952
X68122Y-48279
X68122Y-48515
X68130Y-51074
X68130Y-51310
X68130Y-51547
X68130Y-51783
X68130Y-52019
X68130Y-52255
X68237Y-44106
X68248Y-47785
X68248Y-49716
X68248Y-49952
X68296Y-44464
X68300Y-40699
X68359Y-48279
X68359Y-48515
X68367Y-51074
X68367Y-51310
X68367Y-51547
X68367Y-51783
X68367Y-52019
X68367Y-52255
X68485Y-49716
X68485Y-49952
X68595Y-48279
X68595Y-48515
X68595Y-48751
X68603Y-51074
X68603Y-51310
X68603Y-51547
X68603Y-51783
X68603Y-52019
X68603Y-52255
X68661Y-40807
X68661Y-45472
X68705Y-44334
X68721Y-49716
X68721Y-49952
X68760Y-42815
X68851Y-46480
X69056Y-40640
X69241Y-48220
X69241Y-48810
X69311Y-52137
X69311Y-52373
X69347Y-44480
X69374Y-50366
X69374Y-50602
X69374Y-50838
X69374Y-51074
X69374Y-51310
X69374Y-51547
X69429Y-40787
X69473Y-45310
X69548Y-52137
X69548Y-52373
X69595Y-48220
X69595Y-48810
X69611Y-50366
X69611Y-50602
X69611Y-50838
X69611Y-51074
X69611Y-51310
X69611Y-51547
X69784Y-52137
X69784Y-52373
X69847Y-50366
X69847Y-50602
X69847Y-50838
X69847Y-51074
X69847Y-51310
X69847Y-51547
X69949Y-48220
X69949Y-48810
X70010Y-46506
X70020Y-52137
X70020Y-52373
X70036Y-45999
X70044Y-45334
X70083Y-50366
X70083Y-50602
X70083Y-50838
X70083Y-51074
X70083Y-51310
X70083Y-51547
X70126Y-41409
X70256Y-52137
X70256Y-52373
X70266Y-46230
X70304Y-48220
X70304Y-48810
X70319Y-50366
X70319Y-50602
X70319Y-50838
X70319Y-51074
X70319Y-51310
X70319Y-51547
X70344Y-46762
X70481Y-45051
X70556Y-50366
X70556Y-50602
X70556Y-50838
X70556Y-51074
X70556Y-51310
X70556Y-51547
X70658Y-48220
X70658Y-48810
X70792Y-50366
X70792Y-50602
X70792Y-50838
X70792Y-51074
X70792Y-51310
X70792Y-51547
X70953Y-43397
X71004Y-42747
X71071Y-44933
X71075Y-44086
X71146Y-41570
X71248Y-43574
X71308Y-42511
X71544Y-41566
X71544Y-43751
X71556Y-50543
X71556Y-50779
X71556Y-51015
X71556Y-51251
X71556Y-51488
X71556Y-51724
X71603Y-48220
X71603Y-48810
X71619Y-52314
X71619Y-52551
X71693Y-47362
X71792Y-50543
X71792Y-50779
X71792Y-51015
X71792Y-51251
X71792Y-51488
X71792Y-51724
X71855Y-52314
X71855Y-52551
X71957Y-48220
X71957Y-48810
X72028Y-50543
X72028Y-50779
X72028Y-51015
X72028Y-51251
X72028Y-51488
X72028Y-51724
X72071Y-47362
X72091Y-52314
X72091Y-52551
X72248Y-42681
X72264Y-50543
X72264Y-50779
X72264Y-51015
X72264Y-51251
X72264Y-51488
X72264Y-51724
X72311Y-48220
X72311Y-48810
X72327Y-52314
X72327Y-52551
X72426Y-46936
X72489Y-42393
X72500Y-50543
X72500Y-50779
X72500Y-51015
X72500Y-51251
X72500Y-51488
X72500Y-51724
X72563Y-52314
X72563Y-52551
X72583Y-46322
X72666Y-48220
X72666Y-48810
X72725Y-42157
X72737Y-50543
X72737Y-50779
X72737Y-51015
X72737Y-51251
X72737Y-51488
X72737Y-51724
X72961Y-41858
X72973Y-50543
X72973Y-50779
X72973Y-51015
X72973Y-51251
X72973Y-51488
X72973Y-51724
X73020Y-48220
X73020Y-48810
X73169Y-46299
X73197Y-41621
X73374Y-45228
X73563Y-47295
X73748Y-43535
X73794Y-50474
X73794Y-50710
X73794Y-50946
X73794Y-51183
X73794Y-51419
X73906Y-41744
X74024Y-43279
X74030Y-50474
X74030Y-50710
X74030Y-50946
X74030Y-51183
X74030Y-51419
X74032Y-44850
X74213Y-47234
X74243Y-49332
X74243Y-49568
X74243Y-49805
X74260Y-45287
X74266Y-50474
X74266Y-50710
X74266Y-50946
X74266Y-51183
X74266Y-51419
X74319Y-41744
X74434Y-42807
X74473Y-43803
X74479Y-49332
X74479Y-49568
X74479Y-49805
X74502Y-50474
X74502Y-50710
X74502Y-50946
X74502Y-51183
X74502Y-51419
X74536Y-40716
X74556Y-44755
X74715Y-49332
X74715Y-49568
X74715Y-49805
X74739Y-50474
X74739Y-50710
X74739Y-50946
X74739Y-51183
X74739Y-51419
X74951Y-49332
X74951Y-49568
X74951Y-49805
X74975Y-50474
X74975Y-50710
X74975Y-50946
X74975Y-51183
X74975Y-51419
X75008Y-45236
X75028Y-41625
X75187Y-49332
X75187Y-49568
X75187Y-49805
X75211Y-50474
X75211Y-50710
X75211Y-50946
X75211Y-51183
X75211Y-51419
X75417Y-42104
X75717Y-43464
X75955Y-41535
X76018Y-51291
X76034Y-48289
X76254Y-51291
X76270Y-48289
X76491Y-51291
X76506Y-48289
X76658Y-41269
T3
X69056Y-46826
T4
X62795Y-40276
X62795Y-53259
X76378Y-40276
X76378Y-53307
T0
M30
