M48
INCH,TZ
T1C0.0118
T2C0.0138
T3C0.0157
T4C0.0177
T5C0.0827
%
G90
G05
T1
X23878Y-23740
X24370Y-29606
X24429Y-23740
X24449Y-28642
X24685Y-26339
X24783Y-23327
X25197Y-22461
X25197Y-30787
X25197Y-31024
X25197Y-31260
X25276Y-33780
X25276Y-34016
X25276Y-34252
X25413Y-23366
X25433Y-30787
X25433Y-31024
X25433Y-31260
X25512Y-33780
X25512Y-34016
X25512Y-34252
X25669Y-25630
X25669Y-30787
X25669Y-31024
X25669Y-31260
X25748Y-33780
X25748Y-34016
X25748Y-34252
X25807Y-23248
X26063Y-33898
X26102Y-31063
X26181Y-26535
X26220Y-30709
X26339Y-33701
X26673Y-21161
X26732Y-32008
X26732Y-32244
X26732Y-32480
X26732Y-32717
X26732Y-32953
X26791Y-25138
X26811Y-30925
X26811Y-31161
X26811Y-31398
X26890Y-33622
X26969Y-32008
X26969Y-32244
X26969Y-32480
X26969Y-32717
X26969Y-32953
X27020Y-24696
X27047Y-30925
X27047Y-31161
X27047Y-31398
X27079Y-24992
X27126Y-33858
X27146Y-21161
X27205Y-24370
X27205Y-32008
X27205Y-32244
X27205Y-32480
X27205Y-32717
X27205Y-32953
X27283Y-30925
X27283Y-31161
X27283Y-31398
X27362Y-34094
X27441Y-29331
X27441Y-29567
X27441Y-29803
X27441Y-32008
X27441Y-32244
X27441Y-32480
X27441Y-32717
X27441Y-32953
X27461Y-21161
X27520Y-30925
X27520Y-31161
X27520Y-31398
X27571Y-24519
X27677Y-29331
X27677Y-29567
X27677Y-29803
X27677Y-32008
X27677Y-32244
X27677Y-32480
X27677Y-32717
X27677Y-32953
X27756Y-30925
X27756Y-31161
X27756Y-31398
X27788Y-24283
X27913Y-29331
X27913Y-29567
X27913Y-29803
X27913Y-32008
X27913Y-32244
X27913Y-32480
X27913Y-32717
X27913Y-32953
X27992Y-30925
X27992Y-31161
X27992Y-31398
X28083Y-24165
X28189Y-23780
X28740Y-30630
X28740Y-30866
X28740Y-31102
X28740Y-33780
X28740Y-34016
X28740Y-34252
X28933Y-22697
X28957Y-23346
X28976Y-30630
X28976Y-30866
X28976Y-31102
X28976Y-33780
X28976Y-34016
X28976Y-34252
X29204Y-24538
X29213Y-30630
X29213Y-30866
X29213Y-31102
X29213Y-33780
X29213Y-34016
X29213Y-34252
X29350Y-27756
X29364Y-24172
X29508Y-28071
X29532Y-24984
X29567Y-33780
X29610Y-24594
X29661Y-21516
X29724Y-28425
X29764Y-29862
X29961Y-33760
X29966Y-24996
X30004Y-25582
X30157Y-23622
X30276Y-21260
X30291Y-26181
X30354Y-32008
X30354Y-32244
X30354Y-32480
X30354Y-32717
X30354Y-32953
X30374Y-25000
X30433Y-33937
X30449Y-21516
X30472Y-30945
X30472Y-31181
X30472Y-31417
X30531Y-23504
X30535Y-27188
X30591Y-32008
X30591Y-32244
X30591Y-32480
X30591Y-32717
X30591Y-32953
X30669Y-33701
X30709Y-25512
X30709Y-29331
X30709Y-29567
X30709Y-29803
X30709Y-30945
X30709Y-31181
X30709Y-31417
X30827Y-32008
X30827Y-32244
X30827Y-32480
X30827Y-32717
X30827Y-32953
X30874Y-21407
X30906Y-33937
X30945Y-29331
X30945Y-29567
X30945Y-29803
X30945Y-30945
X30945Y-31181
X30945Y-31417
X31063Y-26575
X31063Y-32008
X31063Y-32244
X31063Y-32480
X31063Y-32717
X31063Y-32953
X31142Y-34173
X31181Y-25709
X31181Y-26102
X31181Y-29331
X31181Y-29567
X31181Y-29803
X31181Y-30945
X31181Y-31181
X31181Y-31417
X31236Y-21516
X31299Y-32008
X31299Y-32244
X31299Y-32480
X31299Y-32717
X31299Y-32953
X31339Y-26378
X31417Y-30945
X31417Y-31181
X31417Y-31417
X31535Y-32008
X31535Y-32244
X31535Y-32480
X31535Y-32717
X31535Y-32953
X31630Y-21370
X31654Y-30945
X31654Y-31181
X31654Y-31417
X31916Y-22940
X32004Y-21496
X32018Y-22589
X32362Y-33858
X32362Y-34094
X32362Y-34331
X32441Y-30709
X32441Y-30945
X32441Y-31181
X32579Y-24626
X32598Y-33858
X32598Y-34094
X32598Y-34331
X32677Y-30709
X32677Y-30945
X32677Y-31181
X32795Y-23209
X32795Y-23957
X32835Y-33858
X32835Y-34094
X32835Y-34331
X32894Y-21673
X32913Y-30709
X32913Y-30945
X32913Y-31181
X32953Y-24213
X32953Y-27835
X33012Y-28839
X33110Y-26181
X33189Y-33819
X33248Y-31063
X33268Y-24409
X33386Y-26339
X33386Y-27480
X33465Y-30689
X33484Y-22992
X33524Y-33780
X33622Y-27677
X33976Y-32008
X33976Y-32244
X33976Y-32480
X33976Y-32717
X33976Y-32953
X34016Y-23189
X34055Y-30945
X34055Y-31181
X34075Y-28287
X34213Y-32008
X34213Y-32244
X34213Y-32480
X34213Y-32717
X34213Y-32953
X34213Y-33701
X34291Y-30945
X34291Y-31181
X34291Y-31417
X34370Y-29331
X34370Y-29567
X34370Y-29803
X34449Y-32008
X34449Y-32244
X34449Y-32480
X34449Y-32717
X34449Y-32953
X34449Y-33937
X34528Y-30945
X34528Y-31181
X34528Y-31417
X34606Y-29331
X34606Y-29567
X34606Y-29803
X34646Y-24213
X34685Y-32008
X34685Y-32244
X34685Y-32480
X34685Y-32717
X34685Y-32953
X34685Y-34173
X34764Y-30945
X34764Y-31181
X34764Y-31417
X34843Y-23976
X34843Y-29331
X34843Y-29567
X34843Y-29803
X34921Y-32008
X34921Y-32244
X34921Y-32480
X34921Y-32717
X34921Y-32953
X35000Y-30945
X35000Y-31181
X35020Y-26437
X35039Y-23504
X35118Y-21870
X35118Y-24882
X35118Y-28819
X35157Y-32008
X35157Y-32244
X35157Y-32480
X35157Y-32717
X35157Y-32953
X35197Y-27795
X35236Y-30945
X35236Y-31181
X35236Y-31417
X35276Y-23287
X35535Y-24587
X35768Y-23622
X35953Y-24402
X35984Y-24016
X36024Y-31339
X36024Y-31575
X36024Y-31811
X36102Y-23465
X36102Y-29606
X36102Y-29843
X36102Y-30079
X36102Y-32913
X36102Y-33150
X36102Y-33386
X36102Y-33622
X36220Y-21870
X36260Y-31339
X36260Y-31575
X36260Y-31811
X36280Y-27362
X36339Y-29606
X36339Y-29843
X36339Y-30079
X36339Y-32913
X36339Y-33150
X36339Y-33386
X36339Y-33622
X36496Y-31339
X36496Y-31575
X36496Y-31811
X36575Y-29606
X36575Y-29843
X36575Y-30079
X36575Y-32913
X36575Y-33150
X36575Y-33386
X36575Y-33622
X36732Y-31339
X36732Y-31575
X36732Y-31811
X36791Y-22874
X36811Y-29606
X36811Y-29843
X36811Y-30079
X36811Y-32913
X36811Y-33150
X36811Y-33386
X36811Y-33622
X36969Y-31339
X36969Y-31575
X36969Y-31811
X37047Y-22402
X37047Y-29606
X37047Y-29843
X37047Y-30079
X37047Y-32913
X37047Y-33150
X37047Y-33386
X37047Y-33622
X37087Y-23404
X37205Y-26063
X37205Y-31339
X37205Y-31575
X37205Y-31811
X37283Y-29606
X37283Y-29843
X37283Y-30079
X37283Y-32913
X37283Y-33150
X37283Y-33386
X37283Y-33622
X37441Y-31339
X37441Y-31575
X37441Y-31811
X37520Y-29606
X37520Y-29843
X37520Y-30079
X37520Y-32913
X37520Y-33150
X37520Y-33386
X37677Y-31339
X37677Y-31575
X37677Y-31811
X37722Y-22835
X37756Y-29606
X37756Y-29843
X37756Y-30079
X37756Y-32913
X37756Y-33150
X37913Y-31339
X37913Y-31575
X37913Y-31811
X37992Y-29606
X37992Y-29843
X37992Y-30079
X37992Y-32913
X37992Y-33150
X38071Y-25236
X38150Y-31339
X38150Y-31575
X38150Y-31811
X38169Y-21890
X38228Y-29606
X38228Y-29843
X38228Y-30079
X38228Y-32913
X38228Y-33150
X38386Y-31339
X38386Y-31575
X38386Y-31811
X38465Y-29606
X38465Y-29843
X38465Y-30079
X38465Y-32913
X38465Y-33150
X38485Y-22588
X39724Y-29232
X39724Y-29469
X39724Y-29705
X39724Y-29941
X39724Y-30177
X39724Y-31240
X39724Y-31476
X39724Y-31713
X39724Y-31949
X39724Y-32185
X39961Y-29232
X39961Y-29469
X39961Y-29705
X39961Y-29941
X39961Y-30177
X39961Y-31240
X39961Y-31476
X39961Y-31713
X39961Y-31949
X39961Y-32185
X40197Y-29232
X40197Y-29469
X40197Y-29705
X40197Y-29941
X40197Y-30177
X40197Y-31240
X40197Y-31476
X40197Y-31713
X40197Y-31949
X40197Y-32185
T2
X30551Y-26850
X31142Y-27441
X31220Y-26890
T3
X23937Y-33248
X23976Y-27717
X25768Y-29390
X25807Y-28189
X38110Y-27717
X27194Y-26299
X27472Y-26021
X27472Y-26578
X27750Y-25742
X27750Y-26299
X27750Y-26856
X28029Y-25464
X28029Y-26021
X28029Y-26578
X28029Y-27134
X28307Y-25186
X28307Y-25742
X28307Y-26299
X28307Y-26856
X28307Y-27413
X28585Y-25464
X28585Y-26021
X28585Y-26578
X28585Y-27134
X28864Y-25742
X28864Y-26299
X28864Y-26856
X29142Y-26021
X29142Y-26578
X29421Y-26299
T5
X24409Y-20827
X24409Y-34016
X38150Y-20827
X38150Y-34016
T4
G00X25600Y-20748
M15
G01X25600Y-20433
M16
G05
G00X28415Y-20433
M15
G01X28415Y-20748
M16
G05
T0
M30
