G04 #@! TF.GenerationSoftware,KiCad,Pcbnew,(5.1.2-1)-1*
G04 #@! TF.CreationDate,2019-09-25T20:45:02-04:00*
G04 #@! TF.ProjectId,PCB_V1.3_CSD,5043425f-5631-42e3-935f-4353442e6b69,rev?*
G04 #@! TF.SameCoordinates,Original*
G04 #@! TF.FileFunction,Soldermask,Bot*
G04 #@! TF.FilePolarity,Negative*
%FSLAX46Y46*%
G04 Gerber Fmt 4.6, Leading zero omitted, Abs format (unit mm)*
G04 Created by KiCad (PCBNEW (5.1.2-1)-1) date 2019-09-25 20:45:02*
%MOMM*%
%LPD*%
G04 APERTURE LIST*
%ADD10C,0.100000*%
G04 APERTURE END LIST*
D10*
G36*
X82964700Y-71854000D02*
G01*
X81770900Y-71854000D01*
X81770900Y-67446000D01*
X82964700Y-67446000D01*
X82964700Y-71854000D01*
X82964700Y-71854000D01*
G37*
G36*
X77129100Y-71854000D02*
G01*
X75935300Y-71854000D01*
X75935300Y-67446000D01*
X77129100Y-67446000D01*
X77129100Y-71854000D01*
X77129100Y-71854000D01*
G37*
G36*
X71928092Y-63149541D02*
G01*
X71955101Y-63157735D01*
X71979996Y-63171041D01*
X72006589Y-63192865D01*
X72081962Y-63268238D01*
X72081973Y-63268247D01*
X75431753Y-66618027D01*
X75431762Y-66618038D01*
X75507135Y-66693411D01*
X75528959Y-66720004D01*
X75542265Y-66744899D01*
X75550459Y-66771908D01*
X75553225Y-66800000D01*
X75550459Y-66828092D01*
X75542265Y-66855101D01*
X75528959Y-66879996D01*
X75507135Y-66906589D01*
X75431762Y-66981962D01*
X75431753Y-66981973D01*
X72081973Y-70331753D01*
X72081962Y-70331762D01*
X72006589Y-70407135D01*
X71979996Y-70428959D01*
X71955101Y-70442265D01*
X71928092Y-70450459D01*
X71900000Y-70453225D01*
X71871908Y-70450459D01*
X71844899Y-70442265D01*
X71820004Y-70428959D01*
X71793411Y-70407135D01*
X71718038Y-70331762D01*
X71718027Y-70331753D01*
X68368247Y-66981973D01*
X68368238Y-66981962D01*
X68292865Y-66906589D01*
X68271041Y-66879996D01*
X68257735Y-66855101D01*
X68249541Y-66828092D01*
X68246775Y-66800000D01*
X68249541Y-66771908D01*
X68257735Y-66744899D01*
X68271041Y-66720004D01*
X68292865Y-66693411D01*
X68368238Y-66618038D01*
X68368247Y-66618027D01*
X71718027Y-63268247D01*
X71718038Y-63268238D01*
X71793411Y-63192865D01*
X71820004Y-63171041D01*
X71844899Y-63157735D01*
X71871908Y-63149541D01*
X71900000Y-63146775D01*
X71928092Y-63149541D01*
X71928092Y-63149541D01*
G37*
G36*
X65137916Y-51307334D02*
G01*
X65246492Y-51340271D01*
X65246495Y-51340272D01*
X65282601Y-51359571D01*
X65346557Y-51393756D01*
X65434264Y-51465736D01*
X65506244Y-51553443D01*
X65540429Y-51617399D01*
X65559728Y-51653505D01*
X65559728Y-51653506D01*
X65559729Y-51653508D01*
X65592666Y-51762084D01*
X65601000Y-51846702D01*
X65601000Y-52753298D01*
X65592666Y-52837916D01*
X65559729Y-52946491D01*
X65559728Y-52946495D01*
X65540429Y-52982601D01*
X65506244Y-53046557D01*
X65434264Y-53134264D01*
X65346556Y-53206244D01*
X65282600Y-53240429D01*
X65246494Y-53259728D01*
X65246491Y-53259729D01*
X65137915Y-53292666D01*
X65025000Y-53303787D01*
X64912084Y-53292666D01*
X64803508Y-53259729D01*
X64803505Y-53259728D01*
X64767399Y-53240429D01*
X64703443Y-53206244D01*
X64615736Y-53134264D01*
X64543756Y-53046556D01*
X64490273Y-52946495D01*
X64490272Y-52946494D01*
X64490271Y-52946491D01*
X64457334Y-52837915D01*
X64449000Y-52753297D01*
X64449000Y-51846702D01*
X64457335Y-51762084D01*
X64490272Y-51653508D01*
X64490273Y-51653506D01*
X64490273Y-51653505D01*
X64509572Y-51617399D01*
X64543757Y-51553443D01*
X64615737Y-51465736D01*
X64703444Y-51393756D01*
X64767400Y-51359571D01*
X64803506Y-51340272D01*
X64803509Y-51340271D01*
X64912085Y-51307334D01*
X65025000Y-51296213D01*
X65137916Y-51307334D01*
X65137916Y-51307334D01*
G37*
G36*
X72287915Y-51307334D02*
G01*
X72396491Y-51340271D01*
X72396494Y-51340272D01*
X72432600Y-51359571D01*
X72496556Y-51393756D01*
X72584264Y-51465736D01*
X72656244Y-51553443D01*
X72690429Y-51617399D01*
X72709728Y-51653505D01*
X72709728Y-51653506D01*
X72709729Y-51653508D01*
X72742666Y-51762084D01*
X72751000Y-51846702D01*
X72751000Y-52753298D01*
X72742666Y-52837916D01*
X72709729Y-52946491D01*
X72709728Y-52946495D01*
X72690429Y-52982601D01*
X72656244Y-53046557D01*
X72584264Y-53134264D01*
X72496557Y-53206244D01*
X72432601Y-53240429D01*
X72396495Y-53259728D01*
X72396492Y-53259729D01*
X72287916Y-53292666D01*
X72175000Y-53303787D01*
X72062085Y-53292666D01*
X71953509Y-53259729D01*
X71953506Y-53259728D01*
X71917400Y-53240429D01*
X71853444Y-53206244D01*
X71765737Y-53134264D01*
X71693757Y-53046557D01*
X71659572Y-52982601D01*
X71640273Y-52946495D01*
X71640272Y-52946491D01*
X71607335Y-52837916D01*
X71599000Y-52753298D01*
X71599000Y-51846703D01*
X71607334Y-51762085D01*
X71640271Y-51653509D01*
X71640272Y-51653506D01*
X71659571Y-51617400D01*
X71693756Y-51553444D01*
X71765736Y-51465736D01*
X71853443Y-51393756D01*
X71917399Y-51359571D01*
X71953505Y-51340272D01*
X71953508Y-51340271D01*
X72062084Y-51307334D01*
X72175000Y-51296213D01*
X72287915Y-51307334D01*
X72287915Y-51307334D01*
G37*
M02*
