G04 #@! TF.GenerationSoftware,KiCad,Pcbnew,(5.1.4-0)*
G04 #@! TF.CreationDate,2019-10-13T11:49:40-04:00*
G04 #@! TF.ProjectId,PCB_V1.3,5043425f-5631-42e3-932e-6b696361645f,rev?*
G04 #@! TF.SameCoordinates,Original*
G04 #@! TF.FileFunction,Profile,NP*
%FSLAX46Y46*%
G04 Gerber Fmt 4.6, Leading zero omitted, Abs format (unit mm)*
G04 Created by KiCad (PCBNEW (5.1.4-0)) date 2019-10-13 11:49:40*
%MOMM*%
%LPD*%
G04 APERTURE LIST*
%ADD10C,0.050000*%
G04 APERTURE END LIST*
D10*
X98810600Y-83716001D02*
X98806799Y-83712800D01*
X98815000Y-83718301D02*
X98810600Y-83716001D01*
X98819700Y-83719700D02*
X98815000Y-83718301D01*
X61357400Y-88131701D02*
X61712200Y-88238701D01*
X61030300Y-87957701D02*
X61357400Y-88131701D01*
X60743100Y-87723401D02*
X61030300Y-87957701D01*
X60506800Y-87437801D02*
X60743100Y-87723401D01*
X60330500Y-87111801D02*
X60506800Y-87437801D01*
X60220900Y-86757701D02*
X60330500Y-87111801D01*
X60181500Y-86383401D02*
X60220900Y-86757701D01*
X60181500Y-52976401D02*
X60181500Y-86383401D01*
X60218300Y-52601501D02*
X60181500Y-52976401D01*
X60325400Y-52246601D02*
X60218300Y-52601501D01*
X60499400Y-51919401D02*
X60325400Y-52246601D01*
X60733700Y-51632201D02*
X60499400Y-51919401D01*
X61019200Y-51395901D02*
X60733700Y-51632201D01*
X61345200Y-51219601D02*
X61019200Y-51395901D01*
X61699300Y-51110101D02*
X61345200Y-51219601D01*
X62073700Y-51070701D02*
X61699300Y-51110101D01*
X96904900Y-51070701D02*
X62073700Y-51070701D01*
X97279900Y-51107401D02*
X96904900Y-51070701D01*
X97634700Y-51214601D02*
X97279900Y-51107401D01*
X97962000Y-51388601D02*
X97634700Y-51214601D01*
X98249200Y-51622801D02*
X97962000Y-51388601D01*
X98485400Y-51908401D02*
X98249200Y-51622801D01*
X98661700Y-52234401D02*
X98485400Y-51908401D01*
X98771200Y-52588401D02*
X98661700Y-52234401D01*
X98810600Y-52962901D02*
X98771200Y-52588401D01*
X98810600Y-52971801D02*
X98810600Y-52962901D01*
X98810600Y-72240801D02*
X98810600Y-52971801D01*
X98825800Y-72244900D02*
X98810600Y-72240801D01*
X98824600Y-72244801D02*
X98825800Y-72244900D01*
X98823400Y-72244900D02*
X98824600Y-72244801D01*
X98819700Y-72245300D02*
X98823400Y-72244900D01*
X98815000Y-72246700D02*
X98819700Y-72245300D01*
X98810600Y-72249001D02*
X98815000Y-72246700D01*
X98806799Y-72252101D02*
X98810600Y-72249001D01*
X98803700Y-72255901D02*
X98806799Y-72252101D01*
X98801400Y-72260300D02*
X98803700Y-72255901D01*
X98800000Y-72265000D02*
X98801400Y-72260300D01*
X98799499Y-72269901D02*
X98800000Y-72265000D01*
X98799600Y-72271100D02*
X98799499Y-72269901D01*
X98799600Y-73057900D02*
X98799600Y-72271100D01*
X98799499Y-73059100D02*
X98799600Y-73057900D01*
X98800000Y-73064001D02*
X98799499Y-73059100D01*
X98801400Y-73068701D02*
X98800000Y-73064001D01*
X98803700Y-73073101D02*
X98801400Y-73068701D01*
X98806000Y-73075900D02*
X98803700Y-73073101D01*
X98806799Y-73076901D02*
X98806000Y-73075900D01*
X98810600Y-73080001D02*
X98806799Y-73076901D01*
X98815000Y-73082300D02*
X98810600Y-73080001D01*
X98819700Y-73083801D02*
X98815000Y-73082300D01*
X98824600Y-73084301D02*
X98819700Y-73083801D01*
X98825800Y-73084101D02*
X98824600Y-73084301D01*
X102493290Y-73080001D02*
X98825800Y-73084101D01*
X102859290Y-73446501D02*
X102493290Y-73080001D01*
X102859290Y-77558801D02*
X102859290Y-73446501D01*
X98825800Y-77562901D02*
X102859290Y-77558801D01*
X98824600Y-77562701D02*
X98825800Y-77562901D01*
X98823400Y-77562901D02*
X98824600Y-77562701D01*
X98819700Y-77563201D02*
X98823400Y-77562901D01*
X98815000Y-77564700D02*
X98819700Y-77563201D01*
X98810600Y-77567001D02*
X98815000Y-77564700D01*
X98806799Y-77570101D02*
X98810600Y-77567001D01*
X98803700Y-77573901D02*
X98806799Y-77570101D01*
X98801400Y-77578201D02*
X98803700Y-77573901D01*
X98800000Y-77583001D02*
X98801400Y-77578201D01*
X98799499Y-77587900D02*
X98800000Y-77583001D01*
X98799600Y-77589100D02*
X98799499Y-77587900D01*
X98799600Y-78375900D02*
X98799600Y-77589100D01*
X98801400Y-83704700D02*
X98800000Y-83700000D01*
X98803700Y-83709000D02*
X98801400Y-83704700D01*
X98806799Y-83712800D02*
X98803700Y-83709000D01*
X98806799Y-82888101D02*
X98810600Y-82884900D01*
X98803700Y-82891901D02*
X98806799Y-82888101D01*
X98801400Y-82896201D02*
X98803700Y-82891901D01*
X98800000Y-82900901D02*
X98801400Y-82896201D01*
X98799499Y-82905801D02*
X98800000Y-82900901D01*
X98799600Y-82907101D02*
X98799499Y-82905801D01*
X98810600Y-78398001D02*
X98806799Y-78394901D01*
X98815000Y-78400300D02*
X98810600Y-78398001D01*
X98819700Y-78401700D02*
X98815000Y-78400300D01*
X98824600Y-78402201D02*
X98819700Y-78401700D01*
X98825800Y-78402100D02*
X98824600Y-78402201D01*
X102859290Y-78398001D02*
X98825800Y-78402100D01*
X102859290Y-82510301D02*
X102859290Y-78398001D01*
X102493290Y-82876701D02*
X102859290Y-82510301D01*
X98825800Y-82880801D02*
X102493290Y-82876701D01*
X98824600Y-82880700D02*
X98825800Y-82880801D01*
X98823400Y-82880801D02*
X98824600Y-82880700D01*
X98819700Y-82881201D02*
X98823400Y-82880801D01*
X98815000Y-82882601D02*
X98819700Y-82881201D01*
X98810600Y-82884900D02*
X98815000Y-82882601D01*
X96918400Y-88275501D02*
X97292900Y-88236201D01*
X62087200Y-88275501D02*
X96918400Y-88275501D01*
X61712200Y-88238701D02*
X62087200Y-88275501D01*
X98799499Y-78377101D02*
X98799600Y-78375900D01*
X98800000Y-78382000D02*
X98799499Y-78377101D01*
X98801400Y-78386700D02*
X98800000Y-78382000D01*
X98803700Y-78391101D02*
X98801400Y-78386700D01*
X98806799Y-78394901D02*
X98803700Y-78391101D01*
X98258500Y-87714001D02*
X98492700Y-87426801D01*
X97972900Y-87950201D02*
X98258500Y-87714001D01*
X97646900Y-88126501D02*
X97972900Y-87950201D01*
X97292900Y-88236201D02*
X97646900Y-88126501D01*
X98824600Y-83720200D02*
X98819700Y-83719700D01*
X98825800Y-83720100D02*
X98824600Y-83720200D01*
X98810600Y-83716001D02*
X98825800Y-83720100D01*
X98810600Y-86369801D02*
X98810600Y-83716001D01*
X98773900Y-86744801D02*
X98810600Y-86369801D01*
X98666700Y-87099601D02*
X98773900Y-86744801D01*
X98492700Y-87426801D02*
X98666700Y-87099601D01*
X98799600Y-83693801D02*
X98799600Y-82907101D01*
X98799499Y-83695101D02*
X98799600Y-83693801D01*
X98800000Y-83700000D02*
X98799499Y-83695101D01*
M02*
