G04 #@! TF.GenerationSoftware,KiCad,Pcbnew,(5.1.2-1)-1*
G04 #@! TF.CreationDate,2019-09-25T20:45:01-04:00*
G04 #@! TF.ProjectId,PCB_V1.3_CSD,5043425f-5631-42e3-935f-4353442e6b69,rev?*
G04 #@! TF.SameCoordinates,Original*
G04 #@! TF.FileFunction,Copper,L3,Inr*
G04 #@! TF.FilePolarity,Positive*
%FSLAX46Y46*%
G04 Gerber Fmt 4.6, Leading zero omitted, Abs format (unit mm)*
G04 Created by KiCad (PCBNEW (5.1.2-1)-1) date 2019-09-25 20:45:01*
%MOMM*%
%LPD*%
G04 APERTURE LIST*
%ADD10O,1.050000X1.900000*%
%ADD11C,0.700000*%
%ADD12C,3.200000*%
%ADD13C,0.600000*%
%ADD14C,0.800000*%
%ADD15C,0.650000*%
%ADD16C,0.210000*%
%ADD17C,0.800000*%
%ADD18C,0.254000*%
G04 APERTURE END LIST*
D10*
X65025000Y-52300000D03*
X72175000Y-52300000D03*
D11*
X71900000Y-69628427D03*
X72607107Y-68921320D03*
X73314214Y-68214214D03*
X74021320Y-67507107D03*
X74728427Y-66800000D03*
X74021320Y-66092893D03*
X73314214Y-66800000D03*
X72607107Y-67507107D03*
X71900000Y-68214214D03*
X71192893Y-68921320D03*
X70485786Y-68214214D03*
X71192893Y-67507107D03*
X71900000Y-66800000D03*
X72607107Y-66092893D03*
X73314214Y-65385786D03*
X72607107Y-64678680D03*
X71900000Y-65385786D03*
X71192893Y-66092893D03*
X70485786Y-66800000D03*
X69778680Y-67507107D03*
X71900000Y-63971573D03*
X71192893Y-64678680D03*
X70485786Y-65385786D03*
X69778680Y-66092893D03*
X69071573Y-66800000D03*
D12*
X62000000Y-52900000D03*
X62000000Y-86400000D03*
X96900000Y-52900000D03*
X96900000Y-86400000D03*
D13*
X65550000Y-59050000D03*
X60650000Y-60300000D03*
X97700000Y-83600000D03*
X68050000Y-63850000D03*
X74250000Y-62000000D03*
X76300000Y-64850000D03*
X94700000Y-83600000D03*
D14*
X60900000Y-70400000D03*
X60800000Y-84450000D03*
D13*
X67750000Y-53750000D03*
X91400000Y-61000000D03*
D14*
X96800000Y-70400000D03*
D13*
X93500000Y-83600000D03*
X94100000Y-83600000D03*
X91700000Y-83600000D03*
X96500000Y-83600000D03*
X97100000Y-83600000D03*
X95900000Y-83600000D03*
X92900000Y-83600000D03*
X92300000Y-83600000D03*
X95300000Y-83600000D03*
X100900000Y-76050000D03*
X102100000Y-76650000D03*
X100900000Y-76650000D03*
X101500000Y-75450000D03*
X101500000Y-76650000D03*
X102100000Y-75450000D03*
X101500000Y-76050000D03*
X102100000Y-76050000D03*
X100900000Y-75450000D03*
X101500000Y-74850000D03*
X102100000Y-74850000D03*
X100900000Y-74250000D03*
X102100000Y-74250000D03*
X100900000Y-74850000D03*
X101500000Y-74250000D03*
X70900000Y-75100000D03*
X70300000Y-74500000D03*
X70300000Y-75100000D03*
X69700000Y-75700000D03*
X69700000Y-74500000D03*
X70900000Y-75700000D03*
X70900000Y-74500000D03*
X69700000Y-75100000D03*
X79200000Y-75100000D03*
X78600000Y-74500000D03*
X78600000Y-75100000D03*
X78000000Y-75700000D03*
X78000000Y-74500000D03*
X79200000Y-75700000D03*
X79200000Y-74500000D03*
X88500000Y-75100000D03*
X87900000Y-74500000D03*
X87900000Y-75100000D03*
X87300000Y-75700000D03*
X87300000Y-74500000D03*
X88500000Y-75700000D03*
X88500000Y-74500000D03*
X87300000Y-75100000D03*
X87900000Y-75700000D03*
X78000000Y-75100000D03*
X78600000Y-75700000D03*
X70300000Y-75700000D03*
X92900000Y-75800000D03*
X96500000Y-75800000D03*
X91700000Y-75800000D03*
X93500000Y-75200000D03*
X94700000Y-75800000D03*
X97700000Y-76400000D03*
X95300000Y-75800000D03*
X96500000Y-76400000D03*
X94700000Y-75200000D03*
X92300000Y-75800000D03*
X94700000Y-76400000D03*
X93500000Y-75800000D03*
X94100000Y-75200000D03*
X91700000Y-75200000D03*
X94100000Y-76400000D03*
X93500000Y-76400000D03*
X92900000Y-76400000D03*
X92300000Y-75200000D03*
X92900000Y-75200000D03*
X94100000Y-75800000D03*
X92300000Y-76400000D03*
X97100000Y-75200000D03*
X95300000Y-76400000D03*
X91700000Y-76400000D03*
X97100000Y-76400000D03*
X95900000Y-75800000D03*
X95300000Y-75200000D03*
X97700000Y-75200000D03*
X97100000Y-75800000D03*
X95900000Y-76400000D03*
X97700000Y-75800000D03*
X95900000Y-75200000D03*
X96500000Y-75200000D03*
X92900000Y-85400000D03*
X93500000Y-84200000D03*
X94100000Y-85400000D03*
X91700000Y-84800000D03*
X92900000Y-84800000D03*
X91700000Y-85400000D03*
X93500000Y-85400000D03*
X91700000Y-84200000D03*
X92300000Y-84800000D03*
X94700000Y-84200000D03*
X94100000Y-84200000D03*
X93500000Y-84800000D03*
X94700000Y-85400000D03*
X92300000Y-85400000D03*
X94100000Y-84800000D03*
X92300000Y-84200000D03*
X92900000Y-84200000D03*
X94700000Y-84800000D03*
X97100000Y-84200000D03*
X95300000Y-84800000D03*
X95300000Y-84200000D03*
X97700000Y-84200000D03*
X95900000Y-84200000D03*
X96500000Y-84200000D03*
X74200000Y-86400000D03*
X73600000Y-85800000D03*
X73600000Y-86400000D03*
X73000000Y-87000000D03*
X73000000Y-85800000D03*
X74200000Y-87000000D03*
X74200000Y-85800000D03*
X73000000Y-86400000D03*
X73600000Y-87000000D03*
X83400000Y-86600000D03*
X82800000Y-86000000D03*
X82800000Y-86600000D03*
X82200000Y-87200000D03*
X82200000Y-86000000D03*
X83400000Y-87200000D03*
X83400000Y-86000000D03*
X82200000Y-86600000D03*
X82800000Y-87200000D03*
X82400000Y-79200000D03*
X83000000Y-79200000D03*
X83600000Y-78000000D03*
X82400000Y-78000000D03*
X83000000Y-78600000D03*
X82400000Y-78600000D03*
X83600000Y-78600000D03*
X83000000Y-78000000D03*
X83600000Y-79200000D03*
X74200000Y-77800000D03*
X73600000Y-77800000D03*
X73000000Y-77800000D03*
X74200000Y-78400000D03*
X73600000Y-78400000D03*
X73000000Y-78400000D03*
X74200000Y-79000000D03*
X73600000Y-79000000D03*
X73000000Y-79000000D03*
X83700000Y-70700000D03*
D15*
X79300000Y-68300000D03*
X77600000Y-68200000D03*
D13*
X80340000Y-54280000D03*
X89400000Y-70600000D03*
X88950000Y-67150000D03*
X86550000Y-71850000D03*
X85050000Y-58400000D03*
X92000000Y-55550000D03*
X95815000Y-58000000D03*
X96700000Y-64100000D03*
X79200000Y-65300000D03*
X73490000Y-57650000D03*
D14*
X65450000Y-74650000D03*
D13*
X65400000Y-85800000D03*
X65400000Y-87000000D03*
X65400000Y-86400000D03*
X64800000Y-87000000D03*
X64200000Y-86400000D03*
X64200000Y-85800000D03*
X64200000Y-87000000D03*
X64800000Y-86400000D03*
X64800000Y-85800000D03*
X65200000Y-79400000D03*
X64600000Y-78200000D03*
X65200000Y-78800000D03*
X64000000Y-78800000D03*
X64600000Y-78800000D03*
X64000000Y-78200000D03*
X65200000Y-78200000D03*
X64600000Y-79400000D03*
X64000000Y-79400000D03*
X96950000Y-55600000D03*
X66500000Y-67400000D03*
X61900000Y-75200000D03*
X65200000Y-65100000D03*
X101500000Y-79950000D03*
X102100000Y-79950000D03*
X102100000Y-79350000D03*
X100900000Y-79350000D03*
X100900000Y-79950000D03*
X101500000Y-79350000D03*
X100900000Y-81150000D03*
X102100000Y-81750000D03*
X100900000Y-81750000D03*
X101500000Y-80550000D03*
X101500000Y-81750000D03*
X102100000Y-80550000D03*
X101500000Y-81150000D03*
X102100000Y-81150000D03*
X100900000Y-80550000D03*
X92700000Y-80200000D03*
X96300000Y-80200000D03*
X91500000Y-80200000D03*
X93300000Y-79600000D03*
X94500000Y-80200000D03*
X97500000Y-80800000D03*
X95100000Y-80200000D03*
X96300000Y-80800000D03*
X94500000Y-79600000D03*
X92100000Y-80200000D03*
X94500000Y-80800000D03*
X93300000Y-80200000D03*
X93900000Y-79600000D03*
X91500000Y-79600000D03*
X93900000Y-80800000D03*
X93300000Y-80800000D03*
X92700000Y-80800000D03*
X92100000Y-79600000D03*
X92700000Y-79600000D03*
X93900000Y-80200000D03*
X92100000Y-80800000D03*
X96900000Y-79600000D03*
X95100000Y-80800000D03*
X91500000Y-80800000D03*
X96900000Y-80800000D03*
X95700000Y-80200000D03*
X95100000Y-79600000D03*
X97500000Y-79600000D03*
X96900000Y-80200000D03*
X95700000Y-80800000D03*
X97500000Y-80200000D03*
X95700000Y-79600000D03*
X96300000Y-79600000D03*
X86900000Y-83700000D03*
X88100000Y-83700000D03*
X88700000Y-83700000D03*
X87500000Y-83700000D03*
X86300000Y-83700000D03*
X89300000Y-83700000D03*
X88100000Y-81900000D03*
X88700000Y-82500000D03*
X87500000Y-81900000D03*
X86300000Y-82500000D03*
X88100000Y-82500000D03*
X88700000Y-83100000D03*
X86900000Y-83100000D03*
X88100000Y-83100000D03*
X86900000Y-82500000D03*
X87500000Y-81300000D03*
X87500000Y-82500000D03*
X86900000Y-81900000D03*
X86300000Y-81300000D03*
X88700000Y-81300000D03*
X88700000Y-81900000D03*
X86900000Y-81300000D03*
X86300000Y-81900000D03*
X89300000Y-81300000D03*
X89300000Y-82500000D03*
X88100000Y-81300000D03*
X89300000Y-81900000D03*
X89300000Y-83100000D03*
X87500000Y-83100000D03*
X86300000Y-83100000D03*
X77700000Y-83700000D03*
X78900000Y-83700000D03*
X79500000Y-83700000D03*
X78300000Y-83700000D03*
X77100000Y-83700000D03*
X80100000Y-83700000D03*
X78900000Y-81900000D03*
X79500000Y-82500000D03*
X78300000Y-81900000D03*
X77100000Y-82500000D03*
X78900000Y-82500000D03*
X79500000Y-83100000D03*
X77700000Y-83100000D03*
X78900000Y-83100000D03*
X77700000Y-82500000D03*
X78300000Y-81300000D03*
X78300000Y-82500000D03*
X77700000Y-81900000D03*
X77100000Y-81300000D03*
X79500000Y-81300000D03*
X79500000Y-81900000D03*
X77700000Y-81300000D03*
X77100000Y-81900000D03*
X80100000Y-81300000D03*
X80100000Y-82500000D03*
X78900000Y-81300000D03*
X80100000Y-81900000D03*
X80100000Y-83100000D03*
X78300000Y-83100000D03*
X77100000Y-83100000D03*
X71600000Y-60400000D03*
D14*
X65550000Y-71600000D03*
D13*
X69700000Y-82500000D03*
X67900000Y-82500000D03*
X69100000Y-81900000D03*
X67900000Y-81900000D03*
X70300000Y-82500000D03*
X69700000Y-81300000D03*
X69100000Y-82500000D03*
X70900000Y-82500000D03*
X70300000Y-81900000D03*
X68500000Y-82500000D03*
X70900000Y-81900000D03*
X68500000Y-81300000D03*
X69100000Y-81300000D03*
X70900000Y-81300000D03*
X68500000Y-81900000D03*
X70300000Y-81300000D03*
X69700000Y-81900000D03*
X67900000Y-81300000D03*
X70900000Y-83100000D03*
X69100000Y-83100000D03*
X68500000Y-83100000D03*
X69700000Y-83100000D03*
X67900000Y-83100000D03*
X70300000Y-83100000D03*
X70900000Y-83700000D03*
X69100000Y-83700000D03*
X68500000Y-83700000D03*
X69700000Y-83700000D03*
X67900000Y-83700000D03*
X70300000Y-83700000D03*
X76850000Y-62450000D03*
X89600000Y-59150000D03*
X76050000Y-63050000D03*
X89000000Y-59700000D03*
X75750000Y-63800000D03*
X88000000Y-61500000D03*
X77150000Y-64050000D03*
X88500000Y-60900000D03*
X78000000Y-64800000D03*
D15*
X79100000Y-69700000D03*
D13*
X92150000Y-69500000D03*
X77560000Y-69058600D03*
X77550000Y-59700000D03*
X89200000Y-55550000D03*
X97751100Y-57373600D03*
X79200000Y-66300000D03*
X73550000Y-59300000D03*
X83550000Y-55050000D03*
X89200000Y-73200000D03*
X94500000Y-66200000D03*
X89200000Y-63200000D03*
X76940000Y-66500000D03*
X90260000Y-62450000D03*
X79600000Y-67000000D03*
X85000000Y-77950000D03*
X85150000Y-85800000D03*
X84450000Y-78900000D03*
X84300000Y-85900000D03*
X75100000Y-85800000D03*
X74550000Y-70500000D03*
X74950000Y-71300000D03*
X76100000Y-85750000D03*
X75500000Y-72200000D03*
X75600000Y-75850000D03*
X79200000Y-79200000D03*
X79800000Y-79800000D03*
X78600000Y-79200000D03*
X77400000Y-79800000D03*
X79200000Y-79800000D03*
X78000000Y-79800000D03*
X78600000Y-78600000D03*
X78600000Y-79800000D03*
X78000000Y-79200000D03*
X77400000Y-78600000D03*
X79800000Y-78600000D03*
X79800000Y-79200000D03*
X78000000Y-78600000D03*
X77400000Y-79200000D03*
X80400000Y-78600000D03*
X80400000Y-79800000D03*
X79200000Y-78600000D03*
X80400000Y-79200000D03*
X69900000Y-79150000D03*
X70500000Y-79750000D03*
X69300000Y-79150000D03*
X68100000Y-79750000D03*
X69900000Y-79750000D03*
X68700000Y-79750000D03*
X69300000Y-78550000D03*
X69300000Y-79750000D03*
X68700000Y-79150000D03*
X68100000Y-78550000D03*
X70500000Y-78550000D03*
X70500000Y-79150000D03*
X68700000Y-78550000D03*
X68100000Y-79150000D03*
X71100000Y-78550000D03*
X71100000Y-79750000D03*
X69900000Y-78550000D03*
X71100000Y-79150000D03*
X66600000Y-78000000D03*
X66900000Y-85600000D03*
X66300000Y-78900000D03*
X66200000Y-86100000D03*
X81290000Y-54600000D03*
X84800000Y-66900000D03*
X85400000Y-70300000D03*
X84100000Y-66500000D03*
X84800000Y-69800000D03*
X79340000Y-54650000D03*
X83300000Y-58950000D03*
X94100000Y-56900000D03*
X76900000Y-54000000D03*
X77340000Y-54650000D03*
X93450000Y-58100000D03*
X78421100Y-54375000D03*
X86400000Y-58900000D03*
X91700000Y-59600000D03*
X75340000Y-54650000D03*
X94200000Y-59445000D03*
X88300000Y-79200000D03*
X87700000Y-79200000D03*
X88300000Y-79800000D03*
X87100000Y-79800000D03*
X87700000Y-78600000D03*
X87700000Y-79800000D03*
X87100000Y-79200000D03*
X86500000Y-78600000D03*
X88900000Y-78600000D03*
X88900000Y-79200000D03*
X87100000Y-78600000D03*
X86500000Y-79200000D03*
X89500000Y-78600000D03*
X89500000Y-79800000D03*
X88300000Y-78600000D03*
X89500000Y-79200000D03*
X76600000Y-60000000D03*
X90850000Y-60000000D03*
X68300000Y-85400000D03*
X68900000Y-86000000D03*
X69500000Y-86600000D03*
X77300000Y-86200000D03*
X77900000Y-85600000D03*
X78500000Y-86200000D03*
X79100000Y-86800000D03*
X86900000Y-85600000D03*
X87500000Y-86200000D03*
X88100000Y-86800000D03*
X91320000Y-61980000D03*
X78900000Y-67500000D03*
X68631100Y-62728600D03*
X84500000Y-62000000D03*
X83700000Y-61500000D03*
X70031100Y-62278600D03*
X71331100Y-61378600D03*
X83300000Y-60850000D03*
X81325000Y-57375000D03*
X81066456Y-58266456D03*
X64550000Y-59350000D03*
X69750000Y-53750000D03*
X62100000Y-72750000D03*
X83850000Y-73250000D03*
X62050000Y-60300000D03*
X68950000Y-53750000D03*
X64000000Y-57050000D03*
X82750000Y-62550000D03*
X74150000Y-62750000D03*
X70581100Y-61678600D03*
X68781100Y-63478600D03*
X69100000Y-61900000D03*
X62950000Y-59250000D03*
X62700000Y-66900000D03*
D16*
X88911100Y-65878600D02*
X88761100Y-65728600D01*
X74002420Y-66071493D02*
X74002420Y-66071492D01*
X74152680Y-66221753D02*
X74002420Y-66071493D01*
D17*
X65549999Y-65449999D02*
X65200000Y-65100000D01*
X65550000Y-71600000D02*
X65549999Y-65449999D01*
D18*
G36*
X62973000Y-84600000D02*
G01*
X62975440Y-84624776D01*
X62982667Y-84648601D01*
X62994403Y-84670557D01*
X63010197Y-84689803D01*
X63029443Y-84705597D01*
X63051399Y-84717333D01*
X63075224Y-84724560D01*
X63100000Y-84727000D01*
X91100000Y-84727000D01*
X91124776Y-84724560D01*
X91148601Y-84717333D01*
X91170557Y-84705597D01*
X91189803Y-84689803D01*
X91205597Y-84670557D01*
X91217333Y-84648601D01*
X91224560Y-84624776D01*
X91226998Y-84600641D01*
X91243562Y-81320918D01*
X91330995Y-81357134D01*
X91442934Y-81379400D01*
X91557066Y-81379400D01*
X91669005Y-81357134D01*
X91774449Y-81313457D01*
X91800000Y-81296384D01*
X91825551Y-81313457D01*
X91930995Y-81357134D01*
X92042934Y-81379400D01*
X92157066Y-81379400D01*
X92269005Y-81357134D01*
X92374449Y-81313457D01*
X92400000Y-81296384D01*
X92425551Y-81313457D01*
X92530995Y-81357134D01*
X92642934Y-81379400D01*
X92757066Y-81379400D01*
X92869005Y-81357134D01*
X92974449Y-81313457D01*
X93000000Y-81296384D01*
X93025551Y-81313457D01*
X93130995Y-81357134D01*
X93242934Y-81379400D01*
X93357066Y-81379400D01*
X93469005Y-81357134D01*
X93574449Y-81313457D01*
X93600000Y-81296384D01*
X93625551Y-81313457D01*
X93730995Y-81357134D01*
X93842934Y-81379400D01*
X93957066Y-81379400D01*
X94069005Y-81357134D01*
X94174449Y-81313457D01*
X94200000Y-81296384D01*
X94225551Y-81313457D01*
X94330995Y-81357134D01*
X94442934Y-81379400D01*
X94557066Y-81379400D01*
X94669005Y-81357134D01*
X94774449Y-81313457D01*
X94800000Y-81296384D01*
X94825551Y-81313457D01*
X94930995Y-81357134D01*
X95042934Y-81379400D01*
X95157066Y-81379400D01*
X95269005Y-81357134D01*
X95374449Y-81313457D01*
X95400000Y-81296384D01*
X95425551Y-81313457D01*
X95530995Y-81357134D01*
X95642934Y-81379400D01*
X95757066Y-81379400D01*
X95869005Y-81357134D01*
X95974449Y-81313457D01*
X96000000Y-81296384D01*
X96025551Y-81313457D01*
X96130995Y-81357134D01*
X96242934Y-81379400D01*
X96357066Y-81379400D01*
X96469005Y-81357134D01*
X96574449Y-81313457D01*
X96600000Y-81296384D01*
X96625551Y-81313457D01*
X96730995Y-81357134D01*
X96842934Y-81379400D01*
X96957066Y-81379400D01*
X97069005Y-81357134D01*
X97174449Y-81313457D01*
X97200000Y-81296384D01*
X97225551Y-81313457D01*
X97330995Y-81357134D01*
X97442934Y-81379400D01*
X97557066Y-81379400D01*
X97669005Y-81357134D01*
X97774449Y-81313457D01*
X97869346Y-81250049D01*
X97946452Y-81172943D01*
X97959767Y-84847778D01*
X97790230Y-84734497D01*
X97448201Y-84592824D01*
X97085105Y-84520600D01*
X96714895Y-84520600D01*
X96351799Y-84592824D01*
X96009770Y-84734497D01*
X95701952Y-84940174D01*
X95440174Y-85201952D01*
X95234497Y-85509770D01*
X95092824Y-85851799D01*
X95020600Y-86214895D01*
X95020600Y-86585105D01*
X95092824Y-86948201D01*
X95234497Y-87290230D01*
X95440174Y-87598048D01*
X95701952Y-87859826D01*
X96009770Y-88065503D01*
X96149787Y-88123500D01*
X62750213Y-88123500D01*
X62890230Y-88065503D01*
X63198048Y-87859826D01*
X63459826Y-87598048D01*
X63665503Y-87290230D01*
X63807176Y-86948201D01*
X63879400Y-86585105D01*
X63879400Y-86214895D01*
X63845195Y-86042934D01*
X65620600Y-86042934D01*
X65620600Y-86157066D01*
X65642866Y-86269005D01*
X65686543Y-86374449D01*
X65749951Y-86469346D01*
X65830654Y-86550049D01*
X65925551Y-86613457D01*
X66030995Y-86657134D01*
X66142934Y-86679400D01*
X66257066Y-86679400D01*
X66369005Y-86657134D01*
X66474449Y-86613457D01*
X66569346Y-86550049D01*
X66650049Y-86469346D01*
X66713457Y-86374449D01*
X66757134Y-86269005D01*
X66777545Y-86166393D01*
X66842934Y-86179400D01*
X66957066Y-86179400D01*
X67069005Y-86157134D01*
X67174449Y-86113457D01*
X67269346Y-86050049D01*
X67350049Y-85969346D01*
X67413457Y-85874449D01*
X67457134Y-85769005D01*
X67479400Y-85657066D01*
X67479400Y-85542934D01*
X67457134Y-85430995D01*
X67420658Y-85342934D01*
X67720600Y-85342934D01*
X67720600Y-85457066D01*
X67742866Y-85569005D01*
X67786543Y-85674449D01*
X67849951Y-85769346D01*
X67930654Y-85850049D01*
X68025551Y-85913457D01*
X68130995Y-85957134D01*
X68242934Y-85979400D01*
X68320600Y-85979400D01*
X68320600Y-86057066D01*
X68342866Y-86169005D01*
X68386543Y-86274449D01*
X68449951Y-86369346D01*
X68530654Y-86450049D01*
X68625551Y-86513457D01*
X68730995Y-86557134D01*
X68842934Y-86579400D01*
X68920600Y-86579400D01*
X68920600Y-86657066D01*
X68942866Y-86769005D01*
X68986543Y-86874449D01*
X69049951Y-86969346D01*
X69130654Y-87050049D01*
X69225551Y-87113457D01*
X69330995Y-87157134D01*
X69442934Y-87179400D01*
X69557066Y-87179400D01*
X69669005Y-87157134D01*
X69774449Y-87113457D01*
X69869346Y-87050049D01*
X69950049Y-86969346D01*
X70013457Y-86874449D01*
X70057134Y-86769005D01*
X70079400Y-86657066D01*
X70079400Y-86542934D01*
X70057134Y-86430995D01*
X70013457Y-86325551D01*
X69950049Y-86230654D01*
X69869346Y-86149951D01*
X69774449Y-86086543D01*
X69669005Y-86042866D01*
X69557066Y-86020600D01*
X69479400Y-86020600D01*
X69479400Y-85942934D01*
X69457134Y-85830995D01*
X69420658Y-85742934D01*
X74520600Y-85742934D01*
X74520600Y-85857066D01*
X74542866Y-85969005D01*
X74586543Y-86074449D01*
X74649951Y-86169346D01*
X74730654Y-86250049D01*
X74825551Y-86313457D01*
X74930995Y-86357134D01*
X75042934Y-86379400D01*
X75157066Y-86379400D01*
X75269005Y-86357134D01*
X75374449Y-86313457D01*
X75469346Y-86250049D01*
X75550049Y-86169346D01*
X75613457Y-86074449D01*
X75615942Y-86068449D01*
X75649951Y-86119346D01*
X75730654Y-86200049D01*
X75825551Y-86263457D01*
X75930995Y-86307134D01*
X76042934Y-86329400D01*
X76157066Y-86329400D01*
X76269005Y-86307134D01*
X76374449Y-86263457D01*
X76469346Y-86200049D01*
X76526461Y-86142934D01*
X76720600Y-86142934D01*
X76720600Y-86257066D01*
X76742866Y-86369005D01*
X76786543Y-86474449D01*
X76849951Y-86569346D01*
X76930654Y-86650049D01*
X77025551Y-86713457D01*
X77130995Y-86757134D01*
X77242934Y-86779400D01*
X77357066Y-86779400D01*
X77469005Y-86757134D01*
X77574449Y-86713457D01*
X77669346Y-86650049D01*
X77750049Y-86569346D01*
X77813457Y-86474449D01*
X77857134Y-86369005D01*
X77879400Y-86257066D01*
X77879400Y-86179400D01*
X77920600Y-86179400D01*
X77920600Y-86257066D01*
X77942866Y-86369005D01*
X77986543Y-86474449D01*
X78049951Y-86569346D01*
X78130654Y-86650049D01*
X78225551Y-86713457D01*
X78330995Y-86757134D01*
X78442934Y-86779400D01*
X78520600Y-86779400D01*
X78520600Y-86857066D01*
X78542866Y-86969005D01*
X78586543Y-87074449D01*
X78649951Y-87169346D01*
X78730654Y-87250049D01*
X78825551Y-87313457D01*
X78930995Y-87357134D01*
X79042934Y-87379400D01*
X79157066Y-87379400D01*
X79269005Y-87357134D01*
X79374449Y-87313457D01*
X79469346Y-87250049D01*
X79550049Y-87169346D01*
X79613457Y-87074449D01*
X79657134Y-86969005D01*
X79679400Y-86857066D01*
X79679400Y-86742934D01*
X79657134Y-86630995D01*
X79613457Y-86525551D01*
X79550049Y-86430654D01*
X79469346Y-86349951D01*
X79374449Y-86286543D01*
X79269005Y-86242866D01*
X79157066Y-86220600D01*
X79079400Y-86220600D01*
X79079400Y-86142934D01*
X79057134Y-86030995D01*
X79013457Y-85925551D01*
X78958255Y-85842934D01*
X83720600Y-85842934D01*
X83720600Y-85957066D01*
X83742866Y-86069005D01*
X83786543Y-86174449D01*
X83849951Y-86269346D01*
X83930654Y-86350049D01*
X84025551Y-86413457D01*
X84130995Y-86457134D01*
X84242934Y-86479400D01*
X84357066Y-86479400D01*
X84469005Y-86457134D01*
X84574449Y-86413457D01*
X84669346Y-86350049D01*
X84750049Y-86269346D01*
X84770037Y-86239432D01*
X84780654Y-86250049D01*
X84875551Y-86313457D01*
X84980995Y-86357134D01*
X85092934Y-86379400D01*
X85207066Y-86379400D01*
X85319005Y-86357134D01*
X85424449Y-86313457D01*
X85519346Y-86250049D01*
X85600049Y-86169346D01*
X85663457Y-86074449D01*
X85707134Y-85969005D01*
X85729400Y-85857066D01*
X85729400Y-85742934D01*
X85707134Y-85630995D01*
X85670658Y-85542934D01*
X86320600Y-85542934D01*
X86320600Y-85657066D01*
X86342866Y-85769005D01*
X86386543Y-85874449D01*
X86449951Y-85969346D01*
X86530654Y-86050049D01*
X86625551Y-86113457D01*
X86730995Y-86157134D01*
X86842934Y-86179400D01*
X86920600Y-86179400D01*
X86920600Y-86257066D01*
X86942866Y-86369005D01*
X86986543Y-86474449D01*
X87049951Y-86569346D01*
X87130654Y-86650049D01*
X87225551Y-86713457D01*
X87330995Y-86757134D01*
X87442934Y-86779400D01*
X87520600Y-86779400D01*
X87520600Y-86857066D01*
X87542866Y-86969005D01*
X87586543Y-87074449D01*
X87649951Y-87169346D01*
X87730654Y-87250049D01*
X87825551Y-87313457D01*
X87930995Y-87357134D01*
X88042934Y-87379400D01*
X88157066Y-87379400D01*
X88269005Y-87357134D01*
X88374449Y-87313457D01*
X88469346Y-87250049D01*
X88550049Y-87169346D01*
X88613457Y-87074449D01*
X88657134Y-86969005D01*
X88679400Y-86857066D01*
X88679400Y-86742934D01*
X88657134Y-86630995D01*
X88613457Y-86525551D01*
X88550049Y-86430654D01*
X88469346Y-86349951D01*
X88374449Y-86286543D01*
X88269005Y-86242866D01*
X88157066Y-86220600D01*
X88079400Y-86220600D01*
X88079400Y-86142934D01*
X88057134Y-86030995D01*
X88013457Y-85925551D01*
X87950049Y-85830654D01*
X87869346Y-85749951D01*
X87774449Y-85686543D01*
X87669005Y-85642866D01*
X87557066Y-85620600D01*
X87479400Y-85620600D01*
X87479400Y-85542934D01*
X87457134Y-85430995D01*
X87413457Y-85325551D01*
X87350049Y-85230654D01*
X87269346Y-85149951D01*
X87174449Y-85086543D01*
X87069005Y-85042866D01*
X86957066Y-85020600D01*
X86842934Y-85020600D01*
X86730995Y-85042866D01*
X86625551Y-85086543D01*
X86530654Y-85149951D01*
X86449951Y-85230654D01*
X86386543Y-85325551D01*
X86342866Y-85430995D01*
X86320600Y-85542934D01*
X85670658Y-85542934D01*
X85663457Y-85525551D01*
X85600049Y-85430654D01*
X85519346Y-85349951D01*
X85424449Y-85286543D01*
X85319005Y-85242866D01*
X85207066Y-85220600D01*
X85092934Y-85220600D01*
X84980995Y-85242866D01*
X84875551Y-85286543D01*
X84780654Y-85349951D01*
X84699951Y-85430654D01*
X84679963Y-85460568D01*
X84669346Y-85449951D01*
X84574449Y-85386543D01*
X84469005Y-85342866D01*
X84357066Y-85320600D01*
X84242934Y-85320600D01*
X84130995Y-85342866D01*
X84025551Y-85386543D01*
X83930654Y-85449951D01*
X83849951Y-85530654D01*
X83786543Y-85625551D01*
X83742866Y-85730995D01*
X83720600Y-85842934D01*
X78958255Y-85842934D01*
X78950049Y-85830654D01*
X78869346Y-85749951D01*
X78774449Y-85686543D01*
X78669005Y-85642866D01*
X78557066Y-85620600D01*
X78479400Y-85620600D01*
X78479400Y-85542934D01*
X78457134Y-85430995D01*
X78413457Y-85325551D01*
X78350049Y-85230654D01*
X78269346Y-85149951D01*
X78174449Y-85086543D01*
X78069005Y-85042866D01*
X77957066Y-85020600D01*
X77842934Y-85020600D01*
X77730995Y-85042866D01*
X77625551Y-85086543D01*
X77530654Y-85149951D01*
X77449951Y-85230654D01*
X77386543Y-85325551D01*
X77342866Y-85430995D01*
X77320600Y-85542934D01*
X77320600Y-85620600D01*
X77242934Y-85620600D01*
X77130995Y-85642866D01*
X77025551Y-85686543D01*
X76930654Y-85749951D01*
X76849951Y-85830654D01*
X76786543Y-85925551D01*
X76742866Y-86030995D01*
X76720600Y-86142934D01*
X76526461Y-86142934D01*
X76550049Y-86119346D01*
X76613457Y-86024449D01*
X76657134Y-85919005D01*
X76679400Y-85807066D01*
X76679400Y-85692934D01*
X76657134Y-85580995D01*
X76613457Y-85475551D01*
X76550049Y-85380654D01*
X76469346Y-85299951D01*
X76374449Y-85236543D01*
X76269005Y-85192866D01*
X76157066Y-85170600D01*
X76042934Y-85170600D01*
X75930995Y-85192866D01*
X75825551Y-85236543D01*
X75730654Y-85299951D01*
X75649951Y-85380654D01*
X75586543Y-85475551D01*
X75584058Y-85481551D01*
X75550049Y-85430654D01*
X75469346Y-85349951D01*
X75374449Y-85286543D01*
X75269005Y-85242866D01*
X75157066Y-85220600D01*
X75042934Y-85220600D01*
X74930995Y-85242866D01*
X74825551Y-85286543D01*
X74730654Y-85349951D01*
X74649951Y-85430654D01*
X74586543Y-85525551D01*
X74542866Y-85630995D01*
X74520600Y-85742934D01*
X69420658Y-85742934D01*
X69413457Y-85725551D01*
X69350049Y-85630654D01*
X69269346Y-85549951D01*
X69174449Y-85486543D01*
X69069005Y-85442866D01*
X68957066Y-85420600D01*
X68879400Y-85420600D01*
X68879400Y-85342934D01*
X68857134Y-85230995D01*
X68813457Y-85125551D01*
X68750049Y-85030654D01*
X68669346Y-84949951D01*
X68574449Y-84886543D01*
X68469005Y-84842866D01*
X68357066Y-84820600D01*
X68242934Y-84820600D01*
X68130995Y-84842866D01*
X68025551Y-84886543D01*
X67930654Y-84949951D01*
X67849951Y-85030654D01*
X67786543Y-85125551D01*
X67742866Y-85230995D01*
X67720600Y-85342934D01*
X67420658Y-85342934D01*
X67413457Y-85325551D01*
X67350049Y-85230654D01*
X67269346Y-85149951D01*
X67174449Y-85086543D01*
X67069005Y-85042866D01*
X66957066Y-85020600D01*
X66842934Y-85020600D01*
X66730995Y-85042866D01*
X66625551Y-85086543D01*
X66530654Y-85149951D01*
X66449951Y-85230654D01*
X66386543Y-85325551D01*
X66342866Y-85430995D01*
X66322455Y-85533607D01*
X66257066Y-85520600D01*
X66142934Y-85520600D01*
X66030995Y-85542866D01*
X65925551Y-85586543D01*
X65830654Y-85649951D01*
X65749951Y-85730654D01*
X65686543Y-85825551D01*
X65642866Y-85930995D01*
X65620600Y-86042934D01*
X63845195Y-86042934D01*
X63807176Y-85851799D01*
X63665503Y-85509770D01*
X63459826Y-85201952D01*
X63198048Y-84940174D01*
X62890230Y-84734497D01*
X62548201Y-84592824D01*
X62185105Y-84520600D01*
X61814895Y-84520600D01*
X61451799Y-84592824D01*
X61109770Y-84734497D01*
X60801952Y-84940174D01*
X60540174Y-85201952D01*
X60334497Y-85509770D01*
X60333501Y-85512175D01*
X60333501Y-74827000D01*
X62973000Y-74827000D01*
X62973000Y-84600000D01*
X62973000Y-84600000D01*
G37*
X62973000Y-84600000D02*
X62975440Y-84624776D01*
X62982667Y-84648601D01*
X62994403Y-84670557D01*
X63010197Y-84689803D01*
X63029443Y-84705597D01*
X63051399Y-84717333D01*
X63075224Y-84724560D01*
X63100000Y-84727000D01*
X91100000Y-84727000D01*
X91124776Y-84724560D01*
X91148601Y-84717333D01*
X91170557Y-84705597D01*
X91189803Y-84689803D01*
X91205597Y-84670557D01*
X91217333Y-84648601D01*
X91224560Y-84624776D01*
X91226998Y-84600641D01*
X91243562Y-81320918D01*
X91330995Y-81357134D01*
X91442934Y-81379400D01*
X91557066Y-81379400D01*
X91669005Y-81357134D01*
X91774449Y-81313457D01*
X91800000Y-81296384D01*
X91825551Y-81313457D01*
X91930995Y-81357134D01*
X92042934Y-81379400D01*
X92157066Y-81379400D01*
X92269005Y-81357134D01*
X92374449Y-81313457D01*
X92400000Y-81296384D01*
X92425551Y-81313457D01*
X92530995Y-81357134D01*
X92642934Y-81379400D01*
X92757066Y-81379400D01*
X92869005Y-81357134D01*
X92974449Y-81313457D01*
X93000000Y-81296384D01*
X93025551Y-81313457D01*
X93130995Y-81357134D01*
X93242934Y-81379400D01*
X93357066Y-81379400D01*
X93469005Y-81357134D01*
X93574449Y-81313457D01*
X93600000Y-81296384D01*
X93625551Y-81313457D01*
X93730995Y-81357134D01*
X93842934Y-81379400D01*
X93957066Y-81379400D01*
X94069005Y-81357134D01*
X94174449Y-81313457D01*
X94200000Y-81296384D01*
X94225551Y-81313457D01*
X94330995Y-81357134D01*
X94442934Y-81379400D01*
X94557066Y-81379400D01*
X94669005Y-81357134D01*
X94774449Y-81313457D01*
X94800000Y-81296384D01*
X94825551Y-81313457D01*
X94930995Y-81357134D01*
X95042934Y-81379400D01*
X95157066Y-81379400D01*
X95269005Y-81357134D01*
X95374449Y-81313457D01*
X95400000Y-81296384D01*
X95425551Y-81313457D01*
X95530995Y-81357134D01*
X95642934Y-81379400D01*
X95757066Y-81379400D01*
X95869005Y-81357134D01*
X95974449Y-81313457D01*
X96000000Y-81296384D01*
X96025551Y-81313457D01*
X96130995Y-81357134D01*
X96242934Y-81379400D01*
X96357066Y-81379400D01*
X96469005Y-81357134D01*
X96574449Y-81313457D01*
X96600000Y-81296384D01*
X96625551Y-81313457D01*
X96730995Y-81357134D01*
X96842934Y-81379400D01*
X96957066Y-81379400D01*
X97069005Y-81357134D01*
X97174449Y-81313457D01*
X97200000Y-81296384D01*
X97225551Y-81313457D01*
X97330995Y-81357134D01*
X97442934Y-81379400D01*
X97557066Y-81379400D01*
X97669005Y-81357134D01*
X97774449Y-81313457D01*
X97869346Y-81250049D01*
X97946452Y-81172943D01*
X97959767Y-84847778D01*
X97790230Y-84734497D01*
X97448201Y-84592824D01*
X97085105Y-84520600D01*
X96714895Y-84520600D01*
X96351799Y-84592824D01*
X96009770Y-84734497D01*
X95701952Y-84940174D01*
X95440174Y-85201952D01*
X95234497Y-85509770D01*
X95092824Y-85851799D01*
X95020600Y-86214895D01*
X95020600Y-86585105D01*
X95092824Y-86948201D01*
X95234497Y-87290230D01*
X95440174Y-87598048D01*
X95701952Y-87859826D01*
X96009770Y-88065503D01*
X96149787Y-88123500D01*
X62750213Y-88123500D01*
X62890230Y-88065503D01*
X63198048Y-87859826D01*
X63459826Y-87598048D01*
X63665503Y-87290230D01*
X63807176Y-86948201D01*
X63879400Y-86585105D01*
X63879400Y-86214895D01*
X63845195Y-86042934D01*
X65620600Y-86042934D01*
X65620600Y-86157066D01*
X65642866Y-86269005D01*
X65686543Y-86374449D01*
X65749951Y-86469346D01*
X65830654Y-86550049D01*
X65925551Y-86613457D01*
X66030995Y-86657134D01*
X66142934Y-86679400D01*
X66257066Y-86679400D01*
X66369005Y-86657134D01*
X66474449Y-86613457D01*
X66569346Y-86550049D01*
X66650049Y-86469346D01*
X66713457Y-86374449D01*
X66757134Y-86269005D01*
X66777545Y-86166393D01*
X66842934Y-86179400D01*
X66957066Y-86179400D01*
X67069005Y-86157134D01*
X67174449Y-86113457D01*
X67269346Y-86050049D01*
X67350049Y-85969346D01*
X67413457Y-85874449D01*
X67457134Y-85769005D01*
X67479400Y-85657066D01*
X67479400Y-85542934D01*
X67457134Y-85430995D01*
X67420658Y-85342934D01*
X67720600Y-85342934D01*
X67720600Y-85457066D01*
X67742866Y-85569005D01*
X67786543Y-85674449D01*
X67849951Y-85769346D01*
X67930654Y-85850049D01*
X68025551Y-85913457D01*
X68130995Y-85957134D01*
X68242934Y-85979400D01*
X68320600Y-85979400D01*
X68320600Y-86057066D01*
X68342866Y-86169005D01*
X68386543Y-86274449D01*
X68449951Y-86369346D01*
X68530654Y-86450049D01*
X68625551Y-86513457D01*
X68730995Y-86557134D01*
X68842934Y-86579400D01*
X68920600Y-86579400D01*
X68920600Y-86657066D01*
X68942866Y-86769005D01*
X68986543Y-86874449D01*
X69049951Y-86969346D01*
X69130654Y-87050049D01*
X69225551Y-87113457D01*
X69330995Y-87157134D01*
X69442934Y-87179400D01*
X69557066Y-87179400D01*
X69669005Y-87157134D01*
X69774449Y-87113457D01*
X69869346Y-87050049D01*
X69950049Y-86969346D01*
X70013457Y-86874449D01*
X70057134Y-86769005D01*
X70079400Y-86657066D01*
X70079400Y-86542934D01*
X70057134Y-86430995D01*
X70013457Y-86325551D01*
X69950049Y-86230654D01*
X69869346Y-86149951D01*
X69774449Y-86086543D01*
X69669005Y-86042866D01*
X69557066Y-86020600D01*
X69479400Y-86020600D01*
X69479400Y-85942934D01*
X69457134Y-85830995D01*
X69420658Y-85742934D01*
X74520600Y-85742934D01*
X74520600Y-85857066D01*
X74542866Y-85969005D01*
X74586543Y-86074449D01*
X74649951Y-86169346D01*
X74730654Y-86250049D01*
X74825551Y-86313457D01*
X74930995Y-86357134D01*
X75042934Y-86379400D01*
X75157066Y-86379400D01*
X75269005Y-86357134D01*
X75374449Y-86313457D01*
X75469346Y-86250049D01*
X75550049Y-86169346D01*
X75613457Y-86074449D01*
X75615942Y-86068449D01*
X75649951Y-86119346D01*
X75730654Y-86200049D01*
X75825551Y-86263457D01*
X75930995Y-86307134D01*
X76042934Y-86329400D01*
X76157066Y-86329400D01*
X76269005Y-86307134D01*
X76374449Y-86263457D01*
X76469346Y-86200049D01*
X76526461Y-86142934D01*
X76720600Y-86142934D01*
X76720600Y-86257066D01*
X76742866Y-86369005D01*
X76786543Y-86474449D01*
X76849951Y-86569346D01*
X76930654Y-86650049D01*
X77025551Y-86713457D01*
X77130995Y-86757134D01*
X77242934Y-86779400D01*
X77357066Y-86779400D01*
X77469005Y-86757134D01*
X77574449Y-86713457D01*
X77669346Y-86650049D01*
X77750049Y-86569346D01*
X77813457Y-86474449D01*
X77857134Y-86369005D01*
X77879400Y-86257066D01*
X77879400Y-86179400D01*
X77920600Y-86179400D01*
X77920600Y-86257066D01*
X77942866Y-86369005D01*
X77986543Y-86474449D01*
X78049951Y-86569346D01*
X78130654Y-86650049D01*
X78225551Y-86713457D01*
X78330995Y-86757134D01*
X78442934Y-86779400D01*
X78520600Y-86779400D01*
X78520600Y-86857066D01*
X78542866Y-86969005D01*
X78586543Y-87074449D01*
X78649951Y-87169346D01*
X78730654Y-87250049D01*
X78825551Y-87313457D01*
X78930995Y-87357134D01*
X79042934Y-87379400D01*
X79157066Y-87379400D01*
X79269005Y-87357134D01*
X79374449Y-87313457D01*
X79469346Y-87250049D01*
X79550049Y-87169346D01*
X79613457Y-87074449D01*
X79657134Y-86969005D01*
X79679400Y-86857066D01*
X79679400Y-86742934D01*
X79657134Y-86630995D01*
X79613457Y-86525551D01*
X79550049Y-86430654D01*
X79469346Y-86349951D01*
X79374449Y-86286543D01*
X79269005Y-86242866D01*
X79157066Y-86220600D01*
X79079400Y-86220600D01*
X79079400Y-86142934D01*
X79057134Y-86030995D01*
X79013457Y-85925551D01*
X78958255Y-85842934D01*
X83720600Y-85842934D01*
X83720600Y-85957066D01*
X83742866Y-86069005D01*
X83786543Y-86174449D01*
X83849951Y-86269346D01*
X83930654Y-86350049D01*
X84025551Y-86413457D01*
X84130995Y-86457134D01*
X84242934Y-86479400D01*
X84357066Y-86479400D01*
X84469005Y-86457134D01*
X84574449Y-86413457D01*
X84669346Y-86350049D01*
X84750049Y-86269346D01*
X84770037Y-86239432D01*
X84780654Y-86250049D01*
X84875551Y-86313457D01*
X84980995Y-86357134D01*
X85092934Y-86379400D01*
X85207066Y-86379400D01*
X85319005Y-86357134D01*
X85424449Y-86313457D01*
X85519346Y-86250049D01*
X85600049Y-86169346D01*
X85663457Y-86074449D01*
X85707134Y-85969005D01*
X85729400Y-85857066D01*
X85729400Y-85742934D01*
X85707134Y-85630995D01*
X85670658Y-85542934D01*
X86320600Y-85542934D01*
X86320600Y-85657066D01*
X86342866Y-85769005D01*
X86386543Y-85874449D01*
X86449951Y-85969346D01*
X86530654Y-86050049D01*
X86625551Y-86113457D01*
X86730995Y-86157134D01*
X86842934Y-86179400D01*
X86920600Y-86179400D01*
X86920600Y-86257066D01*
X86942866Y-86369005D01*
X86986543Y-86474449D01*
X87049951Y-86569346D01*
X87130654Y-86650049D01*
X87225551Y-86713457D01*
X87330995Y-86757134D01*
X87442934Y-86779400D01*
X87520600Y-86779400D01*
X87520600Y-86857066D01*
X87542866Y-86969005D01*
X87586543Y-87074449D01*
X87649951Y-87169346D01*
X87730654Y-87250049D01*
X87825551Y-87313457D01*
X87930995Y-87357134D01*
X88042934Y-87379400D01*
X88157066Y-87379400D01*
X88269005Y-87357134D01*
X88374449Y-87313457D01*
X88469346Y-87250049D01*
X88550049Y-87169346D01*
X88613457Y-87074449D01*
X88657134Y-86969005D01*
X88679400Y-86857066D01*
X88679400Y-86742934D01*
X88657134Y-86630995D01*
X88613457Y-86525551D01*
X88550049Y-86430654D01*
X88469346Y-86349951D01*
X88374449Y-86286543D01*
X88269005Y-86242866D01*
X88157066Y-86220600D01*
X88079400Y-86220600D01*
X88079400Y-86142934D01*
X88057134Y-86030995D01*
X88013457Y-85925551D01*
X87950049Y-85830654D01*
X87869346Y-85749951D01*
X87774449Y-85686543D01*
X87669005Y-85642866D01*
X87557066Y-85620600D01*
X87479400Y-85620600D01*
X87479400Y-85542934D01*
X87457134Y-85430995D01*
X87413457Y-85325551D01*
X87350049Y-85230654D01*
X87269346Y-85149951D01*
X87174449Y-85086543D01*
X87069005Y-85042866D01*
X86957066Y-85020600D01*
X86842934Y-85020600D01*
X86730995Y-85042866D01*
X86625551Y-85086543D01*
X86530654Y-85149951D01*
X86449951Y-85230654D01*
X86386543Y-85325551D01*
X86342866Y-85430995D01*
X86320600Y-85542934D01*
X85670658Y-85542934D01*
X85663457Y-85525551D01*
X85600049Y-85430654D01*
X85519346Y-85349951D01*
X85424449Y-85286543D01*
X85319005Y-85242866D01*
X85207066Y-85220600D01*
X85092934Y-85220600D01*
X84980995Y-85242866D01*
X84875551Y-85286543D01*
X84780654Y-85349951D01*
X84699951Y-85430654D01*
X84679963Y-85460568D01*
X84669346Y-85449951D01*
X84574449Y-85386543D01*
X84469005Y-85342866D01*
X84357066Y-85320600D01*
X84242934Y-85320600D01*
X84130995Y-85342866D01*
X84025551Y-85386543D01*
X83930654Y-85449951D01*
X83849951Y-85530654D01*
X83786543Y-85625551D01*
X83742866Y-85730995D01*
X83720600Y-85842934D01*
X78958255Y-85842934D01*
X78950049Y-85830654D01*
X78869346Y-85749951D01*
X78774449Y-85686543D01*
X78669005Y-85642866D01*
X78557066Y-85620600D01*
X78479400Y-85620600D01*
X78479400Y-85542934D01*
X78457134Y-85430995D01*
X78413457Y-85325551D01*
X78350049Y-85230654D01*
X78269346Y-85149951D01*
X78174449Y-85086543D01*
X78069005Y-85042866D01*
X77957066Y-85020600D01*
X77842934Y-85020600D01*
X77730995Y-85042866D01*
X77625551Y-85086543D01*
X77530654Y-85149951D01*
X77449951Y-85230654D01*
X77386543Y-85325551D01*
X77342866Y-85430995D01*
X77320600Y-85542934D01*
X77320600Y-85620600D01*
X77242934Y-85620600D01*
X77130995Y-85642866D01*
X77025551Y-85686543D01*
X76930654Y-85749951D01*
X76849951Y-85830654D01*
X76786543Y-85925551D01*
X76742866Y-86030995D01*
X76720600Y-86142934D01*
X76526461Y-86142934D01*
X76550049Y-86119346D01*
X76613457Y-86024449D01*
X76657134Y-85919005D01*
X76679400Y-85807066D01*
X76679400Y-85692934D01*
X76657134Y-85580995D01*
X76613457Y-85475551D01*
X76550049Y-85380654D01*
X76469346Y-85299951D01*
X76374449Y-85236543D01*
X76269005Y-85192866D01*
X76157066Y-85170600D01*
X76042934Y-85170600D01*
X75930995Y-85192866D01*
X75825551Y-85236543D01*
X75730654Y-85299951D01*
X75649951Y-85380654D01*
X75586543Y-85475551D01*
X75584058Y-85481551D01*
X75550049Y-85430654D01*
X75469346Y-85349951D01*
X75374449Y-85286543D01*
X75269005Y-85242866D01*
X75157066Y-85220600D01*
X75042934Y-85220600D01*
X74930995Y-85242866D01*
X74825551Y-85286543D01*
X74730654Y-85349951D01*
X74649951Y-85430654D01*
X74586543Y-85525551D01*
X74542866Y-85630995D01*
X74520600Y-85742934D01*
X69420658Y-85742934D01*
X69413457Y-85725551D01*
X69350049Y-85630654D01*
X69269346Y-85549951D01*
X69174449Y-85486543D01*
X69069005Y-85442866D01*
X68957066Y-85420600D01*
X68879400Y-85420600D01*
X68879400Y-85342934D01*
X68857134Y-85230995D01*
X68813457Y-85125551D01*
X68750049Y-85030654D01*
X68669346Y-84949951D01*
X68574449Y-84886543D01*
X68469005Y-84842866D01*
X68357066Y-84820600D01*
X68242934Y-84820600D01*
X68130995Y-84842866D01*
X68025551Y-84886543D01*
X67930654Y-84949951D01*
X67849951Y-85030654D01*
X67786543Y-85125551D01*
X67742866Y-85230995D01*
X67720600Y-85342934D01*
X67420658Y-85342934D01*
X67413457Y-85325551D01*
X67350049Y-85230654D01*
X67269346Y-85149951D01*
X67174449Y-85086543D01*
X67069005Y-85042866D01*
X66957066Y-85020600D01*
X66842934Y-85020600D01*
X66730995Y-85042866D01*
X66625551Y-85086543D01*
X66530654Y-85149951D01*
X66449951Y-85230654D01*
X66386543Y-85325551D01*
X66342866Y-85430995D01*
X66322455Y-85533607D01*
X66257066Y-85520600D01*
X66142934Y-85520600D01*
X66030995Y-85542866D01*
X65925551Y-85586543D01*
X65830654Y-85649951D01*
X65749951Y-85730654D01*
X65686543Y-85825551D01*
X65642866Y-85930995D01*
X65620600Y-86042934D01*
X63845195Y-86042934D01*
X63807176Y-85851799D01*
X63665503Y-85509770D01*
X63459826Y-85201952D01*
X63198048Y-84940174D01*
X62890230Y-84734497D01*
X62548201Y-84592824D01*
X62185105Y-84520600D01*
X61814895Y-84520600D01*
X61451799Y-84592824D01*
X61109770Y-84734497D01*
X60801952Y-84940174D01*
X60540174Y-85201952D01*
X60334497Y-85509770D01*
X60333501Y-85512175D01*
X60333501Y-74827000D01*
X62973000Y-74827000D01*
X62973000Y-84600000D01*
G36*
X97939376Y-79219981D02*
G01*
X97869346Y-79149951D01*
X97774449Y-79086543D01*
X97669005Y-79042866D01*
X97557066Y-79020600D01*
X97442934Y-79020600D01*
X97330995Y-79042866D01*
X97225551Y-79086543D01*
X97200000Y-79103616D01*
X97174449Y-79086543D01*
X97069005Y-79042866D01*
X96957066Y-79020600D01*
X96842934Y-79020600D01*
X96730995Y-79042866D01*
X96625551Y-79086543D01*
X96600000Y-79103616D01*
X96574449Y-79086543D01*
X96469005Y-79042866D01*
X96357066Y-79020600D01*
X96242934Y-79020600D01*
X96130995Y-79042866D01*
X96025551Y-79086543D01*
X96000000Y-79103616D01*
X95974449Y-79086543D01*
X95869005Y-79042866D01*
X95757066Y-79020600D01*
X95642934Y-79020600D01*
X95530995Y-79042866D01*
X95425551Y-79086543D01*
X95400000Y-79103616D01*
X95374449Y-79086543D01*
X95269005Y-79042866D01*
X95157066Y-79020600D01*
X95042934Y-79020600D01*
X94930995Y-79042866D01*
X94825551Y-79086543D01*
X94800000Y-79103616D01*
X94774449Y-79086543D01*
X94669005Y-79042866D01*
X94557066Y-79020600D01*
X94442934Y-79020600D01*
X94330995Y-79042866D01*
X94225551Y-79086543D01*
X94200000Y-79103616D01*
X94174449Y-79086543D01*
X94069005Y-79042866D01*
X93957066Y-79020600D01*
X93842934Y-79020600D01*
X93730995Y-79042866D01*
X93625551Y-79086543D01*
X93600000Y-79103616D01*
X93574449Y-79086543D01*
X93469005Y-79042866D01*
X93357066Y-79020600D01*
X93242934Y-79020600D01*
X93130995Y-79042866D01*
X93025551Y-79086543D01*
X93000000Y-79103616D01*
X92974449Y-79086543D01*
X92869005Y-79042866D01*
X92757066Y-79020600D01*
X92642934Y-79020600D01*
X92530995Y-79042866D01*
X92425551Y-79086543D01*
X92400000Y-79103616D01*
X92374449Y-79086543D01*
X92269005Y-79042866D01*
X92157066Y-79020600D01*
X92042934Y-79020600D01*
X91930995Y-79042866D01*
X91825551Y-79086543D01*
X91800000Y-79103616D01*
X91774449Y-79086543D01*
X91669005Y-79042866D01*
X91557066Y-79020600D01*
X91442934Y-79020600D01*
X91330995Y-79042866D01*
X91254908Y-79074383D01*
X91276360Y-74827000D01*
X97923459Y-74827000D01*
X97939376Y-79219981D01*
X97939376Y-79219981D01*
G37*
X97939376Y-79219981D02*
X97869346Y-79149951D01*
X97774449Y-79086543D01*
X97669005Y-79042866D01*
X97557066Y-79020600D01*
X97442934Y-79020600D01*
X97330995Y-79042866D01*
X97225551Y-79086543D01*
X97200000Y-79103616D01*
X97174449Y-79086543D01*
X97069005Y-79042866D01*
X96957066Y-79020600D01*
X96842934Y-79020600D01*
X96730995Y-79042866D01*
X96625551Y-79086543D01*
X96600000Y-79103616D01*
X96574449Y-79086543D01*
X96469005Y-79042866D01*
X96357066Y-79020600D01*
X96242934Y-79020600D01*
X96130995Y-79042866D01*
X96025551Y-79086543D01*
X96000000Y-79103616D01*
X95974449Y-79086543D01*
X95869005Y-79042866D01*
X95757066Y-79020600D01*
X95642934Y-79020600D01*
X95530995Y-79042866D01*
X95425551Y-79086543D01*
X95400000Y-79103616D01*
X95374449Y-79086543D01*
X95269005Y-79042866D01*
X95157066Y-79020600D01*
X95042934Y-79020600D01*
X94930995Y-79042866D01*
X94825551Y-79086543D01*
X94800000Y-79103616D01*
X94774449Y-79086543D01*
X94669005Y-79042866D01*
X94557066Y-79020600D01*
X94442934Y-79020600D01*
X94330995Y-79042866D01*
X94225551Y-79086543D01*
X94200000Y-79103616D01*
X94174449Y-79086543D01*
X94069005Y-79042866D01*
X93957066Y-79020600D01*
X93842934Y-79020600D01*
X93730995Y-79042866D01*
X93625551Y-79086543D01*
X93600000Y-79103616D01*
X93574449Y-79086543D01*
X93469005Y-79042866D01*
X93357066Y-79020600D01*
X93242934Y-79020600D01*
X93130995Y-79042866D01*
X93025551Y-79086543D01*
X93000000Y-79103616D01*
X92974449Y-79086543D01*
X92869005Y-79042866D01*
X92757066Y-79020600D01*
X92642934Y-79020600D01*
X92530995Y-79042866D01*
X92425551Y-79086543D01*
X92400000Y-79103616D01*
X92374449Y-79086543D01*
X92269005Y-79042866D01*
X92157066Y-79020600D01*
X92042934Y-79020600D01*
X91930995Y-79042866D01*
X91825551Y-79086543D01*
X91800000Y-79103616D01*
X91774449Y-79086543D01*
X91669005Y-79042866D01*
X91557066Y-79020600D01*
X91442934Y-79020600D01*
X91330995Y-79042866D01*
X91254908Y-79074383D01*
X91276360Y-74827000D01*
X97923459Y-74827000D01*
X97939376Y-79219981D01*
G36*
X90473000Y-84173000D02*
G01*
X64027000Y-84173000D01*
X64027000Y-80827000D01*
X90473000Y-80827000D01*
X90473000Y-84173000D01*
X90473000Y-84173000D01*
G37*
X90473000Y-84173000D02*
X64027000Y-84173000D01*
X64027000Y-80827000D01*
X90473000Y-80827000D01*
X90473000Y-84173000D01*
G36*
X101673000Y-77408006D02*
G01*
X98835899Y-77410890D01*
X98829364Y-77410040D01*
X98824600Y-77410360D01*
X98819836Y-77410040D01*
X98809966Y-77411324D01*
X98802570Y-77411429D01*
X98792331Y-77413618D01*
X98790144Y-77413902D01*
X98788999Y-77414289D01*
X98777895Y-77416299D01*
X98774337Y-77417701D01*
X98771985Y-77418147D01*
X98763389Y-77421617D01*
X98761705Y-77422154D01*
X98756475Y-77424408D01*
X98751173Y-77426548D01*
X98749602Y-77427370D01*
X98741094Y-77431036D01*
X98740410Y-77431507D01*
X98739013Y-77432081D01*
X98726944Y-77440092D01*
X98714776Y-77448065D01*
X98712356Y-77450441D01*
X98709541Y-77452335D01*
X98699369Y-77462570D01*
X98689030Y-77472846D01*
X98687469Y-77475167D01*
X98685662Y-77476973D01*
X98681353Y-77483418D01*
X98681189Y-77483619D01*
X98677168Y-77489677D01*
X98673188Y-77495630D01*
X98673068Y-77495855D01*
X98668778Y-77502318D01*
X98667695Y-77504956D01*
X98665935Y-77507652D01*
X98660675Y-77520745D01*
X98655254Y-77533822D01*
X98654752Y-77536341D01*
X98654008Y-77538119D01*
X98652299Y-77546547D01*
X98651990Y-77547605D01*
X98650815Y-77553862D01*
X98649547Y-77560114D01*
X98649435Y-77561213D01*
X98647848Y-77569662D01*
X98647854Y-77570180D01*
X98647727Y-77570772D01*
X98647609Y-77579067D01*
X98647528Y-77579860D01*
X98647503Y-77586526D01*
X98647408Y-77593212D01*
X98647475Y-77594008D01*
X98647444Y-77602302D01*
X98647600Y-77603102D01*
X98647600Y-77630726D01*
X85505029Y-77662938D01*
X85450049Y-77580654D01*
X85369346Y-77499951D01*
X85274449Y-77436543D01*
X85169005Y-77392866D01*
X85057066Y-77370600D01*
X84942934Y-77370600D01*
X84830995Y-77392866D01*
X84725551Y-77436543D01*
X84630654Y-77499951D01*
X84549951Y-77580654D01*
X84493314Y-77665418D01*
X67101759Y-77708044D01*
X67050049Y-77630654D01*
X66969346Y-77549951D01*
X66874449Y-77486543D01*
X66769005Y-77442866D01*
X66657066Y-77420600D01*
X66542934Y-77420600D01*
X66430995Y-77442866D01*
X66325551Y-77486543D01*
X66230654Y-77549951D01*
X66149951Y-77630654D01*
X66096595Y-77710508D01*
X61127000Y-77722688D01*
X61127000Y-75792934D01*
X75020600Y-75792934D01*
X75020600Y-75907066D01*
X75042866Y-76019005D01*
X75086543Y-76124449D01*
X75149951Y-76219346D01*
X75230654Y-76300049D01*
X75325551Y-76363457D01*
X75430995Y-76407134D01*
X75542934Y-76429400D01*
X75657066Y-76429400D01*
X75769005Y-76407134D01*
X75874449Y-76363457D01*
X75969346Y-76300049D01*
X76050049Y-76219346D01*
X76113457Y-76124449D01*
X76157134Y-76019005D01*
X76179400Y-75907066D01*
X76179400Y-75792934D01*
X76157134Y-75680995D01*
X76113457Y-75575551D01*
X76050049Y-75480654D01*
X75969346Y-75399951D01*
X75874449Y-75336543D01*
X75769005Y-75292866D01*
X75657066Y-75270600D01*
X75542934Y-75270600D01*
X75430995Y-75292866D01*
X75325551Y-75336543D01*
X75230654Y-75399951D01*
X75149951Y-75480654D01*
X75086543Y-75575551D01*
X75042866Y-75680995D01*
X75020600Y-75792934D01*
X61127000Y-75792934D01*
X61127000Y-74276689D01*
X101673000Y-74177312D01*
X101673000Y-77408006D01*
X101673000Y-77408006D01*
G37*
X101673000Y-77408006D02*
X98835899Y-77410890D01*
X98829364Y-77410040D01*
X98824600Y-77410360D01*
X98819836Y-77410040D01*
X98809966Y-77411324D01*
X98802570Y-77411429D01*
X98792331Y-77413618D01*
X98790144Y-77413902D01*
X98788999Y-77414289D01*
X98777895Y-77416299D01*
X98774337Y-77417701D01*
X98771985Y-77418147D01*
X98763389Y-77421617D01*
X98761705Y-77422154D01*
X98756475Y-77424408D01*
X98751173Y-77426548D01*
X98749602Y-77427370D01*
X98741094Y-77431036D01*
X98740410Y-77431507D01*
X98739013Y-77432081D01*
X98726944Y-77440092D01*
X98714776Y-77448065D01*
X98712356Y-77450441D01*
X98709541Y-77452335D01*
X98699369Y-77462570D01*
X98689030Y-77472846D01*
X98687469Y-77475167D01*
X98685662Y-77476973D01*
X98681353Y-77483418D01*
X98681189Y-77483619D01*
X98677168Y-77489677D01*
X98673188Y-77495630D01*
X98673068Y-77495855D01*
X98668778Y-77502318D01*
X98667695Y-77504956D01*
X98665935Y-77507652D01*
X98660675Y-77520745D01*
X98655254Y-77533822D01*
X98654752Y-77536341D01*
X98654008Y-77538119D01*
X98652299Y-77546547D01*
X98651990Y-77547605D01*
X98650815Y-77553862D01*
X98649547Y-77560114D01*
X98649435Y-77561213D01*
X98647848Y-77569662D01*
X98647854Y-77570180D01*
X98647727Y-77570772D01*
X98647609Y-77579067D01*
X98647528Y-77579860D01*
X98647503Y-77586526D01*
X98647408Y-77593212D01*
X98647475Y-77594008D01*
X98647444Y-77602302D01*
X98647600Y-77603102D01*
X98647600Y-77630726D01*
X85505029Y-77662938D01*
X85450049Y-77580654D01*
X85369346Y-77499951D01*
X85274449Y-77436543D01*
X85169005Y-77392866D01*
X85057066Y-77370600D01*
X84942934Y-77370600D01*
X84830995Y-77392866D01*
X84725551Y-77436543D01*
X84630654Y-77499951D01*
X84549951Y-77580654D01*
X84493314Y-77665418D01*
X67101759Y-77708044D01*
X67050049Y-77630654D01*
X66969346Y-77549951D01*
X66874449Y-77486543D01*
X66769005Y-77442866D01*
X66657066Y-77420600D01*
X66542934Y-77420600D01*
X66430995Y-77442866D01*
X66325551Y-77486543D01*
X66230654Y-77549951D01*
X66149951Y-77630654D01*
X66096595Y-77710508D01*
X61127000Y-77722688D01*
X61127000Y-75792934D01*
X75020600Y-75792934D01*
X75020600Y-75907066D01*
X75042866Y-76019005D01*
X75086543Y-76124449D01*
X75149951Y-76219346D01*
X75230654Y-76300049D01*
X75325551Y-76363457D01*
X75430995Y-76407134D01*
X75542934Y-76429400D01*
X75657066Y-76429400D01*
X75769005Y-76407134D01*
X75874449Y-76363457D01*
X75969346Y-76300049D01*
X76050049Y-76219346D01*
X76113457Y-76124449D01*
X76157134Y-76019005D01*
X76179400Y-75907066D01*
X76179400Y-75792934D01*
X76157134Y-75680995D01*
X76113457Y-75575551D01*
X76050049Y-75480654D01*
X75969346Y-75399951D01*
X75874449Y-75336543D01*
X75769005Y-75292866D01*
X75657066Y-75270600D01*
X75542934Y-75270600D01*
X75430995Y-75292866D01*
X75325551Y-75336543D01*
X75230654Y-75399951D01*
X75149951Y-75480654D01*
X75086543Y-75575551D01*
X75042866Y-75680995D01*
X75020600Y-75792934D01*
X61127000Y-75792934D01*
X61127000Y-74276689D01*
X101673000Y-74177312D01*
X101673000Y-77408006D01*
G36*
X74997322Y-75172880D02*
G01*
X74973702Y-79520499D01*
X72677678Y-79475479D01*
X72701298Y-75127860D01*
X74997322Y-75172880D01*
X74997322Y-75172880D01*
G37*
X74997322Y-75172880D02*
X74973702Y-79520499D01*
X72677678Y-79475479D01*
X72701298Y-75127860D01*
X74997322Y-75172880D01*
G36*
X65990252Y-75224400D02*
G01*
X65972881Y-78421736D01*
X65930654Y-78449951D01*
X65849951Y-78530654D01*
X65786543Y-78625551D01*
X65742866Y-78730995D01*
X65720600Y-78842934D01*
X65720600Y-78957066D01*
X65742866Y-79069005D01*
X65786543Y-79174449D01*
X65849951Y-79269346D01*
X65930654Y-79350049D01*
X65967703Y-79374805D01*
X65966632Y-79572019D01*
X63670608Y-79526999D01*
X63694228Y-75179380D01*
X65990252Y-75224400D01*
X65990252Y-75224400D01*
G37*
X65990252Y-75224400D02*
X65972881Y-78421736D01*
X65930654Y-78449951D01*
X65849951Y-78530654D01*
X65786543Y-78625551D01*
X65742866Y-78730995D01*
X65720600Y-78842934D01*
X65720600Y-78957066D01*
X65742866Y-79069005D01*
X65786543Y-79174449D01*
X65849951Y-79269346D01*
X65930654Y-79350049D01*
X65967703Y-79374805D01*
X65966632Y-79572019D01*
X63670608Y-79526999D01*
X63694228Y-75179380D01*
X65990252Y-75224400D01*
G36*
X84234822Y-75423701D02*
G01*
X84218823Y-78368619D01*
X84175551Y-78386543D01*
X84080654Y-78449951D01*
X83999951Y-78530654D01*
X83936543Y-78625551D01*
X83892866Y-78730995D01*
X83870600Y-78842934D01*
X83870600Y-78957066D01*
X83892866Y-79069005D01*
X83936543Y-79174449D01*
X83999951Y-79269346D01*
X84080654Y-79350049D01*
X84175551Y-79413457D01*
X84213062Y-79428995D01*
X84211202Y-79771320D01*
X81915178Y-79726300D01*
X81938798Y-75378681D01*
X84234822Y-75423701D01*
X84234822Y-75423701D01*
G37*
X84234822Y-75423701D02*
X84218823Y-78368619D01*
X84175551Y-78386543D01*
X84080654Y-78449951D01*
X83999951Y-78530654D01*
X83936543Y-78625551D01*
X83892866Y-78730995D01*
X83870600Y-78842934D01*
X83870600Y-78957066D01*
X83892866Y-79069005D01*
X83936543Y-79174449D01*
X83999951Y-79269346D01*
X84080654Y-79350049D01*
X84175551Y-79413457D01*
X84213062Y-79428995D01*
X84211202Y-79771320D01*
X81915178Y-79726300D01*
X81938798Y-75378681D01*
X84234822Y-75423701D01*
G36*
X71923642Y-80175269D02*
G01*
X66627000Y-80270692D01*
X66627000Y-79378344D01*
X66669346Y-79350049D01*
X66750049Y-79269346D01*
X66813457Y-79174449D01*
X66857134Y-79069005D01*
X66879400Y-78957066D01*
X66879400Y-78842934D01*
X66857134Y-78730995D01*
X66813457Y-78625551D01*
X66767890Y-78557356D01*
X66769005Y-78557134D01*
X66874449Y-78513457D01*
X66969346Y-78450049D01*
X67050049Y-78369346D01*
X67113457Y-78274449D01*
X67126272Y-78243512D01*
X68398109Y-78276956D01*
X68403188Y-78276988D01*
X71922362Y-78228751D01*
X71923642Y-80175269D01*
X71923642Y-80175269D01*
G37*
X71923642Y-80175269D02*
X66627000Y-80270692D01*
X66627000Y-79378344D01*
X66669346Y-79350049D01*
X66750049Y-79269346D01*
X66813457Y-79174449D01*
X66857134Y-79069005D01*
X66879400Y-78957066D01*
X66879400Y-78842934D01*
X66857134Y-78730995D01*
X66813457Y-78625551D01*
X66767890Y-78557356D01*
X66769005Y-78557134D01*
X66874449Y-78513457D01*
X66969346Y-78450049D01*
X67050049Y-78369346D01*
X67113457Y-78274449D01*
X67126272Y-78243512D01*
X68398109Y-78276956D01*
X68403188Y-78276988D01*
X71922362Y-78228751D01*
X71923642Y-80175269D01*
G36*
X81323642Y-80175172D02*
G01*
X75777000Y-80270792D01*
X75777000Y-78230383D01*
X77548109Y-78276956D01*
X77553076Y-78276990D01*
X81322362Y-78228639D01*
X81323642Y-80175172D01*
X81323642Y-80175172D01*
G37*
X81323642Y-80175172D02*
X75777000Y-80270792D01*
X75777000Y-78230383D01*
X77548109Y-78276956D01*
X77553076Y-78276990D01*
X81322362Y-78228639D01*
X81323642Y-80175172D01*
G36*
X90623642Y-80225066D02*
G01*
X84777000Y-80320901D01*
X84777000Y-79378344D01*
X84819346Y-79350049D01*
X84900049Y-79269346D01*
X84963457Y-79174449D01*
X85007134Y-79069005D01*
X85029400Y-78957066D01*
X85029400Y-78842934D01*
X85007134Y-78730995D01*
X84963457Y-78625551D01*
X84900049Y-78530654D01*
X84887835Y-78518440D01*
X84942934Y-78529400D01*
X85057066Y-78529400D01*
X85169005Y-78507134D01*
X85274449Y-78463457D01*
X85369346Y-78400049D01*
X85450049Y-78319346D01*
X85464012Y-78298449D01*
X86548109Y-78326956D01*
X86552960Y-78326991D01*
X90622361Y-78278521D01*
X90623642Y-80225066D01*
X90623642Y-80225066D01*
G37*
X90623642Y-80225066D02*
X84777000Y-80320901D01*
X84777000Y-79378344D01*
X84819346Y-79350049D01*
X84900049Y-79269346D01*
X84963457Y-79174449D01*
X85007134Y-79069005D01*
X85029400Y-78957066D01*
X85029400Y-78842934D01*
X85007134Y-78730995D01*
X84963457Y-78625551D01*
X84900049Y-78530654D01*
X84887835Y-78518440D01*
X84942934Y-78529400D01*
X85057066Y-78529400D01*
X85169005Y-78507134D01*
X85274449Y-78463457D01*
X85369346Y-78400049D01*
X85450049Y-78319346D01*
X85464012Y-78298449D01*
X86548109Y-78326956D01*
X86552960Y-78326991D01*
X90622361Y-78278521D01*
X90623642Y-80225066D01*
G36*
X64453452Y-51303451D02*
G01*
X64352931Y-51425937D01*
X64278237Y-51565680D01*
X64232240Y-51717310D01*
X64220600Y-51835484D01*
X64220600Y-52764515D01*
X64232239Y-52882689D01*
X64278236Y-53034319D01*
X64352930Y-53174062D01*
X64453451Y-53296549D01*
X64575937Y-53397070D01*
X64715680Y-53471764D01*
X64867310Y-53517761D01*
X65025000Y-53533292D01*
X65182689Y-53517761D01*
X65334319Y-53471764D01*
X65474062Y-53397070D01*
X65596549Y-53296549D01*
X65697070Y-53174063D01*
X65771764Y-53034320D01*
X65817761Y-52882690D01*
X65829400Y-52764516D01*
X65829400Y-51835484D01*
X65817761Y-51717310D01*
X65771764Y-51565680D01*
X65697070Y-51425937D01*
X65596549Y-51303451D01*
X65498155Y-51222702D01*
X71701845Y-51222702D01*
X71603451Y-51303451D01*
X71502930Y-51425938D01*
X71428236Y-51565681D01*
X71382239Y-51717311D01*
X71370600Y-51835485D01*
X71370600Y-52764516D01*
X71382240Y-52882690D01*
X71428237Y-53034320D01*
X71502931Y-53174063D01*
X71603452Y-53296549D01*
X71725938Y-53397070D01*
X71865681Y-53471764D01*
X72017311Y-53517761D01*
X72175000Y-53533292D01*
X72332690Y-53517761D01*
X72484320Y-53471764D01*
X72624063Y-53397070D01*
X72746549Y-53296549D01*
X72847070Y-53174063D01*
X72921764Y-53034320D01*
X72967761Y-52882690D01*
X72979400Y-52764516D01*
X72979400Y-51835484D01*
X72967761Y-51717310D01*
X72921764Y-51565680D01*
X72847070Y-51425937D01*
X72746549Y-51303451D01*
X72648155Y-51222702D01*
X96038246Y-51222702D01*
X96009770Y-51234497D01*
X95701952Y-51440174D01*
X95440174Y-51701952D01*
X95234497Y-52009770D01*
X95092824Y-52351799D01*
X95020600Y-52714895D01*
X95020600Y-53085105D01*
X95092824Y-53448201D01*
X95234497Y-53790230D01*
X95440174Y-54098048D01*
X95701952Y-54359826D01*
X96009770Y-54565503D01*
X96351799Y-54707176D01*
X96714895Y-54779400D01*
X97085105Y-54779400D01*
X97448201Y-54707176D01*
X97790230Y-54565503D01*
X98098048Y-54359826D01*
X98359826Y-54098048D01*
X98553619Y-53808015D01*
X98423889Y-72273000D01*
X80301689Y-72273000D01*
X77660229Y-69695966D01*
X77769198Y-69723208D01*
X77787363Y-69726370D01*
X78503244Y-69797958D01*
X78518827Y-69876297D01*
X78564388Y-69986291D01*
X78630532Y-70085282D01*
X78714718Y-70169468D01*
X78813709Y-70235612D01*
X78923703Y-70281173D01*
X79040472Y-70304400D01*
X79159528Y-70304400D01*
X79276297Y-70281173D01*
X79386291Y-70235612D01*
X79485282Y-70169468D01*
X79569468Y-70085282D01*
X79635612Y-69986291D01*
X79681173Y-69876297D01*
X79704400Y-69759528D01*
X79704400Y-69742934D01*
X84220600Y-69742934D01*
X84220600Y-69857066D01*
X84242866Y-69969005D01*
X84286543Y-70074449D01*
X84349951Y-70169346D01*
X84430654Y-70250049D01*
X84525551Y-70313457D01*
X84630995Y-70357134D01*
X84742934Y-70379400D01*
X84825042Y-70379400D01*
X84842866Y-70469005D01*
X84886543Y-70574449D01*
X84949951Y-70669346D01*
X85030654Y-70750049D01*
X85125551Y-70813457D01*
X85230995Y-70857134D01*
X85342934Y-70879400D01*
X85457066Y-70879400D01*
X85569005Y-70857134D01*
X85674449Y-70813457D01*
X85769346Y-70750049D01*
X85850049Y-70669346D01*
X85913457Y-70574449D01*
X85957134Y-70469005D01*
X85979400Y-70357066D01*
X85979400Y-70242934D01*
X85957134Y-70130995D01*
X85913457Y-70025551D01*
X85850049Y-69930654D01*
X85769346Y-69849951D01*
X85674449Y-69786543D01*
X85569005Y-69742866D01*
X85457066Y-69720600D01*
X85374958Y-69720600D01*
X85357134Y-69630995D01*
X85313457Y-69525551D01*
X85258255Y-69442934D01*
X91570600Y-69442934D01*
X91570600Y-69557066D01*
X91592866Y-69669005D01*
X91636543Y-69774449D01*
X91699951Y-69869346D01*
X91780654Y-69950049D01*
X91875551Y-70013457D01*
X91980995Y-70057134D01*
X92092934Y-70079400D01*
X92207066Y-70079400D01*
X92319005Y-70057134D01*
X92424449Y-70013457D01*
X92519346Y-69950049D01*
X92600049Y-69869346D01*
X92663457Y-69774449D01*
X92707134Y-69669005D01*
X92729400Y-69557066D01*
X92729400Y-69442934D01*
X92707134Y-69330995D01*
X92663457Y-69225551D01*
X92600049Y-69130654D01*
X92519346Y-69049951D01*
X92424449Y-68986543D01*
X92319005Y-68942866D01*
X92207066Y-68920600D01*
X92092934Y-68920600D01*
X91980995Y-68942866D01*
X91875551Y-68986543D01*
X91780654Y-69049951D01*
X91699951Y-69130654D01*
X91636543Y-69225551D01*
X91592866Y-69330995D01*
X91570600Y-69442934D01*
X85258255Y-69442934D01*
X85250049Y-69430654D01*
X85169346Y-69349951D01*
X85074449Y-69286543D01*
X84969005Y-69242866D01*
X84857066Y-69220600D01*
X84742934Y-69220600D01*
X84630995Y-69242866D01*
X84525551Y-69286543D01*
X84430654Y-69349951D01*
X84349951Y-69430654D01*
X84286543Y-69525551D01*
X84242866Y-69630995D01*
X84220600Y-69742934D01*
X79704400Y-69742934D01*
X79704400Y-69640472D01*
X79681173Y-69523703D01*
X79635612Y-69413709D01*
X79569468Y-69314718D01*
X79485282Y-69230532D01*
X79386291Y-69164388D01*
X79276297Y-69118827D01*
X79159528Y-69095600D01*
X79040472Y-69095600D01*
X78927000Y-69118171D01*
X78927000Y-68079400D01*
X78957066Y-68079400D01*
X79069005Y-68057134D01*
X79174449Y-68013457D01*
X79269346Y-67950049D01*
X79350049Y-67869346D01*
X79413457Y-67774449D01*
X79457134Y-67669005D01*
X79477545Y-67566393D01*
X79542934Y-67579400D01*
X79657066Y-67579400D01*
X79769005Y-67557134D01*
X79874449Y-67513457D01*
X79969346Y-67450049D01*
X80050049Y-67369346D01*
X80113457Y-67274449D01*
X80157134Y-67169005D01*
X80179400Y-67057066D01*
X80179400Y-66942934D01*
X80157134Y-66830995D01*
X80113457Y-66725551D01*
X80050049Y-66630654D01*
X79969346Y-66549951D01*
X79874449Y-66486543D01*
X79769170Y-66442934D01*
X83520600Y-66442934D01*
X83520600Y-66557066D01*
X83542866Y-66669005D01*
X83586543Y-66774449D01*
X83649951Y-66869346D01*
X83730654Y-66950049D01*
X83825551Y-67013457D01*
X83930995Y-67057134D01*
X84042934Y-67079400D01*
X84157066Y-67079400D01*
X84241589Y-67062587D01*
X84242866Y-67069005D01*
X84286543Y-67174449D01*
X84349951Y-67269346D01*
X84430654Y-67350049D01*
X84525551Y-67413457D01*
X84630995Y-67457134D01*
X84742934Y-67479400D01*
X84857066Y-67479400D01*
X84969005Y-67457134D01*
X85074449Y-67413457D01*
X85169346Y-67350049D01*
X85250049Y-67269346D01*
X85313457Y-67174449D01*
X85357134Y-67069005D01*
X85379400Y-66957066D01*
X85379400Y-66842934D01*
X85357134Y-66730995D01*
X85313457Y-66625551D01*
X85250049Y-66530654D01*
X85169346Y-66449951D01*
X85074449Y-66386543D01*
X84969005Y-66342866D01*
X84857066Y-66320600D01*
X84742934Y-66320600D01*
X84658411Y-66337413D01*
X84657134Y-66330995D01*
X84613457Y-66225551D01*
X84558255Y-66142934D01*
X93920600Y-66142934D01*
X93920600Y-66257066D01*
X93942866Y-66369005D01*
X93986543Y-66474449D01*
X94049951Y-66569346D01*
X94130654Y-66650049D01*
X94225551Y-66713457D01*
X94330995Y-66757134D01*
X94442934Y-66779400D01*
X94557066Y-66779400D01*
X94669005Y-66757134D01*
X94774449Y-66713457D01*
X94869346Y-66650049D01*
X94950049Y-66569346D01*
X95013457Y-66474449D01*
X95057134Y-66369005D01*
X95079400Y-66257066D01*
X95079400Y-66142934D01*
X95057134Y-66030995D01*
X95013457Y-65925551D01*
X94950049Y-65830654D01*
X94869346Y-65749951D01*
X94774449Y-65686543D01*
X94669005Y-65642866D01*
X94557066Y-65620600D01*
X94442934Y-65620600D01*
X94330995Y-65642866D01*
X94225551Y-65686543D01*
X94130654Y-65749951D01*
X94049951Y-65830654D01*
X93986543Y-65925551D01*
X93942866Y-66030995D01*
X93920600Y-66142934D01*
X84558255Y-66142934D01*
X84550049Y-66130654D01*
X84469346Y-66049951D01*
X84374449Y-65986543D01*
X84269005Y-65942866D01*
X84157066Y-65920600D01*
X84042934Y-65920600D01*
X83930995Y-65942866D01*
X83825551Y-65986543D01*
X83730654Y-66049951D01*
X83649951Y-66130654D01*
X83586543Y-66225551D01*
X83542866Y-66330995D01*
X83520600Y-66442934D01*
X79769170Y-66442934D01*
X79769005Y-66442866D01*
X79762587Y-66441589D01*
X79779400Y-66357066D01*
X79779400Y-66242934D01*
X79757134Y-66130995D01*
X79713457Y-66025551D01*
X79650049Y-65930654D01*
X79569346Y-65849951D01*
X79474449Y-65786543D01*
X79369005Y-65742866D01*
X79257066Y-65720600D01*
X79142934Y-65720600D01*
X79030995Y-65742866D01*
X78925551Y-65786543D01*
X78830654Y-65849951D01*
X78749951Y-65930654D01*
X78686543Y-66025551D01*
X78642866Y-66130995D01*
X78620600Y-66242934D01*
X78620600Y-66357066D01*
X78642866Y-66469005D01*
X78686543Y-66574449D01*
X78749951Y-66669346D01*
X78830654Y-66750049D01*
X78925551Y-66813457D01*
X79030995Y-66857134D01*
X79037413Y-66858411D01*
X79022455Y-66933607D01*
X78957066Y-66920600D01*
X78842934Y-66920600D01*
X78730995Y-66942866D01*
X78625551Y-66986543D01*
X78530654Y-67049951D01*
X78449951Y-67130654D01*
X78386543Y-67225551D01*
X78342866Y-67330995D01*
X78320600Y-67442934D01*
X78320600Y-67473000D01*
X77700000Y-67473000D01*
X77671350Y-67476274D01*
X77647763Y-67484241D01*
X77626183Y-67496656D01*
X76926183Y-67996656D01*
X76910197Y-68010197D01*
X76894403Y-68029443D01*
X76882667Y-68051399D01*
X76875440Y-68075224D01*
X76873000Y-68100000D01*
X76873000Y-68927938D01*
X76326915Y-68395172D01*
X77943514Y-66635931D01*
X77958481Y-66616037D01*
X77969280Y-66593604D01*
X77975495Y-66569496D01*
X77976887Y-66544639D01*
X77973403Y-66519987D01*
X77965176Y-66496489D01*
X77952524Y-66475048D01*
X77935505Y-66456097D01*
X75644201Y-64369706D01*
X75692934Y-64379400D01*
X75807066Y-64379400D01*
X75919005Y-64357134D01*
X76024449Y-64313457D01*
X76119346Y-64250049D01*
X76200049Y-64169346D01*
X76263457Y-64074449D01*
X76297222Y-63992934D01*
X76570600Y-63992934D01*
X76570600Y-64107066D01*
X76592866Y-64219005D01*
X76636543Y-64324449D01*
X76699951Y-64419346D01*
X76780654Y-64500049D01*
X76875551Y-64563457D01*
X76980995Y-64607134D01*
X77092934Y-64629400D01*
X77207066Y-64629400D01*
X77319005Y-64607134D01*
X77424449Y-64563457D01*
X77490869Y-64519077D01*
X77486543Y-64525551D01*
X77442866Y-64630995D01*
X77420600Y-64742934D01*
X77420600Y-64857066D01*
X77442866Y-64969005D01*
X77486543Y-65074449D01*
X77549951Y-65169346D01*
X77630654Y-65250049D01*
X77725551Y-65313457D01*
X77830995Y-65357134D01*
X77942934Y-65379400D01*
X78057066Y-65379400D01*
X78169005Y-65357134D01*
X78274449Y-65313457D01*
X78369346Y-65250049D01*
X78450049Y-65169346D01*
X78513457Y-65074449D01*
X78557134Y-64969005D01*
X78579400Y-64857066D01*
X78579400Y-64742934D01*
X78557134Y-64630995D01*
X78513457Y-64525551D01*
X78450049Y-64430654D01*
X78369346Y-64349951D01*
X78274449Y-64286543D01*
X78169005Y-64242866D01*
X78057066Y-64220600D01*
X77942934Y-64220600D01*
X77830995Y-64242866D01*
X77725551Y-64286543D01*
X77659131Y-64330923D01*
X77663457Y-64324449D01*
X77707134Y-64219005D01*
X77729400Y-64107066D01*
X77729400Y-63992934D01*
X77707134Y-63880995D01*
X77663457Y-63775551D01*
X77600049Y-63680654D01*
X77519346Y-63599951D01*
X77424449Y-63536543D01*
X77319005Y-63492866D01*
X77207066Y-63470600D01*
X77092934Y-63470600D01*
X76980995Y-63492866D01*
X76875551Y-63536543D01*
X76780654Y-63599951D01*
X76699951Y-63680654D01*
X76636543Y-63775551D01*
X76592866Y-63880995D01*
X76570600Y-63992934D01*
X76297222Y-63992934D01*
X76307134Y-63969005D01*
X76329400Y-63857066D01*
X76329400Y-63742934D01*
X76307134Y-63630995D01*
X76285791Y-63579470D01*
X76324449Y-63563457D01*
X76419346Y-63500049D01*
X76500049Y-63419346D01*
X76563457Y-63324449D01*
X76607134Y-63219005D01*
X76622265Y-63142934D01*
X88620600Y-63142934D01*
X88620600Y-63257066D01*
X88642866Y-63369005D01*
X88686543Y-63474449D01*
X88749951Y-63569346D01*
X88830654Y-63650049D01*
X88925551Y-63713457D01*
X89030995Y-63757134D01*
X89142934Y-63779400D01*
X89257066Y-63779400D01*
X89369005Y-63757134D01*
X89474449Y-63713457D01*
X89569346Y-63650049D01*
X89650049Y-63569346D01*
X89713457Y-63474449D01*
X89757134Y-63369005D01*
X89779400Y-63257066D01*
X89779400Y-63142934D01*
X89757134Y-63030995D01*
X89713457Y-62925551D01*
X89650049Y-62830654D01*
X89569346Y-62749951D01*
X89474449Y-62686543D01*
X89369005Y-62642866D01*
X89257066Y-62620600D01*
X89142934Y-62620600D01*
X89030995Y-62642866D01*
X88925551Y-62686543D01*
X88830654Y-62749951D01*
X88749951Y-62830654D01*
X88686543Y-62925551D01*
X88642866Y-63030995D01*
X88620600Y-63142934D01*
X76622265Y-63142934D01*
X76629400Y-63107066D01*
X76629400Y-62992934D01*
X76627845Y-62985118D01*
X76680995Y-63007134D01*
X76792934Y-63029400D01*
X76907066Y-63029400D01*
X77019005Y-63007134D01*
X77124449Y-62963457D01*
X77219346Y-62900049D01*
X77300049Y-62819346D01*
X77363457Y-62724449D01*
X77407134Y-62619005D01*
X77429400Y-62507066D01*
X77429400Y-62492934D01*
X82170600Y-62492934D01*
X82170600Y-62607066D01*
X82192866Y-62719005D01*
X82236543Y-62824449D01*
X82299951Y-62919346D01*
X82380654Y-63000049D01*
X82475551Y-63063457D01*
X82580995Y-63107134D01*
X82692934Y-63129400D01*
X82807066Y-63129400D01*
X82919005Y-63107134D01*
X83024449Y-63063457D01*
X83119346Y-63000049D01*
X83200049Y-62919346D01*
X83263457Y-62824449D01*
X83307134Y-62719005D01*
X83329400Y-62607066D01*
X83329400Y-62492934D01*
X83307134Y-62380995D01*
X83263457Y-62275551D01*
X83200049Y-62180654D01*
X83119346Y-62099951D01*
X83024449Y-62036543D01*
X82919005Y-61992866D01*
X82807066Y-61970600D01*
X82692934Y-61970600D01*
X82580995Y-61992866D01*
X82475551Y-62036543D01*
X82380654Y-62099951D01*
X82299951Y-62180654D01*
X82236543Y-62275551D01*
X82192866Y-62380995D01*
X82170600Y-62492934D01*
X77429400Y-62492934D01*
X77429400Y-62392934D01*
X77407134Y-62280995D01*
X77363457Y-62175551D01*
X77300049Y-62080654D01*
X77219346Y-61999951D01*
X77124449Y-61936543D01*
X77019005Y-61892866D01*
X76907066Y-61870600D01*
X76792934Y-61870600D01*
X76680995Y-61892866D01*
X76575551Y-61936543D01*
X76480654Y-61999951D01*
X76399951Y-62080654D01*
X76336543Y-62175551D01*
X76292866Y-62280995D01*
X76270600Y-62392934D01*
X76270600Y-62507066D01*
X76272155Y-62514882D01*
X76219005Y-62492866D01*
X76107066Y-62470600D01*
X75992934Y-62470600D01*
X75880995Y-62492866D01*
X75775551Y-62536543D01*
X75680654Y-62599951D01*
X75599951Y-62680654D01*
X75536543Y-62775551D01*
X75492866Y-62880995D01*
X75470600Y-62992934D01*
X75470600Y-63107066D01*
X75492866Y-63219005D01*
X75514209Y-63270530D01*
X75475551Y-63286543D01*
X75380654Y-63349951D01*
X75299951Y-63430654D01*
X75236543Y-63525551D01*
X75192866Y-63630995D01*
X75170600Y-63742934D01*
X75170600Y-63857066D01*
X75190371Y-63956463D01*
X74427248Y-63261587D01*
X74519346Y-63200049D01*
X74600049Y-63119346D01*
X74663457Y-63024449D01*
X74707134Y-62919005D01*
X74729400Y-62807066D01*
X74729400Y-62692934D01*
X74707134Y-62580995D01*
X74663457Y-62475551D01*
X74600049Y-62380654D01*
X74519346Y-62299951D01*
X74424449Y-62236543D01*
X74319005Y-62192866D01*
X74207066Y-62170600D01*
X74092934Y-62170600D01*
X73980995Y-62192866D01*
X73875551Y-62236543D01*
X73780654Y-62299951D01*
X73699951Y-62380654D01*
X73636543Y-62475551D01*
X73616679Y-62523507D01*
X71856612Y-60920845D01*
X71874449Y-60913457D01*
X71969346Y-60850049D01*
X72026461Y-60792934D01*
X82720600Y-60792934D01*
X82720600Y-60907066D01*
X82742866Y-61019005D01*
X82786543Y-61124449D01*
X82849951Y-61219346D01*
X82930654Y-61300049D01*
X83025551Y-61363457D01*
X83127970Y-61405881D01*
X83120600Y-61442934D01*
X83120600Y-61557066D01*
X83142866Y-61669005D01*
X83186543Y-61774449D01*
X83249951Y-61869346D01*
X83330654Y-61950049D01*
X83425551Y-62013457D01*
X83530995Y-62057134D01*
X83642934Y-62079400D01*
X83757066Y-62079400D01*
X83869005Y-62057134D01*
X83920600Y-62035762D01*
X83920600Y-62057066D01*
X83942866Y-62169005D01*
X83986543Y-62274449D01*
X84049951Y-62369346D01*
X84130654Y-62450049D01*
X84225551Y-62513457D01*
X84330995Y-62557134D01*
X84442934Y-62579400D01*
X84557066Y-62579400D01*
X84669005Y-62557134D01*
X84774449Y-62513457D01*
X84869346Y-62450049D01*
X84926461Y-62392934D01*
X89680600Y-62392934D01*
X89680600Y-62507066D01*
X89702866Y-62619005D01*
X89746543Y-62724449D01*
X89809951Y-62819346D01*
X89890654Y-62900049D01*
X89985551Y-62963457D01*
X90090995Y-63007134D01*
X90202934Y-63029400D01*
X90317066Y-63029400D01*
X90429005Y-63007134D01*
X90534449Y-62963457D01*
X90629346Y-62900049D01*
X90710049Y-62819346D01*
X90773457Y-62724449D01*
X90817134Y-62619005D01*
X90839400Y-62507066D01*
X90839400Y-62392934D01*
X90817134Y-62280995D01*
X90773457Y-62175551D01*
X90710049Y-62080654D01*
X90629346Y-61999951D01*
X90534449Y-61936543D01*
X90501595Y-61922934D01*
X90740600Y-61922934D01*
X90740600Y-62037066D01*
X90762866Y-62149005D01*
X90806543Y-62254449D01*
X90869951Y-62349346D01*
X90950654Y-62430049D01*
X91045551Y-62493457D01*
X91150995Y-62537134D01*
X91262934Y-62559400D01*
X91377066Y-62559400D01*
X91489005Y-62537134D01*
X91594449Y-62493457D01*
X91689346Y-62430049D01*
X91770049Y-62349346D01*
X91833457Y-62254449D01*
X91877134Y-62149005D01*
X91899400Y-62037066D01*
X91899400Y-61922934D01*
X91877134Y-61810995D01*
X91833457Y-61705551D01*
X91770049Y-61610654D01*
X91689346Y-61529951D01*
X91594449Y-61466543D01*
X91489005Y-61422866D01*
X91377066Y-61400600D01*
X91262934Y-61400600D01*
X91150995Y-61422866D01*
X91045551Y-61466543D01*
X90950654Y-61529951D01*
X90869951Y-61610654D01*
X90806543Y-61705551D01*
X90762866Y-61810995D01*
X90740600Y-61922934D01*
X90501595Y-61922934D01*
X90429005Y-61892866D01*
X90317066Y-61870600D01*
X90202934Y-61870600D01*
X90090995Y-61892866D01*
X89985551Y-61936543D01*
X89890654Y-61999951D01*
X89809951Y-62080654D01*
X89746543Y-62175551D01*
X89702866Y-62280995D01*
X89680600Y-62392934D01*
X84926461Y-62392934D01*
X84950049Y-62369346D01*
X85013457Y-62274449D01*
X85057134Y-62169005D01*
X85079400Y-62057066D01*
X85079400Y-61942934D01*
X85057134Y-61830995D01*
X85013457Y-61725551D01*
X84950049Y-61630654D01*
X84869346Y-61549951D01*
X84774449Y-61486543D01*
X84669170Y-61442934D01*
X87420600Y-61442934D01*
X87420600Y-61557066D01*
X87442866Y-61669005D01*
X87486543Y-61774449D01*
X87549951Y-61869346D01*
X87630654Y-61950049D01*
X87725551Y-62013457D01*
X87830995Y-62057134D01*
X87942934Y-62079400D01*
X88057066Y-62079400D01*
X88169005Y-62057134D01*
X88274449Y-62013457D01*
X88369346Y-61950049D01*
X88450049Y-61869346D01*
X88513457Y-61774449D01*
X88557134Y-61669005D01*
X88579400Y-61557066D01*
X88579400Y-61474958D01*
X88669005Y-61457134D01*
X88774449Y-61413457D01*
X88869346Y-61350049D01*
X88950049Y-61269346D01*
X89013457Y-61174449D01*
X89057134Y-61069005D01*
X89079400Y-60957066D01*
X89079400Y-60842934D01*
X89057134Y-60730995D01*
X89013457Y-60625551D01*
X88950049Y-60530654D01*
X88869346Y-60449951D01*
X88774449Y-60386543D01*
X88669005Y-60342866D01*
X88557066Y-60320600D01*
X88442934Y-60320600D01*
X88330995Y-60342866D01*
X88225551Y-60386543D01*
X88130654Y-60449951D01*
X88049951Y-60530654D01*
X87986543Y-60625551D01*
X87942866Y-60730995D01*
X87920600Y-60842934D01*
X87920600Y-60925042D01*
X87830995Y-60942866D01*
X87725551Y-60986543D01*
X87630654Y-61049951D01*
X87549951Y-61130654D01*
X87486543Y-61225551D01*
X87442866Y-61330995D01*
X87420600Y-61442934D01*
X84669170Y-61442934D01*
X84669005Y-61442866D01*
X84557066Y-61420600D01*
X84442934Y-61420600D01*
X84330995Y-61442866D01*
X84279400Y-61464238D01*
X84279400Y-61442934D01*
X84257134Y-61330995D01*
X84213457Y-61225551D01*
X84150049Y-61130654D01*
X84069346Y-61049951D01*
X83974449Y-60986543D01*
X83872030Y-60944119D01*
X83879400Y-60907066D01*
X83879400Y-60792934D01*
X83857134Y-60680995D01*
X83813457Y-60575551D01*
X83750049Y-60480654D01*
X83669346Y-60399951D01*
X83574449Y-60336543D01*
X83469005Y-60292866D01*
X83357066Y-60270600D01*
X83242934Y-60270600D01*
X83130995Y-60292866D01*
X83025551Y-60336543D01*
X82930654Y-60399951D01*
X82849951Y-60480654D01*
X82786543Y-60575551D01*
X82742866Y-60680995D01*
X82720600Y-60792934D01*
X72026461Y-60792934D01*
X72050049Y-60769346D01*
X72113457Y-60674449D01*
X72157134Y-60569005D01*
X72179400Y-60457066D01*
X72179400Y-60342934D01*
X72157134Y-60230995D01*
X72113457Y-60125551D01*
X72050049Y-60030654D01*
X71969346Y-59949951D01*
X71958845Y-59942934D01*
X76020600Y-59942934D01*
X76020600Y-60057066D01*
X76042866Y-60169005D01*
X76086543Y-60274449D01*
X76149951Y-60369346D01*
X76230654Y-60450049D01*
X76325551Y-60513457D01*
X76430995Y-60557134D01*
X76542934Y-60579400D01*
X76657066Y-60579400D01*
X76769005Y-60557134D01*
X76874449Y-60513457D01*
X76969346Y-60450049D01*
X77050049Y-60369346D01*
X77113457Y-60274449D01*
X77157134Y-60169005D01*
X77164181Y-60133576D01*
X77180654Y-60150049D01*
X77275551Y-60213457D01*
X77380995Y-60257134D01*
X77492934Y-60279400D01*
X77607066Y-60279400D01*
X77719005Y-60257134D01*
X77824449Y-60213457D01*
X77919346Y-60150049D01*
X78000049Y-60069346D01*
X78063457Y-59974449D01*
X78107134Y-59869005D01*
X78129400Y-59757066D01*
X78129400Y-59642934D01*
X88420600Y-59642934D01*
X88420600Y-59757066D01*
X88442866Y-59869005D01*
X88486543Y-59974449D01*
X88549951Y-60069346D01*
X88630654Y-60150049D01*
X88725551Y-60213457D01*
X88830995Y-60257134D01*
X88942934Y-60279400D01*
X89057066Y-60279400D01*
X89169005Y-60257134D01*
X89274449Y-60213457D01*
X89369346Y-60150049D01*
X89450049Y-60069346D01*
X89513457Y-59974449D01*
X89526511Y-59942934D01*
X90270600Y-59942934D01*
X90270600Y-60057066D01*
X90292866Y-60169005D01*
X90336543Y-60274449D01*
X90399951Y-60369346D01*
X90480654Y-60450049D01*
X90575551Y-60513457D01*
X90680995Y-60557134D01*
X90792934Y-60579400D01*
X90907066Y-60579400D01*
X91019005Y-60557134D01*
X91124449Y-60513457D01*
X91219346Y-60450049D01*
X91300049Y-60369346D01*
X91363457Y-60274449D01*
X91407134Y-60169005D01*
X91419048Y-60109112D01*
X91425551Y-60113457D01*
X91530995Y-60157134D01*
X91642934Y-60179400D01*
X91757066Y-60179400D01*
X91869005Y-60157134D01*
X91974449Y-60113457D01*
X92069346Y-60050049D01*
X92150049Y-59969346D01*
X92213457Y-59874449D01*
X92257134Y-59769005D01*
X92279400Y-59657066D01*
X92279400Y-59542934D01*
X92257134Y-59430995D01*
X92239298Y-59387934D01*
X93620600Y-59387934D01*
X93620600Y-59502066D01*
X93642866Y-59614005D01*
X93686543Y-59719449D01*
X93749951Y-59814346D01*
X93830654Y-59895049D01*
X93925551Y-59958457D01*
X94030995Y-60002134D01*
X94142934Y-60024400D01*
X94257066Y-60024400D01*
X94369005Y-60002134D01*
X94474449Y-59958457D01*
X94569346Y-59895049D01*
X94650049Y-59814346D01*
X94713457Y-59719449D01*
X94757134Y-59614005D01*
X94779400Y-59502066D01*
X94779400Y-59387934D01*
X94757134Y-59275995D01*
X94713457Y-59170551D01*
X94650049Y-59075654D01*
X94569346Y-58994951D01*
X94474449Y-58931543D01*
X94369005Y-58887866D01*
X94257066Y-58865600D01*
X94142934Y-58865600D01*
X94030995Y-58887866D01*
X93925551Y-58931543D01*
X93830654Y-58994951D01*
X93749951Y-59075654D01*
X93686543Y-59170551D01*
X93642866Y-59275995D01*
X93620600Y-59387934D01*
X92239298Y-59387934D01*
X92213457Y-59325551D01*
X92150049Y-59230654D01*
X92069346Y-59149951D01*
X91974449Y-59086543D01*
X91869005Y-59042866D01*
X91757066Y-59020600D01*
X91642934Y-59020600D01*
X91530995Y-59042866D01*
X91425551Y-59086543D01*
X91330654Y-59149951D01*
X91249951Y-59230654D01*
X91186543Y-59325551D01*
X91142866Y-59430995D01*
X91130952Y-59490888D01*
X91124449Y-59486543D01*
X91019005Y-59442866D01*
X90907066Y-59420600D01*
X90792934Y-59420600D01*
X90680995Y-59442866D01*
X90575551Y-59486543D01*
X90480654Y-59549951D01*
X90399951Y-59630654D01*
X90336543Y-59725551D01*
X90292866Y-59830995D01*
X90270600Y-59942934D01*
X89526511Y-59942934D01*
X89557134Y-59869005D01*
X89579400Y-59757066D01*
X89579400Y-59729400D01*
X89657066Y-59729400D01*
X89769005Y-59707134D01*
X89874449Y-59663457D01*
X89969346Y-59600049D01*
X90050049Y-59519346D01*
X90113457Y-59424449D01*
X90157134Y-59319005D01*
X90179400Y-59207066D01*
X90179400Y-59092934D01*
X90157134Y-58980995D01*
X90113457Y-58875551D01*
X90050049Y-58780654D01*
X89969346Y-58699951D01*
X89874449Y-58636543D01*
X89769005Y-58592866D01*
X89657066Y-58570600D01*
X89542934Y-58570600D01*
X89430995Y-58592866D01*
X89325551Y-58636543D01*
X89230654Y-58699951D01*
X89149951Y-58780654D01*
X89086543Y-58875551D01*
X89042866Y-58980995D01*
X89020600Y-59092934D01*
X89020600Y-59120600D01*
X88942934Y-59120600D01*
X88830995Y-59142866D01*
X88725551Y-59186543D01*
X88630654Y-59249951D01*
X88549951Y-59330654D01*
X88486543Y-59425551D01*
X88442866Y-59530995D01*
X88420600Y-59642934D01*
X78129400Y-59642934D01*
X78107134Y-59530995D01*
X78063457Y-59425551D01*
X78000049Y-59330654D01*
X77919346Y-59249951D01*
X77824449Y-59186543D01*
X77719005Y-59142866D01*
X77607066Y-59120600D01*
X77492934Y-59120600D01*
X77380995Y-59142866D01*
X77275551Y-59186543D01*
X77180654Y-59249951D01*
X77099951Y-59330654D01*
X77036543Y-59425551D01*
X76992866Y-59530995D01*
X76985819Y-59566424D01*
X76969346Y-59549951D01*
X76874449Y-59486543D01*
X76769005Y-59442866D01*
X76657066Y-59420600D01*
X76542934Y-59420600D01*
X76430995Y-59442866D01*
X76325551Y-59486543D01*
X76230654Y-59549951D01*
X76149951Y-59630654D01*
X76086543Y-59725551D01*
X76042866Y-59830995D01*
X76020600Y-59942934D01*
X71958845Y-59942934D01*
X71874449Y-59886543D01*
X71769005Y-59842866D01*
X71657066Y-59820600D01*
X71542934Y-59820600D01*
X71430995Y-59842866D01*
X71325551Y-59886543D01*
X71230654Y-59949951D01*
X71149951Y-60030654D01*
X71086543Y-60125551D01*
X71042866Y-60230995D01*
X71020600Y-60342934D01*
X71020600Y-60457066D01*
X71042866Y-60569005D01*
X71086543Y-60674449D01*
X71149951Y-60769346D01*
X71195439Y-60814834D01*
X71162095Y-60821466D01*
X71056651Y-60865143D01*
X70961754Y-60928551D01*
X70881051Y-61009254D01*
X70817643Y-61104151D01*
X70801630Y-61142809D01*
X70750105Y-61121466D01*
X70638166Y-61099200D01*
X70524034Y-61099200D01*
X70412095Y-61121466D01*
X70306651Y-61165143D01*
X70211754Y-61228551D01*
X70131051Y-61309254D01*
X70067643Y-61404151D01*
X70023966Y-61509595D01*
X70001700Y-61621534D01*
X70001700Y-61699200D01*
X69974034Y-61699200D01*
X69862095Y-61721466D01*
X69756651Y-61765143D01*
X69674805Y-61819831D01*
X69657134Y-61730995D01*
X69613457Y-61625551D01*
X69550049Y-61530654D01*
X69469346Y-61449951D01*
X69374449Y-61386543D01*
X69269005Y-61342866D01*
X69157066Y-61320600D01*
X69042934Y-61320600D01*
X68930995Y-61342866D01*
X68825551Y-61386543D01*
X68730654Y-61449951D01*
X68649951Y-61530654D01*
X68586543Y-61625551D01*
X68542866Y-61730995D01*
X68520600Y-61842934D01*
X68520600Y-61957066D01*
X68542866Y-62069005D01*
X68576084Y-62149200D01*
X68574034Y-62149200D01*
X68462095Y-62171466D01*
X68356651Y-62215143D01*
X68261754Y-62278551D01*
X68181051Y-62359254D01*
X68117643Y-62454151D01*
X68073966Y-62559595D01*
X68051700Y-62671534D01*
X68051700Y-62785666D01*
X68073966Y-62897605D01*
X68117643Y-63003049D01*
X68181051Y-63097946D01*
X68261754Y-63178649D01*
X68277606Y-63189241D01*
X68267643Y-63204151D01*
X68223966Y-63309595D01*
X68201700Y-63421534D01*
X68201700Y-63535666D01*
X68223966Y-63647605D01*
X68267643Y-63753049D01*
X68283632Y-63776978D01*
X66229398Y-65578383D01*
X66229398Y-65483380D01*
X66232686Y-65449998D01*
X66219568Y-65316813D01*
X66180719Y-65188745D01*
X66117632Y-65070719D01*
X66054005Y-64993189D01*
X66032731Y-64967266D01*
X66006807Y-64945991D01*
X65656810Y-64595994D01*
X65579280Y-64532367D01*
X65461253Y-64469280D01*
X65333184Y-64430431D01*
X65200000Y-64417313D01*
X65066816Y-64430431D01*
X64938747Y-64469280D01*
X64820720Y-64532367D01*
X64717268Y-64617268D01*
X64632367Y-64720720D01*
X64569280Y-64838747D01*
X64530431Y-64966816D01*
X64517313Y-65100000D01*
X64530431Y-65233184D01*
X64569280Y-65361253D01*
X64632367Y-65479280D01*
X64695994Y-65556810D01*
X64870599Y-65731415D01*
X64870599Y-66836163D01*
X64817538Y-66897388D01*
X63279400Y-66881197D01*
X63279400Y-66842934D01*
X63257134Y-66730995D01*
X63213457Y-66625551D01*
X63150049Y-66530654D01*
X63069346Y-66449951D01*
X62974449Y-66386543D01*
X62869005Y-66342866D01*
X62757066Y-66320600D01*
X62642934Y-66320600D01*
X62530995Y-66342866D01*
X62425551Y-66386543D01*
X62330654Y-66449951D01*
X62249951Y-66530654D01*
X62186543Y-66625551D01*
X62142866Y-66730995D01*
X62120600Y-66842934D01*
X62120600Y-66868999D01*
X60333501Y-66850188D01*
X60333501Y-60242934D01*
X61470600Y-60242934D01*
X61470600Y-60357066D01*
X61492866Y-60469005D01*
X61536543Y-60574449D01*
X61599951Y-60669346D01*
X61680654Y-60750049D01*
X61775551Y-60813457D01*
X61880995Y-60857134D01*
X61992934Y-60879400D01*
X62107066Y-60879400D01*
X62219005Y-60857134D01*
X62324449Y-60813457D01*
X62419346Y-60750049D01*
X62500049Y-60669346D01*
X62563457Y-60574449D01*
X62607134Y-60469005D01*
X62629400Y-60357066D01*
X62629400Y-60242934D01*
X62607134Y-60130995D01*
X62563457Y-60025551D01*
X62500049Y-59930654D01*
X62419346Y-59849951D01*
X62324449Y-59786543D01*
X62219005Y-59742866D01*
X62107066Y-59720600D01*
X61992934Y-59720600D01*
X61880995Y-59742866D01*
X61775551Y-59786543D01*
X61680654Y-59849951D01*
X61599951Y-59930654D01*
X61536543Y-60025551D01*
X61492866Y-60130995D01*
X61470600Y-60242934D01*
X60333501Y-60242934D01*
X60333501Y-59192934D01*
X62370600Y-59192934D01*
X62370600Y-59307066D01*
X62392866Y-59419005D01*
X62436543Y-59524449D01*
X62499951Y-59619346D01*
X62580654Y-59700049D01*
X62675551Y-59763457D01*
X62780995Y-59807134D01*
X62892934Y-59829400D01*
X63007066Y-59829400D01*
X63119005Y-59807134D01*
X63224449Y-59763457D01*
X63319346Y-59700049D01*
X63400049Y-59619346D01*
X63463457Y-59524449D01*
X63507134Y-59419005D01*
X63529400Y-59307066D01*
X63529400Y-59292934D01*
X63970600Y-59292934D01*
X63970600Y-59407066D01*
X63992866Y-59519005D01*
X64036543Y-59624449D01*
X64099951Y-59719346D01*
X64180654Y-59800049D01*
X64275551Y-59863457D01*
X64380995Y-59907134D01*
X64492934Y-59929400D01*
X64607066Y-59929400D01*
X64719005Y-59907134D01*
X64824449Y-59863457D01*
X64919346Y-59800049D01*
X65000049Y-59719346D01*
X65063457Y-59624449D01*
X65107134Y-59519005D01*
X65129400Y-59407066D01*
X65129400Y-59292934D01*
X65119455Y-59242934D01*
X72970600Y-59242934D01*
X72970600Y-59357066D01*
X72992866Y-59469005D01*
X73036543Y-59574449D01*
X73099951Y-59669346D01*
X73180654Y-59750049D01*
X73275551Y-59813457D01*
X73380995Y-59857134D01*
X73492934Y-59879400D01*
X73607066Y-59879400D01*
X73719005Y-59857134D01*
X73824449Y-59813457D01*
X73919346Y-59750049D01*
X74000049Y-59669346D01*
X74063457Y-59574449D01*
X74107134Y-59469005D01*
X74129400Y-59357066D01*
X74129400Y-59242934D01*
X74107134Y-59130995D01*
X74063457Y-59025551D01*
X74000049Y-58930654D01*
X73962329Y-58892934D01*
X82720600Y-58892934D01*
X82720600Y-59007066D01*
X82742866Y-59119005D01*
X82786543Y-59224449D01*
X82849951Y-59319346D01*
X82930654Y-59400049D01*
X83025551Y-59463457D01*
X83130995Y-59507134D01*
X83242934Y-59529400D01*
X83357066Y-59529400D01*
X83469005Y-59507134D01*
X83574449Y-59463457D01*
X83669346Y-59400049D01*
X83750049Y-59319346D01*
X83813457Y-59224449D01*
X83857134Y-59119005D01*
X83879400Y-59007066D01*
X83879400Y-58892934D01*
X83869455Y-58842934D01*
X85820600Y-58842934D01*
X85820600Y-58957066D01*
X85842866Y-59069005D01*
X85886543Y-59174449D01*
X85949951Y-59269346D01*
X86030654Y-59350049D01*
X86125551Y-59413457D01*
X86230995Y-59457134D01*
X86342934Y-59479400D01*
X86457066Y-59479400D01*
X86569005Y-59457134D01*
X86674449Y-59413457D01*
X86769346Y-59350049D01*
X86850049Y-59269346D01*
X86913457Y-59174449D01*
X86957134Y-59069005D01*
X86979400Y-58957066D01*
X86979400Y-58842934D01*
X86957134Y-58730995D01*
X86913457Y-58625551D01*
X86850049Y-58530654D01*
X86769346Y-58449951D01*
X86674449Y-58386543D01*
X86569005Y-58342866D01*
X86457066Y-58320600D01*
X86342934Y-58320600D01*
X86230995Y-58342866D01*
X86125551Y-58386543D01*
X86030654Y-58449951D01*
X85949951Y-58530654D01*
X85886543Y-58625551D01*
X85842866Y-58730995D01*
X85820600Y-58842934D01*
X83869455Y-58842934D01*
X83857134Y-58780995D01*
X83813457Y-58675551D01*
X83750049Y-58580654D01*
X83669346Y-58499951D01*
X83574449Y-58436543D01*
X83469005Y-58392866D01*
X83357066Y-58370600D01*
X83242934Y-58370600D01*
X83130995Y-58392866D01*
X83025551Y-58436543D01*
X82930654Y-58499951D01*
X82849951Y-58580654D01*
X82786543Y-58675551D01*
X82742866Y-58780995D01*
X82720600Y-58892934D01*
X73962329Y-58892934D01*
X73919346Y-58849951D01*
X73824449Y-58786543D01*
X73719005Y-58742866D01*
X73607066Y-58720600D01*
X73492934Y-58720600D01*
X73380995Y-58742866D01*
X73275551Y-58786543D01*
X73180654Y-58849951D01*
X73099951Y-58930654D01*
X73036543Y-59025551D01*
X72992866Y-59130995D01*
X72970600Y-59242934D01*
X65119455Y-59242934D01*
X65107134Y-59180995D01*
X65063457Y-59075551D01*
X65000049Y-58980654D01*
X64919346Y-58899951D01*
X64824449Y-58836543D01*
X64719005Y-58792866D01*
X64607066Y-58770600D01*
X64492934Y-58770600D01*
X64380995Y-58792866D01*
X64275551Y-58836543D01*
X64180654Y-58899951D01*
X64099951Y-58980654D01*
X64036543Y-59075551D01*
X63992866Y-59180995D01*
X63970600Y-59292934D01*
X63529400Y-59292934D01*
X63529400Y-59192934D01*
X63507134Y-59080995D01*
X63463457Y-58975551D01*
X63400049Y-58880654D01*
X63319346Y-58799951D01*
X63224449Y-58736543D01*
X63119005Y-58692866D01*
X63007066Y-58670600D01*
X62892934Y-58670600D01*
X62780995Y-58692866D01*
X62675551Y-58736543D01*
X62580654Y-58799951D01*
X62499951Y-58880654D01*
X62436543Y-58975551D01*
X62392866Y-59080995D01*
X62370600Y-59192934D01*
X60333501Y-59192934D01*
X60333501Y-58209390D01*
X80487056Y-58209390D01*
X80487056Y-58323522D01*
X80509322Y-58435461D01*
X80552999Y-58540905D01*
X80616407Y-58635802D01*
X80697110Y-58716505D01*
X80792007Y-58779913D01*
X80897451Y-58823590D01*
X81009390Y-58845856D01*
X81123522Y-58845856D01*
X81235461Y-58823590D01*
X81340905Y-58779913D01*
X81435802Y-58716505D01*
X81516505Y-58635802D01*
X81579913Y-58540905D01*
X81623590Y-58435461D01*
X81645856Y-58323522D01*
X81645856Y-58209390D01*
X81623590Y-58097451D01*
X81601008Y-58042934D01*
X92870600Y-58042934D01*
X92870600Y-58157066D01*
X92892866Y-58269005D01*
X92936543Y-58374449D01*
X92999951Y-58469346D01*
X93080654Y-58550049D01*
X93175551Y-58613457D01*
X93280995Y-58657134D01*
X93392934Y-58679400D01*
X93507066Y-58679400D01*
X93619005Y-58657134D01*
X93724449Y-58613457D01*
X93819346Y-58550049D01*
X93900049Y-58469346D01*
X93963457Y-58374449D01*
X94007134Y-58269005D01*
X94029400Y-58157066D01*
X94029400Y-58042934D01*
X94007134Y-57930995D01*
X93963457Y-57825551D01*
X93900049Y-57730654D01*
X93819346Y-57649951D01*
X93724449Y-57586543D01*
X93619005Y-57542866D01*
X93507066Y-57520600D01*
X93392934Y-57520600D01*
X93280995Y-57542866D01*
X93175551Y-57586543D01*
X93080654Y-57649951D01*
X92999951Y-57730654D01*
X92936543Y-57825551D01*
X92892866Y-57930995D01*
X92870600Y-58042934D01*
X81601008Y-58042934D01*
X81579913Y-57992007D01*
X81529957Y-57917242D01*
X81599449Y-57888457D01*
X81694346Y-57825049D01*
X81775049Y-57744346D01*
X81838457Y-57649449D01*
X81882134Y-57544005D01*
X81904400Y-57432066D01*
X81904400Y-57317934D01*
X81882134Y-57205995D01*
X81838457Y-57100551D01*
X81775049Y-57005654D01*
X81694346Y-56924951D01*
X81599449Y-56861543D01*
X81554524Y-56842934D01*
X93520600Y-56842934D01*
X93520600Y-56957066D01*
X93542866Y-57069005D01*
X93586543Y-57174449D01*
X93649951Y-57269346D01*
X93730654Y-57350049D01*
X93825551Y-57413457D01*
X93930995Y-57457134D01*
X94042934Y-57479400D01*
X94157066Y-57479400D01*
X94269005Y-57457134D01*
X94374449Y-57413457D01*
X94469346Y-57350049D01*
X94502861Y-57316534D01*
X97171700Y-57316534D01*
X97171700Y-57430666D01*
X97193966Y-57542605D01*
X97237643Y-57648049D01*
X97301051Y-57742946D01*
X97381754Y-57823649D01*
X97476651Y-57887057D01*
X97582095Y-57930734D01*
X97694034Y-57953000D01*
X97808166Y-57953000D01*
X97920105Y-57930734D01*
X98025549Y-57887057D01*
X98120446Y-57823649D01*
X98201149Y-57742946D01*
X98264557Y-57648049D01*
X98308234Y-57542605D01*
X98330500Y-57430666D01*
X98330500Y-57316534D01*
X98308234Y-57204595D01*
X98264557Y-57099151D01*
X98201149Y-57004254D01*
X98120446Y-56923551D01*
X98025549Y-56860143D01*
X97920105Y-56816466D01*
X97808166Y-56794200D01*
X97694034Y-56794200D01*
X97582095Y-56816466D01*
X97476651Y-56860143D01*
X97381754Y-56923551D01*
X97301051Y-57004254D01*
X97237643Y-57099151D01*
X97193966Y-57204595D01*
X97171700Y-57316534D01*
X94502861Y-57316534D01*
X94550049Y-57269346D01*
X94613457Y-57174449D01*
X94657134Y-57069005D01*
X94679400Y-56957066D01*
X94679400Y-56842934D01*
X94657134Y-56730995D01*
X94613457Y-56625551D01*
X94550049Y-56530654D01*
X94469346Y-56449951D01*
X94374449Y-56386543D01*
X94269005Y-56342866D01*
X94157066Y-56320600D01*
X94042934Y-56320600D01*
X93930995Y-56342866D01*
X93825551Y-56386543D01*
X93730654Y-56449951D01*
X93649951Y-56530654D01*
X93586543Y-56625551D01*
X93542866Y-56730995D01*
X93520600Y-56842934D01*
X81554524Y-56842934D01*
X81494005Y-56817866D01*
X81382066Y-56795600D01*
X81267934Y-56795600D01*
X81155995Y-56817866D01*
X81050551Y-56861543D01*
X80955654Y-56924951D01*
X80874951Y-57005654D01*
X80811543Y-57100551D01*
X80767866Y-57205995D01*
X80745600Y-57317934D01*
X80745600Y-57432066D01*
X80767866Y-57544005D01*
X80811543Y-57649449D01*
X80861499Y-57724214D01*
X80792007Y-57752999D01*
X80697110Y-57816407D01*
X80616407Y-57897110D01*
X80552999Y-57992007D01*
X80509322Y-58097451D01*
X80487056Y-58209390D01*
X60333501Y-58209390D01*
X60333501Y-56992934D01*
X63420600Y-56992934D01*
X63420600Y-57107066D01*
X63442866Y-57219005D01*
X63486543Y-57324449D01*
X63549951Y-57419346D01*
X63630654Y-57500049D01*
X63725551Y-57563457D01*
X63830995Y-57607134D01*
X63942934Y-57629400D01*
X64057066Y-57629400D01*
X64169005Y-57607134D01*
X64274449Y-57563457D01*
X64369346Y-57500049D01*
X64450049Y-57419346D01*
X64513457Y-57324449D01*
X64557134Y-57219005D01*
X64579400Y-57107066D01*
X64579400Y-56992934D01*
X64557134Y-56880995D01*
X64513457Y-56775551D01*
X64450049Y-56680654D01*
X64369346Y-56599951D01*
X64274449Y-56536543D01*
X64169005Y-56492866D01*
X64057066Y-56470600D01*
X63942934Y-56470600D01*
X63830995Y-56492866D01*
X63725551Y-56536543D01*
X63630654Y-56599951D01*
X63549951Y-56680654D01*
X63486543Y-56775551D01*
X63442866Y-56880995D01*
X63420600Y-56992934D01*
X60333501Y-56992934D01*
X60333501Y-53787825D01*
X60334497Y-53790230D01*
X60540174Y-54098048D01*
X60801952Y-54359826D01*
X61109770Y-54565503D01*
X61451799Y-54707176D01*
X61814895Y-54779400D01*
X62185105Y-54779400D01*
X62548201Y-54707176D01*
X62824005Y-54592934D01*
X74760600Y-54592934D01*
X74760600Y-54707066D01*
X74782866Y-54819005D01*
X74826543Y-54924449D01*
X74889951Y-55019346D01*
X74970654Y-55100049D01*
X75065551Y-55163457D01*
X75170995Y-55207134D01*
X75282934Y-55229400D01*
X75397066Y-55229400D01*
X75509005Y-55207134D01*
X75614449Y-55163457D01*
X75709346Y-55100049D01*
X75790049Y-55019346D01*
X75853457Y-54924449D01*
X75897134Y-54819005D01*
X75919400Y-54707066D01*
X75919400Y-54592934D01*
X75897134Y-54480995D01*
X75853457Y-54375551D01*
X75790049Y-54280654D01*
X75709346Y-54199951D01*
X75614449Y-54136543D01*
X75509005Y-54092866D01*
X75397066Y-54070600D01*
X75282934Y-54070600D01*
X75170995Y-54092866D01*
X75065551Y-54136543D01*
X74970654Y-54199951D01*
X74889951Y-54280654D01*
X74826543Y-54375551D01*
X74782866Y-54480995D01*
X74760600Y-54592934D01*
X62824005Y-54592934D01*
X62890230Y-54565503D01*
X63198048Y-54359826D01*
X63459826Y-54098048D01*
X63665503Y-53790230D01*
X63705804Y-53692934D01*
X68370600Y-53692934D01*
X68370600Y-53807066D01*
X68392866Y-53919005D01*
X68436543Y-54024449D01*
X68499951Y-54119346D01*
X68580654Y-54200049D01*
X68675551Y-54263457D01*
X68780995Y-54307134D01*
X68892934Y-54329400D01*
X69007066Y-54329400D01*
X69119005Y-54307134D01*
X69224449Y-54263457D01*
X69319346Y-54200049D01*
X69350000Y-54169395D01*
X69380654Y-54200049D01*
X69475551Y-54263457D01*
X69580995Y-54307134D01*
X69692934Y-54329400D01*
X69807066Y-54329400D01*
X69919005Y-54307134D01*
X70024449Y-54263457D01*
X70119346Y-54200049D01*
X70200049Y-54119346D01*
X70263457Y-54024449D01*
X70297222Y-53942934D01*
X76320600Y-53942934D01*
X76320600Y-54057066D01*
X76342866Y-54169005D01*
X76386543Y-54274449D01*
X76449951Y-54369346D01*
X76530654Y-54450049D01*
X76625551Y-54513457D01*
X76730995Y-54557134D01*
X76766323Y-54564161D01*
X76760600Y-54592934D01*
X76760600Y-54707066D01*
X76782866Y-54819005D01*
X76826543Y-54924449D01*
X76889951Y-55019346D01*
X76970654Y-55100049D01*
X77065551Y-55163457D01*
X77170995Y-55207134D01*
X77282934Y-55229400D01*
X77397066Y-55229400D01*
X77509005Y-55207134D01*
X77614449Y-55163457D01*
X77709346Y-55100049D01*
X77790049Y-55019346D01*
X77853457Y-54924449D01*
X77897134Y-54819005D01*
X77919400Y-54707066D01*
X77919400Y-54667045D01*
X77971051Y-54744346D01*
X78051754Y-54825049D01*
X78146651Y-54888457D01*
X78252095Y-54932134D01*
X78364034Y-54954400D01*
X78478166Y-54954400D01*
X78590105Y-54932134D01*
X78695549Y-54888457D01*
X78786470Y-54827706D01*
X78826543Y-54924449D01*
X78889951Y-55019346D01*
X78970654Y-55100049D01*
X79065551Y-55163457D01*
X79170995Y-55207134D01*
X79282934Y-55229400D01*
X79397066Y-55229400D01*
X79509005Y-55207134D01*
X79614449Y-55163457D01*
X79709346Y-55100049D01*
X79790049Y-55019346D01*
X79853457Y-54924449D01*
X79897134Y-54819005D01*
X79919400Y-54707066D01*
X79919400Y-54592934D01*
X79909455Y-54542934D01*
X80710600Y-54542934D01*
X80710600Y-54657066D01*
X80732866Y-54769005D01*
X80776543Y-54874449D01*
X80839951Y-54969346D01*
X80920654Y-55050049D01*
X81015551Y-55113457D01*
X81120995Y-55157134D01*
X81232934Y-55179400D01*
X81347066Y-55179400D01*
X81459005Y-55157134D01*
X81564449Y-55113457D01*
X81659346Y-55050049D01*
X81716461Y-54992934D01*
X82970600Y-54992934D01*
X82970600Y-55107066D01*
X82992866Y-55219005D01*
X83036543Y-55324449D01*
X83099951Y-55419346D01*
X83180654Y-55500049D01*
X83275551Y-55563457D01*
X83380995Y-55607134D01*
X83492934Y-55629400D01*
X83607066Y-55629400D01*
X83719005Y-55607134D01*
X83824449Y-55563457D01*
X83919346Y-55500049D01*
X83926461Y-55492934D01*
X88620600Y-55492934D01*
X88620600Y-55607066D01*
X88642866Y-55719005D01*
X88686543Y-55824449D01*
X88749951Y-55919346D01*
X88830654Y-56000049D01*
X88925551Y-56063457D01*
X89030995Y-56107134D01*
X89142934Y-56129400D01*
X89257066Y-56129400D01*
X89369005Y-56107134D01*
X89474449Y-56063457D01*
X89569346Y-56000049D01*
X89650049Y-55919346D01*
X89713457Y-55824449D01*
X89757134Y-55719005D01*
X89779400Y-55607066D01*
X89779400Y-55492934D01*
X89757134Y-55380995D01*
X89713457Y-55275551D01*
X89650049Y-55180654D01*
X89569346Y-55099951D01*
X89474449Y-55036543D01*
X89369005Y-54992866D01*
X89257066Y-54970600D01*
X89142934Y-54970600D01*
X89030995Y-54992866D01*
X88925551Y-55036543D01*
X88830654Y-55099951D01*
X88749951Y-55180654D01*
X88686543Y-55275551D01*
X88642866Y-55380995D01*
X88620600Y-55492934D01*
X83926461Y-55492934D01*
X84000049Y-55419346D01*
X84063457Y-55324449D01*
X84107134Y-55219005D01*
X84129400Y-55107066D01*
X84129400Y-54992934D01*
X84107134Y-54880995D01*
X84063457Y-54775551D01*
X84000049Y-54680654D01*
X83919346Y-54599951D01*
X83824449Y-54536543D01*
X83719005Y-54492866D01*
X83607066Y-54470600D01*
X83492934Y-54470600D01*
X83380995Y-54492866D01*
X83275551Y-54536543D01*
X83180654Y-54599951D01*
X83099951Y-54680654D01*
X83036543Y-54775551D01*
X82992866Y-54880995D01*
X82970600Y-54992934D01*
X81716461Y-54992934D01*
X81740049Y-54969346D01*
X81803457Y-54874449D01*
X81847134Y-54769005D01*
X81869400Y-54657066D01*
X81869400Y-54542934D01*
X81847134Y-54430995D01*
X81803457Y-54325551D01*
X81740049Y-54230654D01*
X81659346Y-54149951D01*
X81564449Y-54086543D01*
X81459005Y-54042866D01*
X81347066Y-54020600D01*
X81232934Y-54020600D01*
X81120995Y-54042866D01*
X81015551Y-54086543D01*
X80920654Y-54149951D01*
X80839951Y-54230654D01*
X80776543Y-54325551D01*
X80732866Y-54430995D01*
X80710600Y-54542934D01*
X79909455Y-54542934D01*
X79897134Y-54480995D01*
X79853457Y-54375551D01*
X79790049Y-54280654D01*
X79709346Y-54199951D01*
X79614449Y-54136543D01*
X79509005Y-54092866D01*
X79397066Y-54070600D01*
X79282934Y-54070600D01*
X79170995Y-54092866D01*
X79065551Y-54136543D01*
X78974630Y-54197294D01*
X78934557Y-54100551D01*
X78871149Y-54005654D01*
X78790446Y-53924951D01*
X78695549Y-53861543D01*
X78590105Y-53817866D01*
X78478166Y-53795600D01*
X78364034Y-53795600D01*
X78252095Y-53817866D01*
X78146651Y-53861543D01*
X78051754Y-53924951D01*
X77971051Y-54005654D01*
X77907643Y-54100551D01*
X77863966Y-54205995D01*
X77841700Y-54317934D01*
X77841700Y-54357955D01*
X77790049Y-54280654D01*
X77709346Y-54199951D01*
X77614449Y-54136543D01*
X77509005Y-54092866D01*
X77473677Y-54085839D01*
X77479400Y-54057066D01*
X77479400Y-53942934D01*
X77457134Y-53830995D01*
X77413457Y-53725551D01*
X77350049Y-53630654D01*
X77269346Y-53549951D01*
X77174449Y-53486543D01*
X77069005Y-53442866D01*
X76957066Y-53420600D01*
X76842934Y-53420600D01*
X76730995Y-53442866D01*
X76625551Y-53486543D01*
X76530654Y-53549951D01*
X76449951Y-53630654D01*
X76386543Y-53725551D01*
X76342866Y-53830995D01*
X76320600Y-53942934D01*
X70297222Y-53942934D01*
X70307134Y-53919005D01*
X70329400Y-53807066D01*
X70329400Y-53692934D01*
X70307134Y-53580995D01*
X70263457Y-53475551D01*
X70200049Y-53380654D01*
X70119346Y-53299951D01*
X70024449Y-53236543D01*
X69919005Y-53192866D01*
X69807066Y-53170600D01*
X69692934Y-53170600D01*
X69580995Y-53192866D01*
X69475551Y-53236543D01*
X69380654Y-53299951D01*
X69350000Y-53330605D01*
X69319346Y-53299951D01*
X69224449Y-53236543D01*
X69119005Y-53192866D01*
X69007066Y-53170600D01*
X68892934Y-53170600D01*
X68780995Y-53192866D01*
X68675551Y-53236543D01*
X68580654Y-53299951D01*
X68499951Y-53380654D01*
X68436543Y-53475551D01*
X68392866Y-53580995D01*
X68370600Y-53692934D01*
X63705804Y-53692934D01*
X63807176Y-53448201D01*
X63879400Y-53085105D01*
X63879400Y-52714895D01*
X63807176Y-52351799D01*
X63665503Y-52009770D01*
X63459826Y-51701952D01*
X63198048Y-51440174D01*
X62890230Y-51234497D01*
X62863488Y-51223420D01*
X63417912Y-51222702D01*
X64551846Y-51222702D01*
X64453452Y-51303451D01*
X64453452Y-51303451D01*
G37*
X64453452Y-51303451D02*
X64352931Y-51425937D01*
X64278237Y-51565680D01*
X64232240Y-51717310D01*
X64220600Y-51835484D01*
X64220600Y-52764515D01*
X64232239Y-52882689D01*
X64278236Y-53034319D01*
X64352930Y-53174062D01*
X64453451Y-53296549D01*
X64575937Y-53397070D01*
X64715680Y-53471764D01*
X64867310Y-53517761D01*
X65025000Y-53533292D01*
X65182689Y-53517761D01*
X65334319Y-53471764D01*
X65474062Y-53397070D01*
X65596549Y-53296549D01*
X65697070Y-53174063D01*
X65771764Y-53034320D01*
X65817761Y-52882690D01*
X65829400Y-52764516D01*
X65829400Y-51835484D01*
X65817761Y-51717310D01*
X65771764Y-51565680D01*
X65697070Y-51425937D01*
X65596549Y-51303451D01*
X65498155Y-51222702D01*
X71701845Y-51222702D01*
X71603451Y-51303451D01*
X71502930Y-51425938D01*
X71428236Y-51565681D01*
X71382239Y-51717311D01*
X71370600Y-51835485D01*
X71370600Y-52764516D01*
X71382240Y-52882690D01*
X71428237Y-53034320D01*
X71502931Y-53174063D01*
X71603452Y-53296549D01*
X71725938Y-53397070D01*
X71865681Y-53471764D01*
X72017311Y-53517761D01*
X72175000Y-53533292D01*
X72332690Y-53517761D01*
X72484320Y-53471764D01*
X72624063Y-53397070D01*
X72746549Y-53296549D01*
X72847070Y-53174063D01*
X72921764Y-53034320D01*
X72967761Y-52882690D01*
X72979400Y-52764516D01*
X72979400Y-51835484D01*
X72967761Y-51717310D01*
X72921764Y-51565680D01*
X72847070Y-51425937D01*
X72746549Y-51303451D01*
X72648155Y-51222702D01*
X96038246Y-51222702D01*
X96009770Y-51234497D01*
X95701952Y-51440174D01*
X95440174Y-51701952D01*
X95234497Y-52009770D01*
X95092824Y-52351799D01*
X95020600Y-52714895D01*
X95020600Y-53085105D01*
X95092824Y-53448201D01*
X95234497Y-53790230D01*
X95440174Y-54098048D01*
X95701952Y-54359826D01*
X96009770Y-54565503D01*
X96351799Y-54707176D01*
X96714895Y-54779400D01*
X97085105Y-54779400D01*
X97448201Y-54707176D01*
X97790230Y-54565503D01*
X98098048Y-54359826D01*
X98359826Y-54098048D01*
X98553619Y-53808015D01*
X98423889Y-72273000D01*
X80301689Y-72273000D01*
X77660229Y-69695966D01*
X77769198Y-69723208D01*
X77787363Y-69726370D01*
X78503244Y-69797958D01*
X78518827Y-69876297D01*
X78564388Y-69986291D01*
X78630532Y-70085282D01*
X78714718Y-70169468D01*
X78813709Y-70235612D01*
X78923703Y-70281173D01*
X79040472Y-70304400D01*
X79159528Y-70304400D01*
X79276297Y-70281173D01*
X79386291Y-70235612D01*
X79485282Y-70169468D01*
X79569468Y-70085282D01*
X79635612Y-69986291D01*
X79681173Y-69876297D01*
X79704400Y-69759528D01*
X79704400Y-69742934D01*
X84220600Y-69742934D01*
X84220600Y-69857066D01*
X84242866Y-69969005D01*
X84286543Y-70074449D01*
X84349951Y-70169346D01*
X84430654Y-70250049D01*
X84525551Y-70313457D01*
X84630995Y-70357134D01*
X84742934Y-70379400D01*
X84825042Y-70379400D01*
X84842866Y-70469005D01*
X84886543Y-70574449D01*
X84949951Y-70669346D01*
X85030654Y-70750049D01*
X85125551Y-70813457D01*
X85230995Y-70857134D01*
X85342934Y-70879400D01*
X85457066Y-70879400D01*
X85569005Y-70857134D01*
X85674449Y-70813457D01*
X85769346Y-70750049D01*
X85850049Y-70669346D01*
X85913457Y-70574449D01*
X85957134Y-70469005D01*
X85979400Y-70357066D01*
X85979400Y-70242934D01*
X85957134Y-70130995D01*
X85913457Y-70025551D01*
X85850049Y-69930654D01*
X85769346Y-69849951D01*
X85674449Y-69786543D01*
X85569005Y-69742866D01*
X85457066Y-69720600D01*
X85374958Y-69720600D01*
X85357134Y-69630995D01*
X85313457Y-69525551D01*
X85258255Y-69442934D01*
X91570600Y-69442934D01*
X91570600Y-69557066D01*
X91592866Y-69669005D01*
X91636543Y-69774449D01*
X91699951Y-69869346D01*
X91780654Y-69950049D01*
X91875551Y-70013457D01*
X91980995Y-70057134D01*
X92092934Y-70079400D01*
X92207066Y-70079400D01*
X92319005Y-70057134D01*
X92424449Y-70013457D01*
X92519346Y-69950049D01*
X92600049Y-69869346D01*
X92663457Y-69774449D01*
X92707134Y-69669005D01*
X92729400Y-69557066D01*
X92729400Y-69442934D01*
X92707134Y-69330995D01*
X92663457Y-69225551D01*
X92600049Y-69130654D01*
X92519346Y-69049951D01*
X92424449Y-68986543D01*
X92319005Y-68942866D01*
X92207066Y-68920600D01*
X92092934Y-68920600D01*
X91980995Y-68942866D01*
X91875551Y-68986543D01*
X91780654Y-69049951D01*
X91699951Y-69130654D01*
X91636543Y-69225551D01*
X91592866Y-69330995D01*
X91570600Y-69442934D01*
X85258255Y-69442934D01*
X85250049Y-69430654D01*
X85169346Y-69349951D01*
X85074449Y-69286543D01*
X84969005Y-69242866D01*
X84857066Y-69220600D01*
X84742934Y-69220600D01*
X84630995Y-69242866D01*
X84525551Y-69286543D01*
X84430654Y-69349951D01*
X84349951Y-69430654D01*
X84286543Y-69525551D01*
X84242866Y-69630995D01*
X84220600Y-69742934D01*
X79704400Y-69742934D01*
X79704400Y-69640472D01*
X79681173Y-69523703D01*
X79635612Y-69413709D01*
X79569468Y-69314718D01*
X79485282Y-69230532D01*
X79386291Y-69164388D01*
X79276297Y-69118827D01*
X79159528Y-69095600D01*
X79040472Y-69095600D01*
X78927000Y-69118171D01*
X78927000Y-68079400D01*
X78957066Y-68079400D01*
X79069005Y-68057134D01*
X79174449Y-68013457D01*
X79269346Y-67950049D01*
X79350049Y-67869346D01*
X79413457Y-67774449D01*
X79457134Y-67669005D01*
X79477545Y-67566393D01*
X79542934Y-67579400D01*
X79657066Y-67579400D01*
X79769005Y-67557134D01*
X79874449Y-67513457D01*
X79969346Y-67450049D01*
X80050049Y-67369346D01*
X80113457Y-67274449D01*
X80157134Y-67169005D01*
X80179400Y-67057066D01*
X80179400Y-66942934D01*
X80157134Y-66830995D01*
X80113457Y-66725551D01*
X80050049Y-66630654D01*
X79969346Y-66549951D01*
X79874449Y-66486543D01*
X79769170Y-66442934D01*
X83520600Y-66442934D01*
X83520600Y-66557066D01*
X83542866Y-66669005D01*
X83586543Y-66774449D01*
X83649951Y-66869346D01*
X83730654Y-66950049D01*
X83825551Y-67013457D01*
X83930995Y-67057134D01*
X84042934Y-67079400D01*
X84157066Y-67079400D01*
X84241589Y-67062587D01*
X84242866Y-67069005D01*
X84286543Y-67174449D01*
X84349951Y-67269346D01*
X84430654Y-67350049D01*
X84525551Y-67413457D01*
X84630995Y-67457134D01*
X84742934Y-67479400D01*
X84857066Y-67479400D01*
X84969005Y-67457134D01*
X85074449Y-67413457D01*
X85169346Y-67350049D01*
X85250049Y-67269346D01*
X85313457Y-67174449D01*
X85357134Y-67069005D01*
X85379400Y-66957066D01*
X85379400Y-66842934D01*
X85357134Y-66730995D01*
X85313457Y-66625551D01*
X85250049Y-66530654D01*
X85169346Y-66449951D01*
X85074449Y-66386543D01*
X84969005Y-66342866D01*
X84857066Y-66320600D01*
X84742934Y-66320600D01*
X84658411Y-66337413D01*
X84657134Y-66330995D01*
X84613457Y-66225551D01*
X84558255Y-66142934D01*
X93920600Y-66142934D01*
X93920600Y-66257066D01*
X93942866Y-66369005D01*
X93986543Y-66474449D01*
X94049951Y-66569346D01*
X94130654Y-66650049D01*
X94225551Y-66713457D01*
X94330995Y-66757134D01*
X94442934Y-66779400D01*
X94557066Y-66779400D01*
X94669005Y-66757134D01*
X94774449Y-66713457D01*
X94869346Y-66650049D01*
X94950049Y-66569346D01*
X95013457Y-66474449D01*
X95057134Y-66369005D01*
X95079400Y-66257066D01*
X95079400Y-66142934D01*
X95057134Y-66030995D01*
X95013457Y-65925551D01*
X94950049Y-65830654D01*
X94869346Y-65749951D01*
X94774449Y-65686543D01*
X94669005Y-65642866D01*
X94557066Y-65620600D01*
X94442934Y-65620600D01*
X94330995Y-65642866D01*
X94225551Y-65686543D01*
X94130654Y-65749951D01*
X94049951Y-65830654D01*
X93986543Y-65925551D01*
X93942866Y-66030995D01*
X93920600Y-66142934D01*
X84558255Y-66142934D01*
X84550049Y-66130654D01*
X84469346Y-66049951D01*
X84374449Y-65986543D01*
X84269005Y-65942866D01*
X84157066Y-65920600D01*
X84042934Y-65920600D01*
X83930995Y-65942866D01*
X83825551Y-65986543D01*
X83730654Y-66049951D01*
X83649951Y-66130654D01*
X83586543Y-66225551D01*
X83542866Y-66330995D01*
X83520600Y-66442934D01*
X79769170Y-66442934D01*
X79769005Y-66442866D01*
X79762587Y-66441589D01*
X79779400Y-66357066D01*
X79779400Y-66242934D01*
X79757134Y-66130995D01*
X79713457Y-66025551D01*
X79650049Y-65930654D01*
X79569346Y-65849951D01*
X79474449Y-65786543D01*
X79369005Y-65742866D01*
X79257066Y-65720600D01*
X79142934Y-65720600D01*
X79030995Y-65742866D01*
X78925551Y-65786543D01*
X78830654Y-65849951D01*
X78749951Y-65930654D01*
X78686543Y-66025551D01*
X78642866Y-66130995D01*
X78620600Y-66242934D01*
X78620600Y-66357066D01*
X78642866Y-66469005D01*
X78686543Y-66574449D01*
X78749951Y-66669346D01*
X78830654Y-66750049D01*
X78925551Y-66813457D01*
X79030995Y-66857134D01*
X79037413Y-66858411D01*
X79022455Y-66933607D01*
X78957066Y-66920600D01*
X78842934Y-66920600D01*
X78730995Y-66942866D01*
X78625551Y-66986543D01*
X78530654Y-67049951D01*
X78449951Y-67130654D01*
X78386543Y-67225551D01*
X78342866Y-67330995D01*
X78320600Y-67442934D01*
X78320600Y-67473000D01*
X77700000Y-67473000D01*
X77671350Y-67476274D01*
X77647763Y-67484241D01*
X77626183Y-67496656D01*
X76926183Y-67996656D01*
X76910197Y-68010197D01*
X76894403Y-68029443D01*
X76882667Y-68051399D01*
X76875440Y-68075224D01*
X76873000Y-68100000D01*
X76873000Y-68927938D01*
X76326915Y-68395172D01*
X77943514Y-66635931D01*
X77958481Y-66616037D01*
X77969280Y-66593604D01*
X77975495Y-66569496D01*
X77976887Y-66544639D01*
X77973403Y-66519987D01*
X77965176Y-66496489D01*
X77952524Y-66475048D01*
X77935505Y-66456097D01*
X75644201Y-64369706D01*
X75692934Y-64379400D01*
X75807066Y-64379400D01*
X75919005Y-64357134D01*
X76024449Y-64313457D01*
X76119346Y-64250049D01*
X76200049Y-64169346D01*
X76263457Y-64074449D01*
X76297222Y-63992934D01*
X76570600Y-63992934D01*
X76570600Y-64107066D01*
X76592866Y-64219005D01*
X76636543Y-64324449D01*
X76699951Y-64419346D01*
X76780654Y-64500049D01*
X76875551Y-64563457D01*
X76980995Y-64607134D01*
X77092934Y-64629400D01*
X77207066Y-64629400D01*
X77319005Y-64607134D01*
X77424449Y-64563457D01*
X77490869Y-64519077D01*
X77486543Y-64525551D01*
X77442866Y-64630995D01*
X77420600Y-64742934D01*
X77420600Y-64857066D01*
X77442866Y-64969005D01*
X77486543Y-65074449D01*
X77549951Y-65169346D01*
X77630654Y-65250049D01*
X77725551Y-65313457D01*
X77830995Y-65357134D01*
X77942934Y-65379400D01*
X78057066Y-65379400D01*
X78169005Y-65357134D01*
X78274449Y-65313457D01*
X78369346Y-65250049D01*
X78450049Y-65169346D01*
X78513457Y-65074449D01*
X78557134Y-64969005D01*
X78579400Y-64857066D01*
X78579400Y-64742934D01*
X78557134Y-64630995D01*
X78513457Y-64525551D01*
X78450049Y-64430654D01*
X78369346Y-64349951D01*
X78274449Y-64286543D01*
X78169005Y-64242866D01*
X78057066Y-64220600D01*
X77942934Y-64220600D01*
X77830995Y-64242866D01*
X77725551Y-64286543D01*
X77659131Y-64330923D01*
X77663457Y-64324449D01*
X77707134Y-64219005D01*
X77729400Y-64107066D01*
X77729400Y-63992934D01*
X77707134Y-63880995D01*
X77663457Y-63775551D01*
X77600049Y-63680654D01*
X77519346Y-63599951D01*
X77424449Y-63536543D01*
X77319005Y-63492866D01*
X77207066Y-63470600D01*
X77092934Y-63470600D01*
X76980995Y-63492866D01*
X76875551Y-63536543D01*
X76780654Y-63599951D01*
X76699951Y-63680654D01*
X76636543Y-63775551D01*
X76592866Y-63880995D01*
X76570600Y-63992934D01*
X76297222Y-63992934D01*
X76307134Y-63969005D01*
X76329400Y-63857066D01*
X76329400Y-63742934D01*
X76307134Y-63630995D01*
X76285791Y-63579470D01*
X76324449Y-63563457D01*
X76419346Y-63500049D01*
X76500049Y-63419346D01*
X76563457Y-63324449D01*
X76607134Y-63219005D01*
X76622265Y-63142934D01*
X88620600Y-63142934D01*
X88620600Y-63257066D01*
X88642866Y-63369005D01*
X88686543Y-63474449D01*
X88749951Y-63569346D01*
X88830654Y-63650049D01*
X88925551Y-63713457D01*
X89030995Y-63757134D01*
X89142934Y-63779400D01*
X89257066Y-63779400D01*
X89369005Y-63757134D01*
X89474449Y-63713457D01*
X89569346Y-63650049D01*
X89650049Y-63569346D01*
X89713457Y-63474449D01*
X89757134Y-63369005D01*
X89779400Y-63257066D01*
X89779400Y-63142934D01*
X89757134Y-63030995D01*
X89713457Y-62925551D01*
X89650049Y-62830654D01*
X89569346Y-62749951D01*
X89474449Y-62686543D01*
X89369005Y-62642866D01*
X89257066Y-62620600D01*
X89142934Y-62620600D01*
X89030995Y-62642866D01*
X88925551Y-62686543D01*
X88830654Y-62749951D01*
X88749951Y-62830654D01*
X88686543Y-62925551D01*
X88642866Y-63030995D01*
X88620600Y-63142934D01*
X76622265Y-63142934D01*
X76629400Y-63107066D01*
X76629400Y-62992934D01*
X76627845Y-62985118D01*
X76680995Y-63007134D01*
X76792934Y-63029400D01*
X76907066Y-63029400D01*
X77019005Y-63007134D01*
X77124449Y-62963457D01*
X77219346Y-62900049D01*
X77300049Y-62819346D01*
X77363457Y-62724449D01*
X77407134Y-62619005D01*
X77429400Y-62507066D01*
X77429400Y-62492934D01*
X82170600Y-62492934D01*
X82170600Y-62607066D01*
X82192866Y-62719005D01*
X82236543Y-62824449D01*
X82299951Y-62919346D01*
X82380654Y-63000049D01*
X82475551Y-63063457D01*
X82580995Y-63107134D01*
X82692934Y-63129400D01*
X82807066Y-63129400D01*
X82919005Y-63107134D01*
X83024449Y-63063457D01*
X83119346Y-63000049D01*
X83200049Y-62919346D01*
X83263457Y-62824449D01*
X83307134Y-62719005D01*
X83329400Y-62607066D01*
X83329400Y-62492934D01*
X83307134Y-62380995D01*
X83263457Y-62275551D01*
X83200049Y-62180654D01*
X83119346Y-62099951D01*
X83024449Y-62036543D01*
X82919005Y-61992866D01*
X82807066Y-61970600D01*
X82692934Y-61970600D01*
X82580995Y-61992866D01*
X82475551Y-62036543D01*
X82380654Y-62099951D01*
X82299951Y-62180654D01*
X82236543Y-62275551D01*
X82192866Y-62380995D01*
X82170600Y-62492934D01*
X77429400Y-62492934D01*
X77429400Y-62392934D01*
X77407134Y-62280995D01*
X77363457Y-62175551D01*
X77300049Y-62080654D01*
X77219346Y-61999951D01*
X77124449Y-61936543D01*
X77019005Y-61892866D01*
X76907066Y-61870600D01*
X76792934Y-61870600D01*
X76680995Y-61892866D01*
X76575551Y-61936543D01*
X76480654Y-61999951D01*
X76399951Y-62080654D01*
X76336543Y-62175551D01*
X76292866Y-62280995D01*
X76270600Y-62392934D01*
X76270600Y-62507066D01*
X76272155Y-62514882D01*
X76219005Y-62492866D01*
X76107066Y-62470600D01*
X75992934Y-62470600D01*
X75880995Y-62492866D01*
X75775551Y-62536543D01*
X75680654Y-62599951D01*
X75599951Y-62680654D01*
X75536543Y-62775551D01*
X75492866Y-62880995D01*
X75470600Y-62992934D01*
X75470600Y-63107066D01*
X75492866Y-63219005D01*
X75514209Y-63270530D01*
X75475551Y-63286543D01*
X75380654Y-63349951D01*
X75299951Y-63430654D01*
X75236543Y-63525551D01*
X75192866Y-63630995D01*
X75170600Y-63742934D01*
X75170600Y-63857066D01*
X75190371Y-63956463D01*
X74427248Y-63261587D01*
X74519346Y-63200049D01*
X74600049Y-63119346D01*
X74663457Y-63024449D01*
X74707134Y-62919005D01*
X74729400Y-62807066D01*
X74729400Y-62692934D01*
X74707134Y-62580995D01*
X74663457Y-62475551D01*
X74600049Y-62380654D01*
X74519346Y-62299951D01*
X74424449Y-62236543D01*
X74319005Y-62192866D01*
X74207066Y-62170600D01*
X74092934Y-62170600D01*
X73980995Y-62192866D01*
X73875551Y-62236543D01*
X73780654Y-62299951D01*
X73699951Y-62380654D01*
X73636543Y-62475551D01*
X73616679Y-62523507D01*
X71856612Y-60920845D01*
X71874449Y-60913457D01*
X71969346Y-60850049D01*
X72026461Y-60792934D01*
X82720600Y-60792934D01*
X82720600Y-60907066D01*
X82742866Y-61019005D01*
X82786543Y-61124449D01*
X82849951Y-61219346D01*
X82930654Y-61300049D01*
X83025551Y-61363457D01*
X83127970Y-61405881D01*
X83120600Y-61442934D01*
X83120600Y-61557066D01*
X83142866Y-61669005D01*
X83186543Y-61774449D01*
X83249951Y-61869346D01*
X83330654Y-61950049D01*
X83425551Y-62013457D01*
X83530995Y-62057134D01*
X83642934Y-62079400D01*
X83757066Y-62079400D01*
X83869005Y-62057134D01*
X83920600Y-62035762D01*
X83920600Y-62057066D01*
X83942866Y-62169005D01*
X83986543Y-62274449D01*
X84049951Y-62369346D01*
X84130654Y-62450049D01*
X84225551Y-62513457D01*
X84330995Y-62557134D01*
X84442934Y-62579400D01*
X84557066Y-62579400D01*
X84669005Y-62557134D01*
X84774449Y-62513457D01*
X84869346Y-62450049D01*
X84926461Y-62392934D01*
X89680600Y-62392934D01*
X89680600Y-62507066D01*
X89702866Y-62619005D01*
X89746543Y-62724449D01*
X89809951Y-62819346D01*
X89890654Y-62900049D01*
X89985551Y-62963457D01*
X90090995Y-63007134D01*
X90202934Y-63029400D01*
X90317066Y-63029400D01*
X90429005Y-63007134D01*
X90534449Y-62963457D01*
X90629346Y-62900049D01*
X90710049Y-62819346D01*
X90773457Y-62724449D01*
X90817134Y-62619005D01*
X90839400Y-62507066D01*
X90839400Y-62392934D01*
X90817134Y-62280995D01*
X90773457Y-62175551D01*
X90710049Y-62080654D01*
X90629346Y-61999951D01*
X90534449Y-61936543D01*
X90501595Y-61922934D01*
X90740600Y-61922934D01*
X90740600Y-62037066D01*
X90762866Y-62149005D01*
X90806543Y-62254449D01*
X90869951Y-62349346D01*
X90950654Y-62430049D01*
X91045551Y-62493457D01*
X91150995Y-62537134D01*
X91262934Y-62559400D01*
X91377066Y-62559400D01*
X91489005Y-62537134D01*
X91594449Y-62493457D01*
X91689346Y-62430049D01*
X91770049Y-62349346D01*
X91833457Y-62254449D01*
X91877134Y-62149005D01*
X91899400Y-62037066D01*
X91899400Y-61922934D01*
X91877134Y-61810995D01*
X91833457Y-61705551D01*
X91770049Y-61610654D01*
X91689346Y-61529951D01*
X91594449Y-61466543D01*
X91489005Y-61422866D01*
X91377066Y-61400600D01*
X91262934Y-61400600D01*
X91150995Y-61422866D01*
X91045551Y-61466543D01*
X90950654Y-61529951D01*
X90869951Y-61610654D01*
X90806543Y-61705551D01*
X90762866Y-61810995D01*
X90740600Y-61922934D01*
X90501595Y-61922934D01*
X90429005Y-61892866D01*
X90317066Y-61870600D01*
X90202934Y-61870600D01*
X90090995Y-61892866D01*
X89985551Y-61936543D01*
X89890654Y-61999951D01*
X89809951Y-62080654D01*
X89746543Y-62175551D01*
X89702866Y-62280995D01*
X89680600Y-62392934D01*
X84926461Y-62392934D01*
X84950049Y-62369346D01*
X85013457Y-62274449D01*
X85057134Y-62169005D01*
X85079400Y-62057066D01*
X85079400Y-61942934D01*
X85057134Y-61830995D01*
X85013457Y-61725551D01*
X84950049Y-61630654D01*
X84869346Y-61549951D01*
X84774449Y-61486543D01*
X84669170Y-61442934D01*
X87420600Y-61442934D01*
X87420600Y-61557066D01*
X87442866Y-61669005D01*
X87486543Y-61774449D01*
X87549951Y-61869346D01*
X87630654Y-61950049D01*
X87725551Y-62013457D01*
X87830995Y-62057134D01*
X87942934Y-62079400D01*
X88057066Y-62079400D01*
X88169005Y-62057134D01*
X88274449Y-62013457D01*
X88369346Y-61950049D01*
X88450049Y-61869346D01*
X88513457Y-61774449D01*
X88557134Y-61669005D01*
X88579400Y-61557066D01*
X88579400Y-61474958D01*
X88669005Y-61457134D01*
X88774449Y-61413457D01*
X88869346Y-61350049D01*
X88950049Y-61269346D01*
X89013457Y-61174449D01*
X89057134Y-61069005D01*
X89079400Y-60957066D01*
X89079400Y-60842934D01*
X89057134Y-60730995D01*
X89013457Y-60625551D01*
X88950049Y-60530654D01*
X88869346Y-60449951D01*
X88774449Y-60386543D01*
X88669005Y-60342866D01*
X88557066Y-60320600D01*
X88442934Y-60320600D01*
X88330995Y-60342866D01*
X88225551Y-60386543D01*
X88130654Y-60449951D01*
X88049951Y-60530654D01*
X87986543Y-60625551D01*
X87942866Y-60730995D01*
X87920600Y-60842934D01*
X87920600Y-60925042D01*
X87830995Y-60942866D01*
X87725551Y-60986543D01*
X87630654Y-61049951D01*
X87549951Y-61130654D01*
X87486543Y-61225551D01*
X87442866Y-61330995D01*
X87420600Y-61442934D01*
X84669170Y-61442934D01*
X84669005Y-61442866D01*
X84557066Y-61420600D01*
X84442934Y-61420600D01*
X84330995Y-61442866D01*
X84279400Y-61464238D01*
X84279400Y-61442934D01*
X84257134Y-61330995D01*
X84213457Y-61225551D01*
X84150049Y-61130654D01*
X84069346Y-61049951D01*
X83974449Y-60986543D01*
X83872030Y-60944119D01*
X83879400Y-60907066D01*
X83879400Y-60792934D01*
X83857134Y-60680995D01*
X83813457Y-60575551D01*
X83750049Y-60480654D01*
X83669346Y-60399951D01*
X83574449Y-60336543D01*
X83469005Y-60292866D01*
X83357066Y-60270600D01*
X83242934Y-60270600D01*
X83130995Y-60292866D01*
X83025551Y-60336543D01*
X82930654Y-60399951D01*
X82849951Y-60480654D01*
X82786543Y-60575551D01*
X82742866Y-60680995D01*
X82720600Y-60792934D01*
X72026461Y-60792934D01*
X72050049Y-60769346D01*
X72113457Y-60674449D01*
X72157134Y-60569005D01*
X72179400Y-60457066D01*
X72179400Y-60342934D01*
X72157134Y-60230995D01*
X72113457Y-60125551D01*
X72050049Y-60030654D01*
X71969346Y-59949951D01*
X71958845Y-59942934D01*
X76020600Y-59942934D01*
X76020600Y-60057066D01*
X76042866Y-60169005D01*
X76086543Y-60274449D01*
X76149951Y-60369346D01*
X76230654Y-60450049D01*
X76325551Y-60513457D01*
X76430995Y-60557134D01*
X76542934Y-60579400D01*
X76657066Y-60579400D01*
X76769005Y-60557134D01*
X76874449Y-60513457D01*
X76969346Y-60450049D01*
X77050049Y-60369346D01*
X77113457Y-60274449D01*
X77157134Y-60169005D01*
X77164181Y-60133576D01*
X77180654Y-60150049D01*
X77275551Y-60213457D01*
X77380995Y-60257134D01*
X77492934Y-60279400D01*
X77607066Y-60279400D01*
X77719005Y-60257134D01*
X77824449Y-60213457D01*
X77919346Y-60150049D01*
X78000049Y-60069346D01*
X78063457Y-59974449D01*
X78107134Y-59869005D01*
X78129400Y-59757066D01*
X78129400Y-59642934D01*
X88420600Y-59642934D01*
X88420600Y-59757066D01*
X88442866Y-59869005D01*
X88486543Y-59974449D01*
X88549951Y-60069346D01*
X88630654Y-60150049D01*
X88725551Y-60213457D01*
X88830995Y-60257134D01*
X88942934Y-60279400D01*
X89057066Y-60279400D01*
X89169005Y-60257134D01*
X89274449Y-60213457D01*
X89369346Y-60150049D01*
X89450049Y-60069346D01*
X89513457Y-59974449D01*
X89526511Y-59942934D01*
X90270600Y-59942934D01*
X90270600Y-60057066D01*
X90292866Y-60169005D01*
X90336543Y-60274449D01*
X90399951Y-60369346D01*
X90480654Y-60450049D01*
X90575551Y-60513457D01*
X90680995Y-60557134D01*
X90792934Y-60579400D01*
X90907066Y-60579400D01*
X91019005Y-60557134D01*
X91124449Y-60513457D01*
X91219346Y-60450049D01*
X91300049Y-60369346D01*
X91363457Y-60274449D01*
X91407134Y-60169005D01*
X91419048Y-60109112D01*
X91425551Y-60113457D01*
X91530995Y-60157134D01*
X91642934Y-60179400D01*
X91757066Y-60179400D01*
X91869005Y-60157134D01*
X91974449Y-60113457D01*
X92069346Y-60050049D01*
X92150049Y-59969346D01*
X92213457Y-59874449D01*
X92257134Y-59769005D01*
X92279400Y-59657066D01*
X92279400Y-59542934D01*
X92257134Y-59430995D01*
X92239298Y-59387934D01*
X93620600Y-59387934D01*
X93620600Y-59502066D01*
X93642866Y-59614005D01*
X93686543Y-59719449D01*
X93749951Y-59814346D01*
X93830654Y-59895049D01*
X93925551Y-59958457D01*
X94030995Y-60002134D01*
X94142934Y-60024400D01*
X94257066Y-60024400D01*
X94369005Y-60002134D01*
X94474449Y-59958457D01*
X94569346Y-59895049D01*
X94650049Y-59814346D01*
X94713457Y-59719449D01*
X94757134Y-59614005D01*
X94779400Y-59502066D01*
X94779400Y-59387934D01*
X94757134Y-59275995D01*
X94713457Y-59170551D01*
X94650049Y-59075654D01*
X94569346Y-58994951D01*
X94474449Y-58931543D01*
X94369005Y-58887866D01*
X94257066Y-58865600D01*
X94142934Y-58865600D01*
X94030995Y-58887866D01*
X93925551Y-58931543D01*
X93830654Y-58994951D01*
X93749951Y-59075654D01*
X93686543Y-59170551D01*
X93642866Y-59275995D01*
X93620600Y-59387934D01*
X92239298Y-59387934D01*
X92213457Y-59325551D01*
X92150049Y-59230654D01*
X92069346Y-59149951D01*
X91974449Y-59086543D01*
X91869005Y-59042866D01*
X91757066Y-59020600D01*
X91642934Y-59020600D01*
X91530995Y-59042866D01*
X91425551Y-59086543D01*
X91330654Y-59149951D01*
X91249951Y-59230654D01*
X91186543Y-59325551D01*
X91142866Y-59430995D01*
X91130952Y-59490888D01*
X91124449Y-59486543D01*
X91019005Y-59442866D01*
X90907066Y-59420600D01*
X90792934Y-59420600D01*
X90680995Y-59442866D01*
X90575551Y-59486543D01*
X90480654Y-59549951D01*
X90399951Y-59630654D01*
X90336543Y-59725551D01*
X90292866Y-59830995D01*
X90270600Y-59942934D01*
X89526511Y-59942934D01*
X89557134Y-59869005D01*
X89579400Y-59757066D01*
X89579400Y-59729400D01*
X89657066Y-59729400D01*
X89769005Y-59707134D01*
X89874449Y-59663457D01*
X89969346Y-59600049D01*
X90050049Y-59519346D01*
X90113457Y-59424449D01*
X90157134Y-59319005D01*
X90179400Y-59207066D01*
X90179400Y-59092934D01*
X90157134Y-58980995D01*
X90113457Y-58875551D01*
X90050049Y-58780654D01*
X89969346Y-58699951D01*
X89874449Y-58636543D01*
X89769005Y-58592866D01*
X89657066Y-58570600D01*
X89542934Y-58570600D01*
X89430995Y-58592866D01*
X89325551Y-58636543D01*
X89230654Y-58699951D01*
X89149951Y-58780654D01*
X89086543Y-58875551D01*
X89042866Y-58980995D01*
X89020600Y-59092934D01*
X89020600Y-59120600D01*
X88942934Y-59120600D01*
X88830995Y-59142866D01*
X88725551Y-59186543D01*
X88630654Y-59249951D01*
X88549951Y-59330654D01*
X88486543Y-59425551D01*
X88442866Y-59530995D01*
X88420600Y-59642934D01*
X78129400Y-59642934D01*
X78107134Y-59530995D01*
X78063457Y-59425551D01*
X78000049Y-59330654D01*
X77919346Y-59249951D01*
X77824449Y-59186543D01*
X77719005Y-59142866D01*
X77607066Y-59120600D01*
X77492934Y-59120600D01*
X77380995Y-59142866D01*
X77275551Y-59186543D01*
X77180654Y-59249951D01*
X77099951Y-59330654D01*
X77036543Y-59425551D01*
X76992866Y-59530995D01*
X76985819Y-59566424D01*
X76969346Y-59549951D01*
X76874449Y-59486543D01*
X76769005Y-59442866D01*
X76657066Y-59420600D01*
X76542934Y-59420600D01*
X76430995Y-59442866D01*
X76325551Y-59486543D01*
X76230654Y-59549951D01*
X76149951Y-59630654D01*
X76086543Y-59725551D01*
X76042866Y-59830995D01*
X76020600Y-59942934D01*
X71958845Y-59942934D01*
X71874449Y-59886543D01*
X71769005Y-59842866D01*
X71657066Y-59820600D01*
X71542934Y-59820600D01*
X71430995Y-59842866D01*
X71325551Y-59886543D01*
X71230654Y-59949951D01*
X71149951Y-60030654D01*
X71086543Y-60125551D01*
X71042866Y-60230995D01*
X71020600Y-60342934D01*
X71020600Y-60457066D01*
X71042866Y-60569005D01*
X71086543Y-60674449D01*
X71149951Y-60769346D01*
X71195439Y-60814834D01*
X71162095Y-60821466D01*
X71056651Y-60865143D01*
X70961754Y-60928551D01*
X70881051Y-61009254D01*
X70817643Y-61104151D01*
X70801630Y-61142809D01*
X70750105Y-61121466D01*
X70638166Y-61099200D01*
X70524034Y-61099200D01*
X70412095Y-61121466D01*
X70306651Y-61165143D01*
X70211754Y-61228551D01*
X70131051Y-61309254D01*
X70067643Y-61404151D01*
X70023966Y-61509595D01*
X70001700Y-61621534D01*
X70001700Y-61699200D01*
X69974034Y-61699200D01*
X69862095Y-61721466D01*
X69756651Y-61765143D01*
X69674805Y-61819831D01*
X69657134Y-61730995D01*
X69613457Y-61625551D01*
X69550049Y-61530654D01*
X69469346Y-61449951D01*
X69374449Y-61386543D01*
X69269005Y-61342866D01*
X69157066Y-61320600D01*
X69042934Y-61320600D01*
X68930995Y-61342866D01*
X68825551Y-61386543D01*
X68730654Y-61449951D01*
X68649951Y-61530654D01*
X68586543Y-61625551D01*
X68542866Y-61730995D01*
X68520600Y-61842934D01*
X68520600Y-61957066D01*
X68542866Y-62069005D01*
X68576084Y-62149200D01*
X68574034Y-62149200D01*
X68462095Y-62171466D01*
X68356651Y-62215143D01*
X68261754Y-62278551D01*
X68181051Y-62359254D01*
X68117643Y-62454151D01*
X68073966Y-62559595D01*
X68051700Y-62671534D01*
X68051700Y-62785666D01*
X68073966Y-62897605D01*
X68117643Y-63003049D01*
X68181051Y-63097946D01*
X68261754Y-63178649D01*
X68277606Y-63189241D01*
X68267643Y-63204151D01*
X68223966Y-63309595D01*
X68201700Y-63421534D01*
X68201700Y-63535666D01*
X68223966Y-63647605D01*
X68267643Y-63753049D01*
X68283632Y-63776978D01*
X66229398Y-65578383D01*
X66229398Y-65483380D01*
X66232686Y-65449998D01*
X66219568Y-65316813D01*
X66180719Y-65188745D01*
X66117632Y-65070719D01*
X66054005Y-64993189D01*
X66032731Y-64967266D01*
X66006807Y-64945991D01*
X65656810Y-64595994D01*
X65579280Y-64532367D01*
X65461253Y-64469280D01*
X65333184Y-64430431D01*
X65200000Y-64417313D01*
X65066816Y-64430431D01*
X64938747Y-64469280D01*
X64820720Y-64532367D01*
X64717268Y-64617268D01*
X64632367Y-64720720D01*
X64569280Y-64838747D01*
X64530431Y-64966816D01*
X64517313Y-65100000D01*
X64530431Y-65233184D01*
X64569280Y-65361253D01*
X64632367Y-65479280D01*
X64695994Y-65556810D01*
X64870599Y-65731415D01*
X64870599Y-66836163D01*
X64817538Y-66897388D01*
X63279400Y-66881197D01*
X63279400Y-66842934D01*
X63257134Y-66730995D01*
X63213457Y-66625551D01*
X63150049Y-66530654D01*
X63069346Y-66449951D01*
X62974449Y-66386543D01*
X62869005Y-66342866D01*
X62757066Y-66320600D01*
X62642934Y-66320600D01*
X62530995Y-66342866D01*
X62425551Y-66386543D01*
X62330654Y-66449951D01*
X62249951Y-66530654D01*
X62186543Y-66625551D01*
X62142866Y-66730995D01*
X62120600Y-66842934D01*
X62120600Y-66868999D01*
X60333501Y-66850188D01*
X60333501Y-60242934D01*
X61470600Y-60242934D01*
X61470600Y-60357066D01*
X61492866Y-60469005D01*
X61536543Y-60574449D01*
X61599951Y-60669346D01*
X61680654Y-60750049D01*
X61775551Y-60813457D01*
X61880995Y-60857134D01*
X61992934Y-60879400D01*
X62107066Y-60879400D01*
X62219005Y-60857134D01*
X62324449Y-60813457D01*
X62419346Y-60750049D01*
X62500049Y-60669346D01*
X62563457Y-60574449D01*
X62607134Y-60469005D01*
X62629400Y-60357066D01*
X62629400Y-60242934D01*
X62607134Y-60130995D01*
X62563457Y-60025551D01*
X62500049Y-59930654D01*
X62419346Y-59849951D01*
X62324449Y-59786543D01*
X62219005Y-59742866D01*
X62107066Y-59720600D01*
X61992934Y-59720600D01*
X61880995Y-59742866D01*
X61775551Y-59786543D01*
X61680654Y-59849951D01*
X61599951Y-59930654D01*
X61536543Y-60025551D01*
X61492866Y-60130995D01*
X61470600Y-60242934D01*
X60333501Y-60242934D01*
X60333501Y-59192934D01*
X62370600Y-59192934D01*
X62370600Y-59307066D01*
X62392866Y-59419005D01*
X62436543Y-59524449D01*
X62499951Y-59619346D01*
X62580654Y-59700049D01*
X62675551Y-59763457D01*
X62780995Y-59807134D01*
X62892934Y-59829400D01*
X63007066Y-59829400D01*
X63119005Y-59807134D01*
X63224449Y-59763457D01*
X63319346Y-59700049D01*
X63400049Y-59619346D01*
X63463457Y-59524449D01*
X63507134Y-59419005D01*
X63529400Y-59307066D01*
X63529400Y-59292934D01*
X63970600Y-59292934D01*
X63970600Y-59407066D01*
X63992866Y-59519005D01*
X64036543Y-59624449D01*
X64099951Y-59719346D01*
X64180654Y-59800049D01*
X64275551Y-59863457D01*
X64380995Y-59907134D01*
X64492934Y-59929400D01*
X64607066Y-59929400D01*
X64719005Y-59907134D01*
X64824449Y-59863457D01*
X64919346Y-59800049D01*
X65000049Y-59719346D01*
X65063457Y-59624449D01*
X65107134Y-59519005D01*
X65129400Y-59407066D01*
X65129400Y-59292934D01*
X65119455Y-59242934D01*
X72970600Y-59242934D01*
X72970600Y-59357066D01*
X72992866Y-59469005D01*
X73036543Y-59574449D01*
X73099951Y-59669346D01*
X73180654Y-59750049D01*
X73275551Y-59813457D01*
X73380995Y-59857134D01*
X73492934Y-59879400D01*
X73607066Y-59879400D01*
X73719005Y-59857134D01*
X73824449Y-59813457D01*
X73919346Y-59750049D01*
X74000049Y-59669346D01*
X74063457Y-59574449D01*
X74107134Y-59469005D01*
X74129400Y-59357066D01*
X74129400Y-59242934D01*
X74107134Y-59130995D01*
X74063457Y-59025551D01*
X74000049Y-58930654D01*
X73962329Y-58892934D01*
X82720600Y-58892934D01*
X82720600Y-59007066D01*
X82742866Y-59119005D01*
X82786543Y-59224449D01*
X82849951Y-59319346D01*
X82930654Y-59400049D01*
X83025551Y-59463457D01*
X83130995Y-59507134D01*
X83242934Y-59529400D01*
X83357066Y-59529400D01*
X83469005Y-59507134D01*
X83574449Y-59463457D01*
X83669346Y-59400049D01*
X83750049Y-59319346D01*
X83813457Y-59224449D01*
X83857134Y-59119005D01*
X83879400Y-59007066D01*
X83879400Y-58892934D01*
X83869455Y-58842934D01*
X85820600Y-58842934D01*
X85820600Y-58957066D01*
X85842866Y-59069005D01*
X85886543Y-59174449D01*
X85949951Y-59269346D01*
X86030654Y-59350049D01*
X86125551Y-59413457D01*
X86230995Y-59457134D01*
X86342934Y-59479400D01*
X86457066Y-59479400D01*
X86569005Y-59457134D01*
X86674449Y-59413457D01*
X86769346Y-59350049D01*
X86850049Y-59269346D01*
X86913457Y-59174449D01*
X86957134Y-59069005D01*
X86979400Y-58957066D01*
X86979400Y-58842934D01*
X86957134Y-58730995D01*
X86913457Y-58625551D01*
X86850049Y-58530654D01*
X86769346Y-58449951D01*
X86674449Y-58386543D01*
X86569005Y-58342866D01*
X86457066Y-58320600D01*
X86342934Y-58320600D01*
X86230995Y-58342866D01*
X86125551Y-58386543D01*
X86030654Y-58449951D01*
X85949951Y-58530654D01*
X85886543Y-58625551D01*
X85842866Y-58730995D01*
X85820600Y-58842934D01*
X83869455Y-58842934D01*
X83857134Y-58780995D01*
X83813457Y-58675551D01*
X83750049Y-58580654D01*
X83669346Y-58499951D01*
X83574449Y-58436543D01*
X83469005Y-58392866D01*
X83357066Y-58370600D01*
X83242934Y-58370600D01*
X83130995Y-58392866D01*
X83025551Y-58436543D01*
X82930654Y-58499951D01*
X82849951Y-58580654D01*
X82786543Y-58675551D01*
X82742866Y-58780995D01*
X82720600Y-58892934D01*
X73962329Y-58892934D01*
X73919346Y-58849951D01*
X73824449Y-58786543D01*
X73719005Y-58742866D01*
X73607066Y-58720600D01*
X73492934Y-58720600D01*
X73380995Y-58742866D01*
X73275551Y-58786543D01*
X73180654Y-58849951D01*
X73099951Y-58930654D01*
X73036543Y-59025551D01*
X72992866Y-59130995D01*
X72970600Y-59242934D01*
X65119455Y-59242934D01*
X65107134Y-59180995D01*
X65063457Y-59075551D01*
X65000049Y-58980654D01*
X64919346Y-58899951D01*
X64824449Y-58836543D01*
X64719005Y-58792866D01*
X64607066Y-58770600D01*
X64492934Y-58770600D01*
X64380995Y-58792866D01*
X64275551Y-58836543D01*
X64180654Y-58899951D01*
X64099951Y-58980654D01*
X64036543Y-59075551D01*
X63992866Y-59180995D01*
X63970600Y-59292934D01*
X63529400Y-59292934D01*
X63529400Y-59192934D01*
X63507134Y-59080995D01*
X63463457Y-58975551D01*
X63400049Y-58880654D01*
X63319346Y-58799951D01*
X63224449Y-58736543D01*
X63119005Y-58692866D01*
X63007066Y-58670600D01*
X62892934Y-58670600D01*
X62780995Y-58692866D01*
X62675551Y-58736543D01*
X62580654Y-58799951D01*
X62499951Y-58880654D01*
X62436543Y-58975551D01*
X62392866Y-59080995D01*
X62370600Y-59192934D01*
X60333501Y-59192934D01*
X60333501Y-58209390D01*
X80487056Y-58209390D01*
X80487056Y-58323522D01*
X80509322Y-58435461D01*
X80552999Y-58540905D01*
X80616407Y-58635802D01*
X80697110Y-58716505D01*
X80792007Y-58779913D01*
X80897451Y-58823590D01*
X81009390Y-58845856D01*
X81123522Y-58845856D01*
X81235461Y-58823590D01*
X81340905Y-58779913D01*
X81435802Y-58716505D01*
X81516505Y-58635802D01*
X81579913Y-58540905D01*
X81623590Y-58435461D01*
X81645856Y-58323522D01*
X81645856Y-58209390D01*
X81623590Y-58097451D01*
X81601008Y-58042934D01*
X92870600Y-58042934D01*
X92870600Y-58157066D01*
X92892866Y-58269005D01*
X92936543Y-58374449D01*
X92999951Y-58469346D01*
X93080654Y-58550049D01*
X93175551Y-58613457D01*
X93280995Y-58657134D01*
X93392934Y-58679400D01*
X93507066Y-58679400D01*
X93619005Y-58657134D01*
X93724449Y-58613457D01*
X93819346Y-58550049D01*
X93900049Y-58469346D01*
X93963457Y-58374449D01*
X94007134Y-58269005D01*
X94029400Y-58157066D01*
X94029400Y-58042934D01*
X94007134Y-57930995D01*
X93963457Y-57825551D01*
X93900049Y-57730654D01*
X93819346Y-57649951D01*
X93724449Y-57586543D01*
X93619005Y-57542866D01*
X93507066Y-57520600D01*
X93392934Y-57520600D01*
X93280995Y-57542866D01*
X93175551Y-57586543D01*
X93080654Y-57649951D01*
X92999951Y-57730654D01*
X92936543Y-57825551D01*
X92892866Y-57930995D01*
X92870600Y-58042934D01*
X81601008Y-58042934D01*
X81579913Y-57992007D01*
X81529957Y-57917242D01*
X81599449Y-57888457D01*
X81694346Y-57825049D01*
X81775049Y-57744346D01*
X81838457Y-57649449D01*
X81882134Y-57544005D01*
X81904400Y-57432066D01*
X81904400Y-57317934D01*
X81882134Y-57205995D01*
X81838457Y-57100551D01*
X81775049Y-57005654D01*
X81694346Y-56924951D01*
X81599449Y-56861543D01*
X81554524Y-56842934D01*
X93520600Y-56842934D01*
X93520600Y-56957066D01*
X93542866Y-57069005D01*
X93586543Y-57174449D01*
X93649951Y-57269346D01*
X93730654Y-57350049D01*
X93825551Y-57413457D01*
X93930995Y-57457134D01*
X94042934Y-57479400D01*
X94157066Y-57479400D01*
X94269005Y-57457134D01*
X94374449Y-57413457D01*
X94469346Y-57350049D01*
X94502861Y-57316534D01*
X97171700Y-57316534D01*
X97171700Y-57430666D01*
X97193966Y-57542605D01*
X97237643Y-57648049D01*
X97301051Y-57742946D01*
X97381754Y-57823649D01*
X97476651Y-57887057D01*
X97582095Y-57930734D01*
X97694034Y-57953000D01*
X97808166Y-57953000D01*
X97920105Y-57930734D01*
X98025549Y-57887057D01*
X98120446Y-57823649D01*
X98201149Y-57742946D01*
X98264557Y-57648049D01*
X98308234Y-57542605D01*
X98330500Y-57430666D01*
X98330500Y-57316534D01*
X98308234Y-57204595D01*
X98264557Y-57099151D01*
X98201149Y-57004254D01*
X98120446Y-56923551D01*
X98025549Y-56860143D01*
X97920105Y-56816466D01*
X97808166Y-56794200D01*
X97694034Y-56794200D01*
X97582095Y-56816466D01*
X97476651Y-56860143D01*
X97381754Y-56923551D01*
X97301051Y-57004254D01*
X97237643Y-57099151D01*
X97193966Y-57204595D01*
X97171700Y-57316534D01*
X94502861Y-57316534D01*
X94550049Y-57269346D01*
X94613457Y-57174449D01*
X94657134Y-57069005D01*
X94679400Y-56957066D01*
X94679400Y-56842934D01*
X94657134Y-56730995D01*
X94613457Y-56625551D01*
X94550049Y-56530654D01*
X94469346Y-56449951D01*
X94374449Y-56386543D01*
X94269005Y-56342866D01*
X94157066Y-56320600D01*
X94042934Y-56320600D01*
X93930995Y-56342866D01*
X93825551Y-56386543D01*
X93730654Y-56449951D01*
X93649951Y-56530654D01*
X93586543Y-56625551D01*
X93542866Y-56730995D01*
X93520600Y-56842934D01*
X81554524Y-56842934D01*
X81494005Y-56817866D01*
X81382066Y-56795600D01*
X81267934Y-56795600D01*
X81155995Y-56817866D01*
X81050551Y-56861543D01*
X80955654Y-56924951D01*
X80874951Y-57005654D01*
X80811543Y-57100551D01*
X80767866Y-57205995D01*
X80745600Y-57317934D01*
X80745600Y-57432066D01*
X80767866Y-57544005D01*
X80811543Y-57649449D01*
X80861499Y-57724214D01*
X80792007Y-57752999D01*
X80697110Y-57816407D01*
X80616407Y-57897110D01*
X80552999Y-57992007D01*
X80509322Y-58097451D01*
X80487056Y-58209390D01*
X60333501Y-58209390D01*
X60333501Y-56992934D01*
X63420600Y-56992934D01*
X63420600Y-57107066D01*
X63442866Y-57219005D01*
X63486543Y-57324449D01*
X63549951Y-57419346D01*
X63630654Y-57500049D01*
X63725551Y-57563457D01*
X63830995Y-57607134D01*
X63942934Y-57629400D01*
X64057066Y-57629400D01*
X64169005Y-57607134D01*
X64274449Y-57563457D01*
X64369346Y-57500049D01*
X64450049Y-57419346D01*
X64513457Y-57324449D01*
X64557134Y-57219005D01*
X64579400Y-57107066D01*
X64579400Y-56992934D01*
X64557134Y-56880995D01*
X64513457Y-56775551D01*
X64450049Y-56680654D01*
X64369346Y-56599951D01*
X64274449Y-56536543D01*
X64169005Y-56492866D01*
X64057066Y-56470600D01*
X63942934Y-56470600D01*
X63830995Y-56492866D01*
X63725551Y-56536543D01*
X63630654Y-56599951D01*
X63549951Y-56680654D01*
X63486543Y-56775551D01*
X63442866Y-56880995D01*
X63420600Y-56992934D01*
X60333501Y-56992934D01*
X60333501Y-53787825D01*
X60334497Y-53790230D01*
X60540174Y-54098048D01*
X60801952Y-54359826D01*
X61109770Y-54565503D01*
X61451799Y-54707176D01*
X61814895Y-54779400D01*
X62185105Y-54779400D01*
X62548201Y-54707176D01*
X62824005Y-54592934D01*
X74760600Y-54592934D01*
X74760600Y-54707066D01*
X74782866Y-54819005D01*
X74826543Y-54924449D01*
X74889951Y-55019346D01*
X74970654Y-55100049D01*
X75065551Y-55163457D01*
X75170995Y-55207134D01*
X75282934Y-55229400D01*
X75397066Y-55229400D01*
X75509005Y-55207134D01*
X75614449Y-55163457D01*
X75709346Y-55100049D01*
X75790049Y-55019346D01*
X75853457Y-54924449D01*
X75897134Y-54819005D01*
X75919400Y-54707066D01*
X75919400Y-54592934D01*
X75897134Y-54480995D01*
X75853457Y-54375551D01*
X75790049Y-54280654D01*
X75709346Y-54199951D01*
X75614449Y-54136543D01*
X75509005Y-54092866D01*
X75397066Y-54070600D01*
X75282934Y-54070600D01*
X75170995Y-54092866D01*
X75065551Y-54136543D01*
X74970654Y-54199951D01*
X74889951Y-54280654D01*
X74826543Y-54375551D01*
X74782866Y-54480995D01*
X74760600Y-54592934D01*
X62824005Y-54592934D01*
X62890230Y-54565503D01*
X63198048Y-54359826D01*
X63459826Y-54098048D01*
X63665503Y-53790230D01*
X63705804Y-53692934D01*
X68370600Y-53692934D01*
X68370600Y-53807066D01*
X68392866Y-53919005D01*
X68436543Y-54024449D01*
X68499951Y-54119346D01*
X68580654Y-54200049D01*
X68675551Y-54263457D01*
X68780995Y-54307134D01*
X68892934Y-54329400D01*
X69007066Y-54329400D01*
X69119005Y-54307134D01*
X69224449Y-54263457D01*
X69319346Y-54200049D01*
X69350000Y-54169395D01*
X69380654Y-54200049D01*
X69475551Y-54263457D01*
X69580995Y-54307134D01*
X69692934Y-54329400D01*
X69807066Y-54329400D01*
X69919005Y-54307134D01*
X70024449Y-54263457D01*
X70119346Y-54200049D01*
X70200049Y-54119346D01*
X70263457Y-54024449D01*
X70297222Y-53942934D01*
X76320600Y-53942934D01*
X76320600Y-54057066D01*
X76342866Y-54169005D01*
X76386543Y-54274449D01*
X76449951Y-54369346D01*
X76530654Y-54450049D01*
X76625551Y-54513457D01*
X76730995Y-54557134D01*
X76766323Y-54564161D01*
X76760600Y-54592934D01*
X76760600Y-54707066D01*
X76782866Y-54819005D01*
X76826543Y-54924449D01*
X76889951Y-55019346D01*
X76970654Y-55100049D01*
X77065551Y-55163457D01*
X77170995Y-55207134D01*
X77282934Y-55229400D01*
X77397066Y-55229400D01*
X77509005Y-55207134D01*
X77614449Y-55163457D01*
X77709346Y-55100049D01*
X77790049Y-55019346D01*
X77853457Y-54924449D01*
X77897134Y-54819005D01*
X77919400Y-54707066D01*
X77919400Y-54667045D01*
X77971051Y-54744346D01*
X78051754Y-54825049D01*
X78146651Y-54888457D01*
X78252095Y-54932134D01*
X78364034Y-54954400D01*
X78478166Y-54954400D01*
X78590105Y-54932134D01*
X78695549Y-54888457D01*
X78786470Y-54827706D01*
X78826543Y-54924449D01*
X78889951Y-55019346D01*
X78970654Y-55100049D01*
X79065551Y-55163457D01*
X79170995Y-55207134D01*
X79282934Y-55229400D01*
X79397066Y-55229400D01*
X79509005Y-55207134D01*
X79614449Y-55163457D01*
X79709346Y-55100049D01*
X79790049Y-55019346D01*
X79853457Y-54924449D01*
X79897134Y-54819005D01*
X79919400Y-54707066D01*
X79919400Y-54592934D01*
X79909455Y-54542934D01*
X80710600Y-54542934D01*
X80710600Y-54657066D01*
X80732866Y-54769005D01*
X80776543Y-54874449D01*
X80839951Y-54969346D01*
X80920654Y-55050049D01*
X81015551Y-55113457D01*
X81120995Y-55157134D01*
X81232934Y-55179400D01*
X81347066Y-55179400D01*
X81459005Y-55157134D01*
X81564449Y-55113457D01*
X81659346Y-55050049D01*
X81716461Y-54992934D01*
X82970600Y-54992934D01*
X82970600Y-55107066D01*
X82992866Y-55219005D01*
X83036543Y-55324449D01*
X83099951Y-55419346D01*
X83180654Y-55500049D01*
X83275551Y-55563457D01*
X83380995Y-55607134D01*
X83492934Y-55629400D01*
X83607066Y-55629400D01*
X83719005Y-55607134D01*
X83824449Y-55563457D01*
X83919346Y-55500049D01*
X83926461Y-55492934D01*
X88620600Y-55492934D01*
X88620600Y-55607066D01*
X88642866Y-55719005D01*
X88686543Y-55824449D01*
X88749951Y-55919346D01*
X88830654Y-56000049D01*
X88925551Y-56063457D01*
X89030995Y-56107134D01*
X89142934Y-56129400D01*
X89257066Y-56129400D01*
X89369005Y-56107134D01*
X89474449Y-56063457D01*
X89569346Y-56000049D01*
X89650049Y-55919346D01*
X89713457Y-55824449D01*
X89757134Y-55719005D01*
X89779400Y-55607066D01*
X89779400Y-55492934D01*
X89757134Y-55380995D01*
X89713457Y-55275551D01*
X89650049Y-55180654D01*
X89569346Y-55099951D01*
X89474449Y-55036543D01*
X89369005Y-54992866D01*
X89257066Y-54970600D01*
X89142934Y-54970600D01*
X89030995Y-54992866D01*
X88925551Y-55036543D01*
X88830654Y-55099951D01*
X88749951Y-55180654D01*
X88686543Y-55275551D01*
X88642866Y-55380995D01*
X88620600Y-55492934D01*
X83926461Y-55492934D01*
X84000049Y-55419346D01*
X84063457Y-55324449D01*
X84107134Y-55219005D01*
X84129400Y-55107066D01*
X84129400Y-54992934D01*
X84107134Y-54880995D01*
X84063457Y-54775551D01*
X84000049Y-54680654D01*
X83919346Y-54599951D01*
X83824449Y-54536543D01*
X83719005Y-54492866D01*
X83607066Y-54470600D01*
X83492934Y-54470600D01*
X83380995Y-54492866D01*
X83275551Y-54536543D01*
X83180654Y-54599951D01*
X83099951Y-54680654D01*
X83036543Y-54775551D01*
X82992866Y-54880995D01*
X82970600Y-54992934D01*
X81716461Y-54992934D01*
X81740049Y-54969346D01*
X81803457Y-54874449D01*
X81847134Y-54769005D01*
X81869400Y-54657066D01*
X81869400Y-54542934D01*
X81847134Y-54430995D01*
X81803457Y-54325551D01*
X81740049Y-54230654D01*
X81659346Y-54149951D01*
X81564449Y-54086543D01*
X81459005Y-54042866D01*
X81347066Y-54020600D01*
X81232934Y-54020600D01*
X81120995Y-54042866D01*
X81015551Y-54086543D01*
X80920654Y-54149951D01*
X80839951Y-54230654D01*
X80776543Y-54325551D01*
X80732866Y-54430995D01*
X80710600Y-54542934D01*
X79909455Y-54542934D01*
X79897134Y-54480995D01*
X79853457Y-54375551D01*
X79790049Y-54280654D01*
X79709346Y-54199951D01*
X79614449Y-54136543D01*
X79509005Y-54092866D01*
X79397066Y-54070600D01*
X79282934Y-54070600D01*
X79170995Y-54092866D01*
X79065551Y-54136543D01*
X78974630Y-54197294D01*
X78934557Y-54100551D01*
X78871149Y-54005654D01*
X78790446Y-53924951D01*
X78695549Y-53861543D01*
X78590105Y-53817866D01*
X78478166Y-53795600D01*
X78364034Y-53795600D01*
X78252095Y-53817866D01*
X78146651Y-53861543D01*
X78051754Y-53924951D01*
X77971051Y-54005654D01*
X77907643Y-54100551D01*
X77863966Y-54205995D01*
X77841700Y-54317934D01*
X77841700Y-54357955D01*
X77790049Y-54280654D01*
X77709346Y-54199951D01*
X77614449Y-54136543D01*
X77509005Y-54092866D01*
X77473677Y-54085839D01*
X77479400Y-54057066D01*
X77479400Y-53942934D01*
X77457134Y-53830995D01*
X77413457Y-53725551D01*
X77350049Y-53630654D01*
X77269346Y-53549951D01*
X77174449Y-53486543D01*
X77069005Y-53442866D01*
X76957066Y-53420600D01*
X76842934Y-53420600D01*
X76730995Y-53442866D01*
X76625551Y-53486543D01*
X76530654Y-53549951D01*
X76449951Y-53630654D01*
X76386543Y-53725551D01*
X76342866Y-53830995D01*
X76320600Y-53942934D01*
X70297222Y-53942934D01*
X70307134Y-53919005D01*
X70329400Y-53807066D01*
X70329400Y-53692934D01*
X70307134Y-53580995D01*
X70263457Y-53475551D01*
X70200049Y-53380654D01*
X70119346Y-53299951D01*
X70024449Y-53236543D01*
X69919005Y-53192866D01*
X69807066Y-53170600D01*
X69692934Y-53170600D01*
X69580995Y-53192866D01*
X69475551Y-53236543D01*
X69380654Y-53299951D01*
X69350000Y-53330605D01*
X69319346Y-53299951D01*
X69224449Y-53236543D01*
X69119005Y-53192866D01*
X69007066Y-53170600D01*
X68892934Y-53170600D01*
X68780995Y-53192866D01*
X68675551Y-53236543D01*
X68580654Y-53299951D01*
X68499951Y-53380654D01*
X68436543Y-53475551D01*
X68392866Y-53580995D01*
X68370600Y-53692934D01*
X63705804Y-53692934D01*
X63807176Y-53448201D01*
X63879400Y-53085105D01*
X63879400Y-52714895D01*
X63807176Y-52351799D01*
X63665503Y-52009770D01*
X63459826Y-51701952D01*
X63198048Y-51440174D01*
X62890230Y-51234497D01*
X62863488Y-51223420D01*
X63417912Y-51222702D01*
X64551846Y-51222702D01*
X64453452Y-51303451D01*
M02*
